<svg width="46" height="47" viewBox="0 0 46 47" fill="none" xmlns="http://www.w3.org/2000/svg">
<path fill-rule="evenodd" clip-rule="evenodd" d="M7.48456 25.3355H6.71189C5.83304 25.3355 4.99015 25.6834 4.36777 26.3042C3.74702 26.9266 3.39746 27.7695 3.39746 28.6483V35.3522C3.39746 37.711 5.24173 39.6385 7.56456 39.7757L7.09247 41.3962C7.03366 41.5938 7.07287 41.8078 7.19702 41.9712C7.32116 42.1345 7.51392 42.2325 7.71975 42.2325H15.9738C16.2646 42.2325 16.5211 42.0414 16.6011 41.7621L18.4421 35.45L18.5058 35.4925C19.7473 36.3191 21.4069 36.123 22.4197 35.0253L23.0339 34.3621C23.2185 34.7101 23.4554 35.0253 23.7314 35.3047C22.0751 35.7049 20.8467 37.1979 20.8467 38.9768V42.6669C20.8467 43.0279 21.1407 43.3203 21.5001 43.3203H41.9483C42.3093 43.3203 42.6017 43.0279 42.6017 42.6669V38.9768C42.6017 37.1979 41.3733 35.7049 39.7169 35.3047C40.4471 34.5696 40.898 33.5584 40.898 32.4427C40.898 30.2015 39.0766 28.3801 36.8354 28.3801C34.5942 28.3801 32.7745 30.2015 32.7745 32.4427C32.7745 33.5584 33.2253 34.5695 33.9539 35.3047C33.0326 35.5285 32.2419 36.0904 31.7242 36.8516C31.2047 36.0904 30.4157 35.5284 29.4928 35.3047C30.223 34.5696 30.6738 33.5584 30.6738 32.4427C30.6738 30.5854 29.4258 29.0188 27.722 28.5353C27.7514 28.3425 27.7596 28.1481 27.7498 27.9521C27.7073 27.1615 27.3496 26.4232 26.7534 25.9021C26.7534 25.9021 26.7534 25.9005 26.7517 25.8988C25.6818 24.9628 24.0711 25.0183 23.0681 26.0246L20.7567 28.3442L18.8096 26.4804C18.0418 25.7453 17.0176 25.3353 15.9525 25.3353H14.3746C15.5246 24.3568 16.2548 22.8997 16.2548 21.2743C16.2548 18.3357 13.8682 15.9492 10.9296 15.9492C7.99095 15.9492 5.60284 18.3358 5.60284 21.2743C5.60284 22.8997 6.33456 24.357 7.48456 25.3355ZM32.3777 42.0139V38.9771C32.3777 37.6115 33.4836 36.504 34.8492 36.504H38.8219C40.1875 36.504 41.2951 37.6115 41.2951 38.9771V42.0139H32.3777ZM31.0709 38.9771V42.0139H22.1535V38.9771C22.1535 37.6115 23.2611 36.504 24.6267 36.504H28.5978C29.9634 36.504 31.0709 37.6115 31.0709 38.9771ZM11.4197 31.2278L8.5904 40.9259H15.4837L18.3113 31.2278H11.4197ZM26.4236 28.3871C26.4448 28.2662 26.453 28.1453 26.4465 28.0212C26.422 27.5834 26.2243 27.1734 25.8943 26.8859C25.8927 26.8843 25.8911 26.8843 25.8911 26.8843C25.3406 26.4008 24.5107 26.4302 23.9945 26.948C22.7939 28.1519 21.2306 29.7201 21.2306 29.7201C20.979 29.9733 20.5723 29.9765 20.3158 29.7315L17.9064 27.4266C17.3804 26.9235 16.6812 26.6425 15.9527 26.6425H6.71171C6.1792 26.6425 5.66789 26.8516 5.29219 27.2306C4.91648 27.6063 4.70414 28.1176 4.70414 28.6485V35.3523C4.70414 37.0773 6.10246 38.4757 7.82579 38.4757H7.9434L8.68337 35.9404H7.37982C7.01717 35.9404 6.72641 35.648 6.72641 35.287V30.7849C6.72641 30.4255 7.01881 30.1315 7.37982 30.1315C7.73919 30.1315 8.03323 30.4255 8.03323 30.7849V34.6334H9.06563L10.3022 30.391C10.3839 30.1117 10.6387 29.9205 10.9295 29.9205H19.1835C19.3894 29.9205 19.5838 30.0169 19.7063 30.1819C19.8304 30.3469 19.868 30.5592 19.8108 30.7569L18.8258 34.135L19.2309 34.4045C19.9382 34.875 20.8824 34.7639 21.4606 34.1399L22.5796 32.9279C22.56 32.7694 22.5518 32.6077 22.5518 32.4427C22.5518 30.2636 24.2703 28.4847 26.4233 28.3866L26.4236 28.3871ZM36.8355 29.6874C38.3579 29.6874 39.5912 30.9223 39.5912 32.4431C39.5912 33.9639 38.3579 35.1972 36.8355 35.1972C35.3163 35.1972 34.0814 33.9639 34.0814 32.4431C34.0814 30.9223 35.3163 29.6874 36.8355 29.6874ZM26.613 29.6874C28.1322 29.6874 29.3671 30.9223 29.3671 32.4431C29.3671 33.9639 28.1322 35.1972 26.613 35.1972C25.0922 35.1972 23.8589 33.9639 23.8589 32.4431C23.8589 30.9223 25.0922 29.6874 26.613 29.6874ZM10.9295 17.2561C13.1479 17.2561 14.948 19.0563 14.948 21.2746C14.948 23.4929 13.1479 25.2931 10.9295 25.2931C8.71121 25.2931 6.90944 23.4929 6.90944 21.2746C6.90944 19.0563 8.71121 17.2561 10.9295 17.2561Z" fill="url(#paint0_linear_6368_542)"/>
<path fill-rule="evenodd" clip-rule="evenodd" d="M25.5122 9.24463H23.302C22.7809 9.24463 22.2827 9.45209 21.9152 9.81963C21.5476 10.1872 21.3418 10.687 21.3418 11.2049V21.7033C21.3418 22.2228 21.5476 22.7226 21.9152 23.0885C22.2827 23.4577 22.7809 23.6635 23.302 23.6635H37.3747C37.8941 23.6635 38.3924 23.4577 38.7615 23.0885C39.1291 22.7226 39.3349 22.2228 39.3349 21.7033V11.2049C39.3349 10.687 39.1291 10.1872 38.7615 9.81963C38.3924 9.45209 37.8941 9.24463 37.3747 9.24463H35.1629V7.51474C35.1629 7.15373 34.8705 6.86133 34.5095 6.86133H26.1655C25.8061 6.86133 25.5121 7.15373 25.5121 7.51474L25.5122 9.24463ZM22.6486 16.071V21.7035C22.6486 21.8767 22.7156 22.0433 22.8397 22.1658C22.9623 22.2883 23.1272 22.3569 23.302 22.3569H37.3747C37.5478 22.3569 37.7145 22.2883 37.837 22.1658C37.9595 22.0433 38.0281 21.8767 38.0281 21.7035V16.071C37.9758 16.1282 37.9236 16.1837 37.868 16.2376C36.9304 17.1769 35.6579 17.7045 34.3298 17.7045H32.778V18.8545C32.778 19.2139 32.4872 19.508 32.1246 19.508H28.5504C28.1894 19.508 27.897 19.2139 27.897 18.8545V17.7045H26.3468C25.0188 17.7045 23.7462 17.1769 22.807 16.2376C22.7531 16.1837 22.6993 16.1282 22.6486 16.071ZM31.4714 15.9011V18.2011H29.2041V15.9011H31.4714ZM37.3749 10.5513H23.3022C23.1274 10.5513 22.9625 10.6216 22.8399 10.7441C22.7158 10.8666 22.6488 11.0332 22.6488 11.2048V12.6994C22.6488 13.6796 23.0376 14.6205 23.7302 15.3131C24.4245 16.0073 25.3654 16.3978 26.3471 16.3978H27.8973V15.2478C27.8973 14.8867 28.1897 14.5943 28.5507 14.5943H32.1249C32.4875 14.5943 32.7783 14.8867 32.7783 15.2478V16.3978H34.3301C35.3119 16.3978 36.2511 16.0073 36.9454 15.3131C37.6396 14.6205 38.0284 13.6796 38.0284 12.6994V11.2048C38.0284 11.0332 37.9598 10.8666 37.8372 10.7441C37.7147 10.6216 37.548 10.5513 37.3749 10.5513ZM33.8563 9.24453H26.8191V8.16804H33.8563V9.24453Z" fill="url(#paint1_linear_6368_542)"/>
<defs>
<linearGradient id="paint0_linear_6368_542" x1="22.9996" y1="15.9492" x2="22.9996" y2="43.3203" gradientUnits="userSpaceOnUse">
<stop stop-color="#B89405"/>
<stop offset="0.385" stop-color="#B7A24E"/>
<stop offset="0.965" stop-color="#524202"/>
</linearGradient>
<linearGradient id="paint1_linear_6368_542" x1="30.3384" y1="6.86133" x2="30.3384" y2="23.6635" gradientUnits="userSpaceOnUse">
<stop stop-color="#B89405"/>
<stop offset="0.385" stop-color="#B7A24E"/>
<stop offset="0.965" stop-color="#524202"/>
</linearGradient>
</defs>
</svg>
