<svg width="49" height="44" viewBox="0 0 49 44" fill="none" xmlns="http://www.w3.org/2000/svg">
<path d="M7.69124 18.7038C8.60074 18.7038 9.33804 17.9665 9.33804 17.057C9.33804 16.1475 8.60074 15.4102 7.69124 15.4102C6.78173 15.4102 6.04443 16.1475 6.04443 17.057C6.04443 17.9665 6.78173 18.7038 7.69124 18.7038Z" fill="url(#paint0_linear_6371_568)"/>
<path d="M47.3313 20.9332L32.3289 11.3866C32.0426 11.2068 31.6791 11.195 31.3805 11.3582C31.0814 11.5225 30.8959 11.8361 30.8959 12.1771V16.025H27.4533V3.25955C27.4533 2.08905 26.5012 1.13672 25.3305 1.13672H4.87381C3.7033 1.13672 2.75098 2.08905 2.75098 3.25955V40.184C2.75098 41.3548 3.7033 42.3068 4.87381 42.3068H25.3305C26.5012 42.3068 27.4533 41.3548 27.4533 40.184V28.1149H30.8959V31.2665C30.8959 31.6074 31.0814 31.9216 31.3779 32.0834C31.5156 32.1601 31.6722 32.2008 31.8303 32.2008C32.0072 32.2008 32.1804 32.151 32.331 32.0556L47.3307 22.5103C47.6009 22.3388 47.7628 22.045 47.7639 21.7223C47.7639 21.4007 47.602 21.1056 47.3313 20.9332ZM4.39778 3.25955C4.39778 2.99715 4.6114 2.78352 4.87381 2.78352H25.3305C25.5931 2.78352 25.8065 2.99715 25.8065 3.25955V16.025H17.2098C16.6947 16.025 16.2755 16.4442 16.2755 16.9593V27.1806C16.2755 27.6957 16.6947 28.1149 17.2098 28.1149H25.8065V40.184C25.8065 40.4467 25.5931 40.66 25.3305 40.66H4.87381C4.6114 40.66 4.39778 40.4467 4.39778 40.184V3.25955ZM31.6084 26.4681H17.9223V17.6718H31.6084C32.1235 17.6718 32.5427 17.2526 32.5427 16.7371V13.4749L45.5028 21.7218L32.5427 29.9692V27.4025C32.5427 26.8873 32.1235 26.4681 31.6084 26.4681Z" fill="url(#paint1_linear_6371_568)"/>
<defs>
<linearGradient id="paint0_linear_6371_568" x1="7.69124" y1="15.4102" x2="7.69124" y2="18.7038" gradientUnits="userSpaceOnUse">
<stop stop-color="#B89405"/>
<stop offset="0.385" stop-color="#B7A24E"/>
<stop offset="0.965" stop-color="#524202"/>
</linearGradient>
<linearGradient id="paint1_linear_6371_568" x1="25.2574" y1="1.13672" x2="25.2574" y2="42.3068" gradientUnits="userSpaceOnUse">
<stop stop-color="#B89405"/>
<stop offset="0.385" stop-color="#B7A24E"/>
<stop offset="0.965" stop-color="#524202"/>
</linearGradient>
</defs>
</svg>
