<svg width="48" height="48" viewBox="0 0 48 48" fill="none" xmlns="http://www.w3.org/2000/svg">
<path d="M15.6742 30.0518L13.0942 33.1268C12.9784 33.2645 12.8086 33.3429 12.6291 33.3429H12.6272C12.4477 33.3429 12.2779 33.2645 12.1641 33.1287L10.6763 31.379C10.4602 31.1246 10.493 30.746 10.7496 30.5318C11.0063 30.3176 11.3884 30.3501 11.6045 30.6045L12.6233 31.8035L14.7402 29.2812C14.9544 29.0249 15.3365 28.9905 15.5951 29.2028C15.8537 29.4169 15.8884 29.7956 15.6742 30.0518ZM18.2117 32.8228H26.0425C26.3783 32.8228 26.6484 32.5531 26.6484 32.2223C26.6484 31.8896 26.3764 31.6218 26.0425 31.6218H18.2117C17.8759 31.6218 17.6057 31.8914 17.6057 32.2223C17.6038 32.5531 17.8759 32.8228 18.2117 32.8228ZM15.595 36.0259C15.3364 35.8136 14.9544 35.848 14.7402 36.1043L12.6233 38.6247L11.6044 37.4257C11.3883 37.1713 11.0062 37.1388 10.7496 37.353C10.4929 37.5672 10.4601 37.9458 10.6762 38.2001L12.164 39.9499C12.2798 40.0857 12.4496 40.1641 12.6271 40.1641H12.6291C12.8085 40.1641 12.9783 40.0837 13.0941 39.948L15.6741 36.8749C15.8883 36.6168 15.8536 36.2381 15.595 36.0259ZM33.0588 36.4064H18.2117C17.876 36.4064 17.6058 36.676 17.6058 37.0069C17.6058 37.3396 17.8779 37.6074 18.2117 37.6074H33.0588C33.3946 37.6074 33.6647 37.3377 33.6647 37.0069C33.6647 36.676 33.3946 36.4064 33.0588 36.4064ZM26.0406 38.4411H18.2097C17.874 38.4411 17.6038 38.7107 17.6038 39.0415C17.6038 39.3743 17.8759 39.642 18.2097 39.642H26.0406C26.3763 39.642 26.6465 39.3724 26.6465 39.0415C26.6484 38.7107 26.3764 38.4411 26.0406 38.4411ZM47.6663 38.2269C47.6238 38.726 47.3884 39.1754 47.0044 39.4947L46.5046 39.9154C46.1515 40.2099 45.7193 40.3533 45.2928 40.3533C44.7564 40.3533 44.2257 40.1296 43.8533 39.6955L39.4459 34.5151C38.8341 34.7981 38.1935 35.0142 37.5374 35.1653V44.4647C37.5374 44.7974 37.2653 45.0652 36.9315 45.0652L7.27242 45.0633C6.93665 45.0633 6.66648 44.7936 6.66648 44.4628L6.66455 7.10796C6.66455 6.77522 6.93663 6.50748 7.27049 6.50748H13.1308V4.38868C13.1308 4.05594 13.4029 3.7882 13.7367 3.7882H18.5879C18.914 2.18763 20.3304 1.00391 22.0362 1.00391C23.7401 1.00391 25.1546 2.18763 25.4788 3.78629H30.33C30.6658 3.78629 30.9359 4.05592 30.9359 4.38677V6.50557H36.9256C37.2614 6.50557 37.5316 6.7752 37.5316 7.10605V16.2752C39.5828 16.7399 41.4199 17.8471 42.8015 19.4688C44.4862 21.448 45.2928 23.9569 45.0709 26.5349C44.903 28.4969 44.1562 30.3193 42.9289 31.8146L47.2263 36.8648C47.5544 37.2453 47.7087 37.7297 47.6663 38.2269ZM36.0554 17.2626C35.8084 17.2415 35.5633 17.232 35.3182 17.232C33.3017 17.232 31.3701 17.93 29.8112 19.2341C26.2027 22.2498 25.7434 27.6156 28.7865 31.1937C30.2608 32.9263 32.3294 33.9857 34.6083 34.1769C35.3473 34.24 36.0806 34.2075 36.7927 34.0851C36.8158 34.0794 36.839 34.0756 36.8621 34.0737C38.3209 33.8136 39.693 33.1787 40.8565 32.2073C42.6048 30.7463 43.6738 28.6963 43.8688 26.438C44.0617 24.1795 43.3555 21.9804 41.8812 20.2477C40.4012 18.5132 38.3343 17.4538 36.0554 17.2626ZM25.3628 13.853C25.3628 13.8166 25.3319 13.786 25.2972 13.786H18.8501C18.8134 13.786 18.7825 13.8166 18.7825 13.853V15.0596H25.3626L25.3628 13.853ZM15.3401 16.2625V17.9415C15.3401 18.867 16.1004 19.6205 17.0344 19.6205H19.9694V18.6949C19.9694 18.3622 20.2415 18.0944 20.5753 18.0944H23.6223C23.9581 18.0944 24.2283 18.3641 24.2283 18.6949V19.6205H27.1633C27.4026 19.6205 27.638 19.5707 27.8522 19.4751C28.1571 19.1156 28.4928 18.7752 28.8575 18.4559V16.2625L15.3401 16.2625ZM21.1831 21.1484H23.0163V19.2973H21.1831V21.1484ZM15.3401 26.0094H25.5634C25.5113 24.21 25.9609 22.4067 26.8948 20.8232H24.23V21.7487C24.23 22.0815 23.9579 22.3492 23.624 22.3492H20.5771C20.2413 22.3492 19.9711 22.0796 19.9711 21.7487V20.8232H17.0361C16.4051 20.8232 15.8185 20.6224 15.3419 20.282L15.338 26.0092L15.3401 26.0094ZM14.3444 9.8735H29.724V4.98949H24.9403C24.6123 4.98949 24.3441 4.73325 24.3344 4.40816C24.292 3.17284 23.2827 2.20711 22.0362 2.20711C20.7877 2.20711 19.7766 3.17475 19.736 4.40816C19.7245 4.73134 19.4562 4.98949 19.1301 4.98949H14.3445L14.3444 9.8735ZM36.3213 35.3603C35.9991 35.3928 35.673 35.41 35.3468 35.41C35.067 35.41 34.7872 35.3985 34.5055 35.3755C31.9024 35.1575 29.5423 33.9471 27.8578 31.9679C27.5375 31.5911 27.2519 31.1991 26.9991 30.7918H18.2114C17.8756 30.7918 17.6054 30.5222 17.6054 30.1914C17.6054 29.8586 17.8775 29.5909 18.2114 29.5909H26.3663C26.0305 28.8241 25.799 28.0247 25.6735 27.2158L14.7325 27.212C14.3967 27.212 14.1266 26.9423 14.1266 26.6115V15.6599C14.1266 15.3271 14.3987 15.0594 14.7325 15.0594H17.5691V13.8527C17.5691 13.1528 18.1442 12.583 18.8505 12.583H25.2976C26.0019 12.583 26.577 13.1528 26.577 13.8527V15.0594H29.4676C29.8034 15.0594 30.0736 15.329 30.0736 15.6599V17.5473C31.8739 16.4038 33.9908 15.8817 36.1557 16.0634C36.2097 16.0672 36.2656 16.073 36.3197 16.0787L36.3216 7.71038H30.938V10.4755C30.938 10.8083 30.6659 11.076 30.3321 11.076H13.7388C13.403 11.076 13.1328 10.8064 13.1328 10.4755V7.71038H7.87817V43.8624H36.3215L36.3213 35.3603ZM46.3035 37.6455L42.1026 32.7079C41.9521 32.8513 41.7977 32.9909 41.6357 33.1248C41.2825 33.4193 40.914 33.6851 40.5299 33.926L44.7772 38.9169C45.0145 39.1942 45.439 39.2305 45.7208 38.9953L46.2206 38.5746C46.3576 38.4599 46.4406 38.3012 46.456 38.1233C46.4714 37.9493 46.4174 37.7774 46.3035 37.6455ZM41.0874 20.9074C42.3842 22.4296 43.0055 24.3629 42.8357 26.3497C42.6659 28.3365 41.7262 30.1379 40.1882 31.4248C38.7776 32.6027 37.0544 33.1803 35.3389 33.1803C33.1931 33.1803 31.0628 32.2796 29.575 30.5317C26.8966 27.3879 27.2999 22.6701 30.4742 20.0163C33.6504 17.3601 38.4109 17.7617 41.0874 20.9074ZM31.2559 20.9342C28.593 23.162 28.2553 27.1186 30.5014 29.7558C32.7476 32.3947 36.7421 32.7313 39.4047 30.5054C40.6957 29.4269 41.4849 27.9161 41.6258 26.2486C41.7686 24.583 41.2476 22.9614 40.1592 21.684C37.915 19.045 33.9205 18.7082 31.2559 20.9342Z" fill="url(#paint0_linear_7258_622)"/>
<defs>
<linearGradient id="paint0_linear_7258_622" x1="27.1689" y1="1.00391" x2="27.1689" y2="45.0652" gradientUnits="userSpaceOnUse">
<stop stop-color="#B89405"/>
<stop offset="0.385" stop-color="#B7A24E"/>
<stop offset="0.965" stop-color="#524202"/>
</linearGradient>
</defs>
</svg>
