<svg width="42" height="45" viewBox="0 0 42 45" fill="none" xmlns="http://www.w3.org/2000/svg">
<path d="M9.67416 29.0518L7.09417 32.1268C6.97839 32.2645 6.80858 32.3429 6.62911 32.3429H6.62718C6.44772 32.3429 6.27791 32.2645 6.16406 32.1287L4.67629 30.379C4.46017 30.1246 4.49297 29.746 4.74962 29.5318C5.00627 29.3176 5.38836 29.3501 5.60448 29.6045L6.62335 30.8035L8.74022 28.2812C8.95441 28.0249 9.33648 27.9905 9.59508 28.2028C9.85366 28.4169 9.88835 28.7956 9.67416 29.0518ZM12.2117 31.8228H20.0425C20.3783 31.8228 20.6484 31.5531 20.6484 31.2223C20.6484 30.8896 20.3764 30.6218 20.0425 30.6218H12.2117C11.8759 30.6218 11.6057 30.8914 11.6057 31.2223C11.6038 31.5531 11.8759 31.8228 12.2117 31.8228ZM9.59502 35.0259C9.33645 34.8136 8.95436 34.848 8.74016 35.1043L6.62329 37.6247L5.60442 36.4257C5.3883 36.1713 5.00624 36.1388 4.74956 36.353C4.49288 36.5672 4.46011 36.9458 4.67623 37.2001L6.164 38.9499C6.27978 39.0857 6.44959 39.1641 6.62712 39.1641H6.62905C6.80851 39.1641 6.97832 39.0837 7.0941 38.948L9.6741 35.8749C9.88829 35.6168 9.8536 35.2381 9.59502 35.0259ZM27.0588 35.4064H12.2117C11.876 35.4064 11.6058 35.676 11.6058 36.0069C11.6058 36.3396 11.8779 36.6074 12.2117 36.6074H27.0588C27.3946 36.6074 27.6647 36.3377 27.6647 36.0069C27.6647 35.676 27.3946 35.4064 27.0588 35.4064ZM20.0406 37.4411H12.2097C11.874 37.4411 11.6038 37.7107 11.6038 38.0415C11.6038 38.3743 11.8759 38.642 12.2097 38.642H20.0406C20.3763 38.642 20.6465 38.3724 20.6465 38.0415C20.6484 37.7107 20.3764 37.4411 20.0406 37.4411ZM41.6663 37.2269C41.6238 37.726 41.3884 38.1754 41.0044 38.4947L40.5046 38.9154C40.1515 39.2099 39.7193 39.3533 39.2928 39.3533C38.7564 39.3533 38.2257 39.1296 37.8533 38.6955L33.4459 33.5151C32.8341 33.7981 32.1935 34.0142 31.5374 34.1653V43.4647C31.5374 43.7974 31.2653 44.0652 30.9315 44.0652L1.27242 44.0633C0.936652 44.0633 0.66648 43.7936 0.66648 43.4628L0.664551 6.10796C0.664551 5.77522 0.936635 5.50748 1.27049 5.50748H7.13077V3.38868C7.13077 3.05594 7.40285 2.7882 7.7367 2.7882H12.5879C12.914 1.18763 14.3304 0.00390625 16.0362 0.00390625C17.7401 0.00390625 19.1546 1.18763 19.4788 2.78629H24.33C24.6658 2.78629 24.9359 3.05592 24.9359 3.38677V5.50557H30.9256C31.2614 5.50557 31.5316 5.7752 31.5316 6.10605V15.2752C33.5828 15.7399 35.4199 16.8471 36.8015 18.4688C38.4862 20.448 39.2928 22.9569 39.0709 25.5349C38.903 27.4969 38.1562 29.3193 36.9289 30.8146L41.2263 35.8648C41.5544 36.2453 41.7087 36.7297 41.6663 37.2269ZM30.0554 16.2626C29.8084 16.2415 29.5633 16.232 29.3182 16.232C27.3017 16.232 25.3701 16.93 23.8112 18.2341C20.2027 21.2498 19.7434 26.6156 22.7865 30.1937C24.2608 31.9263 26.3294 32.9857 28.6083 33.1769C29.3473 33.24 30.0806 33.2075 30.7927 33.0851C30.8158 33.0794 30.839 33.0756 30.8621 33.0737C32.3209 32.8136 33.693 32.1787 34.8565 31.2073C36.6048 29.7463 37.6738 27.6963 37.8688 25.438C38.0617 23.1795 37.3555 20.9804 35.8812 19.2477C34.4012 17.5132 32.3343 16.4538 30.0554 16.2626ZM19.3628 12.853C19.3628 12.8166 19.3319 12.786 19.2972 12.786H12.8501C12.8134 12.786 12.7825 12.8166 12.7825 12.853V14.0596H19.3626L19.3628 12.853ZM9.34012 15.2625V16.9415C9.34012 17.867 10.1004 18.6205 11.0344 18.6205H13.9694V17.6949C13.9694 17.3622 14.2415 17.0944 14.5753 17.0944H17.6223C17.9581 17.0944 18.2283 17.3641 18.2283 17.6949V18.6205H21.1633C21.4026 18.6205 21.638 18.5707 21.8522 18.4751C22.1571 18.1156 22.4928 17.7752 22.8575 17.4559V15.2625L9.34012 15.2625ZM15.1831 20.1484H17.0163V18.2973H15.1831V20.1484ZM9.34012 25.0094H19.5634C19.5113 23.21 19.9609 21.4067 20.8948 19.8232H18.23V20.7487C18.23 21.0815 17.9579 21.3492 17.624 21.3492H14.5771C14.2413 21.3492 13.9711 21.0796 13.9711 20.7487V19.8232H11.0361C10.4051 19.8232 9.81851 19.6224 9.34185 19.282L9.33799 25.0092L9.34012 25.0094ZM8.34442 8.8735H23.724V3.98949H18.9403C18.6123 3.98949 18.3441 3.73325 18.3344 3.40816C18.292 2.17284 17.2827 1.20711 16.0362 1.20711C14.7877 1.20711 13.7766 2.17475 13.736 3.40816C13.7245 3.73134 13.4562 3.98949 13.1301 3.98949H8.34452L8.34442 8.8735ZM30.3213 34.3603C29.9991 34.3928 29.673 34.41 29.3468 34.41C29.067 34.41 28.7872 34.3985 28.5055 34.3755C25.9024 34.1575 23.5423 32.9471 21.8578 30.9679C21.5375 30.5911 21.2519 30.1991 20.9991 29.7918H12.2114C11.8756 29.7918 11.6054 29.5222 11.6054 29.1914C11.6054 28.8586 11.8775 28.5909 12.2114 28.5909H20.3663C20.0305 27.8241 19.799 27.0247 19.6735 26.2158L8.7325 26.212C8.39674 26.212 8.12657 25.9423 8.12657 25.6115V14.6599C8.12657 14.3271 8.39865 14.0594 8.7325 14.0594H11.5691V12.8527C11.5691 12.1528 12.1442 11.583 12.8505 11.583H19.2976C20.0019 11.583 20.577 12.1528 20.577 12.8527V14.0594H23.4676C23.8034 14.0594 24.0736 14.329 24.0736 14.6599V16.5473C25.8739 15.4038 27.9908 14.8817 30.1557 15.0634C30.2097 15.0672 30.2656 15.073 30.3197 15.0787L30.3216 6.71038H24.938V9.47554C24.938 9.80828 24.6659 10.076 24.3321 10.076H7.73875C7.40299 10.076 7.13281 9.80638 7.13281 9.47554V6.71038H1.87817V42.8624H30.3215L30.3213 34.3603ZM40.3035 36.6455L36.1026 31.7079C35.9521 31.8513 35.7977 31.9909 35.6357 32.1248C35.2825 32.4193 34.914 32.6851 34.5299 32.926L38.7772 37.9169C39.0145 38.1942 39.439 38.2305 39.7208 37.9953L40.2206 37.5746C40.3576 37.4599 40.4406 37.3012 40.456 37.1233C40.4714 36.9493 40.4174 36.7774 40.3035 36.6455ZM35.0874 19.9074C36.3842 21.4296 37.0055 23.3629 36.8357 25.3497C36.6659 27.3365 35.7262 29.1379 34.1882 30.4248C32.7776 31.6027 31.0544 32.1803 29.3389 32.1803C27.1931 32.1803 25.0628 31.2796 23.575 29.5317C20.8966 26.3879 21.2999 21.6701 24.4742 19.0163C27.6504 16.3601 32.4109 16.7617 35.0874 19.9074ZM25.2559 19.9342C22.593 22.162 22.2553 26.1186 24.5014 28.7558C26.7476 31.3947 30.7421 31.7313 33.4047 29.5054C34.6957 28.4269 35.4849 26.9161 35.6258 25.2486C35.7686 23.583 35.2476 21.9614 34.1592 20.684C31.915 18.045 27.9205 17.7082 25.2559 19.9342Z" fill="url(#paint0_linear_6360_627)"/>
<defs>
<linearGradient id="paint0_linear_6360_627" x1="21.1689" y1="0.00390625" x2="21.1689" y2="44.0652" gradientUnits="userSpaceOnUse">
<stop stop-color="#B89405"/>
<stop offset="0.385" stop-color="#B7A24E"/>
<stop offset="0.965" stop-color="#524202"/>
</linearGradient>
</defs>
</svg>
