<svg width="45" height="51" viewBox="0 0 45 51" fill="none" xmlns="http://www.w3.org/2000/svg">
<path d="M16.2662 18.0363C16.2662 19.6097 16.8902 21.04 17.9102 22.0888C16.0622 22.8338 14.4122 24.0674 13.1822 25.6408C12.4262 26.6122 11.8322 27.6909 11.4242 28.8411C11.0042 30.0389 10.7942 31.2905 10.7942 32.5658C10.7942 32.7744 10.8782 32.9591 11.0222 33.0903C11.0822 33.1558 11.1602 33.2094 11.2502 33.2512C14.8802 34.9139 18.5702 35.7542 22.2062 35.7542H22.2122C25.8482 35.7542 29.5262 34.9079 33.1442 33.2452C33.4742 33.0962 33.6362 32.7327 33.5462 32.393C33.5282 31.1713 33.3182 29.9734 32.9162 28.8291C32.5082 27.673 31.9202 26.5943 31.1582 25.6288C29.9282 24.0555 28.2782 22.8219 26.4302 22.0769C27.4502 21.0221 28.0742 19.5918 28.0742 18.0244C28.0742 14.7883 25.4282 12.1602 22.1702 12.1602C18.9122 12.1602 16.2662 14.8062 16.2662 18.0363ZM32.0642 32.1367C31.1102 32.5539 30.1502 32.9115 29.1962 33.2094L27.4982 29.3595C27.3362 28.9901 26.8982 28.8232 26.5262 28.9841C26.1542 29.145 25.9862 29.5801 26.1482 29.9496L27.7622 33.6087C24.0482 34.5206 20.3102 34.5146 16.5902 33.5968L18.1982 29.9496C18.3602 29.5801 18.1922 29.145 17.8202 28.9841C17.4482 28.8232 17.0102 28.9901 16.8482 29.3595L15.1562 33.1916C14.1962 32.8936 13.2362 32.536 12.2822 32.1129C12.4742 27.965 15.2942 24.3594 19.2962 23.1556C20.1482 23.6324 21.1262 23.9006 22.1702 23.9006C23.2142 23.9006 24.1922 23.6324 25.0442 23.1556C29.0582 24.3654 31.8782 27.9829 32.0642 32.1367ZM26.5982 18.0363C26.5982 20.4619 24.6122 22.4345 22.1702 22.4345C19.7282 22.4345 17.7422 20.4619 17.7422 18.0363C17.7422 15.6108 19.7282 13.6381 22.1702 13.6381C24.6122 13.6381 26.5982 15.6108 26.5982 18.0363Z" fill="#303030"/>
<path d="M43.998 12.3989L22.548 0.0983333C22.32 -0.0327778 22.038 -0.0327778 21.81 0.0983333L0.366 12.3989C0.138 12.5301 0 12.7684 0 13.0307V16.3084C0 22.9117 1.758 29.4195 5.076 35.1348C8.4 40.85 13.194 45.6177 18.954 48.9193L21.816 50.5582C21.93 50.6238 22.056 50.6536 22.182 50.6536C22.308 50.6536 22.434 50.6238 22.548 50.5582L25.41 48.9193C31.164 45.6177 35.964 40.856 39.288 35.1348C42.612 29.4195 44.364 22.9057 44.364 16.3084V13.0307C44.364 12.7744 44.226 12.5301 43.998 12.3989ZM42.888 16.3144C42.888 22.6554 41.202 28.913 38.004 34.4077C34.806 39.9025 30.198 44.4794 24.666 47.6559L22.182 49.0803L19.692 47.6499C14.16 44.4794 9.552 39.8965 6.354 34.4018C3.156 28.907 1.47 22.6494 1.47 16.3084V13.4538L22.182 1.58227L42.888 13.4597V16.3144Z" fill="#303030"/>
<path d="M21.8161 2.6374L2.58011 13.6686C2.35211 13.7997 2.21411 14.0381 2.21411 14.3003V16.3147C2.21411 22.5305 3.87011 28.663 6.99611 34.0445C10.1221 39.426 14.6461 43.9136 20.0641 47.0245L21.8161 48.0316C21.9301 48.0972 22.0561 48.127 22.1821 48.127C22.3081 48.127 22.4341 48.0972 22.5481 48.0316L24.3001 47.0245C29.7181 43.9195 34.2361 39.426 37.3681 34.0445C40.4941 28.663 42.1501 22.5305 42.1501 16.3147V14.3003C42.1501 14.0381 42.0121 13.7997 41.7841 13.6686L22.5481 2.6374C22.3201 2.50628 22.0441 2.50628 21.8161 2.6374ZM40.6801 14.7235V16.3147C40.6801 28.4186 34.1221 39.7001 23.5681 45.7551L22.1821 46.5477L20.7961 45.7551C10.2421 39.7001 3.68411 28.4186 3.68411 16.3147V14.7235L22.1821 4.11538L40.6801 14.7235Z" fill="#303030"/>
</svg>
