<svg width="58" height="49" viewBox="0 0 58 49" fill="none" xmlns="http://www.w3.org/2000/svg">
<path d="M25.375 16.0293H27.1875C27.4279 16.0293 27.6584 15.9328 27.8283 15.761C27.9983 15.5892 28.0938 15.3562 28.0938 15.1133C28.0938 14.8703 27.9983 14.6374 27.8283 14.4656C27.6584 14.2938 27.4279 14.1973 27.1875 14.1973H25.375C25.1346 14.1973 24.9041 14.2938 24.7342 14.4656C24.5642 14.6374 24.4688 14.8703 24.4688 15.1133C24.4688 15.3562 24.5642 15.5892 24.7342 15.761C24.9041 15.9328 25.1346 16.0293 25.375 16.0293Z" fill="#303030"/>
<path d="M25.375 20.6094H27.1875C27.4279 20.6094 27.6584 20.5129 27.8283 20.3411C27.9983 20.1693 28.0938 19.9363 28.0938 19.6934C28.0938 19.4504 27.9983 19.2174 27.8283 19.0456C27.6584 18.8739 27.4279 18.7773 27.1875 18.7773H25.375C25.1346 18.7773 24.9041 18.8739 24.7342 19.0456C24.5642 19.2174 24.4688 19.4504 24.4688 19.6934C24.4688 19.9363 24.5642 20.1693 24.7342 20.3411C24.9041 20.5129 25.1346 20.6094 25.375 20.6094Z" fill="#303030"/>
<path d="M20.8438 14.1973H19.0312C18.7909 14.1973 18.5604 14.2938 18.3904 14.4656C18.2205 14.6374 18.125 14.8703 18.125 15.1133C18.125 15.3562 18.2205 15.5892 18.3904 15.761C18.5604 15.9328 18.7909 16.0293 19.0312 16.0293H20.8438C21.0841 16.0293 21.3146 15.9328 21.4846 15.761C21.6545 15.5892 21.75 15.3562 21.75 15.1133C21.75 14.8703 21.6545 14.6374 21.4846 14.4656C21.3146 14.2938 21.0841 14.1973 20.8438 14.1973Z" fill="#303030"/>
<path d="M8.15625 14.1973H6.34375C6.1034 14.1973 5.87289 14.2938 5.70293 14.4656C5.53298 14.6374 5.4375 14.8703 5.4375 15.1133C5.4375 15.3562 5.53298 15.5892 5.70293 15.761C5.87289 15.9328 6.1034 16.0293 6.34375 16.0293H8.15625C8.3966 16.0293 8.62711 15.9328 8.79707 15.761C8.96702 15.5892 9.0625 15.3562 9.0625 15.1133C9.0625 14.8703 8.96702 14.6374 8.79707 14.4656C8.62711 14.2938 8.3966 14.1973 8.15625 14.1973Z" fill="#303030"/>
<path d="M8.15625 18.7773H6.34375C6.1034 18.7773 5.87289 18.8739 5.70293 19.0456C5.53298 19.2174 5.4375 19.4504 5.4375 19.6934C5.4375 19.9363 5.53298 20.1693 5.70293 20.3411C5.87289 20.5129 6.1034 20.6094 6.34375 20.6094H8.15625C8.3966 20.6094 8.62711 20.5129 8.79707 20.3411C8.96702 20.1693 9.0625 19.9363 9.0625 19.6934C9.0625 19.4504 8.96702 19.2174 8.79707 19.0456C8.62711 18.8739 8.3966 18.7773 8.15625 18.7773Z" fill="#303030"/>
<path d="M8.15625 23.3574H6.34375C6.1034 23.3574 5.87289 23.4539 5.70293 23.6257C5.53298 23.7975 5.4375 24.0305 5.4375 24.2735C5.4375 24.5164 5.53298 24.7494 5.70293 24.9212C5.87289 25.093 6.1034 25.1895 6.34375 25.1895H8.15625C8.3966 25.1895 8.62711 25.093 8.79707 24.9212C8.96702 24.7494 9.0625 24.5164 9.0625 24.2735C9.0625 24.0305 8.96702 23.7975 8.79707 23.6257C8.62711 23.4539 8.3966 23.3574 8.15625 23.3574Z" fill="#303030"/>
<path d="M19.8946 18.7914L19.8667 18.7632C19.7826 18.678 19.6827 18.6103 19.5727 18.5642C19.4627 18.518 19.3448 18.4942 19.2257 18.4941C19.1066 18.494 18.9887 18.5177 18.8786 18.5637C18.7686 18.6097 18.6686 18.6772 18.5843 18.7623C18.5001 18.8474 18.4333 18.9484 18.3877 19.0596C18.3421 19.1708 18.3186 19.29 18.3186 19.4104C18.3186 19.5308 18.3421 19.65 18.3877 19.7612C18.4333 19.8724 18.5001 19.9734 18.5844 20.0585L19.253 20.7348C19.423 20.9066 19.6535 21.0032 19.8939 21.0032C20.1342 21.0033 20.3648 20.9069 20.5349 20.7353L20.5369 20.7328L22.5417 18.7064C22.7109 18.5345 22.8057 18.3017 22.8054 18.0592C22.805 17.8167 22.7096 17.5843 22.54 17.4128C22.3703 17.2413 22.1403 17.1449 21.9004 17.1445C21.6605 17.1442 21.4303 17.2401 21.2602 17.4111L19.8946 18.7914Z" fill="#303030"/>
<path d="M12.6875 16.0293H14.5C14.7404 16.0293 14.9709 15.9328 15.1408 15.761C15.3108 15.5892 15.4062 15.3562 15.4062 15.1133C15.4062 14.8703 15.3108 14.6374 15.1408 14.4656C14.9709 14.2938 14.7404 14.1973 14.5 14.1973H12.6875C12.4471 14.1973 12.2166 14.2938 12.0467 14.4656C11.8767 14.6374 11.7812 14.8703 11.7812 15.1133C11.7812 15.3562 11.8767 15.5892 12.0467 15.761C12.2166 15.9328 12.4471 16.0293 12.6875 16.0293Z" fill="#303030"/>
<path d="M12.6875 20.6094H14.5C14.7404 20.6094 14.9709 20.5129 15.1408 20.3411C15.3108 20.1693 15.4062 19.9363 15.4062 19.6934C15.4062 19.4504 15.3108 19.2174 15.1408 19.0456C14.9709 18.8739 14.7404 18.7773 14.5 18.7773H12.6875C12.4471 18.7773 12.2166 18.8739 12.0467 19.0456C11.8767 19.2174 11.7812 19.4504 11.7812 19.6934C11.7812 19.9363 11.8767 20.1693 12.0467 20.3411C12.2166 20.5129 12.4471 20.6094 12.6875 20.6094Z" fill="#303030"/>
<path d="M12.6875 25.1895H14.5C14.7404 25.1895 14.9709 25.093 15.1408 24.9212C15.3108 24.7494 15.4062 24.5164 15.4062 24.2735C15.4062 24.0305 15.3108 23.7975 15.1408 23.6257C14.9709 23.4539 14.7404 23.3574 14.5 23.3574H12.6875C12.4471 23.3574 12.2166 23.4539 12.0467 23.6257C11.8767 23.7975 11.7812 24.0305 11.7812 24.2735C11.7812 24.5164 11.8767 24.7494 12.0467 24.9212C12.2166 25.093 12.4471 25.1895 12.6875 25.1895Z" fill="#303030"/>
<path d="M27.1874 23.3574H25.3749C25.3698 23.3574 25.365 23.3589 25.3599 23.359C26.0239 23.8613 26.592 24.4816 27.0364 25.1895H27.1874C27.4278 25.1895 27.6583 25.093 27.8283 24.9212C27.9982 24.7494 28.0937 24.5164 28.0937 24.2735C28.0937 24.0305 27.9982 23.7975 27.8283 23.6257C27.6583 23.4539 27.4278 23.3574 27.1874 23.3574Z" fill="#303030"/>
<path d="M28.0938 28.8545C28.0939 29.316 28.048 29.7763 27.9568 30.2285H29.3369C29.6986 29.5424 30.1724 28.923 30.7383 28.3965H28.0708C28.0808 28.5485 28.0938 28.6999 28.0938 28.8545Z" fill="#303030"/>
<path d="M14.5 28.855C14.5 28.7004 14.513 28.5491 14.523 28.397H1.8125V10.9924H31.7188V27.6336C32.28 27.2739 32.8908 26.9999 33.5312 26.8205V4.33553C33.5308 3.91467 33.3652 3.51118 33.0708 3.21359C32.7764 2.91599 32.3772 2.7486 31.9608 2.74813H30.2331C30.0414 1.96376 29.5952 1.26689 28.9659 0.768776C28.3365 0.270659 27.5603 0 26.7609 0C25.9616 0 25.1853 0.270659 24.556 0.768776C23.9266 1.26689 23.4805 1.96376 23.2888 2.74813H20.6909C20.4992 1.96376 20.0531 1.26689 19.4237 0.768776C18.7944 0.270659 18.0181 0 17.2188 0C16.4194 0 15.6431 0.270659 15.0138 0.768776C14.3844 1.26689 13.9383 1.96376 13.7466 2.74813H11.3266C11.1348 1.96375 10.6887 1.2669 10.0593 0.768798C9.4299 0.270693 8.65359 4.41165e-05 7.85424 4.41165e-05C7.05489 4.41165e-05 6.27858 0.270693 5.64919 0.768798C5.01981 1.2669 4.57364 1.96375 4.38188 2.74813H1.57045C1.15408 2.7486 0.754898 2.91599 0.460481 3.21359C0.166064 3.51118 0.000459358 3.91467 0 4.33553L0 28.6417C0.000459358 29.0625 0.166064 29.466 0.460481 29.7636C0.754898 30.0612 1.15408 30.2286 1.57045 30.229H14.637C14.5458 29.7768 14.4999 29.3165 14.5 28.855ZM26.7609 1.8321C27.0742 1.83317 27.3816 1.9186 27.6514 2.0796C27.9211 2.24061 28.1436 2.47137 28.2958 2.74813H25.226C25.3783 2.47137 25.6007 2.24061 25.8705 2.0796C26.1403 1.9186 26.4476 1.83317 26.7609 1.8321ZM17.2188 1.8321C17.532 1.83317 17.8394 1.9186 18.1092 2.0796C18.379 2.24061 18.6014 2.47137 18.7537 2.74813H15.6838C15.8361 2.47137 16.0585 2.24061 16.3283 2.0796C16.5981 1.9186 16.9055 1.83317 17.2188 1.8321ZM7.85402 1.8321C8.16735 1.83318 8.47474 1.91862 8.74457 2.07962C9.0144 2.24062 9.23693 2.47137 9.38926 2.74813H6.31911C6.47136 2.47137 6.69382 2.24061 6.9636 2.07961C7.23337 1.9186 7.54073 1.83317 7.85402 1.8321ZM4.40417 4.5802C4.61241 5.3439 5.06251 6.0176 5.68556 6.49816C6.30861 6.97872 7.07029 7.23967 7.85402 7.24107C8.09437 7.24107 8.32488 7.14456 8.49483 6.97277C8.66479 6.80098 8.76027 6.56798 8.76027 6.32504C8.76027 6.08209 8.66479 5.8491 8.49483 5.67731C8.32488 5.50552 8.09437 5.40901 7.85402 5.40901C7.55707 5.40848 7.26504 5.33226 7.00497 5.18739C6.7449 5.04252 6.52518 4.83368 6.36615 4.5802H13.7689C13.9771 5.3439 14.4272 6.0176 15.0503 6.49816C15.6733 6.97872 16.435 7.23967 17.2188 7.24107C17.4591 7.24107 17.6896 7.14456 17.8596 6.97277C18.0295 6.80098 18.125 6.56798 18.125 6.32504C18.125 6.08209 18.0295 5.8491 17.8596 5.67731C17.6896 5.50552 17.4591 5.40901 17.2188 5.40901C16.9218 5.40849 16.6298 5.33226 16.3697 5.18739C16.1096 5.04252 15.8899 4.83368 15.7309 4.5802H23.3111C23.5193 5.3439 23.9694 6.0176 24.5925 6.49816C25.2155 6.97872 25.9772 7.23967 26.7609 7.24107C27.0013 7.24107 27.2318 7.14456 27.4017 6.97277C27.5717 6.80098 27.6672 6.56798 27.6672 6.32504C27.6672 6.08209 27.5717 5.8491 27.4017 5.67731C27.2318 5.50552 27.0013 5.40901 26.7609 5.40901C26.464 5.40849 26.1719 5.33226 25.9119 5.18739C25.6518 5.04252 25.4321 4.83368 25.273 4.5802H31.7188V9.16035H1.8125V4.5802H4.40417Z" fill="#303030"/>
<path d="M12.6875 43.0537C12.6875 43.2966 12.783 43.5296 12.9529 43.7014C13.1229 43.8732 13.3534 43.9697 13.5937 43.9697H25.0134C25.0933 43.348 25.2284 42.7348 25.417 42.1376H14.5V40.7636C14.5027 39.1017 15.1009 37.497 16.1839 36.2465C17.2668 34.996 18.7613 34.1843 20.3906 33.9617V37.71C20.3906 37.9529 20.4861 38.1859 20.6561 38.3577C20.826 38.5295 21.0565 38.626 21.2969 38.626C21.5372 38.626 21.7677 38.5295 21.9377 38.3577C22.1076 38.1859 22.2031 37.9529 22.2031 37.71V33.9586C23.4051 34.1246 24.5414 34.612 25.4945 35.3706C26.4477 36.1291 27.183 37.1313 27.6247 38.2734C28.0537 37.796 28.5249 37.3592 29.0323 36.9682C28.0966 35.0314 26.4874 33.5112 24.5124 32.6984C25.293 32.0323 25.8522 31.1398 26.1144 30.1418C26.3765 29.1438 26.329 28.0885 25.9782 27.1187C25.6275 26.1489 24.9903 25.3115 24.1531 24.7198C23.316 24.1281 22.3191 23.8107 21.2976 23.8105C20.276 23.8104 19.2791 24.1275 18.4417 24.719C17.6044 25.3105 16.9671 26.1478 16.616 27.1175C16.265 28.0871 16.2172 29.1425 16.4791 30.1405C16.741 31.1386 17.3 32.0312 18.0804 32.6975C16.4892 33.3466 15.126 34.4611 14.1652 35.898C13.2045 37.335 12.6899 39.0292 12.6875 40.7636V43.0537ZM18.125 28.8552C18.125 28.2211 18.311 27.6012 18.6596 27.074C19.0081 26.5467 19.5035 26.1358 20.0831 25.8931C20.6626 25.6505 21.3004 25.587 21.9157 25.7107C22.531 25.8344 23.0961 26.1397 23.5397 26.5881C23.9833 27.0365 24.2854 27.6078 24.4078 28.2297C24.5302 28.8516 24.4674 29.4963 24.2273 30.0821C23.9872 30.6679 23.5807 31.1687 23.0591 31.521C22.5375 31.8733 21.9242 32.0613 21.2969 32.0613C20.456 32.0603 19.6498 31.7221 19.0551 31.1211C18.4605 30.5201 18.126 29.7052 18.125 28.8552Z" fill="#303030"/>
<path d="M58.0001 43.0535V40.7634C57.9977 39.029 57.4832 37.3349 56.5224 35.8979C55.5616 34.4609 54.1984 33.3465 52.6072 32.6974C53.3876 32.031 53.9465 31.1384 54.2084 30.1404C54.4703 29.1423 54.4225 28.087 54.0715 27.1174C53.7205 26.1477 53.0831 25.3105 52.2458 24.719C51.4085 24.1275 50.4116 23.8104 49.39 23.8105C48.3685 23.8107 47.3717 24.1281 46.5345 24.7198C45.6973 25.3115 45.0602 26.1489 44.7094 27.1186C44.3587 28.0884 44.3111 29.1437 44.5733 30.1417C44.8355 31.1396 45.3947 32.0321 46.1752 32.6982C44.2002 33.511 42.591 35.0312 41.6553 36.9681C42.1627 37.359 42.6339 37.7959 43.063 38.2732C43.5046 37.1311 44.24 36.129 45.1931 35.3704C46.1463 34.6119 47.2825 34.1244 48.4845 33.9584V37.7098C48.4845 37.9528 48.58 38.1858 48.7499 38.3576C48.9199 38.5294 49.1504 38.6259 49.3907 38.6259C49.6311 38.6259 49.8616 38.5294 50.0316 38.3576C50.2015 38.1858 50.297 37.9528 50.297 37.7098V33.9616C51.9264 34.1842 53.4208 34.9958 54.5038 36.2463C55.5867 37.4968 56.1849 39.1015 56.1876 40.7634V42.1375H45.2706C45.4592 42.7347 45.5943 43.3478 45.6742 43.9695H57.0939C57.3342 43.9695 57.5647 43.873 57.7347 43.7012C57.9046 43.5294 58.0001 43.2964 58.0001 43.0535ZM46.2189 28.855C46.2189 28.2209 46.4049 27.601 46.7534 27.0738C47.102 26.5466 47.5973 26.1356 48.1769 25.893C48.7565 25.6503 49.3943 25.5868 50.0095 25.7105C50.6248 25.8342 51.19 26.1396 51.6336 26.588C52.0772 27.0363 52.3793 27.6076 52.5017 28.2295C52.6241 28.8515 52.5612 29.4961 52.3212 30.0819C52.0811 30.6678 51.6746 31.1685 51.1529 31.5208C50.6313 31.8731 50.0181 32.0611 49.3907 32.0611C48.5498 32.0601 47.7436 31.722 47.149 31.1209C46.5544 30.5199 46.2199 29.705 46.2189 28.855Z" fill="#303030"/>
<path d="M40.3281 33.4352C40.3292 32.5885 40.1191 31.7552 39.7173 31.0122C39.3156 30.2693 38.735 29.6407 38.0293 29.1845C37.3237 28.7283 36.5156 28.4592 35.6799 28.4021C34.8441 28.345 34.0076 28.5017 33.2476 28.8578C32.4876 29.2139 31.8287 29.7578 31.3316 30.4394C30.8346 31.1209 30.5155 31.9181 30.4039 32.7572C30.2922 33.5964 30.3916 34.4504 30.6928 35.2405C30.994 36.0306 31.4874 36.7311 32.1273 37.2775C30.5361 37.9266 29.1729 39.0411 28.2121 40.4781C27.2513 41.9151 26.7368 43.6092 26.7344 45.3436V47.6337C26.7344 47.8766 26.8299 48.1096 26.9998 48.2814C27.1698 48.4532 27.4003 48.5497 27.6406 48.5497H43.0469C43.2872 48.5497 43.5177 48.4532 43.6877 48.2814C43.8576 48.1096 43.9531 47.8766 43.9531 47.6337V45.3436C43.9507 43.6092 43.4362 41.9151 42.4754 40.4781C41.5146 39.0411 40.1514 37.9266 38.5602 37.2775C39.1139 36.8058 39.559 36.2175 39.8643 35.5539C40.1697 34.8902 40.328 34.1671 40.3281 33.4352ZM42.1406 45.3436V46.7176H28.5469V45.3436C28.5496 43.6817 29.1478 42.077 30.2307 40.8265C31.3137 39.576 32.8081 38.7644 34.4375 38.5417V42.29C34.4375 42.533 34.533 42.766 34.7029 42.9377C34.8729 43.1095 35.1034 43.206 35.3438 43.206C35.5841 43.206 35.8146 43.1095 35.9846 42.9377C36.1545 42.766 36.25 42.533 36.25 42.29V38.5417C37.8794 38.7644 39.3738 39.576 40.4568 40.8265C41.5397 42.077 42.1379 43.6817 42.1406 45.3436ZM32.1719 33.4352C32.1719 32.8011 32.3579 32.1812 32.7064 31.654C33.055 31.1267 33.5503 30.7158 34.1299 30.4731C34.7095 30.2305 35.3473 30.167 35.9626 30.2907C36.5778 30.4144 37.143 30.7198 37.5866 31.1681C38.0302 31.6165 38.3323 32.1878 38.4547 32.8097C38.5771 33.4316 38.5143 34.0763 38.2742 34.6621C38.0341 35.248 37.6276 35.7487 37.1059 36.101C36.5843 36.4533 35.9711 36.6413 35.3438 36.6413C34.5028 36.6403 33.6966 36.3022 33.102 35.7011C32.5074 35.1001 32.1729 34.2852 32.1719 33.4352Z" fill="#303030"/>
</svg>
