<svg width="45" height="52" viewBox="0 0 45 52" fill="none" xmlns="http://www.w3.org/2000/svg">
<path d="M29.1485 30.8018H14.4063C13.8802 30.8018 13.4556 30.3772 13.4556 29.8511C13.4556 29.325 13.8802 28.9004 14.4063 28.9004H29.1485C29.6746 28.9004 30.0992 29.325 30.0992 29.8511C30.0992 30.3772 29.6746 30.8018 29.1485 30.8018Z" fill="#303030"/>
<path d="M20.2182 36.6963H14.4063C13.8802 36.6963 13.4556 36.2717 13.4556 35.7456C13.4556 35.2196 13.8802 34.7949 14.4063 34.7949H20.2182C20.7443 34.7949 21.1689 35.2196 21.1689 35.7456C21.1689 36.2717 20.7443 36.6963 20.2182 36.6963Z" fill="#303030"/>
<path d="M29.1485 19.0069H14.4063C13.8802 19.0069 13.4556 18.5822 13.4556 18.0562C13.4556 17.5301 13.8802 17.1055 14.4063 17.1055H29.1485C29.6746 17.1055 30.0992 17.5301 30.0992 18.0562C30.0992 18.5822 29.6746 19.0069 29.1485 19.0069Z" fill="#303030"/>
<path d="M29.1485 24.9014H14.4063C13.8802 24.9014 13.4556 24.4768 13.4556 23.9507C13.4556 23.4246 13.8802 23 14.4063 23H29.1485C29.6746 23 30.0992 23.4246 30.0992 23.9507C30.0992 24.4768 29.6746 24.9014 29.1485 24.9014Z" fill="#303030"/>
<path d="M35.7085 14.1965L29.8078 8.52401C29.6366 8.35288 29.3958 8.25781 29.1549 8.25781H8.51198C7.98593 8.25781 7.56128 8.68246 7.56128 9.20852V43.117C7.56128 43.643 7.98593 44.0677 8.51198 44.0677H26.9366V42.1663H9.46269V10.1592H28.7556V15.2677H34.0859L34.0986 15.2803V33.198H36V14.8811C36 14.6212 35.8923 14.374 35.7085 14.1965Z" fill="#303030"/>
<path d="M31.9057 46.2489C27.805 46.2489 24.4648 42.9151 24.4648 38.808C24.4648 34.701 27.805 31.3672 31.9057 31.3672C36.0064 31.3672 39.3465 34.701 39.3465 38.808C39.3465 42.9151 36.0064 46.2489 31.9057 46.2489ZM31.9057 33.2749C28.8508 33.2749 26.3663 35.7594 26.3663 38.8144C26.3663 41.8693 28.8508 44.3538 31.9057 44.3538C34.9606 44.3538 37.4451 41.8693 37.4451 38.8144C37.4451 35.7594 34.9606 33.2749 31.9057 33.2749Z" fill="#303030"/>
<path d="M31.8485 40.5321C31.6077 40.5321 31.3732 40.4434 31.1957 40.2722L28.6225 37.8384C28.2422 37.4772 28.2232 36.8751 28.5844 36.4948C28.9457 36.1145 29.5478 36.0955 29.9281 36.4567L32.0703 38.4786L33.9844 37.7434C34.4725 37.5532 35.0239 37.8004 35.214 38.2884C35.4041 38.7765 35.157 39.3279 34.6689 39.518L32.1971 40.4624C32.0894 40.5067 31.9689 40.5258 31.8549 40.5258L31.8485 40.5321Z" fill="#303030"/>
</svg>
