<svg width="51" height="46" viewBox="0 0 51 46" fill="none" xmlns="http://www.w3.org/2000/svg">
<path d="M0.295 40.9166C0.3009 40.9224 0.3127 40.9341 0.3186 40.9399C0.4071 41.0274 0.5074 41.1033 0.6254 41.1558C3.9884 42.6899 7.3868 43.4541 10.7675 43.4541C11.6997 43.4541 12.6319 43.3958 13.5641 43.2791C13.6231 43.3258 13.688 43.3666 13.7647 43.4016C17.523 45.1166 21.3403 45.9858 25.1104 45.9858H25.1163C28.8805 45.9858 32.6919 45.1166 36.4384 43.4016C36.5092 43.3666 36.5741 43.3316 36.6331 43.2849C37.5594 43.4016 38.4916 43.4599 39.4179 43.4599C42.8045 43.4599 46.197 42.6899 49.5482 41.1558C49.9966 40.9516 50.2267 40.4733 50.1264 40.0124C50.0497 35.9058 47.5776 32.2541 43.8901 30.5741C44.6748 29.6058 45.1468 28.3749 45.1468 27.0391C45.1468 23.9124 42.5744 21.3633 39.4061 21.3633C36.2378 21.3633 33.6654 23.9066 33.6654 27.0391C33.6654 28.3749 34.1374 29.6058 34.9221 30.5741C33.7716 31.0991 32.7273 31.8166 31.8246 32.7091C31.2287 32.3008 30.5856 31.9449 29.913 31.6533C30.8452 30.5624 31.4057 29.1566 31.4057 27.6224C31.4057 24.1691 28.5678 21.3633 25.075 21.3633C21.5822 21.3633 18.7443 24.1691 18.7443 27.6224C18.7443 29.1566 19.3048 30.5624 20.237 31.6533C19.5585 31.9508 18.9154 32.3124 18.3077 32.7208C17.405 31.8224 16.3548 31.0991 15.1984 30.5741C15.9831 29.6058 16.4551 28.3749 16.4551 27.0391C16.4551 23.9124 13.8827 21.3633 10.7144 21.3633C7.5461 21.3633 4.9737 23.9066 4.9737 27.0391C4.9737 28.3749 5.4457 29.6058 6.2304 30.5741C2.4898 32.2774 0 36.0224 0 40.1991C0 40.4791 0.1121 40.7299 0.295 40.9166C0.2891 40.9108 0.2891 40.9108 0.295 40.9166ZM39.412 23.4049C41.4357 23.4049 43.0818 25.0324 43.0818 27.0333C43.0818 29.0341 41.4357 30.6616 39.412 30.6616C37.3883 30.6616 35.7422 29.0341 35.7422 27.0333C35.7422 25.0324 37.3883 23.4049 39.412 23.4049ZM36.7511 32.0616C37.5476 32.4758 38.4503 32.7091 39.4061 32.7091C40.3619 32.7091 41.2705 32.4758 42.0611 32.0616C45.4123 33.1291 47.7723 36.1158 48.0319 39.5749C47.3534 39.8608 46.6808 40.1174 46.0023 40.3333L44.5863 37.1424C44.3562 36.6233 43.7485 36.3899 43.2234 36.6174C42.6983 36.8449 42.4623 37.4458 42.6924 37.9649L43.9845 40.8874C41.6363 41.4124 39.2822 41.5349 36.9517 41.2491C36.6685 38.4608 35.3882 35.9116 33.4353 34.0099C34.3793 33.1233 35.5062 32.4583 36.7511 32.0616ZM25.075 23.4049C27.4232 23.4049 29.3348 25.2949 29.3348 27.6166C29.3348 29.9383 27.4232 31.8283 25.075 31.8283C22.7268 31.8283 20.8152 29.9383 20.8152 27.6166C20.8152 25.2949 22.7268 23.4049 25.075 23.4049ZM18.8328 34.8908C18.8328 34.8908 18.8387 34.8849 18.8446 34.8849L18.8505 34.8791C19.7945 34.1149 20.8919 33.5199 22.1014 33.1408C22.9923 33.6133 24.0012 33.8758 25.0809 33.8758C26.1606 33.8758 27.1695 33.6074 28.0604 33.1408C29.264 33.5141 30.3555 34.1091 31.2995 34.8733C31.2995 34.8733 31.2995 34.8733 31.3054 34.8733C33.3999 36.5591 34.751 39.0616 34.928 41.8208C34.0961 42.1766 33.2642 42.4858 32.4323 42.7483L30.7921 39.0499C30.562 38.5308 29.9543 38.2974 29.4292 38.5249C28.9041 38.7524 28.6681 39.3533 28.8982 39.8724L30.4145 43.2966C26.8686 44.1133 23.305 44.1074 19.7473 43.2849L21.2577 39.8724C21.4878 39.3533 21.2459 38.7524 20.7267 38.5249C20.2016 38.2974 19.5939 38.5366 19.3638 39.0499L17.7354 42.7308C16.9035 42.4624 16.0657 42.1533 15.2338 41.7974C15.4108 39.0616 16.756 36.5708 18.8328 34.8908ZM10.7203 23.4049C12.744 23.4049 14.3901 25.0324 14.3901 27.0333C14.3901 29.0341 12.744 30.6616 10.7203 30.6616C8.6966 30.6616 7.0505 29.0341 7.0505 27.0333C7.0505 25.0324 8.6966 23.4049 10.7203 23.4049ZM8.0653 32.0616C8.8618 32.4758 9.7645 32.7091 10.7203 32.7091C11.6761 32.7091 12.5847 32.4758 13.3753 32.0616C14.6261 32.4583 15.7589 33.1291 16.7029 34.0274C15.6822 35.0191 14.8503 36.1916 14.2426 37.4808C14.2131 37.5333 14.1836 37.5916 14.16 37.6558C13.6526 38.7816 13.3222 39.9949 13.1924 41.2608C10.856 41.5408 8.496 41.4124 6.1419 40.8816L7.4281 37.9708C7.6582 37.4516 7.4163 36.8508 6.8971 36.6233C6.372 36.3958 5.7643 36.6349 5.5342 37.1483L4.13 40.3216C3.4515 40.0999 2.773 39.8433 2.0945 39.5574C2.36 36.1041 4.72 33.1233 8.0653 32.0616Z" fill="#C47BFF"/>
<path d="M24.5559 19.4965C24.7152 19.5898 24.8922 19.6365 25.0751 19.6365C25.2521 19.6365 25.435 19.5898 25.5943 19.4965C28.09 18.0731 30.1727 16.014 31.6123 13.5465C33.0519 11.079 33.813 8.26729 33.813 5.42062C33.813 5.05312 33.6183 4.71479 33.2938 4.53396L25.5943 0.135625C25.2757 -0.0452083 24.8804 -0.0452083 24.5559 0.135625L16.8564 4.53396C16.5378 4.71479 16.3372 5.05312 16.3372 5.42062C16.3372 8.26729 17.0983 11.079 18.5379 13.5465C19.9834 16.014 22.0602 18.0731 24.5559 19.4965ZM25.0751 2.20646L31.7303 6.00396C31.5356 10.6415 29.034 14.9231 25.0751 17.414C21.1162 14.9231 18.6146 10.6415 18.4199 6.00979L25.0751 2.20646Z" fill="#C47BFF"/>
<path d="M24.6972 12.4439C24.9627 12.4439 25.2282 12.3447 25.4288 12.1464C25.4347 12.1405 25.4347 12.1347 25.4406 12.1347C25.4465 12.1289 25.4524 12.1289 25.4524 12.123L28.662 8.94971C29.0691 8.54721 29.0691 7.89971 28.662 7.50305C28.2549 7.10055 27.6 7.10055 27.1988 7.50305L24.6972 9.97638L23.6706 8.96138C23.2635 8.55888 22.6086 8.55888 22.2074 8.96138C21.8003 9.36388 21.8003 10.0114 22.2074 10.408L23.9656 12.1464C24.1721 12.3447 24.4317 12.4439 24.6972 12.4439Z" fill="#C47BFF"/>
</svg>
