<svg width="24" height="24" viewBox="0 0 24 24" fill="white" xmlns="http://www.w3.org/2000/svg">
<path d="M7.551 0.588257H4.29715C2.93601 0.588257 1.82861 1.67394 1.82861 3.00839V7.30525C1.82861 8.63971 2.93601 9.72539 4.29715 9.72539H7.551C8.91226 9.72539 10.0197 8.63971 10.0197 7.30525V3.00839C10.0197 1.67394 8.91226 0.588257 7.551 0.588257ZM8.93394 7.30525C8.93394 8.05276 8.31356 8.66097 7.551 8.66097H4.29715C3.5347 8.66097 2.91433 8.05276 2.91433 7.30525V3.00839C2.91433 2.26089 3.5347 1.65268 4.29715 1.65268H7.551C8.31356 1.65268 8.93394 2.26089 8.93394 3.00839V7.30525Z" fill="white"/>
<path d="M7.551 10.9395H4.29715C2.93601 10.9395 1.82861 12.0251 1.82861 13.3597V20.521C1.82861 21.8555 2.93601 22.9411 4.29715 22.9411H7.551C8.91226 22.9411 10.0197 21.8555 10.0197 20.521V13.3597C10.0197 12.0251 8.91226 10.9395 7.551 10.9395ZM8.93394 20.521C8.93394 21.2685 8.31356 21.8767 7.551 21.8767H4.29715C3.5347 21.8767 2.91433 21.2685 2.91433 20.521V13.3597C2.91433 12.6121 3.5347 12.0039 4.29715 12.0039H7.551C8.31356 12.0039 8.93394 12.6121 8.93394 13.3597V20.521Z" fill="white"/>
<path d="M19.703 13.8041H16.4491C15.0879 13.8041 13.9805 14.8898 13.9805 16.2242V20.5211C13.9805 21.8555 15.0879 22.9412 16.4491 22.9412H19.703C21.0641 22.9412 22.1715 21.8555 22.1715 20.5211V16.2242C22.1715 14.8898 21.0641 13.8041 19.703 13.8041ZM21.0858 20.5211C21.0858 21.2686 20.4654 21.8768 19.703 21.8768H16.4491C15.6866 21.8768 15.0662 21.2686 15.0662 20.5211V16.2242C15.0662 15.4767 15.6866 14.8685 16.4491 14.8685H19.703C20.4654 14.8685 21.0858 15.4767 21.0858 16.2242V20.5211Z" fill="white"/>
<path d="M19.703 0.588257H16.4491C15.0879 0.588257 13.9805 1.67394 13.9805 3.00839V10.1697C13.9805 11.5043 15.0879 12.59 16.4491 12.59H19.703C21.0641 12.59 22.1715 11.5043 22.1715 10.1697V3.00839C22.1715 1.67394 21.0641 0.588257 19.703 0.588257ZM21.0858 10.1697C21.0858 10.9173 20.4654 11.5255 19.703 11.5255H16.4491C15.6866 11.5255 15.0662 10.9173 15.0662 10.1697V3.00839C15.0662 2.26089 15.6866 1.65268 16.4491 1.65268H19.703C20.4654 1.65268 21.0858 2.26089 21.0858 3.00839V10.1697Z" fill="white"/>
</svg>
