<svg width="24" height="24" viewBox="0 0 24 24" fill="none" xmlns="http://www.w3.org/2000/svg">
<path d="M10.9532 11.1267C10.0303 11.1267 9.12801 10.853 8.36058 10.3402C7.59315 9.82741 6.99501 9.09858 6.6418 8.24586C6.28859 7.39314 6.19618 6.45483 6.37624 5.54958C6.5563 4.64434 7.00076 3.81282 7.65341 3.16017C8.30605 2.50753 9.13757 2.06307 10.0428 1.88301C10.9481 1.70294 11.8864 1.79536 12.7391 2.14857C13.5918 2.50177 14.3206 3.09991 14.8334 3.86734C15.3462 4.63477 15.6199 5.53702 15.6199 6.46C15.6199 7.69768 15.1282 8.88467 14.2531 9.75984C13.3779 10.635 12.1909 11.1267 10.9532 11.1267ZM10.9532 3.18C10.294 3.18 9.6495 3.3755 9.10134 3.74177C8.55317 4.10804 8.12593 4.62864 7.87364 5.23773C7.62135 5.84681 7.55534 6.51703 7.68395 7.16364C7.81257 7.81024 8.13004 8.40418 8.59622 8.87036C9.06239 9.33653 9.65633 9.654 10.3029 9.78262C10.9495 9.91124 11.6198 9.84523 12.2288 9.59294C12.8379 9.34064 13.3585 8.9134 13.7248 8.36524C14.0911 7.81707 14.2866 7.17261 14.2866 6.51334C14.2866 6.0756 14.2004 5.64214 14.0328 5.23773C13.8653 4.83331 13.6198 4.46584 13.3103 4.15631C13.0007 3.84679 12.6333 3.60125 12.2288 3.43374C11.8244 3.26622 11.391 3.18 10.9532 3.18ZM14.6666 11.9333C11.0589 11.121 7.28446 11.5121 3.91991 13.0467C3.45717 13.2677 3.06675 13.6157 2.7941 14.05C2.52146 14.4843 2.37782 14.9872 2.37991 15.5V19.4667C2.37991 19.5542 2.39715 19.6409 2.43065 19.7218C2.46416 19.8027 2.51326 19.8762 2.57517 19.9381C2.63707 20 2.71057 20.0491 2.79145 20.0826C2.87233 20.1161 2.95902 20.1333 3.04657 20.1333C3.13412 20.1333 3.22081 20.1161 3.30169 20.0826C3.38258 20.0491 3.45607 20 3.51798 19.9381C3.57988 19.8762 3.62899 19.8027 3.66249 19.7218C3.69599 19.6409 3.71324 19.5542 3.71324 19.4667V15.5C3.70743 15.2405 3.77752 14.9849 3.91489 14.7646C4.05226 14.5443 4.25095 14.369 4.48657 14.26C6.51335 13.3239 8.72076 12.8438 10.9532 12.8533C12.2041 12.8519 13.4507 12.9996 14.6666 13.2933V11.9333ZM14.7599 18.2733H18.8532V19.2067H14.7599V18.2733Z" fill="white"/>
<path d="M22.1134 14.3133H18.6667V15.6466H21.4467V21.2266H12.0001V15.6466H16.2001V15.9266C16.2001 16.1034 16.2703 16.273 16.3953 16.398C16.5204 16.5231 16.6899 16.5933 16.8667 16.5933C17.0436 16.5933 17.2131 16.5231 17.3382 16.398C17.4632 16.273 17.5334 16.1034 17.5334 15.9266V13.3333C17.5334 13.1565 17.4632 12.9869 17.3382 12.8619C17.2131 12.7369 17.0436 12.6666 16.8667 12.6666C16.6899 12.6666 16.5204 12.7369 16.3953 12.8619C16.2703 12.9869 16.2001 13.1565 16.2001 13.3333V14.3133H11.3334C11.1566 14.3133 10.987 14.3835 10.862 14.5086C10.737 14.6336 10.6667 14.8031 10.6667 14.98V21.8933C10.6667 22.0701 10.737 22.2397 10.862 22.3647C10.987 22.4897 11.1566 22.56 11.3334 22.56H22.1134C22.2902 22.56 22.4598 22.4897 22.5848 22.3647C22.7098 22.2397 22.7801 22.0701 22.7801 21.8933V14.98C22.7801 14.8031 22.7098 14.6336 22.5848 14.5086C22.4598 14.3835 22.2902 14.3133 22.1134 14.3133Z" fill="white"/>
</svg>
