<svg width="38" height="41" viewBox="0 0 38 41" fill="none" xmlns="http://www.w3.org/2000/svg">
<path d="M31.1771 7.46751C26.8283 6.63181 21.7768 3.79963 18.8928 0.580934C18.8467 0.529415 18.7913 0.488419 18.73 0.460413C18.6688 0.432406 18.6028 0.417969 18.5362 0.417969C18.4695 0.417969 18.4036 0.432406 18.3423 0.460413C18.281 0.488419 18.2256 0.529415 18.1795 0.580934C15.2959 3.79963 10.2424 6.63139 5.89209 7.46751C5.77792 7.48938 5.67459 7.55358 5.60018 7.64884C5.52577 7.74411 5.48503 7.86437 5.48511 7.98856V27.3229C5.48511 28.9387 7.04162 31.363 9.64855 33.8075C12.3281 36.32 15.5133 38.3052 18.3891 39.2545C18.4839 39.2857 18.5853 39.2857 18.6802 39.2545C21.5544 38.3052 24.7396 36.32 27.4207 33.8075C30.0276 31.363 31.5841 28.9387 31.5841 27.3229V7.98856C31.5842 7.86437 31.5435 7.74411 31.469 7.64884C31.3946 7.55358 31.2913 7.48938 31.1771 7.46751ZM30.5957 27.3229C30.5957 28.599 29.0938 30.8328 26.7694 33.011C24.3704 35.3019 21.5725 37.0627 18.5362 38.1924C15.4993 37.0627 12.7007 35.3016 10.3014 33.0102C7.97693 30.8307 6.47505 28.5981 6.47505 27.322V8.42605C10.8004 7.49132 15.5336 4.84717 18.5346 1.69952C21.5356 4.84885 26.2688 7.49132 30.5942 8.42689L30.5957 27.3229ZM18.2256 4.51289C15.3618 6.92162 12.0936 8.72057 8.59774 9.81248C8.4946 9.84422 8.4039 9.91105 8.33935 10.0029C8.2748 10.0947 8.2399 10.2065 8.23993 10.3214V27.2464C8.23991 27.2904 8.24503 27.3342 8.25515 27.3768C8.48413 27.9935 8.80226 28.5678 9.19787 29.0787C9.97033 30.1078 10.839 31.0496 11.7904 31.8895C13.7452 33.6846 15.9661 35.1178 18.3614 36.1303C18.4731 36.1749 18.5961 36.1749 18.7079 36.1303C21.1032 35.1178 23.324 33.6846 25.2788 31.8895C26.2299 31.0494 27.0986 30.1078 27.8713 29.0791C28.2669 28.568 28.585 27.9936 28.8141 27.3768C28.8242 27.3342 28.8293 27.2904 28.8293 27.2464V10.321C28.8293 10.2061 28.7944 10.0943 28.7299 10.0024C28.6653 9.91063 28.5746 9.84381 28.4715 9.81206C24.9756 8.72028 21.7075 6.92148 18.8436 4.51289C18.756 4.43747 18.647 4.39636 18.5346 4.39636C18.4222 4.39636 18.3132 4.43747 18.2256 4.51289ZM27.8409 10.7171V27.1683C27.6382 27.6178 27.3871 28.0403 27.0925 28.4272C26.3618 29.3987 25.5404 30.2879 24.6413 31.081C22.8191 32.7529 20.7571 34.0992 18.5346 35.0681C16.3121 34.0992 14.2501 32.7529 12.428 31.081C11.5288 30.2879 10.7075 29.3987 9.97671 28.4272C9.68217 28.0403 9.43098 27.6178 9.22831 27.1683V10.7171C12.5888 9.61434 15.7398 7.88152 18.5346 5.5993C21.3295 7.88152 24.4804 9.61434 27.8409 10.7171ZM14.9537 15.1396C14.9537 15.898 15.1637 16.6394 15.5572 17.27C15.9507 17.9006 16.5099 18.3921 17.1643 18.6823C17.8186 18.9726 18.5386 19.0485 19.2332 18.9006C19.9278 18.7526 20.5659 18.3874 21.0667 17.8511C21.5675 17.3148 21.9085 16.6316 22.0467 15.8877C22.1849 15.1439 22.1139 14.3729 21.8429 13.6722C21.5719 12.9715 21.1129 12.3726 20.524 11.9513C19.9352 11.5299 19.2428 11.305 18.5346 11.305C17.5853 11.3062 16.6751 11.7106 16.0038 12.4295C15.3325 13.1484 14.9549 14.123 14.9537 15.1396ZM21.1271 15.1396C21.1271 15.6887 20.9751 16.2255 20.6902 16.682C20.4053 17.1385 20.0004 17.4944 19.5267 17.7045C19.053 17.9146 18.5317 17.9696 18.0288 17.8625C17.5259 17.7554 17.064 17.491 16.7014 17.1027C16.3389 16.7144 16.092 16.2198 15.9919 15.6812C15.8919 15.1427 15.9432 14.5845 16.1395 14.0772C16.3357 13.57 16.668 13.1364 17.0943 12.8313C17.5206 12.5263 18.0219 12.3634 18.5346 12.3634C19.2219 12.3643 19.8809 12.6571 20.3669 13.1775C20.8529 13.698 21.1263 14.4036 21.1271 15.1396ZM12.2824 26.7654C12.2824 26.9059 12.3345 27.0405 12.4272 27.1398C12.5199 27.2391 12.6457 27.2949 12.7768 27.2949H24.2924C24.4235 27.2949 24.5493 27.2391 24.642 27.1398C24.7347 27.0405 24.7868 26.9059 24.7868 26.7654C24.7868 24.9898 24.1281 23.2868 22.9556 22.0312C21.7831 20.7756 20.1928 20.0703 18.5346 20.0703C16.8764 20.0703 15.2862 20.7756 14.1136 22.0312C12.9411 23.2868 12.2824 24.9898 12.2824 26.7654ZM23.7754 26.2365H21.8482V24.4443C21.8446 24.3065 21.7909 24.1757 21.6986 24.0796C21.6064 23.9835 21.4827 23.9298 21.354 23.9298C21.2253 23.9298 21.1017 23.9835 21.0094 24.0796C20.9171 24.1757 20.8634 24.3065 20.8598 24.4443V26.236H16.2094V24.4443C16.2058 24.3065 16.1521 24.1757 16.0598 24.0796C15.9676 23.9835 15.8439 23.9298 15.7152 23.9298C15.5865 23.9298 15.4629 23.9835 15.3706 24.0796C15.2783 24.1757 15.2246 24.3065 15.221 24.4443V26.236H13.2938C13.4173 24.8391 14.0227 23.5417 14.9919 22.5975C15.9611 21.6532 17.2243 21.1299 18.5346 21.1299C19.8449 21.1299 21.1081 21.6532 22.0773 22.5975C23.0465 23.5417 23.652 24.8391 23.7754 26.236V26.2365Z" fill="url(#paint0_linear_4707_581)"/>
<defs>
<linearGradient id="paint0_linear_4707_581" x1="18.5346" y1="0.417969" x2="18.5346" y2="39.278" gradientUnits="userSpaceOnUse">
<stop stop-color="white"/>
<stop offset="0.78" stop-color="white"/>
</linearGradient>
</defs>
</svg>
