<svg width="24" height="24" viewBox="0 0 24 24" fill="none" xmlns="http://www.w3.org/2000/svg">
<path d="M14.3272 15.5879C14.0605 15.5879 13.8181 15.8303 13.8181 16.097V19.8546H3.68476V4.43639H13.8181V8.21821C13.8181 8.48488 14.0605 8.7273 14.3272 8.7273C14.5938 8.7273 14.8363 8.48488 14.8363 8.21821V3.9273C14.8363 3.66064 14.5938 3.41821 14.3272 3.41821H3.17567C2.88476 3.41821 2.64233 3.63639 2.64233 3.9273V20.3637C2.64233 20.6303 2.88476 20.8728 3.15143 20.8728H14.3029C14.5696 20.8728 14.812 20.6303 14.812 20.3637V16.097C14.8363 15.8061 14.5938 15.5879 14.3272 15.5879Z" fill="white"/>
<path d="M21.7938 12.5576C21.7938 12.5091 21.7938 12.4849 21.7938 12.4606C21.7938 12.4364 21.7938 12.4122 21.7695 12.3879C21.7695 12.3637 21.7695 12.3394 21.7453 12.3152C21.7453 12.3152 21.7453 12.2909 21.721 12.2909C21.6968 12.2667 21.6968 12.2425 21.6726 12.2182C21.6483 12.194 21.6483 12.1697 21.6241 12.1697C21.6241 12.1697 21.6241 12.1455 21.5998 12.1455L17.6241 8.04852C17.4301 7.83034 17.0907 7.83034 16.8968 8.04852C16.6786 8.24246 16.6786 8.58186 16.8726 8.7758L20.0483 12.0485H10.9817H10.9574H8.72711C8.46044 12.0485 8.21802 12.2909 8.21802 12.5576C8.21802 12.8243 8.46044 13.0667 8.72711 13.0667H20.0726L16.921 16.3152C16.7271 16.5334 16.7271 16.8485 16.9453 17.0425C17.0423 17.1394 17.1877 17.1879 17.3089 17.1879C17.4301 17.1879 17.5756 17.1394 17.6726 17.0425L21.6726 12.897C21.6726 12.897 21.6968 12.8728 21.6968 12.8485C21.721 12.8 21.7695 12.7758 21.7695 12.7273C21.7695 12.7273 21.7695 12.7273 21.7695 12.7031C21.7938 12.6788 21.7938 12.6303 21.7938 12.5576C21.7938 12.5819 21.7938 12.5819 21.7938 12.5576Z" fill="white"/>
</svg>
