<svg width="110" height="105" viewBox="0 0 110 105" fill="none" xmlns="http://www.w3.org/2000/svg">
<path d="M29.9492 37.52C29.9492 47.1919 37.8086 55.051 47.4692 55.051C57.1298 55.051 65.0002 47.1916 65.0002 37.52C65.0002 27.8484 57.1291 20 47.4692 20C37.8093 20 29.9492 27.8594 29.9492 37.52ZM62.0112 37.52C62.0112 45.5317 55.4917 52.051 47.4802 52.051C39.4687 52.051 32.9602 45.5315 32.9602 37.52C32.9602 29.5085 39.4719 23 47.4802 23C55.4919 23 62.0112 29.5195 62.0112 37.52Z" fill="black"/>
<path d="M76.1019 67.2382C75.7621 67.2382 75.4301 67.2694 75.0902 67.289C71.8207 61.3007 65.4691 57.23 58.1922 57.23H36.7822C26.1732 57.23 17.5322 65.8589 17.5322 76.468V81.0969C17.5322 85.9953 21.5322 89.9875 26.4306 89.9875H61.0086C63.4969 95.8664 69.3289 99.9995 76.0986 99.9995C85.1377 99.9995 92.4776 92.6479 92.4776 83.6205C92.4776 74.5893 85.1378 67.2415 76.0986 67.2415L76.1019 67.2382ZM60.0709 86.9882H26.4229C23.1729 86.9882 20.5245 84.3476 20.5245 81.0976V76.4687C20.5245 67.5195 27.8136 60.2307 36.7745 60.2307H58.1845C63.9462 60.2307 69.0125 63.2619 71.8955 67.801C64.8955 69.6721 59.7155 76.0393 59.7155 83.621C59.7155 84.7812 59.8366 85.9022 60.0671 86.9921L60.0709 86.9882ZM76.1019 97.0002C68.723 97.0002 62.7229 91.0002 62.7229 83.6212C62.7229 76.2422 68.7229 70.2422 76.1019 70.2422C83.4808 70.2422 89.4809 76.2422 89.4809 83.6212C89.4809 91.0002 83.4809 97.0002 76.1019 97.0002Z" fill="black"/>
<path d="M79.8202 79.5122L74.789 84.5434L72.3906 82.145C71.8008 81.5552 70.8515 81.5552 70.2695 82.145C69.6797 82.7348 69.6797 83.6841 70.2695 84.2661L74.789 88.7856L81.9374 81.6372C82.5273 81.0591 82.5273 80.106 81.9374 79.5161C81.3476 78.938 80.3983 78.938 79.8163 79.5161L79.8202 79.5122Z" fill="black"/>
</svg>
