<svg width="24" height="23" viewBox="0 0 24 23" fill="none" xmlns="http://www.w3.org/2000/svg">
<path d="M21.34 5.70406C21.3399 4.85729 21.0326 4.03931 20.4751 3.40207C19.9176 2.76482 19.1478 2.35162 18.3086 2.2392C17.4695 2.12679 16.6181 2.32281 15.9126 2.79085C15.2071 3.25889 14.6954 3.96715 14.4725 4.78406H3.67925C3.28892 4.78406 2.91458 4.93914 2.63858 5.2152C2.36258 5.49125 2.20752 5.86566 2.20752 6.25606V16.1921C2.20752 16.5825 2.36258 16.9569 2.63858 17.2329C2.91458 17.509 3.28892 17.6641 3.67925 17.6641H12.7248L16.2975 21.2355C16.3661 21.3046 16.4594 21.3436 16.5568 21.3441C16.6054 21.344 16.6535 21.3346 16.6985 21.3165C16.7656 21.2884 16.823 21.2412 16.8632 21.1806C16.9035 21.12 16.9249 21.0488 16.9248 20.9761V17.6641H18.3965C18.7868 17.6641 19.1612 17.509 19.4372 17.2329C19.7132 16.9569 19.8682 16.5825 19.8682 16.1921V8.55422C20.3246 8.23253 20.6967 7.80549 20.9529 7.30932C21.2091 6.81315 21.3419 6.26249 21.34 5.70406ZM17.8446 2.94406C18.3904 2.94406 18.9239 3.10593 19.3777 3.4092C19.8315 3.71247 20.1852 4.14353 20.394 4.64785C20.6029 5.15217 20.6575 5.70712 20.5511 6.24251C20.4446 6.77789 20.1818 7.26968 19.7959 7.65567C19.4099 8.04166 18.9182 8.30453 18.383 8.41102C17.8477 8.51752 17.2928 8.46286 16.7886 8.25396C16.2844 8.04507 15.8534 7.69131 15.5502 7.23743C15.247 6.78355 15.0851 6.24993 15.0851 5.70406C15.0849 5.54051 15.0997 5.37729 15.1293 5.21646C15.2436 4.57934 15.5782 4.00268 16.0746 3.5873C16.5709 3.17191 17.1974 2.94423 17.8446 2.94406ZM19.1324 16.1921C19.1324 16.3873 19.0548 16.5745 18.9168 16.7125C18.7788 16.8505 18.5917 16.9281 18.3965 16.9281H16.5568C16.4593 16.9281 16.3657 16.9668 16.2967 17.0358C16.2277 17.1049 16.1889 17.1985 16.1889 17.2961V20.0873L13.1369 17.0366C13.0682 16.9675 12.975 16.9285 12.8775 16.9281H3.67925C3.48408 16.9281 3.29691 16.8505 3.15891 16.7125C3.02091 16.5745 2.94338 16.3873 2.94338 16.1921V6.25606C2.94338 6.06086 3.02091 5.87365 3.15891 5.73563C3.29691 5.5976 3.48408 5.52006 3.67925 5.52006H14.3493C14.3493 5.58078 14.3493 5.64334 14.3493 5.70406C14.3493 6.63125 14.7175 7.52047 15.373 8.1761C16.0285 8.83173 16.9176 9.20006 17.8446 9.20006C17.944 9.20006 18.0433 9.20006 18.1426 9.18534L18.2291 9.17614C18.3027 9.17614 18.3763 9.15774 18.4499 9.14486L18.5308 9.13198C18.6265 9.11174 18.7148 9.08966 18.8178 9.06206H18.8435C18.93 9.0363 19.0146 9.00686 19.0993 8.97374L19.1324 8.9627V16.1921Z" fill="white"/>
<path d="M15.0852 8.64807H6.99073C6.89315 8.64807 6.79957 8.68684 6.73057 8.75586C6.66157 8.82487 6.6228 8.91847 6.6228 9.01607C6.6228 9.11367 6.66157 9.20727 6.73057 9.27629C6.79957 9.3453 6.89315 9.38407 6.99073 9.38407H15.0852C15.1828 9.38407 15.2764 9.3453 15.3454 9.27629C15.4144 9.20727 15.4532 9.11367 15.4532 9.01607C15.4532 8.91847 15.4144 8.82487 15.3454 8.75586C15.2764 8.68684 15.1828 8.64807 15.0852 8.64807Z" fill="white"/>
<path d="M15.0852 10.8561H6.99073C6.89315 10.8561 6.79957 10.8949 6.73057 10.9639C6.66157 11.0329 6.6228 11.1265 6.6228 11.2241C6.6228 11.3217 6.66157 11.4153 6.73057 11.4843C6.79957 11.5533 6.89315 11.5921 6.99073 11.5921H15.0852C15.1828 11.5921 15.2764 11.5533 15.3454 11.4843C15.4144 11.4153 15.4532 11.3217 15.4532 11.2241C15.4532 11.1265 15.4144 11.0329 15.3454 10.9639C15.2764 10.8949 15.1828 10.8561 15.0852 10.8561Z" fill="white"/>
<path d="M15.0852 13.0641H6.99073C6.89315 13.0641 6.79957 13.1029 6.73057 13.1719C6.66157 13.2409 6.6228 13.3345 6.6228 13.4321C6.6228 13.5297 6.66157 13.6233 6.73057 13.6923C6.79957 13.7613 6.89315 13.8001 6.99073 13.8001H15.0852C15.1828 13.8001 15.2764 13.7613 15.3454 13.6923C15.4144 13.6233 15.4532 13.5297 15.4532 13.4321C15.4532 13.3345 15.4144 13.2409 15.3454 13.1719C15.2764 13.1029 15.1828 13.0641 15.0852 13.0641Z" fill="white"/>
</svg>
