<svg width="26" height="26" viewBox="0 0 26 26" fill="none" xmlns="http://www.w3.org/2000/svg">
<path d="M20.1438 1.625H5.16528C4.71357 1.62875 4.27568 1.78113 3.91922 2.0586C3.56277 2.33607 3.30759 2.72319 3.19311 3.16017C3.07863 3.59714 3.11122 4.05965 3.28584 4.47625C3.46046 4.89285 3.76739 5.24037 4.15923 5.46511L4.15918 23.9688C4.15914 24.0221 4.16963 24.0749 4.19004 24.1243C4.21044 24.1736 4.24037 24.2184 4.2781 24.2561C4.31583 24.2938 4.36062 24.3237 4.40992 24.3441C4.45923 24.3645 4.51207 24.375 4.56543 24.375H20.1029C20.1563 24.375 20.2091 24.3645 20.2584 24.3441C20.3077 24.3237 20.3525 24.2938 20.3902 24.2561C20.428 24.2184 20.4579 24.1736 20.4783 24.1243C20.4987 24.0749 20.5092 24.0221 20.5092 23.9688V22.0454H22.473C22.5263 22.0454 22.5792 22.035 22.6285 22.0146C22.6778 21.9941 22.7226 21.9642 22.7603 21.9265C22.798 21.8888 22.8279 21.844 22.8484 21.7947C22.8688 21.7454 22.8792 21.6925 22.8792 21.6392V4.36084C22.8784 3.63556 22.59 2.94021 22.0772 2.42732C21.5644 1.91444 20.869 1.6259 20.1438 1.625ZM5.16528 2.4375H18.6797C18.4066 2.79494 18.2585 3.23227 18.2584 3.68212C18.2583 4.13196 18.4061 4.56937 18.679 4.92697H5.16528C4.83809 4.92251 4.52582 4.7894 4.29603 4.55646C4.06624 4.32351 3.9374 4.00945 3.9374 3.68224C3.9374 3.35502 4.06624 3.04096 4.29603 2.80802C4.52582 2.57507 4.83809 2.44196 5.16528 2.4375ZM19.6967 23.5625H4.97168V5.73947H19.6967V23.5625ZM22.0667 21.2329H20.5092V5.33322C20.5057 5.23375 20.4685 5.13842 20.4036 5.06298C20.3386 4.98753 20.2499 4.93648 20.1521 4.91826C19.8507 4.8804 19.5736 4.73342 19.3732 4.50512C19.1729 4.27682 19.0631 3.98302 19.0647 3.67926C19.3116 1.48554 22.1393 2.55997 22.0667 4.36086C22.0661 9.44803 22.0671 16.1563 22.0667 21.2329Z" fill="white"/>
<path d="M17.9132 13.4784H10.8416C10.7338 13.4784 10.6305 13.5212 10.5543 13.5974C10.4781 13.6736 10.4353 13.7769 10.4353 13.8846C10.4353 13.9924 10.4781 14.0957 10.5543 14.1719C10.6305 14.2481 10.7338 14.2909 10.8416 14.2909H17.9132C18.0196 14.2888 18.1208 14.245 18.1953 14.1691C18.2697 14.0931 18.3114 13.991 18.3114 13.8846C18.3114 13.7783 18.2697 13.6762 18.1953 13.6002C18.1208 13.5243 18.0196 13.4805 17.9132 13.4784Z" fill="white"/>
<path d="M16.1819 15.011H10.8415C10.7351 15.0131 10.6338 15.0568 10.5593 15.1327C10.4848 15.2087 10.4431 15.3109 10.4431 15.4173C10.4431 15.5236 10.4849 15.6258 10.5593 15.7017C10.6338 15.7777 10.7352 15.8214 10.8415 15.8235H16.1819C16.2882 15.8214 16.3895 15.7777 16.464 15.7017C16.5385 15.6258 16.5803 15.5236 16.5803 15.4172C16.5803 15.3108 16.5385 15.2087 16.464 15.1327C16.3895 15.0568 16.2882 15.0131 16.1819 15.011Z" fill="white"/>
<path d="M8.8047 13.2234H6.76196C6.7086 13.2234 6.65576 13.2338 6.60646 13.2542C6.55716 13.2747 6.51236 13.3046 6.47463 13.3423C6.4369 13.38 6.40698 13.4248 6.38657 13.4741C6.36617 13.5234 6.35568 13.5763 6.35571 13.6296V15.6724C6.35568 15.7258 6.36617 15.7786 6.38657 15.8279C6.40698 15.8772 6.4369 15.922 6.47463 15.9597C6.51236 15.9975 6.55716 16.0274 6.60646 16.0478C6.65576 16.0682 6.7086 16.0787 6.76196 16.0786H8.80472C8.85808 16.0787 8.91092 16.0682 8.96022 16.0478C9.00952 16.0274 9.05432 15.9975 9.09205 15.9597C9.12978 15.922 9.1597 15.8772 9.18011 15.8279C9.20051 15.7786 9.211 15.7258 9.21097 15.6724V13.6296C9.211 13.5763 9.20051 13.5234 9.1801 13.4741C9.1597 13.4248 9.12977 13.38 9.09204 13.3423C9.05431 13.3046 9.00951 13.2746 8.96021 13.2542C8.9109 13.2338 8.85806 13.2234 8.8047 13.2234ZM8.39845 15.2661H7.16821V14.0359H8.39847L8.39845 15.2661Z" fill="white"/>
<path d="M17.9132 8.2373H10.8416C10.7338 8.2373 10.6305 8.28011 10.5543 8.35629C10.4781 8.43248 10.4353 8.53581 10.4353 8.64355C10.4353 8.7513 10.4781 8.85463 10.5543 8.93082C10.6305 9.007 10.7338 9.0498 10.8416 9.0498H17.9132C18.0196 9.04768 18.1208 9.00394 18.1953 8.92799C18.2697 8.85203 18.3114 8.74991 18.3114 8.64355C18.3114 8.5372 18.2697 8.43508 18.1953 8.35912C18.1208 8.28317 18.0196 8.23943 17.9132 8.2373Z" fill="white"/>
<path d="M17.9132 9.76941H10.8416C10.7338 9.76941 10.6305 9.81221 10.5543 9.8884C10.4781 9.96458 10.4353 10.0679 10.4353 10.1757C10.4353 10.2834 10.4781 10.3867 10.5543 10.4629C10.6305 10.5391 10.7338 10.5819 10.8416 10.5819H17.9132C18.0196 10.5798 18.1208 10.536 18.1953 10.4601C18.2697 10.3841 18.3114 10.282 18.3114 10.1757C18.3114 10.0693 18.2697 9.96718 18.1953 9.89123C18.1208 9.81527 18.0196 9.77154 17.9132 9.76941Z" fill="white"/>
<path d="M8.8047 7.98218H6.76196C6.7086 7.98215 6.65576 7.99263 6.60646 8.01304C6.55716 8.03344 6.51236 8.06337 6.47463 8.1011C6.4369 8.13883 6.40698 8.18362 6.38657 8.23293C6.36617 8.28223 6.35568 8.33507 6.35571 8.38843V10.4312C6.35568 10.4845 6.36617 10.5374 6.38657 10.5867C6.40698 10.636 6.4369 10.6808 6.47463 10.7185C6.51236 10.7562 6.55716 10.7862 6.60646 10.8066C6.65576 10.827 6.7086 10.8375 6.76196 10.8374H8.80472C8.85808 10.8375 8.91092 10.827 8.96022 10.8066C9.00952 10.7862 9.05432 10.7562 9.09205 10.7185C9.12978 10.6808 9.1597 10.636 9.18011 10.5867C9.20051 10.5374 9.211 10.4845 9.21097 10.4312V8.38843C9.211 8.33507 9.20051 8.28223 9.18011 8.23292C9.1597 8.18362 9.12977 8.13882 9.09204 8.10109C9.05431 8.06336 9.00951 8.03344 8.96021 8.01303C8.9109 7.99263 8.85806 7.98214 8.8047 7.98218ZM8.39845 10.0249H7.16821V8.79468H8.39847L8.39845 10.0249Z" fill="white"/>
<path d="M14.6636 18.7173H10.8427C10.7364 18.7194 10.635 18.7631 10.5606 18.839C10.4861 18.915 10.4443 19.0172 10.4443 19.1235C10.4443 19.2299 10.4861 19.3321 10.5606 19.408C10.6351 19.484 10.7364 19.5277 10.8428 19.5298H14.6636C14.77 19.5277 14.8713 19.484 14.9458 19.408C15.0203 19.3321 15.062 19.2299 15.062 19.1235C15.062 19.0171 15.0203 18.915 14.9458 18.839C14.8713 18.7631 14.77 18.7194 14.6636 18.7173Z" fill="white"/>
<path d="M14.2474 20.2522H10.8415C10.7351 20.2543 10.6338 20.298 10.5593 20.374C10.4848 20.4499 10.4431 20.5521 10.4431 20.6585C10.4431 20.7649 10.4849 20.867 10.5593 20.943C10.6338 21.0189 10.7352 21.0626 10.8415 21.0647H14.2474C14.3538 21.0626 14.4551 21.0189 14.5296 20.9429C14.6041 20.867 14.6458 20.7648 14.6458 20.6584C14.6458 20.552 14.6041 20.4499 14.5296 20.3739C14.4551 20.298 14.3538 20.2543 14.2474 20.2522Z" fill="white"/>
<path d="M8.8047 18.4646H6.76196C6.7086 18.4646 6.65576 18.4751 6.60646 18.4955C6.55716 18.5159 6.51236 18.5458 6.47463 18.5835C6.4369 18.6212 6.40698 18.666 6.38657 18.7153C6.36617 18.7647 6.35568 18.8175 6.35571 18.8708V20.9136C6.35568 20.967 6.36617 21.0198 6.38657 21.0691C6.40698 21.1184 6.4369 21.1632 6.47463 21.2009C6.51236 21.2387 6.55716 21.2686 6.60646 21.289C6.65576 21.3094 6.7086 21.3199 6.76196 21.3199H8.80472C8.85808 21.3199 8.91092 21.3094 8.96022 21.289C9.00952 21.2686 9.05432 21.2387 9.09205 21.2009C9.12978 21.1632 9.1597 21.1184 9.18011 21.0691C9.20051 21.0198 9.211 20.967 9.21097 20.9136V18.8708C9.211 18.8175 9.20051 18.7646 9.1801 18.7153C9.1597 18.666 9.12977 18.6212 9.09204 18.5835C9.05431 18.5458 9.00951 18.5159 8.96021 18.4955C8.9109 18.4751 8.85806 18.4646 8.8047 18.4646ZM8.39845 20.5074H7.16821V19.2771H8.39847L8.39845 20.5074Z" fill="white"/>
</svg>
