<svg width="19" height="20" viewBox="0 0 19 20" fill="none" xmlns="http://www.w3.org/2000/svg">
<g clip-path="url(#clip0_904_1540)">
<path d="M4.72597 9.94466C4.72597 9.7774 4.86269 9.64172 5.03122 9.64172H11.3881C11.5566 9.64172 11.6933 9.7774 11.6933 9.94466C11.6933 10.1119 11.5566 10.2476 11.3881 10.2476H5.03122C4.86249 10.2476 4.72597 10.1121 4.72597 9.94466ZM5.03122 12.5035H10.2155C10.384 12.5035 10.5207 12.3678 10.5207 12.2005C10.5207 12.0333 10.384 11.8976 10.2155 11.8976H5.03122C4.86269 11.8976 4.72597 12.0333 4.72597 12.2005C4.72597 12.3678 4.86249 12.5035 5.03122 12.5035ZM5.03122 7.99172H11.3881C11.5566 7.99172 11.6933 7.85603 11.6933 7.68878C11.6933 7.52152 11.5566 7.38584 11.3881 7.38584H5.03122C4.86269 7.38584 4.72597 7.52152 4.72597 7.68878C4.72597 7.85603 4.86249 7.99172 5.03122 7.99172ZM17.8719 6.88152L14.9159 11.9886V18.3243C14.9159 18.4915 14.7792 18.6272 14.6106 18.6272H2.03742C1.8689 18.6272 1.73218 18.4915 1.73218 18.3243V3.82074C1.73218 3.80133 1.73435 3.7825 1.73791 3.76407C1.7381 3.76309 1.7381 3.76211 1.7381 3.76113C1.74344 3.73466 1.75312 3.71015 1.76478 3.68682C1.76754 3.68152 1.77031 3.67642 1.77327 3.67113C1.7869 3.6476 1.80251 3.62525 1.82187 3.60623L4.37785 1.06956C4.39701 1.05054 4.41934 1.03505 4.44305 1.02152C4.44858 1.01839 4.45372 1.01544 4.45945 1.0127C4.48296 1.00113 4.50746 0.991719 4.53393 0.986425C4.53531 0.986229 4.5367 0.986229 4.53808 0.986033C4.55626 0.9827 4.57483 0.980347 4.59399 0.980347H14.6106C14.7792 0.980347 14.9159 1.11603 14.9159 1.28329V6.47701L15.4738 5.5129C15.6242 5.25329 15.8913 5.05074 16.1888 4.97133C16.4806 4.89348 16.779 4.93505 17.052 5.09113L17.4483 5.31839C17.9984 5.63368 18.1884 6.33486 17.8719 6.88152ZM15.4084 9.92152L14.0703 9.15466L12.3407 12.1427C12.8445 12.1566 13.4082 12.487 13.6688 12.9268L15.4084 9.92152ZM12.0521 12.8576L12.1376 13.998L13.1814 13.5184C13.2022 13.478 13.2332 13.3878 13.1451 13.2368C12.9917 12.9749 12.6009 12.7456 12.3076 12.7456C12.3072 12.7456 12.3066 12.7456 12.3062 12.7456C12.158 12.7462 12.0898 12.8043 12.0521 12.8576ZM2.77417 3.5178H4.28874V2.01466L2.77417 3.5178ZM14.3054 13.0435L13.8599 13.8133C13.8283 13.8676 13.7806 13.9109 13.7233 13.9374L11.9944 14.7315C11.9535 14.7503 11.9098 14.7596 11.8662 14.7596C11.8243 14.7596 11.783 14.7484 11.7441 14.7313C11.7054 14.749 11.6625 14.7596 11.617 14.7596H5.03122C4.86269 14.7596 4.72597 14.6239 4.72597 14.4566C4.72597 14.2894 4.86269 14.1537 5.03122 14.1537H11.5372L11.422 12.6182C11.4175 12.5578 11.4313 12.4974 11.4618 12.4449L13.6935 8.58917C13.6935 8.58917 13.6935 8.58897 13.6935 8.58878L14.3054 7.53172V1.58623H4.89924V3.82074C4.89924 3.98799 4.76252 4.12368 4.59399 4.12368H2.34267V18.0215H14.3054V13.0435ZM17.1431 5.84329L16.7468 5.61603C16.6152 5.54093 16.4802 5.52054 16.3477 5.55662C16.2076 5.59407 16.0725 5.69544 16.0033 5.81486L14.3743 8.62917L15.7125 9.39584L17.3426 6.57956C17.4918 6.32211 17.4023 5.99172 17.1431 5.84329Z" fill="white"/>
</g>
<defs>
<clipPath id="clip0_904_1540">
<rect width="18.7692" height="20" fill="white"/>
</clipPath>
</defs>
</svg>
