<svg width="21" height="23" viewBox="0 0 21 23" fill="none" xmlns="http://www.w3.org/2000/svg">
<path d="M18.5158 17.8898L15.9853 14.5193C16.0168 14.4185 16.042 14.3135 16.0588 14.2043L16.1512 13.5428C16.2079 13.1375 16.4305 12.8267 16.7959 12.6398L17.4805 12.2912C17.9194 12.0686 18.2176 11.7158 18.3667 11.2454C18.5158 10.775 18.4717 10.3172 18.2407 9.88044L17.9257 9.29244C17.7325 8.93124 17.7304 8.54904 17.9152 8.18364L18.2638 7.50114C18.4885 7.06224 18.5221 6.60234 18.3667 6.13404C18.2113 5.66574 17.9068 5.31924 17.4637 5.10504L16.8631 4.81314C16.4956 4.63464 16.2667 4.32594 16.2037 3.92274L16.084 3.16464C16.0084 2.67744 15.7648 2.28474 15.3637 1.99914C14.9626 1.71354 14.5132 1.61064 14.0281 1.69674L13.3708 1.81434C12.9676 1.88574 12.6022 1.77024 12.3145 1.48044L11.7727 0.936541C11.422 0.590041 10.9957 0.417841 10.5022 0.419941C10.0087 0.424141 9.58656 0.606841 9.24426 0.961741L8.78016 1.44264C8.49666 1.73664 8.13336 1.85844 7.72806 1.79334L6.97206 1.67364C6.48486 1.59594 6.03756 1.70514 5.64066 1.99914C5.24376 2.29314 5.00856 2.68794 4.94136 3.17724L4.84896 3.83874C4.79226 4.24404 4.56966 4.55484 4.20426 4.74174L3.51966 5.09034C3.08076 5.31294 2.78256 5.66574 2.63346 6.13614C2.48436 6.60654 2.52846 7.06434 2.75946 7.50114L3.07446 8.08914C3.26766 8.45034 3.26976 8.83254 3.08496 9.19794L2.73636 9.88044C2.51166 10.3193 2.47806 10.7792 2.63346 11.2475C2.78886 11.7158 3.09336 12.0623 3.53646 12.2765L4.13706 12.5684C4.50456 12.7469 4.73346 13.0556 4.79646 13.4588L4.91616 14.2169C4.93506 14.3303 4.96236 14.4395 4.99806 14.5445L2.48436 17.8898C2.41926 17.9759 2.40876 18.0935 2.45706 18.1901C2.50536 18.2867 2.60616 18.3476 2.71536 18.3476L5.14086 18.3203L6.32946 20.435C6.37986 20.5253 6.47646 20.5799 6.57936 20.5799C6.58356 20.5799 6.58986 20.5799 6.59406 20.5799C6.70326 20.5736 6.79776 20.5064 6.84186 20.4077L8.74236 15.9536L9.22956 16.4429C9.57396 16.7873 9.99396 16.9616 10.4791 16.9616C10.4854 16.9616 10.4917 16.9616 10.4959 16.9616C10.9894 16.9574 11.4115 16.7747 11.7538 16.4198L12.2179 15.9389C12.2263 15.9305 12.2347 15.9242 12.2431 15.9158L14.1583 20.4056C14.2003 20.5064 14.2969 20.5736 14.4061 20.5778C14.4103 20.5778 14.4166 20.5778 14.4208 20.5778C14.5237 20.5778 14.6182 20.5232 14.6707 20.4329L15.8593 18.3182L18.2848 18.3455C18.394 18.3476 18.4927 18.2867 18.5431 18.188C18.5914 18.0935 18.5809 17.9759 18.5158 17.8898ZM6.54366 19.6475L5.55666 17.8919C5.50626 17.8016 5.40756 17.7449 5.30466 17.747L3.28866 17.7701L5.30886 15.08C5.40336 15.1892 5.51046 15.29 5.63646 15.3803C6.03756 15.6659 6.48696 15.7688 6.97206 15.6827L7.62936 15.5651C7.85406 15.5252 8.06616 15.5462 8.26146 15.6197L6.54366 19.6475ZM11.3443 16.0229C11.1091 16.2665 10.8298 16.3862 10.4917 16.3904C10.4875 16.3904 10.4833 16.3904 10.4791 16.3904C10.1473 16.3904 9.87006 16.2749 9.63276 16.0376L9.09096 15.4937C8.75076 15.1514 8.32026 14.9729 7.85616 14.9729C7.74906 14.9729 7.63986 14.9834 7.52856 15.0023L6.87126 15.1199C6.53736 15.1787 6.24126 15.1115 5.96616 14.9162C5.69106 14.7188 5.53146 14.4605 5.47896 14.1266L5.35926 13.3685C5.26686 12.7805 4.92036 12.3122 4.38486 12.0518L3.78846 11.7599C3.48396 11.6108 3.28446 11.384 3.17736 11.0627C3.07026 10.7414 3.09336 10.439 3.24666 10.1387L3.59526 9.45624C3.86616 8.92704 3.86196 8.34534 3.58056 7.81824L3.26556 7.23024C3.10596 6.93204 3.07866 6.62964 3.17946 6.30624C3.28026 5.98284 3.47766 5.75184 3.78006 5.59854L4.46466 5.24994C4.99596 4.98114 5.33406 4.50654 5.41596 3.91644L5.50836 3.25494C5.55456 2.91894 5.70996 2.65854 5.98296 2.45694C6.25596 2.25534 6.54996 2.18394 6.88386 2.23644L7.64196 2.35824C8.22996 2.45274 8.78226 2.26794 9.19386 1.83954L9.65796 1.35864C9.89316 1.11504 10.1725 0.995341 10.5106 0.991141C10.8487 0.989041 11.1301 1.10244 11.3695 1.34184L11.9113 1.88574C12.3313 2.30784 12.8857 2.48214 13.4716 2.37714L14.1289 2.25954C14.4628 2.20074 14.7589 2.26794 15.034 2.46324C15.3091 2.66064 15.4687 2.91684 15.5212 3.25284L15.6409 4.01094C15.7333 4.59894 16.0798 5.06724 16.6153 5.32764L17.2159 5.61954C17.5204 5.76864 17.7199 5.99544 17.827 6.31674C17.9341 6.63804 17.911 6.94044 17.7577 7.24074L17.4091 7.92324C17.1382 8.45454 17.1424 9.03414 17.4238 9.56124L17.7388 10.1513C17.8984 10.4495 17.9257 10.7519 17.8249 11.0753C17.7241 11.3987 17.5267 11.6297 17.2243 11.783L16.5397 12.1316C16.0084 12.4004 15.6703 12.875 15.5884 13.4651L15.496 14.1266C15.4498 14.4626 15.2944 14.723 15.0214 14.9246C14.7484 15.1262 14.4544 15.1976 14.1205 15.1451L13.3624 15.0233C12.7744 14.9288 12.2221 15.1136 11.8105 15.542L11.3443 16.0229ZM15.6955 17.747C15.5926 17.7449 15.4939 17.8016 15.4435 17.8919L14.4565 19.6475L12.7366 15.6176C12.9025 15.5693 13.081 15.5567 13.27 15.5861L14.0281 15.7079C14.5153 15.7856 14.9626 15.6764 15.3595 15.3824C15.4855 15.29 15.5926 15.185 15.6871 15.0716L17.7136 17.7701L15.6955 17.747ZM15.8068 8.68974C15.8068 5.76444 13.4254 3.38304 10.5001 3.38304C7.57476 3.38304 5.19336 5.76444 5.19336 8.68974C5.19336 11.615 7.57476 13.9964 10.5001 13.9964C13.4254 13.9964 15.8068 11.6171 15.8068 8.68974ZM10.5001 13.4252C7.88976 13.4252 5.76456 11.3021 5.76456 8.68974C5.76456 6.07734 7.88976 3.95634 10.5001 3.95634C13.1104 3.95634 15.2356 6.07944 15.2356 8.69184C15.2356 11.3042 13.1104 13.4252 10.5001 13.4252ZM13.501 7.44234L11.5795 7.20294L10.7584 5.44944C10.7122 5.34864 10.6114 5.28564 10.5001 5.28564C10.3888 5.28564 10.288 5.35074 10.2418 5.44944L9.42066 7.20294L7.49916 7.44234C7.38996 7.45704 7.29756 7.53264 7.26186 7.63764C7.22826 7.74264 7.25766 7.85814 7.33746 7.93374L8.75076 9.25674L8.38536 11.1593C8.36436 11.2685 8.40846 11.3798 8.49876 11.4449C8.58906 11.51 8.70666 11.5184 8.80536 11.4638L10.5001 10.5293L12.1948 11.4659C12.2389 11.489 12.2851 11.5016 12.3334 11.5016C12.3922 11.5016 12.451 11.4827 12.5014 11.447C12.5917 11.3819 12.6358 11.2706 12.6148 11.1614L12.2494 9.25884L13.6627 7.93584C13.7446 7.86024 13.774 7.74474 13.7383 7.63974C13.7047 7.53264 13.6123 7.45704 13.501 7.44234ZM11.7433 8.94804C11.6719 9.01524 11.6404 9.11394 11.6572 9.21054L11.9386 10.6679L10.6387 9.94974C10.5526 9.90144 10.4476 9.90144 10.3636 9.94974L9.06366 10.6679L9.34506 9.21054C9.36396 9.11394 9.33036 9.01524 9.25896 8.94804L8.17536 7.93374L9.64746 7.75104C9.74406 7.73844 9.83016 7.67754 9.87006 7.58934L10.5001 6.24534L11.1301 7.58934C11.1721 7.67754 11.2561 7.73844 11.3527 7.75104L12.8248 7.93374L11.7433 8.94804Z" fill="white"/>
</svg>
