<svg width="26" height="25" viewBox="0 0 26 25" fill="none" xmlns="http://www.w3.org/2000/svg">
<path d="M4.12376 20.8207H13.6438C14.3946 22.2907 15.9447 23.3051 17.7361 23.3051C20.2514 23.3051 22.2978 21.3067 22.3068 18.8469C22.307 18.8418 22.3098 18.8376 22.3098 18.8326C22.3098 18.8279 22.3073 18.8241 22.3071 18.8195C22.3023 16.9277 21.0882 15.3124 19.3835 14.6653V7.01967C19.3835 7.00822 19.3778 6.99862 19.3769 6.9874C19.3741 6.95564 19.3678 6.9252 19.3578 6.89486C19.3512 6.87427 19.3456 6.85433 19.3361 6.83522C19.3248 6.81319 19.3089 6.79384 19.2937 6.77375C19.2772 6.75182 19.263 6.72924 19.2426 6.7108L14.6878 2.25712C14.6663 2.23433 14.6399 2.21827 14.6138 2.20053C14.5972 2.18926 14.5817 2.17638 14.5639 2.16758C14.5406 2.1561 14.5162 2.14948 14.4908 2.14221C14.4664 2.1352 14.4421 2.13034 14.4168 2.12763C14.4012 2.12595 14.3875 2.11865 14.3714 2.11865H4.12376C3.88424 2.11865 3.69043 2.30838 3.69043 2.54238V20.3969C3.69043 20.6309 3.88424 20.8207 4.12376 20.8207ZM21.4137 18.4088H20.9861C20.7466 18.4088 20.5528 18.5986 20.5528 18.8326C20.5528 19.0666 20.7466 19.2563 20.9861 19.2563H21.4132C21.2137 20.9166 19.8658 22.236 18.1694 22.4306V22.0105C18.1694 21.7765 17.9756 21.5868 17.7361 21.5868C17.4966 21.5868 17.3028 21.7765 17.3028 22.0105V22.4307C15.9574 22.2767 14.829 21.418 14.319 20.2414C14.3171 20.2365 14.3157 20.2316 14.3136 20.2269C14.1831 19.9222 14.0956 19.5961 14.0548 19.2563H14.4861C14.7256 19.2563 14.9194 19.0666 14.9194 18.8326C14.9194 18.5986 14.7256 18.4088 14.4861 18.4088H14.0543C14.2526 16.7485 15.6032 15.4289 17.3028 15.2346V15.6546C17.3028 15.8886 17.4966 16.0783 17.7361 16.0783C17.9756 16.0783 18.1694 15.8886 18.1694 15.6546V15.2347C19.867 15.4292 21.2156 16.7487 21.4137 18.4088ZM14.8026 3.56777L17.9033 6.59946H14.8026V3.56777ZM4.5571 2.96611H13.936V7.02319C13.936 7.25719 14.1298 7.44692 14.3693 7.44692H18.5169V14.4303C18.2626 14.3873 18.0028 14.3602 17.7361 14.3602C15.2131 14.3602 13.1603 16.3657 13.1603 18.8307C13.1603 19.2262 13.2182 19.6078 13.3172 19.9732H4.5571V2.96611Z" fill="white"/>
<path d="M6.28856 5.68523H10.6947C10.9342 5.68523 11.128 5.4955 11.128 5.2615C11.128 5.02749 10.9342 4.83777 10.6947 4.83777H6.28856C6.04904 4.83777 5.85522 5.02749 5.85522 5.2615C5.85522 5.4955 6.04904 5.68523 6.28856 5.68523Z" fill="white"/>
<path d="M6.28856 9.11162H12.3565C12.596 9.11162 12.7898 8.92189 12.7898 8.68789C12.7898 8.45389 12.596 8.26416 12.3565 8.26416H6.28856C6.04904 8.26416 5.85522 8.45389 5.85522 8.68789C5.85522 8.92189 6.04904 9.11162 6.28856 9.11162Z" fill="white"/>
<path d="M6.28856 12.538H16.6594C16.8989 12.538 17.0927 12.3483 17.0927 12.1143C17.0927 11.8803 16.8989 11.6906 16.6594 11.6906H6.28856C6.04904 11.6906 5.85522 11.8803 5.85522 12.1143C5.85522 12.3483 6.04904 12.538 6.28856 12.538Z" fill="white"/>
<path d="M12.4542 15.1171H6.28856C6.04904 15.1171 5.85522 15.3068 5.85522 15.5408C5.85522 15.7748 6.04904 15.9645 6.28856 15.9645H12.4542C12.6938 15.9645 12.8876 15.7748 12.8876 15.5408C12.8876 15.3068 12.6938 15.1171 12.4542 15.1171Z" fill="white"/>
<path d="M17.4275 19.1321L18.4363 20.1188C18.521 20.2016 18.6319 20.243 18.7427 20.243C18.8536 20.243 18.9645 20.2016 19.0491 20.1188C19.2184 19.9535 19.2184 19.6852 19.0491 19.5197L18.3466 18.8325L19.5806 17.6259C19.7499 17.4604 19.7499 17.1922 19.5806 17.0267C19.4113 16.8612 19.1371 16.8612 18.9679 17.0267L17.4275 18.533C17.2582 18.6985 17.2582 18.9666 17.4275 19.1321Z" fill="white"/>
</svg>
