<svg width="29" height="28" viewBox="0 0 29 28" fill="none" xmlns="http://www.w3.org/2000/svg">
<path d="M6.34658 8.25282C4.7748 8.25282 3.49756 6.97377 3.49756 5.39979C3.49756 3.8258 4.7748 2.54675 6.34658 2.54675C7.91836 2.54675 9.19561 3.8258 9.19561 5.39979C9.19561 6.97377 7.91836 8.25282 6.34658 8.25282ZM6.34658 3.39756C5.24492 3.39756 4.34717 4.29657 4.34717 5.39979C4.34717 6.503 5.24492 7.40201 6.34658 7.40201C7.44824 7.40201 8.346 6.503 8.346 5.39979C8.346 4.29657 7.44824 3.39756 6.34658 3.39756Z" fill="white"/>
<path d="M7.43691 25.3314C7.00928 25.3314 6.62129 25.1527 6.34375 24.8663C6.06621 25.1527 5.67822 25.3314 5.25059 25.3314C4.4123 25.3314 3.73262 24.6507 3.73262 23.8113V18.4625C3.54287 18.5476 3.33613 18.5873 3.12373 18.5845C2.35342 18.5675 1.72754 17.9209 1.72754 17.1381V11.5625C1.72754 10.0821 2.92832 8.87964 4.40664 8.87964H5.61025L6.34375 10.0509L7.07725 8.87964H8.04863C8.43662 8.87964 8.81894 8.97606 9.15596 9.15757L14.0582 11.7582C14.5085 11.9964 14.786 12.4587 14.786 12.9663C14.786 13.4286 14.5538 13.8568 14.1687 14.1093C13.7807 14.3617 13.2992 14.4042 12.8744 14.217L9.11348 12.5636C9.10781 12.5608 9.09365 12.558 9.07383 12.558C9.00869 12.558 8.95488 12.6118 8.95488 12.6771V23.8113C8.95488 24.6507 8.2752 25.3314 7.43691 25.3314ZM6.76855 17.9946V23.8113C6.76855 24.1799 7.06875 24.4806 7.43691 24.4806C7.80508 24.4806 8.10527 24.1799 8.10527 23.8113V12.6771C8.10527 12.1411 8.53857 11.7071 9.07383 11.7071C9.20976 11.7071 9.3457 11.7355 9.46465 11.7894L13.2143 13.4371C13.3757 13.508 13.5541 13.4938 13.7014 13.3946C13.8486 13.2982 13.9364 13.1393 13.9364 12.9635C13.9364 12.7735 13.8316 12.5977 13.6617 12.5069L8.75381 9.90628C8.54141 9.79 8.29785 9.73044 8.04863 9.73044H7.54736L6.34375 11.6504L5.14014 9.73044H4.40664C3.39844 9.73044 2.57715 10.5529 2.57715 11.5625V17.1381C2.57715 17.4614 2.8292 17.728 3.14072 17.7337C3.29932 17.7365 3.44658 17.677 3.55986 17.5664C3.67031 17.4558 3.73262 17.3111 3.73262 17.1551V12.1325H4.58223V23.8113C4.58223 24.1799 4.88242 24.4806 5.25059 24.4806C5.61875 24.4806 5.91895 24.1799 5.91895 23.8113V17.9946H6.76855Z" fill="white"/>
<path d="M27.3009 4.35608H8.72559V5.20688H27.3009V4.35608Z" fill="white"/>
<path d="M24.6726 22.0018V21.151C25.0974 21.151 25.4429 20.805 25.4429 20.3796V4.78149H26.2925V20.3796C26.2925 21.2729 25.5647 22.0018 24.6726 22.0018Z" fill="white"/>
<path d="M16.0688 5.20409H13.2368V3.30396C13.2368 2.99484 13.4889 2.74243 13.7976 2.74243H15.5053C15.8168 2.74243 16.0688 2.99484 16.0688 3.30396V5.20409ZM14.0864 4.35329H15.2192V3.59324H14.0864V4.35329Z" fill="white"/>
<path d="M20.7106 22.7618C19.9432 22.7618 19.2267 22.4158 18.748 21.8118C18.394 21.3665 18.21 20.8277 18.21 20.2576C18.21 18.8765 19.3314 17.7534 20.7106 17.7534C20.7135 17.7534 20.7135 17.7534 20.7163 17.7534C21.379 17.7534 22.0049 18.0115 22.475 18.4823C22.9479 18.9559 23.2113 19.5855 23.2113 20.2576C23.2113 20.8277 23.0244 21.3665 22.6732 21.8118C22.1975 22.4158 21.481 22.7618 20.7106 22.7618ZM20.7163 18.6042H20.7135C19.8016 18.6042 19.0624 19.3473 19.0624 20.2576C19.0624 20.6348 19.1842 20.9893 19.4192 21.2843C19.7336 21.6813 20.2065 21.911 20.7135 21.911C21.2232 21.911 21.6962 21.6841 22.0077 21.2843C22.2399 20.9893 22.3646 20.6348 22.3646 20.2576C22.3646 19.8152 22.1918 19.3983 21.8774 19.0863C21.5659 18.7744 21.1524 18.6042 20.7163 18.6042Z" fill="white"/>
<path d="M23.4125 26.4912H17.9863L17.958 25.6404C17.9126 25.6432 17.8787 25.6801 17.8787 25.7283V24.5457C17.8787 24.2564 17.8305 23.9728 17.7342 23.6977L17.6663 23.4992L17.7795 23.3234C18.3573 22.4385 19.3343 21.9082 20.3935 21.9082H21.025C22.7469 21.9082 24.1459 23.3092 24.1459 25.0335V25.7538C24.1459 26.1622 23.8174 26.4912 23.4125 26.4912ZM18.7283 25.6404H23.2963V25.0363C23.2963 23.7828 22.2768 22.7618 21.025 22.7618H20.3935C19.6883 22.7618 19.0341 23.0851 18.6037 23.6325C18.6858 23.9303 18.7283 24.2366 18.7283 24.5457V25.6404Z" fill="white"/>
<path d="M14.6529 21.9734C13.0302 21.9734 11.7104 20.6519 11.7104 19.0268C11.7104 17.4018 13.0302 16.0802 14.6529 16.0802C16.2757 16.0802 17.5954 17.4018 17.5954 19.0268C17.5954 20.6519 16.2757 21.9734 14.6529 21.9734ZM14.6529 16.931C13.5003 16.931 12.5601 17.8726 12.5601 19.0268C12.5601 20.1811 13.5003 21.1226 14.6529 21.1226C15.8056 21.1226 16.7458 20.1811 16.7458 19.0268C16.7458 17.8726 15.8056 16.931 14.6529 16.931Z" fill="white"/>
<path d="M17.9976 26.4913H11.2913C10.8892 26.4657 10.5776 26.1311 10.5776 25.7284V24.5458C10.5776 24.1629 10.6428 23.7829 10.7674 23.4199C11.246 22.0472 12.5431 21.1227 13.9987 21.1227H15.31C16.7628 21.1227 18.0627 22.0444 18.5413 23.4199C18.6659 23.7772 18.7282 24.1572 18.7282 24.5458V25.7284C18.7282 26.1311 18.4139 26.4657 18.0117 26.4913H17.9976ZM11.4244 25.6405H17.8758V24.5458C17.8758 24.2508 17.8276 23.9672 17.7342 23.6978C17.3745 22.6655 16.4003 21.9735 15.3071 21.9735H13.9959C12.9027 21.9735 11.9285 22.6655 11.5688 23.6978C11.4726 23.97 11.4244 24.2565 11.4244 24.5458V25.6405Z" fill="white"/>
<path d="M17.9946 12.5976L15.9018 10.5018L14.0836 12.3707L13.4775 11.7751L15.8961 9.29361L17.9946 11.3951L21.8858 7.49841L22.4862 8.09965L17.9946 12.5976Z" fill="white"/>
</svg>
