<svg width="45" height="53" viewBox="0 0 45 53" fill="none" xmlns="http://www.w3.org/2000/svg">
<path d="M29.1395 31.3564H14.7424C14.2287 31.3564 13.814 30.9287 13.814 30.3989C13.814 29.8691 14.2287 29.4414 14.7424 29.4414H29.1395C29.6532 29.4414 30.0679 29.8691 30.0679 30.3989C30.0679 30.9287 29.6532 31.3564 29.1395 31.3564Z" fill="url(#paint0_linear_4296_564)"/>
<path d="M20.4183 37.2919H14.7424C14.2287 37.2919 13.814 36.8643 13.814 36.3344C13.814 35.8046 14.2287 35.377 14.7424 35.377H20.4183C20.932 35.377 21.3467 35.8046 21.3467 36.3344C21.3467 36.8643 20.932 37.2919 20.4183 37.2919Z" fill="url(#paint1_linear_4296_564)"/>
<path d="M29.1395 19.4765H14.7424C14.2287 19.4765 13.814 19.0488 13.814 18.519C13.814 17.9892 14.2287 17.5615 14.7424 17.5615H29.1395C29.6532 17.5615 30.0679 17.9892 30.0679 18.519C30.0679 19.0488 29.6532 19.4765 29.1395 19.4765Z" fill="url(#paint2_linear_4296_564)"/>
<path d="M29.1395 25.413H14.7424C14.2287 25.413 13.814 24.9854 13.814 24.4555C13.814 23.9257 14.2287 23.498 14.7424 23.498H29.1395C29.6532 23.498 30.0679 23.9257 30.0679 24.4555C30.0679 24.9854 29.6532 25.413 29.1395 25.413Z" fill="url(#paint3_linear_4296_564)"/>
<path d="M35.5458 14.6315L29.7832 8.91849C29.6161 8.74614 29.3809 8.65039 29.1457 8.65039H8.98606C8.47232 8.65039 8.05762 9.07807 8.05762 9.60789V43.7585C8.05762 44.2884 8.47232 44.716 8.98606 44.716H26.9793V42.801H9.91451V10.5654H28.7557V15.7103H33.9612L33.9736 15.7231V33.7687H35.8305V15.3209C35.8305 15.0592 35.7253 14.8103 35.5458 14.6315Z" fill="url(#paint4_linear_4296_564)"/>
<path d="M31.8321 46.9118C27.8274 46.9118 24.5654 43.5542 24.5654 39.4178C24.5654 35.2814 27.8274 31.9238 31.8321 31.9238C35.8367 31.9238 39.0987 35.2814 39.0987 39.4178C39.0987 43.5542 35.8367 46.9118 31.8321 46.9118ZM31.8321 33.8452C28.8487 33.8452 26.4223 36.3475 26.4223 39.4242C26.4223 42.501 28.8487 45.0032 31.8321 45.0032C34.8155 45.0032 37.2418 42.501 37.2418 39.4242C37.2418 36.3475 34.8155 33.8452 31.8321 33.8452Z" fill="url(#paint5_linear_4296_564)"/>
<path d="M31.7765 41.1539C31.5413 41.1539 31.3123 41.0645 31.139 40.8922L28.626 38.441C28.2546 38.0771 28.236 37.4707 28.5889 37.0877C28.9417 36.7047 29.5297 36.6856 29.9011 37.0494L31.9931 39.0857L33.8624 38.3452C34.339 38.1537 34.8775 38.4027 35.0632 38.8942C35.2489 39.3857 35.0075 39.9411 34.5309 40.1326L32.1169 41.0837C32.0117 41.1283 31.8941 41.1475 31.7827 41.1475L31.7765 41.1539Z" fill="url(#paint6_linear_4296_564)"/>
<defs>
<linearGradient id="paint0_linear_4296_564" x1="21.9409" y1="29.4414" x2="21.9409" y2="31.3564" gradientUnits="userSpaceOnUse">
<stop stop-color="#B70B36"/>
<stop offset="1" stop-color="#7D5412"/>
</linearGradient>
<linearGradient id="paint1_linear_4296_564" x1="17.5804" y1="35.377" x2="17.5804" y2="37.2919" gradientUnits="userSpaceOnUse">
<stop stop-color="#B70B36"/>
<stop offset="1" stop-color="#7D5412"/>
</linearGradient>
<linearGradient id="paint2_linear_4296_564" x1="21.9409" y1="17.5615" x2="21.9409" y2="19.4765" gradientUnits="userSpaceOnUse">
<stop stop-color="#B70B36"/>
<stop offset="1" stop-color="#7D5412"/>
</linearGradient>
<linearGradient id="paint3_linear_4296_564" x1="21.9409" y1="23.498" x2="21.9409" y2="25.413" gradientUnits="userSpaceOnUse">
<stop stop-color="#B70B36"/>
<stop offset="1" stop-color="#7D5412"/>
</linearGradient>
<linearGradient id="paint4_linear_4296_564" x1="21.944" y1="8.65039" x2="21.944" y2="44.716" gradientUnits="userSpaceOnUse">
<stop stop-color="#B70B36"/>
<stop offset="1" stop-color="#7D5412"/>
</linearGradient>
<linearGradient id="paint5_linear_4296_564" x1="31.8321" y1="31.9238" x2="31.8321" y2="46.9118" gradientUnits="userSpaceOnUse">
<stop stop-color="#B70B36"/>
<stop offset="1" stop-color="#7D5412"/>
</linearGradient>
<linearGradient id="paint6_linear_4296_564" x1="31.7307" y1="36.7881" x2="31.7307" y2="41.1539" gradientUnits="userSpaceOnUse">
<stop stop-color="#B70B36"/>
<stop offset="1" stop-color="#7D5412"/>
</linearGradient>
</defs>
</svg>
