<svg width="51" height="50" viewBox="0 0 51 50" fill="none" xmlns="http://www.w3.org/2000/svg">
<mask id="path-1-inside-1_4296_516" fill="white">
<path d="M45.5369 17.0198C45.5369 15.5776 44.3633 14.404 42.9211 14.404H35.4171C35.0038 14.404 34.5993 14.2366 34.308 13.9436L31.3487 10.9843C30.8622 10.4978 30.1872 10.2188 29.4984 10.2188H8.04354C6.60135 10.2188 5.42773 11.3924 5.42773 12.8346V40.7363C5.42773 42.1785 6.60135 43.3521 8.04354 43.3521H42.9208C44.363 43.3521 45.5366 42.1785 45.5366 40.7363L45.5369 17.0198ZM8.04407 11.2649H29.499C29.9123 11.2649 30.3168 11.4323 30.6081 11.7252L33.5674 14.6846C34.0539 15.1711 34.7288 15.4501 35.4176 15.4501H42.9217C43.7866 15.4501 44.4911 16.1546 44.4911 17.0196V20.5212C44.0534 20.1899 43.5128 19.9842 42.9217 19.9842H22.8618C22.4485 19.9842 22.044 19.8167 21.7527 19.5238L20.1885 17.9596C19.702 17.473 19.0271 17.194 18.3383 17.194H8.04407C7.45291 17.194 6.91229 17.398 6.47461 17.7311V12.8342C6.47461 11.9693 7.17912 11.2649 8.04407 11.2649ZM44.4909 40.7363C44.4909 41.6013 43.7864 42.3058 42.9215 42.3058H8.04425C7.1793 42.3058 6.47479 41.6013 6.47479 40.7363V19.81C6.47479 18.945 7.1793 18.2405 8.04425 18.2405H18.3384C18.7517 18.2405 19.1563 18.4079 19.4476 18.7008L21.0118 20.2651C21.4983 20.7516 22.1732 21.0306 22.862 21.0306H42.9218C43.7868 21.0306 44.4913 21.7351 44.4913 22.6001L44.4909 40.7363ZM9.61372 34.4586C9.61372 34.1691 9.8474 33.9354 10.1369 33.9354H17.8101C18.0996 33.9354 18.3333 34.1691 18.3333 34.4586C18.3333 34.7481 18.0996 34.9818 17.8101 34.9818H10.1369C9.8474 34.9818 9.61372 34.7481 9.61372 34.4586ZM22.5182 38.6439C22.5182 38.9334 22.2845 39.1671 21.995 39.1671H10.137C9.84749 39.1671 9.61381 38.9334 9.61381 38.6439C9.61381 38.3544 9.84748 38.1207 10.137 38.1207H21.995C22.2845 38.1207 22.5182 38.3544 22.5182 38.6439Z"/>
</mask>
<path d="M45.5369 17.0198C45.5369 15.5776 44.3633 14.404 42.9211 14.404H35.4171C35.0038 14.404 34.5993 14.2366 34.308 13.9436L31.3487 10.9843C30.8622 10.4978 30.1872 10.2188 29.4984 10.2188H8.04354C6.60135 10.2188 5.42773 11.3924 5.42773 12.8346V40.7363C5.42773 42.1785 6.60135 43.3521 8.04354 43.3521H42.9208C44.363 43.3521 45.5366 42.1785 45.5366 40.7363L45.5369 17.0198ZM8.04407 11.2649H29.499C29.9123 11.2649 30.3168 11.4323 30.6081 11.7252L33.5674 14.6846C34.0539 15.1711 34.7288 15.4501 35.4176 15.4501H42.9217C43.7866 15.4501 44.4911 16.1546 44.4911 17.0196V20.5212C44.0534 20.1899 43.5128 19.9842 42.9217 19.9842H22.8618C22.4485 19.9842 22.044 19.8167 21.7527 19.5238L20.1885 17.9596C19.702 17.473 19.0271 17.194 18.3383 17.194H8.04407C7.45291 17.194 6.91229 17.398 6.47461 17.7311V12.8342C6.47461 11.9693 7.17912 11.2649 8.04407 11.2649ZM44.4909 40.7363C44.4909 41.6013 43.7864 42.3058 42.9215 42.3058H8.04425C7.1793 42.3058 6.47479 41.6013 6.47479 40.7363V19.81C6.47479 18.945 7.1793 18.2405 8.04425 18.2405H18.3384C18.7517 18.2405 19.1563 18.4079 19.4476 18.7008L21.0118 20.2651C21.4983 20.7516 22.1732 21.0306 22.862 21.0306H42.9218C43.7868 21.0306 44.4913 21.7351 44.4913 22.6001L44.4909 40.7363ZM9.61372 34.4586C9.61372 34.1691 9.8474 33.9354 10.1369 33.9354H17.8101C18.0996 33.9354 18.3333 34.1691 18.3333 34.4586C18.3333 34.7481 18.0996 34.9818 17.8101 34.9818H10.1369C9.8474 34.9818 9.61372 34.7481 9.61372 34.4586ZM22.5182 38.6439C22.5182 38.9334 22.2845 39.1671 21.995 39.1671H10.137C9.84749 39.1671 9.61381 38.9334 9.61381 38.6439C9.61381 38.3544 9.84748 38.1207 10.137 38.1207H21.995C22.2845 38.1207 22.5182 38.3544 22.5182 38.6439Z" fill="#4616D7"/>
<path d="M45.5369 17.0198L125.537 17.021V17.0198H45.5369ZM34.308 13.9436L91.0406 -42.4604L90.9587 -42.5428L90.8765 -42.6249L34.308 13.9436ZM31.3487 10.9843L-25.2199 67.5528L-25.2199 67.5528L31.3487 10.9843ZM45.5366 40.7363L-34.4634 40.7351V40.7363H45.5366ZM30.6081 11.7252L-26.1245 68.1293L-26.0426 68.2116L-25.9605 68.2938L30.6081 11.7252ZM33.5674 14.6846L-23.0011 71.2531L-23.0011 71.2531L33.5674 14.6846ZM44.4911 20.5212L-3.79309 84.3071L124.491 181.415L124.491 20.5212H44.4911ZM21.7527 19.5238L78.4853 -36.8802L78.4034 -36.9626L78.3212 -37.0448L21.7527 19.5238ZM20.1885 17.9596L-36.3801 74.5281L-36.38 74.5281L20.1885 17.9596ZM6.47461 17.7311H-73.5254V179.14L54.921 81.3939L6.47461 17.7311ZM44.4909 40.7363L-35.5091 40.7347V40.7363H44.4909ZM19.4476 18.7008L-37.285 75.1049L-37.2031 75.1873L-37.121 75.2694L19.4476 18.7008ZM44.4913 22.6001L124.491 22.6017V22.6001H44.4913ZM125.537 17.0198C125.537 -28.6052 88.5461 -65.596 42.9211 -65.596V94.404C0.180495 94.404 -34.4631 59.7603 -34.4631 17.0198H125.537ZM42.9211 -65.596H35.4171V94.404H42.9211V-65.596ZM35.4171 -65.596C56.185 -65.596 76.2337 -57.3535 91.0406 -42.4604L-22.4246 70.3477C-7.03523 85.8266 13.8226 94.404 35.4171 94.404V-65.596ZM90.8765 -42.6249L87.9172 -45.5843L-25.2199 67.5528L-22.2605 70.5122L90.8765 -42.6249ZM87.9172 -45.5843C72.3894 -61.1121 51.3502 -69.7812 29.4984 -69.7812V90.2188C9.02427 90.2188 -10.6651 82.1076 -25.2199 67.5528L87.9172 -45.5843ZM29.4984 -69.7812H8.04354V90.2188H29.4984V-69.7812ZM8.04354 -69.7812C-37.5814 -69.7812 -74.5723 -32.7904 -74.5723 12.8346H85.4277C85.4277 55.5752 50.7841 90.2188 8.04354 90.2188V-69.7812ZM-74.5723 12.8346V40.7363H85.4277V12.8346H-74.5723ZM-74.5723 40.7363C-74.5723 86.3613 -37.5814 123.352 8.04354 123.352V-36.6479C50.7841 -36.6479 85.4277 -2.00428 85.4277 40.7363H-74.5723ZM8.04354 123.352H42.9208V-36.6479H8.04354V123.352ZM42.9208 123.352C88.5456 123.352 125.537 86.3614 125.537 40.7363H-34.4634C-34.4634 -2.00438 0.180307 -36.6479 42.9208 -36.6479V123.352ZM125.537 40.7375L125.537 17.021L-34.4631 17.0186L-34.4634 40.7351L125.537 40.7375ZM8.04407 91.2649H29.499V-68.7351H8.04407V91.2649ZM29.499 91.2649C8.73115 91.2649 -11.3176 83.0224 -26.1245 68.1293L87.3407 -44.6788C71.9513 -60.1578 51.0934 -68.7351 29.499 -68.7351V91.2649ZM-25.9605 68.2938L-23.0011 71.2531L90.136 -41.884L87.1766 -44.8433L-25.9605 68.2938ZM-23.0011 71.2531C-7.47331 86.7809 13.5659 95.4501 35.4176 95.4501V-64.5499C55.8918 -64.5499 75.5812 -56.4388 90.136 -41.884L-23.0011 71.2531ZM35.4176 95.4501H42.9217V-64.5499H35.4176V95.4501ZM42.9217 95.4501C-0.396112 95.4501 -35.5089 60.3374 -35.5089 17.0196H124.491C124.491 -28.0282 87.9693 -64.5499 42.9217 -64.5499V95.4501ZM-35.5089 17.0196V20.5212H124.491V17.0196H-35.5089ZM92.7753 -43.2646C79.771 -53.1086 62.5438 -60.0158 42.9217 -60.0158V99.9842C24.4818 99.9842 8.33584 93.4884 -3.79309 84.3071L92.7753 -43.2646ZM42.9217 -60.0158H22.8618V99.9842H42.9217V-60.0158ZM22.8618 -60.0158C43.6297 -60.0158 63.6785 -51.7733 78.4853 -36.8802L-34.9798 75.9278C-19.5905 91.4068 1.26736 99.9842 22.8618 99.9842V-60.0158ZM78.3212 -37.0448L76.757 -38.609L-36.38 74.5281L-34.8158 76.0924L78.3212 -37.0448ZM76.757 -38.609C61.2293 -54.1367 40.1901 -62.806 18.3383 -62.806V97.194C-2.136 97.194 -21.8253 89.0828 -36.3801 74.5281L76.757 -38.609ZM18.3383 -62.806H8.04407V97.194H18.3383V-62.806ZM8.04407 -62.806C-11.4317 -62.806 -28.7497 -55.9935 -41.9718 -45.9316L54.921 81.3939C42.5742 90.7896 26.3375 97.194 8.04407 97.194V-62.806ZM86.4746 17.7311V12.8342H-73.5254V17.7311H86.4746ZM86.4746 12.8342C86.4746 56.158 51.356 91.2649 8.04407 91.2649V-68.7351C-36.9977 -68.7351 -73.5254 -32.2194 -73.5254 12.8342H86.4746ZM-35.5091 40.7363C-35.5091 -2.58152 -0.396346 -37.6942 42.9215 -37.6942V122.306C87.9692 122.306 124.491 85.784 124.491 40.7363H-35.5091ZM42.9215 -37.6942H8.04425V122.306H42.9215V-37.6942ZM8.04425 -37.6942C51.3621 -37.6942 86.4748 -2.58147 86.4748 40.7363H-73.5252C-73.5252 85.784 -37.0035 122.306 8.04425 122.306V-37.6942ZM86.4748 40.7363V19.81H-73.5252V40.7363H86.4748ZM86.4748 19.81C86.4748 63.1278 51.362 98.2405 8.04425 98.2405V-61.7595C-37.0034 -61.7595 -73.5252 -25.2378 -73.5252 19.81H86.4748ZM8.04425 98.2405H18.3384V-61.7595H8.04425V98.2405ZM18.3384 98.2405C-2.42935 98.2405 -22.4781 89.998 -37.285 75.1049L76.1801 -37.7032C60.7907 -53.1822 39.9328 -61.7595 18.3384 -61.7595V98.2405ZM-37.121 75.2694L-35.5567 76.8336L77.5803 -36.3035L76.0161 -37.8677L-37.121 75.2694ZM-35.5567 76.8336C-20.0289 92.3615 1.01032 101.031 22.862 101.031V-58.9694C43.3361 -58.9694 63.0255 -50.8583 77.5803 -36.3035L-35.5567 76.8336ZM22.862 101.031H42.9218V-58.9694H22.862V101.031ZM42.9218 101.031C-0.395988 101.031 -35.5087 65.9179 -35.5087 22.6001H124.491C124.491 -22.4476 87.9696 -58.9694 42.9218 -58.9694V101.031ZM-35.5087 22.5985L-35.5091 40.7347L124.491 40.7379L124.491 22.6017L-35.5087 22.5985ZM89.6137 34.4586C89.6137 78.3505 54.0316 113.935 10.1369 113.935V-46.0646C-34.3368 -46.0646 -70.3863 -10.0122 -70.3863 34.4586H89.6137ZM10.1369 113.935H17.8101V-46.0646H10.1369V113.935ZM17.8101 113.935C-26.0827 113.935 -61.6667 78.3525 -61.6667 34.4586H98.3333C98.3333 -10.0142 62.2818 -46.0646 17.8101 -46.0646V113.935ZM-61.6667 34.4586C-61.6667 -9.435 -26.0829 -45.0182 17.8101 -45.0182V114.982C62.282 114.982 98.3333 78.9312 98.3333 34.4586H-61.6667ZM17.8101 -45.0182H10.1369V114.982H17.8101V-45.0182ZM10.1369 -45.0182C54.0291 -45.0182 89.6137 -9.43572 89.6137 34.4586H-70.3863C-70.3863 78.9319 -34.3343 114.982 10.1369 114.982V-45.0182ZM-57.4818 38.6439C-57.4818 -5.24886 -21.8988 -40.8329 21.995 -40.8329V119.167C66.4678 119.167 102.518 83.1156 102.518 38.6439H-57.4818ZM21.995 -40.8329H10.137V119.167H21.995V-40.8329ZM10.137 -40.8329C54.0292 -40.8329 89.6138 -5.25046 89.6138 38.6439H-70.3862C-70.3862 83.1172 -34.3342 119.167 10.137 119.167V-40.8329ZM89.6138 38.6439C89.6138 82.5367 54.0308 118.121 10.137 118.121V-41.8793C-34.3358 -41.8793 -70.3862 -5.82787 -70.3862 38.6439H89.6138ZM10.137 118.121H21.995V-41.8793H10.137V118.121ZM21.995 118.121C-21.8977 118.121 -57.4818 82.5377 -57.4818 38.6439H102.518C102.518 -5.82893 66.4667 -41.8793 21.995 -41.8793V118.121Z" fill="#4616D7" mask="url(#path-1-inside-1_4296_516)"/>
</svg>
