<svg width="45" height="52" viewBox="0 0 45 52" fill="none" xmlns="http://www.w3.org/2000/svg">
<path d="M28.5882 31.0234H14.1911C13.6774 31.0234 13.2627 30.5957 13.2627 30.0659C13.2627 29.5361 13.6774 29.1084 14.1911 29.1084H28.5882C29.102 29.1084 29.5167 29.5361 29.5167 30.0659C29.5167 30.5957 29.102 31.0234 28.5882 31.0234Z" fill="url(#paint0_linear_4296_542)"/>
<path d="M19.867 36.9589H14.1911C13.6774 36.9589 13.2627 36.5313 13.2627 36.0014C13.2627 35.4716 13.6774 35.0439 14.1911 35.0439H19.867C20.3808 35.0439 20.7955 35.4716 20.7955 36.0014C20.7955 36.5313 20.3808 36.9589 19.867 36.9589Z" fill="url(#paint1_linear_4296_542)"/>
<path d="M28.5882 19.1435H14.1911C13.6774 19.1435 13.2627 18.7158 13.2627 18.186C13.2627 17.6562 13.6774 17.2285 14.1911 17.2285H28.5882C29.102 17.2285 29.5167 17.6562 29.5167 18.186C29.5167 18.7158 29.102 19.1435 28.5882 19.1435Z" fill="url(#paint2_linear_4296_542)"/>
<path d="M28.5882 25.08H14.1911C13.6774 25.08 13.2627 24.6523 13.2627 24.1225C13.2627 23.5927 13.6774 23.165 14.1911 23.165H28.5882C29.102 23.165 29.5167 23.5927 29.5167 24.1225C29.5167 24.6523 29.102 25.08 28.5882 25.08Z" fill="url(#paint3_linear_4296_542)"/>
<path d="M34.9945 14.2985L29.2319 8.58548C29.0648 8.41313 28.8296 8.31738 28.5944 8.31738H8.43479C7.92105 8.31738 7.50635 8.74506 7.50635 9.27488V43.4255C7.50635 43.9553 7.92105 44.383 8.43479 44.383H26.428V42.468H9.36324V10.2324H28.2045V15.3773H33.4099L33.4223 15.3901V33.4357H35.2792V14.9879C35.2792 14.7262 35.174 14.4773 34.9945 14.2985Z" fill="url(#paint4_linear_4296_542)"/>
<path d="M31.2808 46.5788C27.2761 46.5788 24.0142 43.2212 24.0142 39.0848C24.0142 34.9484 27.2761 31.5908 31.2808 31.5908C35.2855 31.5908 38.5474 34.9484 38.5474 39.0848C38.5474 43.2212 35.2855 46.5788 31.2808 46.5788ZM31.2808 33.5122C28.2974 33.5122 25.871 36.0144 25.871 39.0912C25.871 42.1679 28.2974 44.6702 31.2808 44.6702C34.2642 44.6702 36.6905 42.1679 36.6905 39.0912C36.6905 36.0144 34.2642 33.5122 31.2808 33.5122Z" fill="url(#paint5_linear_4296_542)"/>
<path d="M31.2252 40.8209C30.99 40.8209 30.761 40.7315 30.5877 40.5592L28.0747 38.108C27.7033 37.7441 27.6848 37.1377 28.0376 36.7547C28.3904 36.3717 28.9784 36.3526 29.3498 36.7164L31.4419 38.7527L33.3111 38.0122C33.7877 37.8207 34.3262 38.0697 34.5119 38.5612C34.6976 39.0527 34.4562 39.608 33.9796 39.7995L31.5657 40.7507C31.4604 40.7953 31.3428 40.8145 31.2314 40.8145L31.2252 40.8209Z" fill="url(#paint6_linear_4296_542)"/>
<defs>
<linearGradient id="paint0_linear_4296_542" x1="21.3897" y1="29.1084" x2="21.3897" y2="31.0234" gradientUnits="userSpaceOnUse">
<stop stop-color="#B70B36"/>
<stop offset="1" stop-color="#D5A3AF"/>
</linearGradient>
<linearGradient id="paint1_linear_4296_542" x1="17.0291" y1="35.0439" x2="17.0291" y2="36.9589" gradientUnits="userSpaceOnUse">
<stop stop-color="#B70B36"/>
<stop offset="1" stop-color="#D5A3AF"/>
</linearGradient>
<linearGradient id="paint2_linear_4296_542" x1="21.3897" y1="17.2285" x2="21.3897" y2="19.1435" gradientUnits="userSpaceOnUse">
<stop stop-color="#B70B36"/>
<stop offset="1" stop-color="#D5A3AF"/>
</linearGradient>
<linearGradient id="paint3_linear_4296_542" x1="21.3897" y1="23.165" x2="21.3897" y2="25.08" gradientUnits="userSpaceOnUse">
<stop stop-color="#B70B36"/>
<stop offset="1" stop-color="#D5A3AF"/>
</linearGradient>
<linearGradient id="paint4_linear_4296_542" x1="21.3928" y1="8.31738" x2="21.3928" y2="44.383" gradientUnits="userSpaceOnUse">
<stop stop-color="#B70B36"/>
<stop offset="1" stop-color="#D5A3AF"/>
</linearGradient>
<linearGradient id="paint5_linear_4296_542" x1="31.2808" y1="31.5908" x2="31.2808" y2="46.5788" gradientUnits="userSpaceOnUse">
<stop stop-color="#B70B36"/>
<stop offset="1" stop-color="#D5A3AF"/>
</linearGradient>
<linearGradient id="paint6_linear_4296_542" x1="31.1794" y1="36.4551" x2="31.1794" y2="40.8209" gradientUnits="userSpaceOnUse">
<stop stop-color="#B70B36"/>
<stop offset="1" stop-color="#D5A3AF"/>
</linearGradient>
</defs>
</svg>
