<svg width="88" height="90" viewBox="0 0 88 90" fill="none" xmlns="http://www.w3.org/2000/svg">
<path d="M62.5317 51.1401C60.73 46.5371 57.2865 42.7653 52.8664 40.5535C54.9526 37.8919 56.2485 34.6971 56.6061 31.334C56.9637 27.9709 56.3686 24.575 54.8888 21.534C53.4089 18.493 51.1039 15.9295 48.2369 14.1361C45.3699 12.3427 42.0565 11.3917 38.6749 11.3917C35.2934 11.3917 31.98 12.3427 29.113 14.1361C26.246 15.9295 23.941 18.493 22.4611 21.534C20.9812 24.575 20.3861 27.9709 20.7437 31.334C21.1013 34.6971 22.3972 37.8919 24.4835 40.5535C21.1635 42.193 18.3686 44.7292 16.4151 47.8751C14.4615 51.021 13.4274 54.6509 13.4297 58.3541V74.5857C13.4297 75.064 13.6197 75.5227 13.9578 75.8609C14.296 76.1991 14.7547 76.3892 15.2329 76.3892H62.117C65.4647 76.4442 68.6971 75.1668 71.1032 72.8382C73.5093 70.5095 74.892 67.3203 74.947 63.972C75.0019 60.6238 73.7248 57.3909 71.3965 54.9844C69.0682 52.5779 65.8794 51.1951 62.5317 51.1401ZM38.6749 15.07C42.5009 15.07 46.1702 16.5901 48.8756 19.2959C51.5809 22.0017 53.1008 25.6715 53.1008 29.4981C53.1008 33.3246 51.5809 36.9944 48.8756 39.7002C46.1702 42.406 42.5009 43.9261 38.6749 43.9261C38.2125 43.953 37.7489 43.953 37.2864 43.9261C33.706 43.5798 30.384 41.9082 27.9721 39.239C25.5602 36.5699 24.2324 33.0957 24.2491 29.4981C24.2491 25.6715 25.7689 22.0017 28.4743 19.2959C31.1797 16.5901 34.849 15.07 38.6749 15.07ZM53.2991 72.7821H17.0362V58.3541C17.0358 55.1322 17.9942 51.983 19.7893 49.3076C21.5844 46.6322 24.1349 44.5517 27.1162 43.3309L27.3687 43.5113C27.5233 43.6583 27.6858 43.7968 27.8555 43.9261L28.6309 44.4852L29.226 44.8639L30.0375 45.3328L30.6686 45.6575L31.5161 46.0542L32.1653 46.3247L33.0489 46.6313L33.716 46.8297L34.6718 47.0642L35.3029 47.2085C35.6635 47.2085 36.0242 47.3167 36.3848 47.3708H36.9438C37.4848 47.3708 38.0438 47.3708 38.6028 47.3708C39.1618 47.3708 39.7208 47.3708 40.2618 47.3708H40.8208C41.1814 47.3708 41.5421 47.2806 41.9027 47.2085L42.5519 47.0642L43.4896 46.8297C43.7229 46.7741 43.9519 46.7017 44.1748 46.6133L45.0403 46.3247L45.7256 46.0362L46.519 45.6755L47.2042 45.3148L47.9616 44.8819L48.5927 44.4671C48.8452 44.3048 49.0796 44.1245 49.314 43.9441C49.5199 43.804 49.7185 43.6535 49.9091 43.4932L50.1615 43.3129C53.9628 44.8743 57.0303 47.8198 58.7449 51.5549C58.1279 51.7166 57.5249 51.9277 56.9417 52.1861L56.6712 52.2943C56.1349 52.5536 55.6168 52.8488 55.1204 53.1781L54.8499 53.3584C54.364 53.695 53.9002 54.0624 53.4614 54.4585L53.2811 54.6389C52.8489 55.0679 52.4396 55.5194 52.0549 55.9915C51.6872 56.4876 51.35 57.0056 51.0451 57.5425L50.9189 57.777C50.6344 58.2974 50.3931 58.8402 50.1976 59.4002C50.1478 59.5052 50.1056 59.6137 50.0714 59.7248C49.8831 60.3158 49.7325 60.9182 49.6206 61.5283C49.6206 61.5283 49.6206 61.7086 49.6206 61.7988C49.5322 62.4503 49.4901 63.1072 49.4943 63.7646C49.4674 64.1971 49.4674 64.6307 49.4943 65.0632C49.4855 65.2013 49.4855 65.3398 49.4943 65.478C49.4943 65.7665 49.4943 66.0551 49.6206 66.3256C49.7468 66.5961 49.7107 66.6683 49.7648 66.8306C49.8189 66.9929 49.873 67.2995 49.9451 67.534C50.0173 67.7684 50.0714 67.8947 50.1435 68.075C50.2107 68.2893 50.289 68.5 50.3779 68.7062C50.3779 68.8866 50.5402 69.0489 50.6304 69.2292C50.7156 69.4269 50.812 69.6196 50.9189 69.8064C51.0104 69.9809 51.1128 70.1496 51.2254 70.3114C51.3336 70.4917 51.4418 70.6901 51.55 70.8524L51.9287 71.3394C52.0386 71.509 52.1591 71.6717 52.2893 71.8263C52.4156 71.9886 52.5598 72.1329 52.7041 72.2952L53.1188 72.728L53.2991 72.7821ZM62.117 72.7821C59.7257 72.8754 57.3954 72.0148 55.6386 70.3897C53.8818 68.7645 52.8424 66.5079 52.7492 64.1163C52.6559 61.7247 53.5164 59.394 55.1413 57.637C56.7662 55.8799 59.0225 54.8404 61.4137 54.7471H62.117C64.5082 54.7471 66.8015 55.6972 68.4923 57.3883C70.1832 59.0794 71.1331 61.373 71.1331 63.7646C71.1331 66.1562 70.1832 68.4499 68.4923 70.141C66.8015 71.8321 64.5082 72.7821 62.117 72.7821Z" fill="#0D4B8F"/>
<path d="M67.5264 61.961H63.92V58.354C63.92 57.8757 63.73 57.417 63.3918 57.0788C63.0536 56.7405 62.595 56.5505 62.1167 56.5505C61.6385 56.5505 61.1798 56.7405 60.8417 57.0788C60.5035 57.417 60.3135 57.8757 60.3135 58.354V61.961H56.707C56.2288 61.961 55.7701 62.1511 55.432 62.4893C55.0938 62.8275 54.9038 63.2862 54.9038 63.7646C54.9038 64.2429 55.0938 64.7016 55.432 65.0398C55.7701 65.378 56.2288 65.5681 56.707 65.5681H60.3135V69.1751C60.3135 69.6534 60.5035 70.1121 60.8417 70.4503C61.1798 70.7886 61.6385 70.9786 62.1167 70.9786C62.595 70.9786 63.0536 70.7886 63.3918 70.4503C63.73 70.1121 63.92 69.6534 63.92 69.1751V65.5681H67.5264C68.0047 65.5681 68.4633 65.378 68.8015 65.0398C69.1397 64.7016 69.3297 64.2429 69.3297 63.7646C69.3297 63.2862 69.1397 62.8275 68.8015 62.4893C68.4633 62.1511 68.0047 61.961 67.5264 61.961Z" fill="#0D4B8F"/>
</svg>
