<svg width="69" height="69" viewBox="0 0 69 69" fill="none" xmlns="http://www.w3.org/2000/svg">
<path d="M17.036 26.4834H42.0899C42.4559 26.4834 42.8069 26.3385 43.0657 26.0806C43.3245 25.8227 43.4699 25.473 43.4699 25.1083C43.4699 24.7436 43.3245 24.3938 43.0657 24.1359C42.8069 23.878 42.4559 23.7332 42.0899 23.7332H17.036C16.67 23.7332 16.319 23.878 16.0602 24.1359C15.8014 24.3938 15.656 24.7436 15.656 25.1083C15.656 25.473 15.8014 25.8227 16.0602 26.0806C16.319 26.3385 16.67 26.4834 17.036 26.4834Z" fill="#5B5E55"/>
<path d="M17.036 35.4489H42.0899C42.4559 35.4489 42.8069 35.3041 43.0657 35.0462C43.3245 34.7883 43.4699 34.4385 43.4699 34.0738C43.4699 33.7091 43.3245 33.3594 43.0657 33.1015C42.8069 32.8436 42.4559 32.6987 42.0899 32.6987H17.036C16.67 32.6987 16.319 32.8436 16.0602 33.1015C15.8014 33.3594 15.656 33.7091 15.656 34.0738C15.656 34.4385 15.8014 34.7883 16.0602 35.0462C16.319 35.3041 16.67 35.4489 17.036 35.4489Z" fill="#5B5E55"/>
<path d="M57.5529 24.015C56.3684 23.3077 54.9507 23.0971 53.6107 23.4297C52.2707 23.7622 51.1177 24.6106 50.4045 25.7889L50.1699 26.1739V18.769C50.1376 17.6965 49.6872 16.6787 48.9142 15.9317C48.1413 15.1846 47.1067 14.767 46.0299 14.7675H37.9914V13.3924C37.9914 13.0277 37.846 12.6779 37.5872 12.42C37.3284 12.1621 36.9774 12.0173 36.6114 12.0173H34.0101V11.8041C33.9647 10.6555 33.4749 9.56892 32.6433 8.77222C31.8117 7.97551 30.7028 7.53052 29.5492 7.53052C28.3956 7.53052 27.2868 7.97551 26.4551 8.77222C25.6235 9.56892 25.1337 10.6555 25.0884 11.8041V12.0173H22.4802C22.1142 12.0173 21.7632 12.1621 21.5044 12.42C21.2456 12.6779 21.1002 13.0277 21.1002 13.3924V14.7675H13.11C12.0332 14.767 10.9985 15.1846 10.2256 15.9317C9.45267 16.6787 9.00227 17.6965 8.96997 18.769V58.3445C8.99173 59.4204 9.43882 60.4444 10.2141 61.1937C10.9893 61.943 12.03 62.3571 13.11 62.346H46.023C47.1029 62.3571 48.1437 61.943 48.9189 61.1937C49.6941 60.4444 50.1412 59.4204 50.163 58.3445V46.3329L59.34 31.1381C59.6933 30.5541 59.9276 29.9064 60.0293 29.2321C60.1311 28.5579 60.0983 27.8702 59.933 27.2085C59.7676 26.5468 59.4729 25.9242 59.0656 25.3762C58.6584 24.8282 58.1467 24.3657 57.5598 24.015H57.5529ZM27.8829 11.7835C27.9104 11.3527 28.1016 10.9485 28.4175 10.6531C28.7335 10.3577 29.1505 10.1932 29.5837 10.1932C30.017 10.1932 30.434 10.3577 30.7499 10.6531C31.0658 10.9485 31.257 11.3527 31.2846 11.7835V11.9966H27.8484L27.8829 11.7835ZM23.8947 14.7468H35.2314V16.7064H23.8602L23.8947 14.7468ZM47.4099 58.3445C47.3885 58.691 47.2324 59.0155 46.9747 59.2492C46.717 59.4828 46.3781 59.6072 46.0299 59.5958H13.11C12.7645 59.5972 12.4311 59.4694 12.1756 59.2377C11.9201 59.0061 11.7611 58.6873 11.73 58.3445V18.769C11.7611 18.4262 11.9201 18.1074 12.1756 17.8757C12.4311 17.644 12.7645 17.5163 13.11 17.5177H21.1002V18.0815C21.1002 18.4462 21.2456 18.7959 21.5044 19.0538C21.7632 19.3117 22.1142 19.4566 22.4802 19.4566H36.6114C36.9774 19.4566 37.3284 19.3117 37.5872 19.0538C37.846 18.7959 37.9914 18.4462 37.9914 18.0815V17.5177H46.0023C46.3505 17.5063 46.6894 17.6306 46.9471 17.8643C47.2048 18.0979 47.3609 18.4225 47.3823 18.769V30.753L40.8342 41.6645H17.0361C16.6701 41.6645 16.3191 41.8093 16.0603 42.0672C15.8015 42.3251 15.6561 42.6749 15.6561 43.0396C15.6561 43.4043 15.8015 43.754 16.0603 44.0119C16.3191 44.2698 16.6701 44.4147 17.0361 44.4147H39.1782L37.1634 47.7562C36.8331 48.2991 36.6456 48.9163 36.6183 49.5507L36.57 50.6576H17.0361C16.6701 50.6576 16.3191 50.8025 16.0603 51.0604C15.8015 51.3183 15.6561 51.668 15.6561 52.0327C15.6561 52.3974 15.8015 52.7472 16.0603 53.0051C16.3191 53.263 16.6701 53.4078 17.0361 53.4078H36.4458L36.2802 56.9762C36.2718 57.1619 36.3013 57.3474 36.3668 57.5215C36.4324 57.6955 36.5327 57.8545 36.6617 57.9888C36.7907 58.1231 36.9457 58.23 37.1173 58.3029C37.2889 58.3759 37.4736 58.4134 37.6602 58.4132C37.9032 58.4107 38.1412 58.3443 38.3502 58.2207L44.7465 54.4529C45.2937 54.1301 45.7514 53.6764 46.0782 53.1328L47.3961 50.9395L47.4099 58.3445ZM43.7253 51.689C43.6339 51.8398 43.5057 51.9651 43.3527 52.0534L39.1506 54.5354L39.3783 49.6744C39.383 49.4966 39.4354 49.3233 39.5301 49.1725L50.37 31.2343L54.5721 33.7439L43.7253 51.689ZM56.9664 29.7217L55.9659 31.4062L51.75 28.876L52.7574 27.2053C52.9178 26.9202 53.1341 26.6701 53.3933 26.4698C53.6526 26.2696 53.9496 26.1232 54.2667 26.0395C54.5838 25.9558 54.9145 25.9364 55.2393 25.9825C55.564 26.0286 55.8762 26.1392 56.1573 26.3078C56.4383 26.4764 56.6825 26.6995 56.8754 26.9639C57.0682 27.2283 57.2058 27.5286 57.28 27.847C57.3542 28.1654 57.3634 28.4954 57.3072 28.8175C57.2509 29.1395 57.1303 29.447 56.9526 29.7217H56.9664Z" fill="#5B5E55"/>
</svg>
