<svg width="66" height="60" viewBox="0 0 66 60" fill="none" xmlns="http://www.w3.org/2000/svg">
<path d="M25.5649 20.5492C25.7501 20.1344 25.8532 19.6914 25.8532 19.2227C25.8532 17.4344 24.3954 15.9766 22.6071 15.9766C20.8188 15.9766 19.3539 17.4344 19.3539 19.2227C19.3539 19.7453 19.4852 20.254 19.7196 20.704C18.3625 21.6696 17.5234 23.2352 17.5234 24.9461C17.5234 25.443 17.9266 25.8461 18.4234 25.8461H27.0928C27.5897 25.8461 27.9928 25.443 27.9928 24.9461C27.9928 23.1391 27.046 21.4891 25.5624 20.5423L25.5649 20.5492ZM22.6071 17.7766C23.4039 17.7766 24.0532 18.4234 24.0532 19.2227C24.0532 19.6117 23.9032 19.9797 23.6337 20.2492C23.3571 20.5258 22.9915 20.6758 22.6071 20.6758C22.4642 20.6758 22.3423 20.6523 22.2228 20.6219C22.061 20.575 21.9157 20.507 21.8032 20.4367C21.7376 20.3945 21.6837 20.3477 21.6345 20.3055C21.3274 20.0359 21.154 19.6398 21.154 19.225C21.154 18.4281 21.8009 17.7789 22.6071 17.7789L22.6071 17.7766ZM19.4454 24.0532C19.6727 23.2141 20.2141 22.4875 20.9641 22.0305C21.1024 22.1149 21.2524 22.1805 21.4024 22.2414C21.4797 22.2719 21.5641 22.2953 21.6485 22.3188C21.7211 22.3422 21.7868 22.361 21.8594 22.3797C21.9743 22.4102 22.0938 22.4266 22.2133 22.4407C22.2368 22.4407 22.2672 22.4407 22.2907 22.4477C22.3938 22.4594 22.5016 22.4782 22.6024 22.4782C22.8954 22.4782 23.179 22.4242 23.4555 22.3516C23.5329 22.3328 23.6126 22.3094 23.6899 22.2789C23.7672 22.2485 23.8469 22.225 23.9243 22.1899C24.086 22.1172 24.2477 22.0399 24.3977 21.9367C25.2204 22.3867 25.825 23.1555 26.0712 24.0555H19.4406L19.4454 24.0532Z" fill="url(#paint0_linear_6349_760)"/>
<path d="M25.5649 32.5961C25.7501 32.1813 25.8532 31.7383 25.8532 31.2696C25.8532 29.4813 24.3954 28.0234 22.6071 28.0234C20.8188 28.0234 19.3539 29.4813 19.3539 31.2696C19.3539 31.7922 19.4852 32.3008 19.7196 32.7508C18.3625 33.7165 17.5234 35.2821 17.5234 36.993C17.5234 37.4899 17.9266 37.893 18.4234 37.893H27.0928C27.5897 37.893 27.9928 37.4899 27.9928 36.993C27.9928 35.186 27.046 33.536 25.5624 32.5891L25.5649 32.5961ZM22.6071 29.8258C23.4039 29.8258 24.0532 30.4726 24.0532 31.2719C24.0532 31.661 23.9032 32.0289 23.6337 32.2984C23.3571 32.575 22.9915 32.725 22.6071 32.725C22.1501 32.725 21.8337 32.5211 21.6415 32.3523C21.3345 32.0828 21.161 31.6867 21.161 31.2719C21.161 30.475 21.8079 29.8257 22.6142 29.8257L22.6071 29.8258ZM19.4454 36.0952C19.6727 35.2561 20.2141 34.5295 20.9641 34.0725C21.1024 34.1569 21.2524 34.2225 21.4024 34.2835C21.4797 34.3139 21.5641 34.3374 21.6485 34.3608C21.7211 34.3842 21.7868 34.403 21.8594 34.4217C21.9743 34.4522 22.0938 34.4686 22.2133 34.4827C22.2438 34.4827 22.2672 34.4827 22.2977 34.4897C22.4008 34.5014 22.5016 34.5202 22.6094 34.5202C22.9024 34.5202 23.186 34.4663 23.4626 34.3936C23.5469 34.3702 23.6243 34.3467 23.7016 34.321C23.779 34.2905 23.8587 34.267 23.929 34.2319C24.0907 34.1592 24.2524 34.0819 24.4024 33.9788C25.2251 34.4288 25.8297 35.1975 26.0759 36.0975H19.4453L19.4454 36.0952Z" fill="url(#paint1_linear_6349_760)"/>
<path d="M25.5649 44.6391C25.7501 44.2242 25.8532 43.7812 25.8532 43.3125C25.8532 41.5242 24.3954 40.0664 22.6071 40.0664C20.8188 40.0664 19.3539 41.5242 19.3539 43.3125C19.3539 43.8352 19.4852 44.3438 19.7196 44.7938C18.3625 45.7594 17.5234 47.3251 17.5234 49.036C17.5234 49.5329 17.9266 49.936 18.4234 49.936H27.0928C27.5897 49.936 27.9928 49.5329 27.9928 49.036C27.9928 47.229 27.046 45.579 25.5624 44.6321L25.5649 44.6391ZM22.6071 41.8687C23.4039 41.8687 24.0532 42.5156 24.0532 43.3149C24.0532 43.7039 23.9032 44.0719 23.6337 44.3414C23.3571 44.618 22.9915 44.768 22.6071 44.768C22.1501 44.768 21.8337 44.5641 21.6415 44.3953C21.3345 44.1258 21.161 43.7297 21.161 43.3219C21.161 42.525 21.8079 41.8757 22.6142 41.8757L22.6071 41.8687ZM19.4454 48.1429C19.6727 47.3039 20.2141 46.5773 20.9641 46.1203C21.1024 46.2047 21.2524 46.2703 21.4024 46.3312C21.4797 46.3617 21.5641 46.3851 21.6485 46.4086C21.7211 46.432 21.7868 46.4508 21.8594 46.4695C21.9743 46.5 22.0938 46.5164 22.2133 46.5304C22.2438 46.5304 22.2672 46.5304 22.2977 46.5375C22.4008 46.5492 22.5016 46.5679 22.6094 46.5679C22.9024 46.5679 23.186 46.514 23.4626 46.4414C23.5399 46.4179 23.6243 46.3945 23.7016 46.3687C23.779 46.3383 23.8587 46.3148 23.929 46.2797C24.0907 46.207 24.2524 46.1297 24.4024 46.0265C25.2251 46.4765 25.8297 47.2453 26.0759 48.1453H19.4453L19.4454 48.1429Z" fill="url(#paint2_linear_6349_760)"/>
<path d="M48.731 9.71914H42.7004V7.93786C42.7004 6.091 41.1934 4.58398 39.3465 4.58398H26.6505C24.8036 4.58398 23.2966 6.091 23.2966 7.93786V9.71914H17.266C15.5738 9.71914 14.1934 11.0996 14.1934 12.7918V51.7498C14.1934 53.442 15.5738 54.8225 17.266 54.8225H48.7354C50.4276 54.8225 51.8081 53.442 51.8081 51.7498L51.8104 12.7918C51.8104 11.0996 50.4299 9.71914 48.7378 9.71914H48.731ZM25.0964 7.93786C25.0964 7.08004 25.7925 6.38398 26.6503 6.38398H39.3463C40.2041 6.38398 40.9001 7.0801 40.9001 7.93786V12.0417H25.0961L25.0964 7.93786ZM50.0036 51.7427C50.0036 52.4458 49.4341 53.0153 48.7309 53.0153H17.2681C16.565 53.0153 15.9955 52.4458 15.9955 51.7427V12.7919C15.9955 12.0887 16.565 11.5192 17.2681 11.5192H23.2987V12.9419C23.2987 13.4387 23.7018 13.8419 24.1987 13.8419H41.8027C42.2996 13.8419 42.7027 13.4387 42.7027 12.9419V11.5192H48.7333C49.4365 11.5192 50.006 12.0887 50.006 12.7919V51.7499L50.0036 51.7427Z" fill="url(#paint3_linear_6349_760)"/>
<path d="M43.1534 16.3926H30.776C30.2791 16.3926 29.876 16.7957 29.876 17.2926C29.876 17.7895 30.2791 18.1926 30.776 18.1926H43.1534C43.6502 18.1926 44.0534 17.7895 44.0534 17.2926C44.0534 16.7957 43.6502 16.3926 43.1534 16.3926Z" fill="url(#paint4_linear_6349_760)"/>
<path d="M30.773 22.4758H37.3544C37.8513 22.4758 38.2544 22.0727 38.2544 21.5758C38.2544 21.0789 37.8513 20.6758 37.3544 20.6758H30.773C30.2762 20.6758 29.873 21.0789 29.873 21.5758C29.873 22.0727 30.2762 22.4758 30.773 22.4758Z" fill="url(#paint5_linear_6349_760)"/>
<path d="M43.1534 30.2539H30.776C30.2791 30.2539 29.876 30.657 29.876 31.1539C29.876 31.6508 30.2791 32.0539 30.776 32.0539H43.1534C43.6502 32.0539 44.0534 31.6508 44.0534 31.1539C44.0534 30.657 43.6502 30.2539 43.1534 30.2539Z" fill="url(#paint6_linear_6349_760)"/>
<path d="M30.773 36.3313H40.5842C41.0811 36.3313 41.4842 35.9281 41.4842 35.4313C41.4842 34.9344 41.0811 34.5312 40.5842 34.5312H30.773C30.2762 34.5312 29.873 34.9344 29.873 35.4313C29.873 35.9281 30.2762 36.3313 30.773 36.3313Z" fill="url(#paint7_linear_6349_760)"/>
<path d="M43.1534 46.3086H30.776C30.2791 46.3086 29.876 46.7117 29.876 47.2086C29.876 47.7055 30.2791 48.1086 30.776 48.1086H43.1534C43.6502 48.1086 44.0534 47.7055 44.0534 47.2086C44.0534 46.7117 43.6502 46.3086 43.1534 46.3086Z" fill="url(#paint8_linear_6349_760)"/>
<path d="M30.773 43.8234H37.3544C37.8513 43.8234 38.2544 43.4203 38.2544 42.9234C38.2544 42.4266 37.8513 42.0234 37.3544 42.0234H30.773C30.2762 42.0234 29.873 42.4266 29.873 42.9234C29.873 43.4203 30.2762 43.8234 30.773 43.8234Z" fill="url(#paint9_linear_6349_760)"/>
<path d="M33.0002 11.6383C35.4963 11.6383 38.0112 10.8883 38.0112 9.20782C38.0112 7.52734 35.4963 6.77734 33.0002 6.77734C30.5041 6.77734 27.9893 7.52734 27.9893 9.20782C27.9893 10.8883 30.5041 11.6383 33.0002 11.6383ZM33.0002 8.58442C34.6197 8.58442 35.7002 8.94536 36.0963 9.2149C35.7002 9.47975 34.6198 9.84538 33.0002 9.84538C31.3806 9.84538 30.3002 9.48445 29.9041 9.2149C30.3002 8.95006 31.3806 8.58442 33.0002 8.58442Z" fill="url(#paint10_linear_6349_760)"/>
<defs>
<linearGradient id="paint0_linear_6349_760" x1="22.7581" y1="15.9766" x2="22.7581" y2="25.8461" gradientUnits="userSpaceOnUse">
<stop stop-color="#0AA818"/>
<stop offset="0.26" stop-color="#0DBD1C"/>
<stop offset="0.79" stop-color="#283C2A"/>
</linearGradient>
<linearGradient id="paint1_linear_6349_760" x1="22.7581" y1="28.0234" x2="22.7581" y2="37.893" gradientUnits="userSpaceOnUse">
<stop stop-color="#0AA818"/>
<stop offset="0.26" stop-color="#0DBD1C"/>
<stop offset="0.79" stop-color="#283C2A"/>
</linearGradient>
<linearGradient id="paint2_linear_6349_760" x1="22.7581" y1="40.0664" x2="22.7581" y2="49.936" gradientUnits="userSpaceOnUse">
<stop stop-color="#0AA818"/>
<stop offset="0.26" stop-color="#0DBD1C"/>
<stop offset="0.79" stop-color="#283C2A"/>
</linearGradient>
<linearGradient id="paint3_linear_6349_760" x1="33.0019" y1="4.58398" x2="33.0019" y2="54.8225" gradientUnits="userSpaceOnUse">
<stop stop-color="#0AA818"/>
<stop offset="0.26" stop-color="#0DBD1C"/>
<stop offset="0.79" stop-color="#283C2A"/>
</linearGradient>
<linearGradient id="paint4_linear_6349_760" x1="36.9647" y1="16.3926" x2="36.9647" y2="18.1926" gradientUnits="userSpaceOnUse">
<stop stop-color="#0AA818"/>
<stop offset="0.26" stop-color="#0DBD1C"/>
<stop offset="0.79" stop-color="#283C2A"/>
</linearGradient>
<linearGradient id="paint5_linear_6349_760" x1="34.0637" y1="20.6758" x2="34.0637" y2="22.4758" gradientUnits="userSpaceOnUse">
<stop stop-color="#0AA818"/>
<stop offset="0.26" stop-color="#0DBD1C"/>
<stop offset="0.79" stop-color="#283C2A"/>
</linearGradient>
<linearGradient id="paint6_linear_6349_760" x1="36.9647" y1="30.2539" x2="36.9647" y2="32.0539" gradientUnits="userSpaceOnUse">
<stop stop-color="#0AA818"/>
<stop offset="0.26" stop-color="#0DBD1C"/>
<stop offset="0.79" stop-color="#283C2A"/>
</linearGradient>
<linearGradient id="paint7_linear_6349_760" x1="35.6786" y1="34.5312" x2="35.6786" y2="36.3313" gradientUnits="userSpaceOnUse">
<stop stop-color="#0AA818"/>
<stop offset="0.26" stop-color="#0DBD1C"/>
<stop offset="0.79" stop-color="#283C2A"/>
</linearGradient>
<linearGradient id="paint8_linear_6349_760" x1="36.9647" y1="46.3086" x2="36.9647" y2="48.1086" gradientUnits="userSpaceOnUse">
<stop stop-color="#0AA818"/>
<stop offset="0.26" stop-color="#0DBD1C"/>
<stop offset="0.79" stop-color="#283C2A"/>
</linearGradient>
<linearGradient id="paint9_linear_6349_760" x1="34.0637" y1="42.0234" x2="34.0637" y2="43.8234" gradientUnits="userSpaceOnUse">
<stop stop-color="#0AA818"/>
<stop offset="0.26" stop-color="#0DBD1C"/>
<stop offset="0.79" stop-color="#283C2A"/>
</linearGradient>
<linearGradient id="paint10_linear_6349_760" x1="33.0002" y1="6.77734" x2="33.0002" y2="11.6383" gradientUnits="userSpaceOnUse">
<stop stop-color="#0AA818"/>
<stop offset="0.26" stop-color="#0DBD1C"/>
<stop offset="0.79" stop-color="#283C2A"/>
</linearGradient>
</defs>
</svg>
