<svg width="86" height="88" viewBox="0 0 86 88" fill="none" xmlns="http://www.w3.org/2000/svg">
<path d="M29.0861 60.643C29.8672 60.643 30.5218 60.3716 31.0497 59.829C31.5753 59.2887 31.8381 58.6177 31.8381 57.816C31.8381 57.0142 31.5729 56.3444 31.0426 55.8066C30.5122 55.2688 29.8565 55 29.0753 55C28.2942 55 27.6396 55.2713 27.1117 55.814C26.5837 56.3566 26.3209 57.0276 26.3233 57.827C26.3257 58.6263 26.5909 59.2948 27.1188 59.8326C27.6468 60.3704 28.3025 60.643 29.0861 60.643ZM29.0861 46.8196C29.8672 46.8196 30.5218 46.5495 31.0497 46.0093C31.5753 45.4666 31.8381 44.7944 31.8381 43.9926C31.8381 43.1908 31.5729 42.5223 31.0426 41.987C30.5122 41.4516 29.8565 41.1827 29.0753 41.1803C28.2942 41.1778 27.6396 41.448 27.1117 41.9906C26.5837 42.5333 26.3209 43.2055 26.3233 44.0073C26.3257 44.8091 26.5909 45.4776 27.1188 46.013C27.6468 46.5483 28.3025 46.8172 29.0861 46.8196ZM29.0861 33C29.8672 33 30.5218 32.7298 31.0497 32.1896C31.5753 31.647 31.8381 30.9747 31.8381 30.173C31.8381 29.3712 31.5729 28.7026 31.0426 28.1673C30.5122 27.632 29.8565 27.3631 29.0753 27.3606C28.2942 27.3582 27.6396 27.6283 27.1117 28.171C26.5861 28.7136 26.3233 29.3846 26.3233 30.184C26.3233 30.9833 26.5885 31.6531 27.1188 32.1933C27.6492 32.7335 28.3049 33.0024 29.0861 33ZM40.1048 59.6566H59.4011V55.99H40.1048V59.6566ZM40.1048 45.8333H59.4011V42.1666H40.1048V45.8333ZM40.1048 32.01H59.4011V28.3433H40.1048V32.01ZM20.1242 73.3333C18.4734 73.3333 17.0962 72.7686 15.9926 71.6393C14.8889 70.51 14.3359 69.0995 14.3335 67.408V20.592C14.3335 18.9028 14.8865 17.4936 15.9926 16.3643C17.0986 15.235 18.4758 14.6691 20.1242 14.6666H65.8797C67.5281 14.6666 68.9053 15.2325 70.0113 16.3643C71.1174 17.4961 71.6692 18.9053 71.6668 20.592V67.4116C71.6668 69.0983 71.115 70.5075 70.0113 71.6393C68.9077 72.7711 67.5293 73.3357 65.8762 73.3333H20.1242ZM20.1242 69.6666H65.8797C66.4292 69.6666 66.9344 69.432 67.3955 68.9626C67.8566 68.4933 68.0859 67.9751 68.0835 67.408V20.592C68.0835 20.0273 67.8542 19.5091 67.3955 19.0373C66.9368 18.5655 66.4304 18.3308 65.8762 18.3333H20.1242C19.5723 18.3333 19.0659 18.568 18.6048 19.0373C18.1438 19.5066 17.9144 20.0248 17.9168 20.592V67.4116C17.9168 67.9738 18.1462 68.4908 18.6048 68.9626C19.0635 69.4344 19.5687 69.6691 20.1206 69.6666" fill="#0D4B8F"/>
</svg>
