<svg width="77" height="79" viewBox="0 0 77 79" fill="none" xmlns="http://www.w3.org/2000/svg">
<path d="M54.8139 44.9172C53.2206 40.8368 50.1751 37.4933 46.2661 35.5327C48.1112 33.1732 49.2572 30.3412 49.5735 27.3599C49.8897 24.3787 49.3634 21.3684 48.0547 18.6727C46.7459 15.977 44.7074 13.7045 42.1719 12.1148C39.6364 10.525 36.7061 9.68201 33.7155 9.68201C30.725 9.68201 27.7947 10.525 25.2592 12.1148C22.7237 13.7045 20.6852 15.977 19.3764 18.6727C18.0676 21.3684 17.5413 24.3787 17.8576 27.3599C18.1739 30.3412 19.3199 33.1732 21.165 35.5327C18.2288 36.986 15.7571 39.2342 14.0294 42.0229C12.3018 44.8116 11.3872 48.0293 11.3892 51.3121V65.7006C11.3892 66.1246 11.5572 66.5313 11.8563 66.8311C12.1554 67.1309 12.561 67.2993 12.984 67.2993H54.4471C57.4078 67.3481 60.2665 66.2158 62.3944 64.1516C64.5223 62.0873 65.745 59.2602 65.7937 56.2921C65.8423 53.3241 64.7129 50.4582 62.6537 48.325C60.5946 46.1918 57.7746 44.9659 54.8139 44.9172ZM33.7155 12.9427C37.0991 12.9427 40.3442 14.2902 42.7367 16.6887C45.1293 19.0873 46.4734 22.3404 46.4734 25.7325C46.4734 29.1245 45.1293 32.3777 42.7367 34.7762C40.3442 37.1748 37.0991 38.5223 33.7155 38.5223C33.3066 38.5462 32.8966 38.5462 32.4876 38.5223C29.3211 38.2153 26.3832 36.7335 24.2502 34.3674C22.1172 32.0013 20.9429 28.9216 20.9576 25.7325C20.9576 22.3404 22.3018 19.0873 24.6943 16.6887C27.0869 14.2902 30.3319 12.9427 33.7155 12.9427ZM46.6489 64.1019H14.5787V51.3121C14.5784 48.456 15.4259 45.6644 17.0135 43.2928C18.601 40.9212 20.8567 39.0768 23.4933 37.9947L23.7165 38.1546C23.8533 38.2849 23.997 38.4077 24.1471 38.5223L24.8329 39.0179L25.3591 39.3536L26.0768 39.7693L26.6349 40.0571L27.3844 40.4088L27.9585 40.6486L28.74 40.9204L29.33 41.0962L30.1752 41.3041L30.7334 41.432C31.0523 41.432 31.3713 41.5279 31.6902 41.5758H32.1846C32.663 41.5758 33.1574 41.5758 33.6518 41.5758C34.1461 41.5758 34.6405 41.5758 35.1189 41.5758H35.6133C35.9322 41.5758 36.2512 41.4959 36.5701 41.432L37.1442 41.3041L37.9735 41.0962C38.1798 41.0469 38.3823 40.9828 38.5795 40.9044L39.345 40.6486L39.951 40.3928L40.6526 40.073L41.2586 39.7533L41.9284 39.3696L42.4866 39.0019C42.7099 38.858 42.9172 38.6981 43.1245 38.5383C43.3065 38.4141 43.4822 38.2807 43.6508 38.1386L43.874 37.9787C47.2358 39.3628 49.9486 41.9739 51.465 45.2849C50.9193 45.4283 50.386 45.6154 49.8702 45.8444L49.631 45.9404C49.1568 46.1702 48.6986 46.4319 48.2595 46.7237L48.0203 46.8836C47.5906 47.1819 47.1804 47.5077 46.7924 47.8588L46.6329 48.0187C46.2506 48.399 45.8887 48.7992 45.5485 49.2178C45.2233 49.6575 44.9251 50.1167 44.6554 50.5927L44.5438 50.8005C44.2922 51.2618 44.0789 51.743 43.9059 52.2394C43.8618 52.3325 43.8245 52.4286 43.7943 52.5271C43.6277 53.051 43.4946 53.585 43.3956 54.1258C43.3956 54.1258 43.3956 54.2857 43.3956 54.3657C43.3175 54.9432 43.2802 55.5255 43.284 56.1083C43.2601 56.4916 43.2601 56.876 43.284 57.2593C43.2762 57.3818 43.2762 57.5046 43.284 57.6271C43.284 57.8829 43.284 58.1386 43.3956 58.3785C43.5072 58.6183 43.4753 58.6822 43.5232 58.8261C43.571 58.97 43.6189 59.2418 43.6826 59.4496C43.7464 59.6574 43.7943 59.7693 43.8581 59.9292C43.9175 60.1192 43.9867 60.306 44.0654 60.4888C44.0654 60.6487 44.2089 60.7925 44.2886 60.9524C44.3641 61.1276 44.4492 61.2984 44.5438 61.464C44.6247 61.6188 44.7153 61.7683 44.8149 61.9116C44.9106 62.0715 45.0063 62.2474 45.102 62.3913L45.4369 62.8229C45.5341 62.9733 45.6406 63.1175 45.7558 63.2546C45.8674 63.3985 45.995 63.5264 46.1226 63.6702L46.4894 64.0539L46.6489 64.1019ZM54.4471 64.1019C52.3324 64.1846 50.2715 63.4217 48.7178 61.9811C47.1641 60.5404 46.2449 58.5401 46.1625 56.42C46.08 54.3 46.841 52.2339 48.278 50.6764C49.715 49.1188 51.7104 48.1973 53.8252 48.1146H54.4471C56.5619 48.1146 58.59 48.9568 60.0854 50.4559C61.5807 51.955 62.4208 53.9882 62.4208 56.1083C62.4208 58.2283 61.5807 60.2615 60.0854 61.7606C58.59 63.2597 56.5619 64.1019 54.4471 64.1019Z" fill="#997B04"/>
<path d="M59.2315 54.5094H56.042V51.312C56.042 50.888 55.874 50.4813 55.5749 50.1815C55.2758 49.8817 54.8702 49.7133 54.4472 49.7133C54.0243 49.7133 53.6187 49.8817 53.3196 50.1815C53.0205 50.4813 52.8525 50.888 52.8525 51.312V54.5094H49.663C49.2401 54.5094 48.8345 54.6779 48.5354 54.9777C48.2363 55.2775 48.0683 55.6842 48.0683 56.1082C48.0683 56.5322 48.2363 56.9388 48.5354 57.2386C48.8345 57.5385 49.2401 57.7069 49.663 57.7069H52.8525V60.9043C52.8525 61.3283 53.0205 61.735 53.3196 62.0348C53.6187 62.3346 54.0243 62.5031 54.4472 62.5031C54.8702 62.5031 55.2758 62.3346 55.5749 62.0348C55.874 61.735 56.042 61.3283 56.042 60.9043V57.7069H59.2315C59.6544 57.7069 60.06 57.5385 60.3591 57.2386C60.6582 56.9388 60.8262 56.5322 60.8262 56.1082C60.8262 55.6842 60.6582 55.2775 60.3591 54.9777C60.06 54.6779 59.6544 54.5094 59.2315 54.5094Z" fill="#997B04"/>
</svg>
