<svg width="68" height="68" viewBox="0 0 68 68" fill="none" xmlns="http://www.w3.org/2000/svg">
<path fill-rule="evenodd" clip-rule="evenodd" d="M44.1614 26.7367H37.0572C36.3328 26.7367 36.3328 27.891 37.0572 27.891H44.1614C44.8858 27.891 44.8858 26.7367 44.1614 26.7367ZM37.919 25.1936H43.2967L44.1829 21.6609C44.2747 21.2962 43.3353 21.0282 43.0214 21.912C42.1907 24.2495 39.2012 23.0156 37.2066 22.3563L37.919 25.1961V25.1936ZM36.3566 25.2975C34.5601 25.8794 34.5021 28.6588 36.2939 29.3036C35.6926 30.7718 34.8112 32.3776 33.5603 33.3218C32.3795 34.2515 31.4498 35.6641 30.921 37.0647C25.4322 29.3009 30.9427 18.3672 40.6091 18.3672C50.2781 18.3672 55.7886 29.3034 50.2973 37.0672C48.7228 32.9089 46.8901 34.1139 44.9196 29.3034C46.6969 28.6611 46.6703 25.8841 44.8568 25.2973L45.6778 22.0325C46.255 19.7361 42.5386 18.6712 41.5703 21.3975C41.1526 22.571 37.3421 20.3495 36.1709 20.7189C35.5648 20.9097 35.3185 21.3274 35.5479 22.0664L36.3592 25.2974L36.3566 25.2975ZM43.3137 29.4316H37.8973C35.6806 35.2367 33.657 33.8409 32.2782 37.8376C31.8725 39.016 31.7228 40.291 31.8363 41.5298L38.0688 41.9476C39.5346 42.0442 40.8796 42.9377 41.3915 44.3334C42.1425 44.0895 41.9856 43.2612 41.9856 42.4813C41.9856 40.6315 37.6849 42.9401 37.6849 39.214V38.1805C37.6849 36.9538 38.617 35.9178 39.8365 35.7875C39.8365 34.7056 41.3795 34.7056 41.3795 35.7875C42.5966 35.9179 43.5287 36.9538 43.5287 38.1805C43.5287 38.6176 43.6108 39.4941 42.7584 39.4941C41.9035 39.4941 41.988 38.6176 41.988 38.1805C41.988 37.1373 40.7879 37.3184 40.0924 37.3184C39.0493 37.3184 39.2304 38.5186 39.2304 39.214C39.2304 41.0638 43.5311 38.7552 43.5311 42.4813C43.5311 43.6041 43.6542 44.57 42.6183 45.3934L48.7856 43.9494C50.092 40.8585 49.3096 36.577 46.7379 34.5586C45.0693 33.2474 44.0648 31.3929 43.3161 29.4296L43.3137 29.4316ZM50.8017 38.9194C58.1593 30.3013 52.0743 16.8268 40.6091 16.8268C29.144 16.8268 23.0583 30.3013 30.4165 38.9219C30.2741 39.7477 30.2306 40.5929 30.2861 41.4284L26.2221 41.1556C28.6465 38.7311 27.6613 40.1003 26.0458 36.1981C24.341 32.0857 26.396 32.5759 21.5471 32.5759V27.7657C26.4081 27.7657 24.341 28.2535 26.0458 24.1435C27.7555 20.0191 28.8614 21.8253 25.43 18.3939L28.8325 14.9915C32.2711 18.4302 30.4624 17.3169 34.582 15.6073C38.6944 13.9025 38.2042 15.955 38.2042 11.1086H43.0144C43.0144 15.9695 42.5266 13.9049 46.6366 15.6073C50.761 17.3169 48.9548 18.4229 52.3886 14.9915L55.791 18.3939C52.3524 21.8326 53.4656 20.0239 55.1752 24.1435C56.88 28.2558 54.8275 27.7657 59.6739 27.7657V32.5759C54.813 32.5759 56.8776 32.0881 55.1752 36.1981C53.4656 40.3225 52.3596 38.5162 55.791 41.9501L54.0403 43.7007C52.7798 42.9401 51.8163 43.2444 50.5654 43.5365C50.9953 42.0563 51.0725 40.4553 50.8069 38.9219L50.8017 38.9194ZM31.3722 49.3005L38.0393 49.105C39.2926 49.0687 40.4662 48.3999 41.1013 47.3301L51.9194 44.797C53.7112 44.4082 55.1697 46.963 53.2717 47.5184L37.6818 53.9635C34.0524 55.4655 32.4248 52.9372 29.8989 54.0022C28.6746 54.5189 28.3051 55.3303 27.7135 56.3542L17.8875 50.6819L20.9108 45.4418C21.4517 44.5025 22.2026 43.778 23.0864 43.3071C23.9993 42.8194 25.0303 42.6189 26.0735 42.689L37.9636 43.4859C40.8565 43.679 40.5861 47.4944 37.9926 47.5693L31.3255 47.7649C30.3137 47.7938 30.3572 49.3296 31.3666 49.3007L31.3722 49.3005ZM22.3653 41.9498C24.6569 40.7254 22.6841 42.5124 25.9078 39.2887C24.9202 37.6973 24.1934 35.9539 23.766 34.1186H20.7765C20.3515 34.1186 20.0062 33.7733 20.0062 33.3483V26.9953C20.0062 26.5703 20.3515 26.2249 20.7765 26.2249H23.766C24.1958 24.3897 24.9226 22.6438 25.9103 21.0549L23.7949 18.9395C23.4931 18.6377 23.4931 18.1499 23.7949 17.8481L28.2864 13.3566C28.5883 13.0548 29.076 13.0548 29.3779 13.3566L31.4932 15.472C33.0821 14.4843 34.828 13.7575 36.6633 13.3301V10.3406C36.6633 9.91563 37.0086 9.57031 37.4336 9.57031H43.7866C44.2116 9.57031 44.557 9.91562 44.557 10.3406V13.3301C46.3922 13.7599 48.1357 14.4844 49.727 15.472L51.8423 13.3566C52.1442 13.0548 52.632 13.0548 52.9338 13.3566L57.4253 17.8481C57.7271 18.1499 57.7271 18.6377 57.4253 18.9395L55.3123 21.0549C56.3 22.6438 57.0268 24.3897 57.4567 26.2249H60.4461C60.8711 26.2249 61.2165 26.5702 61.2165 26.9953V33.3483C61.2165 33.7733 60.8711 34.1186 60.4461 34.1186H57.4567C57.0268 35.9539 56.3024 37.6973 55.3148 39.2887L57.4302 41.404C57.732 41.7059 57.732 42.1936 57.4302 42.4955L55.1554 44.7702C56.1262 46.2312 55.9426 48.2016 53.7501 48.9864L38.2739 55.3858C33.4974 57.3611 31.1574 53.5747 29.5105 56.3251L29.0493 57.122L30.0346 57.6919C30.602 58.0179 30.3751 58.5275 30.3171 58.7423L27.5063 63.6105C27.3686 63.8472 27.1151 63.9969 26.8398 63.9969H7.55812C6.99547 63.9969 6.54634 63.3763 6.93029 62.7774L14.5222 49.6268C15.0003 48.7937 15.8962 49.5326 16.5579 49.9142L19.5835 44.6765C20.2718 43.4836 21.2329 42.5587 22.3678 41.9527L22.3653 41.9498ZM16.4926 51.6496L15.4663 51.058L13.4234 54.5957L26.5523 62.1758L28.5953 58.6382L16.4925 51.6521L16.4926 51.6496ZM12.6556 55.9238L8.88607 62.4512H23.9617L12.6556 55.9238Z" fill="url(#paint0_linear_6349_759)"/>
<defs>
<linearGradient id="paint0_linear_6349_759" x1="34.0018" y1="9.57031" x2="34.0018" y2="63.9969" gradientUnits="userSpaceOnUse">
<stop stop-color="#0AA818"/>
<stop offset="0.26" stop-color="#0DBD1C"/>
<stop offset="0.79" stop-color="#283C2A"/>
</linearGradient>
</defs>
</svg>
