<svg width="54" height="57" viewBox="0 0 54 57" fill="none" xmlns="http://www.w3.org/2000/svg">
<g clip-path="url(#clip0_6349_761)">
<path d="M53.6303 49.7791L51.1381 48.1176C51.0474 48.0563 50.9454 48.0135 50.838 47.9917C50.7307 47.9699 50.6201 47.9696 50.5126 47.9907C50.4051 48.0118 50.3029 48.054 50.2117 48.1148C50.1206 48.1756 50.0424 48.2539 49.9816 48.345C49.9209 48.4362 49.8787 48.5384 49.8577 48.6459C49.8366 48.7534 49.837 48.864 49.8588 48.9714C49.8806 49.0787 49.9235 49.1807 49.9849 49.2714C50.0463 49.3622 50.125 49.4398 50.2165 49.5L50.4258 49.6395H43.6162V18.9009C43.6158 18.4604 43.4406 18.0381 43.1291 17.7266C42.8176 17.4151 42.3952 17.2399 41.9547 17.2395H37.801C37.3605 17.2399 36.9382 17.4151 36.6267 17.7266C36.3152 18.0381 36.14 18.4604 36.1396 18.9009V49.6395H34.4781V26.3779C34.4777 25.9374 34.3026 25.515 33.9911 25.2035C33.6796 24.892 33.2572 24.7169 32.8167 24.7165H28.663C28.2225 24.7169 27.8001 24.892 27.4886 25.2035C27.1771 25.515 27.002 25.9374 27.0016 26.3779V49.6395H25.3401V33.8549C25.3396 33.4144 25.1644 32.9921 24.853 32.6806C24.5415 32.3691 24.1192 32.1939 23.6787 32.1934H19.525C19.0845 32.1939 18.6622 32.3691 18.3507 32.6806C18.0392 32.9921 17.864 33.4144 17.8635 33.8549V49.6395H16.2021V40.9165C16.2017 40.476 16.0265 40.0536 15.715 39.7421C15.4035 39.4306 14.9812 39.2554 14.5406 39.2551H10.387C9.94646 39.2554 9.52409 39.4306 9.21259 39.7421C8.90109 40.0536 8.72592 40.476 8.72553 40.9165V49.6395H4.15652V3.36776L4.29604 3.57711C4.41981 3.75851 4.60971 3.88421 4.82506 3.92727C5.0404 3.97033 5.26404 3.92732 5.44805 3.80747C5.63135 3.68525 5.75861 3.49523 5.80181 3.27919C5.84502 3.06316 5.80065 2.83881 5.67845 2.65549L4.017 0.162892C3.94113 0.0490998 3.83835 -0.0442032 3.71777 -0.108735C3.59719 -0.173267 3.46255 -0.207031 3.32579 -0.207031C3.18903 -0.207031 3.05438 -0.173267 2.9338 -0.108735C2.81322 -0.0442032 2.71044 0.0490998 2.63458 0.162892L0.973121 2.65549C0.851129 2.83882 0.806913 3.06307 0.850188 3.27898C0.893464 3.49489 1.02069 3.68478 1.20391 3.80693C1.38713 3.92907 1.61135 3.97348 1.82729 3.93038C2.04324 3.88729 2.23324 3.76022 2.35554 3.57711L2.49506 3.36776V50.4703C2.49503 50.5794 2.5165 50.6874 2.55823 50.7882C2.59997 50.889 2.66116 50.9806 2.73831 51.0578C2.81545 51.1349 2.90704 51.1961 3.00785 51.2378C3.10865 51.2796 3.21669 51.301 3.32579 51.301H50.4258L50.2165 51.441C50.1258 51.5015 50.0478 51.5793 49.9871 51.6699C49.9264 51.7606 49.8841 51.8623 49.8627 51.9692C49.8413 52.0762 49.8412 52.1864 49.8624 52.2934C49.8836 52.4004 49.9256 52.5022 49.9861 52.593C50.1099 52.7743 50.2999 52.9 50.5152 52.943C50.7306 52.986 50.9542 52.9429 51.1381 52.8229L53.6303 51.1615C53.7441 51.0856 53.8374 50.9828 53.902 50.8623C53.9665 50.7417 54.0003 50.6071 54.0003 50.4703C54.0003 50.3335 53.9665 50.1989 53.902 50.0783C53.8374 49.9577 53.7441 49.855 53.6303 49.7791ZM10.387 49.6395V40.9165H14.5406V49.6395H10.387ZM19.525 49.6395V33.8549H23.6787V49.6395H19.525ZM28.663 49.6395V26.3779H32.8167V49.6395H28.663ZM37.801 49.6395V18.9009H41.9547V49.6395H37.801Z" fill="url(#paint0_linear_6349_761)"/>
<path d="M10.3874 37.5915C10.6073 37.5912 10.8181 37.5039 10.9738 37.3486C11.1294 37.1933 11.2173 36.9826 11.2181 36.7628C11.2195 36.4387 11.3451 28.8128 19.414 28.8112C19.6316 28.8108 19.8404 28.7252 19.9956 28.5727C20.1508 28.4202 20.2401 28.213 20.2444 27.9955C20.2452 27.9622 20.3393 24.5987 22.5962 22.7767C24.0105 21.6352 26.0159 21.3067 28.56 21.8015C28.6769 21.8242 28.7974 21.8215 28.9132 21.7935C29.029 21.7656 29.1374 21.7131 29.2311 21.6396C29.3248 21.5661 29.4017 21.4733 29.4564 21.3675C29.5111 21.2617 29.5425 21.1453 29.5483 21.0263C29.5501 20.9915 29.7535 17.5104 32.1595 15.6713C33.6709 14.516 35.7725 14.2199 38.405 14.7939C38.6032 14.8375 38.8106 14.8069 38.9877 14.7079C39.1649 14.6088 39.2996 14.4482 39.3661 14.2564C39.3773 14.2235 40.4786 11.2122 44.4799 10.7538C44.4396 10.8911 44.4356 11.0364 44.4683 11.1757C44.5009 11.315 44.5692 11.4434 44.6663 11.5484C44.8171 11.7082 45.0247 11.8023 45.2443 11.8105C45.4638 11.8187 45.6779 11.7403 45.8402 11.5923L47.5045 10.0476C47.6053 9.95405 47.6813 9.83693 47.7257 9.70677C47.7701 9.5766 47.7815 9.43745 47.7589 9.3018C47.7362 9.16614 47.6803 9.03823 47.596 8.92954C47.5117 8.82084 47.4018 8.73476 47.2761 8.67901L45.1926 7.75541C45.0149 7.67621 44.815 7.66202 44.6279 7.71532C44.4409 7.76862 44.2785 7.88602 44.1692 8.04696C44.0599 8.20791 44.0107 8.40216 44.0303 8.59572C44.0498 8.78927 44.1367 8.9698 44.2759 9.10572C40.4711 9.53853 38.7409 11.8697 38.1051 13.0424C35.2628 12.5479 32.9215 12.99 31.1384 14.3607C28.954 16.0384 28.2334 18.6473 27.999 20.0265C25.348 19.6736 23.1785 20.1656 21.5412 21.4928C19.4187 23.2139 18.8188 25.8546 18.6496 27.17C9.66372 27.6556 9.55664 36.6674 9.55664 36.7611C9.55674 36.9814 9.6443 37.1926 9.80009 37.3483C9.95587 37.504 10.1671 37.5915 10.3874 37.5915Z" fill="url(#paint1_linear_6349_761)"/>
</g>
<defs>
<linearGradient id="paint0_linear_6349_761" x1="27.4171" y1="-0.207031" x2="27.4171" y2="52.9592" gradientUnits="userSpaceOnUse">
<stop stop-color="#0AA818"/>
<stop offset="0.26" stop-color="#0DBD1C"/>
<stop offset="0.79" stop-color="#283C2A"/>
</linearGradient>
<linearGradient id="paint1_linear_6349_761" x1="28.6634" y1="7.68359" x2="28.6634" y2="37.5915" gradientUnits="userSpaceOnUse">
<stop stop-color="#0AA818"/>
<stop offset="0.26" stop-color="#0DBD1C"/>
<stop offset="0.79" stop-color="#283C2A"/>
</linearGradient>
<clipPath id="clip0_6349_761">
<rect width="53.1667" height="56.0742" fill="white" transform="translate(0.833984)"/>
</clipPath>
</defs>
</svg>
