<svg width="36" height="42" viewBox="0 0 36 42" fill="none" xmlns="http://www.w3.org/2000/svg">
<path d="M28.7671 0.740234C25.0309 0.740234 21.9927 3.77942 21.9927 7.51561C21.9927 11.2518 25.0309 14.29 28.7671 14.29C32.5033 14.29 35.5425 11.2519 35.5425 7.51561C35.5425 3.77938 32.5033 0.740234 28.7671 0.740234ZM28.7671 2.16023C31.73 2.16023 34.1225 4.55273 34.1225 7.51561C34.1225 10.4784 31.7301 12.87 28.7671 12.87C25.8042 12.87 23.4127 10.4784 23.4127 7.51561C23.4127 4.55268 25.8043 2.16023 28.7671 2.16023Z" fill="url(#paint0_linear_6360_669)" stroke="url(#paint1_linear_6360_669)" stroke-width="0.5"/>
<path fill-rule="evenodd" clip-rule="evenodd" d="M28.3071 3.83594C28.3071 5.21594 28.3071 6.59594 28.3071 7.97594C29.6164 7.97594 30.9258 7.97594 32.2351 7.97594V7.05594H29.2271V3.83594H28.3071Z" fill="url(#paint2_linear_6360_669)"/>
<path d="M0.70752 6.80859H0.45752V7.05859V7.1249V7.19121V7.25753V7.32384V7.39015V7.45646V7.52277V7.58908V7.65539V7.7217V7.78801V7.85432V7.92063V7.98694V8.05325V8.11956V8.18587V8.25218V8.3185V8.38481V8.45112V8.51743V8.58374V8.65005V8.71636V8.78267V8.84898V8.91529V8.9816V9.04791V9.11422V9.18053V9.24684V9.31315V9.37947V9.44578V9.51209V9.5784V9.64471V9.71102V9.77733V9.84364V9.90995V9.97626V10.0426V10.1089V10.1752V10.2415V10.3078V10.3741V10.4404V10.5067V10.5731V10.6394V10.7057V10.772V10.8383V10.9046V10.9709V11.0372V11.1035V11.1699V11.2362V11.3025V11.3688V11.4351V11.5014V11.5677V11.634V11.7003V11.7666V11.833V11.8993V11.9656V12.0319V12.0982V12.1645V12.2308V12.2971V12.3634V12.4298V12.4961V12.5624V12.6287V12.695V12.7613V12.8276V12.8939V12.9602V13.0265V13.0929V13.1592V13.2255V13.2918V13.3581V13.4244V13.4907V13.557V13.6233V13.6897V13.756V13.8223V13.8886V13.9549V14.0212V14.0875V14.1538V14.2201V14.2865V14.3528V14.4191V14.4854V14.5517V14.618V14.6843V14.7506V14.8169V14.8832V14.9496V15.0159V15.0822V15.1485V15.2148V15.2811V15.3474V15.4137V15.48V15.5464V15.6127V15.679V15.7453V15.8116V15.8779V15.9442V16.0105V16.0768V16.1431V16.2095V16.2758V16.3421V16.4084V16.4747V16.541V16.6073V16.6736V16.7399V16.8063V16.8726V16.9389V17.0052V17.0715V17.1378V17.2041V17.2704V17.3367V17.4031V17.4694V17.5357V17.602V17.6683V17.7346V17.8009V17.8672V17.9335V17.9998V18.0662V18.1325V18.1988V18.2651V18.3314V18.3977V18.464V18.5303V18.5966V18.663V18.7293V18.7956V18.8619V18.9282V18.9945V19.0608V19.1271V19.1934V19.2597V19.3261V19.3924V19.4587V19.525V19.5913V19.6576V19.7239V19.7902V19.8565V19.9229V19.9892V20.0555V20.1218V20.1881V20.2544V20.3207V20.387V20.4533V20.5197V20.586V20.6523V20.7186V20.7849V20.8512V20.9175V20.9838V21.0501V21.1164V21.1828V21.2491V21.3154V21.3817V21.448V21.5143V21.5806V21.6469V21.7132V21.7796V21.8459V21.9122V21.9785V22.0448V22.1111V22.1774V22.2437V22.31V22.3763V22.4427V22.509V22.5753V22.6416V22.7079V22.7742V22.8405V22.9068V22.9731V23.0395V23.1058V23.1721V23.2384V23.3047V23.371V23.4373V23.5036V23.5699V23.6363V23.7026V23.7689V23.8352V23.9015V23.9678V24.0341V24.1004V24.1667V24.233V24.2994V24.3657V24.432V24.4983V24.5646V24.6309V24.6972V24.7635V24.8298V24.8962V24.9625V25.0288V25.0951V25.1614V25.2277V25.294V25.3603V25.4266V25.493V25.5593V25.6256V25.6919V25.7582V25.8245V25.8908V25.9571V26.0234V26.0897V26.1561V26.2224V26.2887V26.355V26.4213V26.4876V26.5539V26.6202V26.6865V26.7529V26.8192V26.8855V26.9518V27.0181V27.0844V27.1507V27.217V27.2833V27.3497V27.416V27.4823V27.5486V27.6149V27.6812V27.7475V27.8138V27.8801V27.9464V28.0128V28.0791V28.1454V28.2117V28.278V28.3443V28.4106V28.4769V28.5432V28.6096V28.6759V28.7422V28.8085V28.8748V28.9411V29.0074V29.0737V29.14V29.2064V29.2727V29.339V29.4053V29.4716V29.5379V29.6042V29.6705V29.7368V29.8031V29.8695V29.9358V30.0021V30.0684V30.1347V30.201V30.2673V30.3336V30.3999V30.4663V30.5326V30.5989V30.6652V30.7315V30.7978V30.8641V30.9304V30.9967V31.0631V31.1294V31.1957V31.262V31.3283V31.3946V31.4609V31.5272V31.5935V31.6598V31.7262V31.7925V31.8588V31.9251V31.9914V32.0577V32.124V32.1903V32.2566V32.323V32.3893V32.4556V32.5219V32.5882V32.6545V32.7208V32.7871V32.8534V32.9198V32.9861V33.0524V33.1187V33.185V33.2513V33.3176V33.3839V33.4502V33.5166V33.5829V33.6492V33.7155V33.7818V33.8481V33.9144V33.9807V34.047V34.1133V34.1797V34.246V34.3123V34.3786V34.4449V34.5112V34.5775V34.6438V34.7101V34.7765V34.8428V34.9091V34.9754V35.0417V35.108V35.1743V35.2406V35.3069V35.3733V35.4396V35.5059V35.5722V35.6385V35.7048V35.7711V35.8374V35.9037V35.9701V36.0364V36.1027V36.169V36.2353V36.3016V36.3679V36.4342V36.5005V36.5668V36.6332V36.6995V36.7658V36.8321V36.8984V36.9647V37.031V37.0973V37.1636V37.23V37.2963V37.3626V37.4289V37.4952V37.5615V37.6278V37.6941V37.7604V37.8268V37.8931V37.9594V38.0257V38.092V38.1583V38.2246V38.2909V38.3572V38.4235V38.4899V38.5562V38.6225V38.6888V38.7551V38.8214V38.8877V38.954V39.0203V39.0867V39.153V39.2193V39.2856V39.3519V39.4182V39.4845V39.5508V39.6171V39.6835V39.7498V39.8161V39.8824V39.9487V40.015V40.0813V40.1476V40.2139V40.2803V40.3466V40.4129V40.4792V40.5455V40.6118V40.6781V40.7444V40.8107V40.8771V40.9434V41.0097V41.2597H0.70752H29.2266H29.4766V41.0097V15.3988V15.1488H29.2266H28.3066H28.0566V15.3988V39.8397H1.87752V8.22859H4.01263V17.2226V17.8246L4.43908 17.3997C5.26906 16.5728 6.0984 15.7452 6.92765 14.9177C7.11264 14.7331 7.29763 14.5485 7.48262 14.3639C8.49685 15.376 9.51117 16.3882 10.5262 17.3997L10.9526 17.8247V17.2226V8.22859H20.8855H21.1355V7.97859V7.05859V6.80859H20.8855H0.70752ZM5.43343 14.403L5.43266 8.22859H9.5335V14.4029L7.66004 12.5346L7.4835 12.3585L7.30697 12.5346L5.43343 14.403Z" fill="url(#paint3_linear_6360_669)" stroke="url(#paint4_linear_6360_669)" stroke-width="0.5"/>
<path d="M4.27246 19.5762V20.4962H25.6615V19.5762H4.27246Z" fill="url(#paint5_linear_6360_669)"/>
<path d="M4.27246 22.2422V23.1622H25.6615V22.2422H4.27246Z" fill="url(#paint6_linear_6360_669)"/>
<path d="M4.27246 24.9082V25.8282H25.6615V24.9082H4.27246Z" fill="url(#paint7_linear_6360_669)"/>
<path d="M4.27246 27.5742V28.4942H25.6615V27.5742H4.27246Z" fill="url(#paint8_linear_6360_669)"/>
<path d="M4.27246 30.2422V31.1622H25.6615V30.2422H4.27246Z" fill="url(#paint9_linear_6360_669)"/>
<path d="M4.27246 33.3535V34.2735H14.9675V33.3535H4.27246Z" fill="url(#paint10_linear_6360_669)"/>
<path d="M21.5215 35.959V36.879H25.6615V35.959H21.5215Z" fill="url(#paint11_linear_6360_669)"/>
<defs>
<linearGradient id="paint0_linear_6360_669" x1="28.7676" y1="0.990234" x2="28.7676" y2="14.04" gradientUnits="userSpaceOnUse">
<stop stop-color="#B89405"/>
<stop offset="0.385" stop-color="#B7A24E"/>
<stop offset="0.965" stop-color="#524202"/>
</linearGradient>
<linearGradient id="paint1_linear_6360_669" x1="28.7676" y1="0.990234" x2="28.7676" y2="14.04" gradientUnits="userSpaceOnUse">
<stop stop-color="#B89405"/>
<stop offset="0.385" stop-color="#B7A24E"/>
<stop offset="0.965" stop-color="#524202"/>
</linearGradient>
<linearGradient id="paint2_linear_6360_669" x1="30.2711" y1="3.83594" x2="30.2711" y2="7.97594" gradientUnits="userSpaceOnUse">
<stop stop-color="#B89405"/>
<stop offset="0.385" stop-color="#B7A24E"/>
<stop offset="0.965" stop-color="#524202"/>
</linearGradient>
<linearGradient id="paint3_linear_6360_669" x1="14.9671" y1="7.05859" x2="14.9671" y2="41.0097" gradientUnits="userSpaceOnUse">
<stop stop-color="#B89405"/>
<stop offset="0.385" stop-color="#B7A24E"/>
<stop offset="0.965" stop-color="#524202"/>
</linearGradient>
<linearGradient id="paint4_linear_6360_669" x1="14.9671" y1="7.05859" x2="14.9671" y2="41.0097" gradientUnits="userSpaceOnUse">
<stop stop-color="#B89405"/>
<stop offset="0.385" stop-color="#B7A24E"/>
<stop offset="0.965" stop-color="#524202"/>
</linearGradient>
<linearGradient id="paint5_linear_6360_669" x1="14.967" y1="19.5762" x2="14.967" y2="20.4962" gradientUnits="userSpaceOnUse">
<stop stop-color="#B89405"/>
<stop offset="0.385" stop-color="#B7A24E"/>
<stop offset="0.965" stop-color="#524202"/>
</linearGradient>
<linearGradient id="paint6_linear_6360_669" x1="14.967" y1="22.2422" x2="14.967" y2="23.1622" gradientUnits="userSpaceOnUse">
<stop stop-color="#B89405"/>
<stop offset="0.385" stop-color="#B7A24E"/>
<stop offset="0.965" stop-color="#524202"/>
</linearGradient>
<linearGradient id="paint7_linear_6360_669" x1="14.967" y1="24.9082" x2="14.967" y2="25.8282" gradientUnits="userSpaceOnUse">
<stop stop-color="#B89405"/>
<stop offset="0.385" stop-color="#B7A24E"/>
<stop offset="0.965" stop-color="#524202"/>
</linearGradient>
<linearGradient id="paint8_linear_6360_669" x1="14.967" y1="27.5742" x2="14.967" y2="28.4942" gradientUnits="userSpaceOnUse">
<stop stop-color="#B89405"/>
<stop offset="0.385" stop-color="#B7A24E"/>
<stop offset="0.965" stop-color="#524202"/>
</linearGradient>
<linearGradient id="paint9_linear_6360_669" x1="14.967" y1="30.2422" x2="14.967" y2="31.1622" gradientUnits="userSpaceOnUse">
<stop stop-color="#B89405"/>
<stop offset="0.385" stop-color="#B7A24E"/>
<stop offset="0.965" stop-color="#524202"/>
</linearGradient>
<linearGradient id="paint10_linear_6360_669" x1="9.61996" y1="33.3535" x2="9.61996" y2="34.2735" gradientUnits="userSpaceOnUse">
<stop stop-color="#B89405"/>
<stop offset="0.385" stop-color="#B7A24E"/>
<stop offset="0.965" stop-color="#524202"/>
</linearGradient>
<linearGradient id="paint11_linear_6360_669" x1="23.5915" y1="35.959" x2="23.5915" y2="36.879" gradientUnits="userSpaceOnUse">
<stop stop-color="#B89405"/>
<stop offset="0.385" stop-color="#B7A24E"/>
<stop offset="0.965" stop-color="#524202"/>
</linearGradient>
</defs>
</svg>
