<svg width="67" height="74" viewBox="0 0 67 74" fill="none" xmlns="http://www.w3.org/2000/svg">
<path d="M45.5062 63.1407H3.38928C3.38928 51.6318 12.8163 42.3042 24.4478 42.3042C36.0792 42.3042 45.5062 51.6318 45.5062 63.1407Z" stroke="#027797" stroke-width="3.20734" stroke-miterlimit="10" stroke-linecap="round" stroke-linejoin="round"/>
<path d="M33.6927 31.2003C33.6927 36.2487 29.5578 42.3106 24.4556 42.3106C23.0711 42.3106 21.7623 41.8602 20.5863 41.1094C19.6 40.4901 18.7086 39.6644 17.9689 38.7073C17.9499 38.6885 17.9309 38.6697 17.912 38.6509C16.2239 36.5114 15.1996 33.7339 15.1996 31.2003C15.1996 26.1519 19.3346 22.0419 24.4556 22.0419C29.5578 22.0419 33.6927 26.1519 33.6927 31.2003Z" stroke="#027797" stroke-width="3.20734" stroke-miterlimit="10" stroke-linecap="round" stroke-linejoin="round"/>
<path d="M51.3653 28.8693C58.3643 28.8693 64.0381 23.2553 64.0381 16.3301C64.0381 9.40488 58.3643 3.79089 51.3653 3.79089C44.3663 3.79089 38.6925 9.40488 38.6925 16.3301C38.6925 23.2553 44.3663 28.8693 51.3653 28.8693Z" stroke="#027797" stroke-width="3.20734" stroke-miterlimit="10" stroke-linecap="round" stroke-linejoin="round"/>
<path d="M46.4165 16.3298H56.3141" stroke="#027797" stroke-width="3.20734" stroke-miterlimit="10" stroke-linecap="round" stroke-linejoin="round"/>
<path d="M51.3652 21.2267V11.4335" stroke="#027797" stroke-width="3.20734" stroke-miterlimit="10" stroke-linecap="round" stroke-linejoin="round"/>
</svg>
