<svg width="61" height="54" viewBox="0 0 61 54" fill="none" xmlns="http://www.w3.org/2000/svg">
<path fill-rule="evenodd" clip-rule="evenodd" d="M30.3063 5.74051C20.8161 5.74051 12.7337 11.8128 9.73781 20.2803C9.52687 20.8786 9.83897 21.5351 10.4373 21.7461C11.0357 21.957 11.6922 21.6449 11.9053 21.0466C14.5851 13.4679 21.8171 8.03534 30.3083 8.03534C40.0674 8.03534 48.1647 15.2113 49.6006 24.5726C49.239 24.084 48.5524 23.9591 48.0401 24.2992C47.5128 24.6501 47.3707 25.3647 47.7216 25.892L50.0182 29.3359C50.2313 29.6544 50.5908 29.846 50.9739 29.846C51.357 29.846 51.7165 29.6523 51.9296 29.3359L54.2262 25.892C54.5771 25.3646 54.435 24.65 53.9077 24.2992C53.3803 23.9484 52.6657 24.0904 52.3149 24.6178L51.9834 25.115C50.7695 14.2213 41.5251 5.73889 30.3107 5.73889L30.3063 5.74051ZM22.2713 16.0721C19.7379 16.0721 17.6802 18.1299 17.6802 20.6632C17.6802 21.931 18.1968 23.0804 19.0276 23.9112C16.8774 25.2586 15.3836 27.904 15.3836 30.9946C15.3836 31.6274 15.898 32.1418 16.5308 32.1418H23.4185C24.0513 32.1418 24.5658 31.6274 24.5658 30.9946C24.5658 30.3618 24.0513 29.8474 23.4185 29.8474H17.7706C18.1903 27.2602 20.0005 25.2563 22.2713 25.2563C24.8047 25.2563 26.8624 23.1985 26.8624 20.6652C26.8624 18.1318 24.8047 16.0741 22.2713 16.0741V16.0721ZM38.3435 16.0721C35.8101 16.0721 33.7524 18.1299 33.7524 20.6632C33.7524 23.1966 35.8101 25.2543 38.3435 25.2543C40.6143 25.2543 42.4244 27.2582 42.8442 29.8454H37.1963C36.5635 29.8454 36.049 30.3599 36.049 30.9927C36.049 31.6255 36.5635 32.1399 37.1963 32.1399H44.084C44.7168 32.1399 45.2312 31.6255 45.2312 30.9927C45.2312 27.9018 43.7396 25.2565 41.5872 23.9093L41.5893 23.9071C42.4202 23.0763 42.9346 21.9291 42.9346 20.6613C42.9346 18.1279 40.8769 16.0702 38.3435 16.0702L38.3435 16.0721ZM22.2713 18.3688C23.5391 18.3688 24.568 19.3977 24.568 20.6654C24.568 21.9332 23.5391 22.9621 22.2713 22.9621C21.0035 22.9621 19.9747 21.9332 19.9747 20.6654C19.9747 19.3977 21.0035 18.3688 22.2713 18.3688ZM38.3435 18.3688C39.6113 18.3688 40.6401 19.3977 40.6401 20.6654C40.6401 21.9332 39.6113 22.9621 38.3435 22.9621C37.0757 22.9621 36.0468 21.9332 36.0468 20.6654C36.0468 19.3977 37.0757 18.3688 38.3435 18.3688ZM30.3085 22.9599C27.7751 22.9599 25.7174 25.0176 25.7174 27.551C25.7174 28.8188 26.234 29.9682 27.0648 30.799C24.9146 32.1464 23.4207 34.7917 23.4207 37.8823C23.4207 38.5151 23.9352 39.0296 24.568 39.0296H36.0468C36.6796 39.0296 37.1941 38.5151 37.1941 37.8823C37.1941 34.7915 35.7024 32.1462 33.55 30.799L33.5521 30.7968C34.383 29.966 34.8974 28.8188 34.8974 27.551C34.8974 25.0176 32.8397 22.9599 30.3063 22.9599L30.3085 22.9599ZM9.64524 24.1071C9.26211 24.1071 8.90263 24.2987 8.68955 24.6172L6.39289 28.0611C6.04205 28.5885 6.18411 29.3031 6.71146 29.6539C7.2388 30.0047 7.9534 29.8627 8.30424 29.3353L8.54961 28.9694C9.28357 40.3452 18.7501 49.3616 30.3083 49.3616C39.7985 49.3616 47.8809 43.2894 50.8768 34.8218C51.0877 34.2235 50.7756 33.567 50.1773 33.356C49.5789 33.1451 48.9224 33.4572 48.7093 34.0555C46.0295 41.6342 38.7975 47.0668 30.3063 47.0668C20.0739 47.0668 11.6791 39.1739 10.8636 29.152L10.9841 29.3349C11.3349 29.8623 12.0474 30.0043 12.5769 29.6535C13.1042 29.3027 13.2463 28.5902 12.8954 28.0607L10.5988 24.6168C10.3857 24.2983 10.0262 24.1067 9.64309 24.1067L9.64524 24.1071ZM30.3085 25.2543C31.5763 25.2543 32.6052 26.2832 32.6052 27.551C32.6052 28.8188 31.5763 29.8476 30.3085 29.8476C29.0407 29.8476 28.0118 28.8188 28.0118 27.551C28.0118 26.2832 29.0407 25.2543 30.3085 25.2543ZM30.3085 32.1421C32.5793 32.1421 34.3895 34.146 34.8092 36.7332H25.81C26.2297 34.146 28.0399 32.1421 30.3107 32.1421H30.3085Z" fill="black"/>
</svg>
