<svg width="61" height="58" viewBox="0 0 61 58" fill="none" xmlns="http://www.w3.org/2000/svg">
<path d="M39.2264 55.2501H21.0903C20.8344 55.2501 20.5889 55.1485 20.4079 54.9675C20.2269 54.7865 20.1252 54.541 20.1252 54.2851V50.359C20.1252 47.6997 21.182 45.5415 23.1809 44.1193C24.9108 42.8852 27.3192 42.2338 30.1384 42.2338H30.1782C32.9975 42.2338 35.4035 42.8858 37.1358 44.1193C39.1347 45.5415 40.1914 47.6997 40.1914 50.359V54.2851C40.1914 54.541 40.0898 54.7865 39.9088 54.9675C39.7278 55.1485 39.4823 55.2501 39.2264 55.2501ZM22.0554 53.32H38.2613V50.359C38.2613 44.7677 32.6084 44.1639 30.1788 44.1639H30.139C27.7089 44.1639 22.0566 44.7671 22.0566 50.359L22.0554 53.32Z" fill="black"/>
<path d="M30.1583 41.3483C29.0052 41.3483 27.878 41.0064 26.9192 40.3657C25.9604 39.725 25.2131 38.8145 24.7719 37.7491C24.3306 36.6837 24.2152 35.5114 24.4402 34.3805C24.6652 33.2495 25.2205 32.2106 26.036 31.3953C26.8514 30.5799 27.8903 30.0247 29.0213 29.7998C30.1523 29.5749 31.3246 29.6905 32.3899 30.1318C33.4552 30.5732 34.3657 31.3206 35.0063 32.2794C35.6469 33.2383 35.9887 34.3656 35.9886 35.5187C35.9867 37.0643 35.3718 38.5461 34.2788 39.639C33.1858 40.7318 31.704 41.3466 30.1583 41.3483ZM30.1583 31.6186C29.387 31.6186 28.6329 31.8473 27.9916 32.2759C27.3502 32.7044 26.8503 33.3135 26.5551 34.0262C26.26 34.7388 26.1827 35.523 26.3332 36.2796C26.4837 37.0361 26.8551 37.731 27.4006 38.2765C27.946 38.8219 28.6409 39.1934 29.3975 39.3438C30.154 39.4943 30.9382 39.4171 31.6508 39.1219C32.3635 38.8267 32.9726 38.3268 33.4012 37.6855C33.8297 37.0441 34.0584 36.2901 34.0584 35.5187C34.0573 34.4847 33.6461 33.4933 32.9149 32.7622C32.1837 32.031 31.1924 31.6197 30.1583 31.6186Z" fill="black"/>
<path d="M51.7741 51.8326H39.2282C38.9723 51.8326 38.7268 51.7309 38.5458 51.5499C38.3648 51.3689 38.2632 51.1235 38.2632 50.8675C38.2632 50.6116 38.3648 50.3661 38.5458 50.1851C38.7268 50.0041 38.9723 49.9024 39.2282 49.9024H50.8091V46.9415C50.8091 41.3501 45.1562 40.7463 42.7266 40.7463H42.6874C40.516 40.7463 36.6503 41.1969 35.1786 44.2158C35.0622 44.4383 34.8636 44.6066 34.6251 44.6851C34.3866 44.7636 34.1268 44.746 33.9011 44.6361C33.6753 44.5262 33.5013 44.3326 33.4159 44.0965C33.3305 43.8603 33.3405 43.6002 33.4439 43.3713C34.1936 41.8321 35.4542 40.6571 37.1889 39.873C38.7336 39.1745 40.5836 38.8204 42.6874 38.8204H42.7266C45.5458 38.8204 47.9519 39.4725 49.6841 40.7059C51.683 42.1288 52.7398 44.2863 52.7398 46.9457V50.8717C52.7387 51.1271 52.6364 51.3715 52.4554 51.5516C52.2744 51.7317 52.0295 51.8327 51.7741 51.8326Z" fill="black"/>
<path d="M42.7042 37.9308C41.5511 37.9308 40.4239 37.5889 39.4651 36.9482C38.5063 36.3076 37.759 35.397 37.3178 34.3316C36.8765 33.2662 36.7611 32.0939 36.9861 30.963C37.2111 29.832 37.7664 28.7932 38.5819 27.9778C39.3973 27.1625 40.4362 26.6072 41.5672 26.3823C42.6982 26.1574 43.8705 26.273 44.9358 26.7144C46.0011 27.1557 46.9116 27.9031 47.5522 28.862C48.1928 29.8208 48.5346 30.9481 48.5345 32.1012C48.5326 33.6468 47.9177 35.1286 46.8247 36.2215C45.7317 37.3143 44.2499 37.9291 42.7042 37.9308ZM42.7042 28.2011C41.9329 28.2011 41.1788 28.4299 40.5375 28.8584C39.8961 29.287 39.3962 29.8961 39.101 30.6087C38.8059 31.3214 38.7286 32.1055 38.8791 32.8621C39.0296 33.6186 39.401 34.3136 39.9465 34.859C40.4919 35.4044 41.1868 35.7759 41.9434 35.9264C42.6999 36.0768 43.4841 35.9996 44.1967 35.7044C44.9094 35.4092 45.5185 34.9093 45.9471 34.268C46.3756 33.6266 46.6043 32.8726 46.6043 32.1012C46.6032 31.0672 46.192 30.0758 45.4608 29.3447C44.7296 28.6135 43.7383 28.2022 42.7042 28.2011Z" fill="black"/>
<path d="M21.0903 51.8327H8.54441C8.28846 51.8327 8.04299 51.731 7.86201 51.55C7.68102 51.369 7.57935 51.1235 7.57935 50.8676V46.9416C7.57935 44.2822 8.6361 42.1247 10.635 40.7018C12.3673 39.4683 14.7733 38.8163 17.5925 38.8163H17.6317C19.7356 38.8163 21.5855 39.1703 23.1302 39.8688C24.8649 40.6529 26.1256 41.8309 26.8753 43.3672C26.9786 43.5961 26.9886 43.8562 26.9033 44.0923C26.8179 44.3285 26.6438 44.522 26.4181 44.6319C26.1923 44.7418 25.9326 44.7594 25.6941 44.6809C25.4555 44.6025 25.257 44.4341 25.1406 44.2116C23.6689 41.1958 19.8044 40.7422 17.6317 40.7422H17.5925C15.1624 40.7422 9.51009 41.3454 9.51009 46.9373V49.8983H21.0909C21.3469 49.8983 21.5923 50 21.7733 50.181C21.9543 50.3619 22.056 50.6074 22.056 50.8634C22.056 51.1193 21.9543 51.3648 21.7733 51.5458C21.5923 51.7267 21.3469 51.8284 21.0909 51.8284L21.0903 51.8327Z" fill="black"/>
<path d="M17.6125 37.9308C16.4593 37.9308 15.3321 37.5889 14.3733 36.9482C13.4145 36.3076 12.6672 35.397 12.226 34.3316C11.7847 33.2662 11.6693 32.0939 11.8943 30.963C12.1193 29.832 12.6746 28.7932 13.4901 27.9778C14.3055 27.1625 15.3444 26.6072 16.4754 26.3823C17.6064 26.1574 18.7787 26.273 19.844 26.7144C20.9093 27.1557 21.8198 27.9031 22.4604 28.862C23.101 29.8208 23.4428 30.9481 23.4427 32.1012C23.4408 33.6468 22.8259 35.1286 21.7329 36.2215C20.6399 37.3143 19.1581 37.9291 17.6125 37.9308ZM17.6125 28.2011C16.8411 28.2011 16.087 28.4299 15.4457 28.8584C14.8043 29.287 14.3044 29.8961 14.0092 30.6087C13.7141 31.3214 13.6368 32.1055 13.7873 32.8621C13.9378 33.6186 14.3092 34.3136 14.8547 34.859C15.4001 35.4044 16.095 35.7759 16.8516 35.9264C17.6081 36.0768 18.3923 35.9996 19.1049 35.7044C19.8176 35.4092 20.4267 34.9093 20.8553 34.268C21.2838 33.6266 21.5125 32.8726 21.5125 32.1012C21.5114 31.0672 21.1002 30.0758 20.369 29.3447C19.6378 28.6135 18.6465 28.2022 17.6125 28.2011Z" fill="black"/>
<path d="M30.8074 27.5859C30.5514 27.5859 30.3059 27.4843 30.1249 27.3033C29.944 27.1223 29.8423 26.8768 29.8423 26.6209V7.46788C29.8423 7.21192 29.944 6.96646 30.1249 6.78547C30.3059 6.60448 30.5514 6.50281 30.8074 6.50281C31.0633 6.50281 31.3088 6.60448 31.4898 6.78547C31.6707 6.96646 31.7724 7.21192 31.7724 7.46788V26.6209C31.7724 26.8768 31.6707 27.1223 31.4898 27.3033C31.3088 27.4843 31.0633 27.5859 30.8074 27.5859Z" fill="black"/>
<path d="M33.4884 18.5064C32.2145 18.5064 31.0643 17.8923 30.0618 16.6745C29.92 16.5016 29.8424 16.2848 29.8423 16.0611V7.51242C29.8423 7.31363 29.9037 7.1197 30.0181 6.95714C30.1326 6.79457 30.2944 6.6713 30.4815 6.60418C30.6686 6.53706 30.8719 6.52935 31.0635 6.58212C31.2552 6.63489 31.4259 6.74556 31.5523 6.899C33.0602 8.73263 34.3341 8.08724 36.6382 6.68729C37.7583 6.00752 38.9139 5.30785 40.1601 5.11543C41.6867 4.88382 43.0517 5.48397 44.2164 6.899C44.3587 7.07176 44.4365 7.28861 44.4365 7.51242V16.0611C44.4367 16.2601 44.3753 16.4542 44.2609 16.6169C44.1464 16.7796 43.9845 16.903 43.7972 16.9701C43.61 17.0373 43.4065 17.0449 43.2148 16.992C43.023 16.9391 42.8523 16.8282 42.726 16.6745C41.218 14.8409 39.9441 15.4863 37.64 16.8857C36.5212 17.5654 35.3643 18.2687 34.1181 18.4581C33.9097 18.4898 33.6992 18.506 33.4884 18.5064ZM31.7724 15.6992C33.1881 17.2162 34.4469 16.5678 36.6382 15.2366C37.7571 14.5568 38.9139 13.8535 40.1601 13.6641C40.9608 13.5339 41.7822 13.6606 42.5064 14.026V7.87372C41.0902 6.35615 39.832 7.00516 37.64 8.33635C36.5218 9.01612 35.3643 9.71942 34.1181 9.90821C33.3176 10.0388 32.4963 9.91208 31.7724 9.54631V15.6992Z" fill="black"/>
</svg>
