<svg width="48" height="49" viewBox="0 0 48 49" fill="none" xmlns="http://www.w3.org/2000/svg">
<path d="M33.6484 26.9892C32.9569 28.6076 33.2295 30.4697 34.3309 31.816H34.0116L34.0113 31.816C32.0066 31.8196 30.1927 32.9996 29.3634 34.8262C29.141 34.7958 28.9169 34.7812 28.6943 34.7812H28.375C29.4764 33.4353 29.7491 31.5747 29.0576 29.9563C28.3233 28.2319 26.6381 27.1158 24.7741 27.1158C22.9102 27.1158 21.2251 28.2318 20.4907 29.9561C19.7992 31.5745 20.0718 33.4351 21.1732 34.7812H20.8539C20.6316 34.7812 20.4076 34.7958 20.1865 34.8261C19.3555 32.9996 17.5416 31.8196 15.5369 31.816H15.5366H15.217C16.317 30.47 16.5897 28.6095 15.8998 26.991L15.7619 27.0499L15.8998 26.991C15.1656 25.2685 13.4804 24.1506 11.6164 24.1506C9.75239 24.1506 8.06724 25.2685 7.33299 26.991C6.64314 28.6094 6.91585 30.4699 8.01584 31.816H7.69619H7.696C4.87637 31.8197 2.59141 34.1199 2.58955 36.9564V36.9565V41.4555L2.58711 41.4531L2.58779 41.8177C2.58971 42.8413 3.41425 43.6703 4.43193 43.6722H4.43221H12.9924C13.4649 43.6722 13.8462 43.2873 13.8462 42.8141C13.8462 42.3409 13.4649 41.956 12.9924 41.956H4.43221C4.35925 41.956 4.29665 41.8963 4.29541 41.8165V36.9562C4.29885 35.064 5.81994 33.5336 7.69627 33.5319H15.5363C16.7943 33.5336 17.9454 34.2322 18.5367 35.3415C16.8269 36.2191 15.7454 37.9874 15.7454 39.9231L15.7454 44.7876L15.7455 44.7881C15.7493 45.8081 16.5721 46.6351 17.5896 46.637H17.5899H31.958H31.9583C32.9759 46.6351 33.8005 45.8063 33.8024 44.7843V44.784V43.6718H45.1157H45.116C46.1336 43.6699 46.9582 42.841 46.9601 41.8173V41.8171V36.9557V36.9555C46.9565 34.1192 44.6716 31.819 41.8518 31.8152L41.6149 31.8149L41.6155 31.816H41.5327C42.6341 30.4698 42.9067 28.6076 42.2152 26.9891C41.4809 25.2666 39.7958 24.1488 37.9318 24.1488C36.0678 24.1488 34.3826 25.2667 33.6484 26.9892ZM11.6161 31.816C10.421 31.816 9.34425 31.0918 8.8869 29.9811C8.42949 28.8702 8.68258 27.5908 9.52848 26.7398L9.4221 26.634L9.52849 26.7398C10.3725 25.8906 11.6431 25.6365 12.7462 26.0962C13.8512 26.5578 14.57 27.6412 14.57 28.8433V28.8449C14.5684 30.4855 13.2463 31.8143 11.6161 31.816ZM37.932 25.8724C39.1254 25.8725 40.2038 26.595 40.6611 27.7055C41.1186 28.8182 40.8655 30.0959 40.0196 30.9469C39.1756 31.796 37.905 32.0502 36.8019 31.5905C35.6986 31.1306 34.978 30.0472 34.978 28.8452V28.8435C34.9797 27.203 36.3017 25.8741 37.932 25.8724ZM24.7741 28.8359C25.9674 28.8359 27.046 29.56 27.5033 30.6707C27.9608 31.7834 27.7077 33.0611 26.8618 33.9121C26.0178 34.7612 24.7472 35.0154 23.6441 34.5557C22.5408 34.0958 21.8203 33.0125 21.8202 31.8087C21.8219 30.1683 23.1438 28.8393 24.7741 28.8359ZM32.095 44.783V44.7848C32.095 44.8598 32.0335 44.9216 31.9582 44.9216H17.5901C17.5148 44.9216 17.4533 44.8598 17.4533 44.7848V39.9204C17.455 38.0321 18.9776 36.5013 20.8543 36.4979H28.6941C30.5708 36.5013 32.0934 38.0321 32.0951 39.9204L32.095 44.783ZM45.2528 41.817C45.2515 41.8967 45.1889 41.9564 45.116 41.9564H33.8028V39.9201C33.8028 37.9845 32.7214 36.2163 31.0117 35.3387C31.6047 34.2311 32.7556 33.5342 34.0119 33.5326H41.852C43.7283 33.5343 45.2495 35.0648 45.2528 36.957L45.2528 41.817Z" fill="url(#paint0_linear_6368_535)" stroke="url(#paint1_linear_6368_535)" stroke-width="0.3"/>
<path d="M36.4152 11.347L32.8567 11.3453C33.3773 8.53353 32.4178 5.64182 30.3088 3.70859L30.3088 3.70854C28.1535 1.73484 25.1219 1.05464 22.3392 1.92078C22.1157 1.98163 21.9273 2.13164 21.8153 2.33375L21.8147 2.33481C21.7042 2.53793 21.6785 2.77781 21.7467 3.0009C21.815 3.22406 21.9707 3.4087 22.1776 3.51384C22.3835 3.61848 22.622 3.63618 22.8418 3.5597C24.8772 2.92231 27.0946 3.3273 28.7776 4.64533L28.7778 4.64544C30.4632 5.96227 31.3993 8.02695 31.2875 10.1701C31.1739 12.3148 30.0246 14.267 28.2118 15.3988C26.399 16.5287 24.1496 16.6965 22.1926 15.8452L22.1926 15.8452C20.2337 14.9939 18.8127 13.2323 18.3895 11.1277L18.3895 11.1276C17.9645 9.02274 18.5908 6.84362 20.065 5.29118C20.3912 4.94801 20.3782 4.40571 20.0374 4.07784L20.0374 4.07783C19.698 3.75144 19.1556 3.76169 18.8305 4.10568C16.9983 6.0354 16.2055 8.73148 16.6911 11.3453L13.1328 11.3453L13.1326 11.3453C11.5623 11.3472 10.2908 12.6277 10.289 14.2054V14.2056V21.5273C10.289 21.7542 10.3783 21.9728 10.5384 22.134L10.5384 22.134C10.6987 22.2952 10.9166 22.3854 11.143 22.3854C11.3693 22.3854 11.5871 22.2952 11.7473 22.134L11.6409 22.0282L11.7473 22.134C11.9075 21.9729 11.9968 21.7542 11.9968 21.5272V14.2058C11.9985 13.5741 12.5077 13.0633 13.133 13.0633H17.211C17.7895 14.4241 18.7202 15.6048 19.9078 16.4824C21.0842 17.353 22.4696 17.8931 23.9202 18.0484V24.2784C23.9202 24.7496 24.3013 25.1365 24.7741 25.1365C25.2469 25.1365 25.6279 24.7496 25.6279 24.2784V18.0484C27.0785 17.8931 28.464 17.353 29.6404 16.4823C30.8284 15.6044 31.7594 14.4231 32.3378 13.0633H36.4151C37.0403 13.0633 37.5498 13.574 37.5513 14.2077V21.5272C37.5513 22.0004 37.9326 22.3853 38.4051 22.3853C38.8777 22.3853 39.2589 22.0004 39.2589 21.5272V14.2055V14.2053C39.2571 12.6275 37.9855 11.3489 36.4153 11.347H36.4152Z" fill="url(#paint2_linear_6368_535)" stroke="url(#paint3_linear_6368_535)" stroke-width="0.3"/>
<path d="M23.327 12.4937L23.3273 12.494C23.6619 12.8285 24.2023 12.829 24.5356 12.4937L28.6424 8.36367L28.6424 8.36364C28.975 8.02898 28.975 7.48484 28.6424 7.1502L28.642 7.14987C28.3074 6.81534 27.767 6.81484 27.4337 7.15021C27.4337 7.15021 27.4337 7.15021 27.4337 7.15021L23.933 10.6723L22.1149 8.84646C22.1148 8.84638 22.1147 8.8463 22.1147 8.84622C21.7815 8.50919 21.2409 8.5092 20.9078 8.84418C20.5732 9.17888 20.5733 9.72315 20.9059 10.0578C20.9059 10.0578 20.9059 10.0578 20.9059 10.0578L23.327 12.4937Z" fill="url(#paint4_linear_6368_535)" stroke="url(#paint5_linear_6368_535)" stroke-width="0.3"/>
<defs>
<linearGradient id="paint0_linear_6368_535" x1="24.7739" y1="24.2988" x2="24.7739" y2="46.487" gradientUnits="userSpaceOnUse">
<stop stop-color="#B89405"/>
<stop offset="0.385" stop-color="#B7A24E"/>
<stop offset="0.965" stop-color="#524202"/>
</linearGradient>
<linearGradient id="paint1_linear_6368_535" x1="24.7739" y1="24.2988" x2="24.7739" y2="46.487" gradientUnits="userSpaceOnUse">
<stop stop-color="#B89405"/>
<stop offset="0.385" stop-color="#B7A24E"/>
<stop offset="0.965" stop-color="#524202"/>
</linearGradient>
<linearGradient id="paint2_linear_6368_535" x1="24.774" y1="1.70117" x2="24.774" y2="24.9865" gradientUnits="userSpaceOnUse">
<stop stop-color="#B89405"/>
<stop offset="0.385" stop-color="#B7A24E"/>
<stop offset="0.965" stop-color="#524202"/>
</linearGradient>
<linearGradient id="paint3_linear_6368_535" x1="24.774" y1="1.70117" x2="24.774" y2="24.9865" gradientUnits="userSpaceOnUse">
<stop stop-color="#B89405"/>
<stop offset="0.385" stop-color="#B7A24E"/>
<stop offset="0.965" stop-color="#524202"/>
</linearGradient>
<linearGradient id="paint4_linear_6368_535" x1="24.7742" y1="7.04883" x2="24.7742" y2="12.595" gradientUnits="userSpaceOnUse">
<stop stop-color="#B89405"/>
<stop offset="0.385" stop-color="#B7A24E"/>
<stop offset="0.965" stop-color="#524202"/>
</linearGradient>
<linearGradient id="paint5_linear_6368_535" x1="24.7742" y1="7.04883" x2="24.7742" y2="12.595" gradientUnits="userSpaceOnUse">
<stop stop-color="#B89405"/>
<stop offset="0.385" stop-color="#B7A24E"/>
<stop offset="0.965" stop-color="#524202"/>
</linearGradient>
</defs>
</svg>
