<svg width="56" height="56" viewBox="0 0 56 56" fill="none" xmlns="http://www.w3.org/2000/svg">
<path d="M28.2487 24.2878C29.1688 23.5205 29.8303 22.4884 30.1433 21.332C30.4563 20.1755 30.4056 18.9507 29.9982 17.8241C29.5907 16.6974 28.8463 15.7236 27.866 15.0348C26.8856 14.3461 25.717 13.9759 24.519 13.9746C23.3209 13.9733 22.1515 14.3409 21.1697 15.0275C20.1879 15.714 19.4412 16.6863 19.0313 17.812C18.6214 18.9378 18.568 20.1624 18.8785 21.3196C19.189 22.4767 19.8482 23.5102 20.7666 24.2796C19.4363 24.9605 18.319 25.9943 17.5371 27.2679C16.7551 28.5414 16.3386 30.0055 16.3333 31.4999C16.3332 31.6532 16.3633 31.8049 16.4219 31.9465C16.4805 32.0881 16.5664 32.2168 16.6748 32.3251C16.7831 32.4335 16.9118 32.5194 17.0533 32.578C17.1949 32.6366 17.3467 32.6667 17.4999 32.6666H31.4999C31.6532 32.6667 31.8049 32.6366 31.9465 32.578C32.0881 32.5194 32.2167 32.4335 32.3251 32.3251C32.4334 32.2168 32.5194 32.0881 32.578 31.9465C32.6366 31.8049 32.6667 31.6532 32.6666 31.4999C32.6612 30.0085 32.2464 28.5472 31.4673 27.2754C30.6883 26.0036 29.5749 24.9701 28.2487 24.2878ZM21.0125 19.8459C21.0115 19.1558 21.2144 18.4808 21.5959 17.9058C21.9774 17.3307 22.5203 16.8812 23.1566 16.6139C23.7928 16.3465 24.4938 16.2732 25.1715 16.4032C25.8493 16.5331 26.4735 16.8605 26.9657 17.3442C27.4579 17.8279 27.7962 18.4463 27.9379 19.1217C28.0796 19.7971 28.0186 20.4993 27.7623 21.14C27.5061 21.7808 27.0662 22.3315 26.4979 22.723C25.9295 23.1144 25.2582 23.3291 24.5682 23.3401C24.5448 23.34 24.5233 23.3333 24.4999 23.3333C24.4808 23.3333 24.4633 23.3388 24.4442 23.3391C23.529 23.3212 22.6573 22.9456 22.0158 22.2926C21.3743 21.6396 21.0141 20.7613 21.0125 19.8459ZM18.7841 30.3333C19.0532 29.0273 19.7611 27.8528 20.7901 27.0049C21.8191 26.1569 23.1073 25.6866 24.4406 25.672C24.4651 25.6723 24.4878 25.6792 24.5125 25.6792C24.5332 25.6792 24.5522 25.6734 24.5727 25.6731C25.9036 25.6905 27.1886 26.162 28.2149 27.0095C29.2412 27.857 29.9471 29.0297 30.2159 30.3333H18.7841Z" fill="black"/>
<path d="M50.2949 45.3459L40.7784 35.8283C43.6183 31.7513 44.8286 26.7588 44.171 21.834C43.5134 16.9091 41.0356 12.409 37.2256 9.22002C33.4155 6.03098 28.5495 4.38418 23.5858 4.60395C18.6222 4.82372 13.9207 6.89413 10.4074 10.4074C6.89413 13.9207 4.82372 18.6222 4.60395 23.5858C4.38418 28.5495 6.03098 33.4155 9.22002 37.2256C12.409 41.0356 16.9091 43.5134 21.834 44.171C26.7588 44.8286 31.7513 43.6183 35.8283 40.7784L45.3448 50.2949C45.6689 50.6239 46.0549 50.8855 46.4805 51.0646C46.9061 51.2438 47.363 51.3369 47.8248 51.3387C48.2866 51.3404 48.7442 51.2508 49.1712 51.0749C49.5982 50.899 49.9862 50.6403 50.3127 50.3138C50.6393 49.9873 50.898 49.5994 51.074 49.1725C51.25 48.7455 51.3398 48.288 51.3381 47.8262C51.3365 47.3644 51.2434 46.9075 51.0644 46.4818C50.8854 46.0561 50.6239 45.67 50.2949 45.3459ZM15.0562 39.2404C11.5121 36.9662 8.90668 33.4906 7.71772 29.451C6.52875 25.4113 6.83599 21.0785 8.58307 17.247C10.3302 13.4155 13.4 10.3423 17.2295 8.59106C21.0591 6.83977 25.3916 6.52778 29.4325 7.71231C33.4735 8.89684 36.952 11.4985 39.23 15.0401C41.508 18.5817 42.4329 22.8259 41.835 26.9942C41.2371 31.1625 39.1565 34.9756 35.9748 37.734C32.7931 40.4925 28.7235 42.0114 24.5125 42.0123C21.1596 42.0162 17.8765 41.0539 15.0562 39.2404ZM48.6453 48.6453C48.4234 48.8581 48.1279 48.9769 47.8205 48.9769C47.5131 48.9769 47.2175 48.8581 46.9956 48.6453L37.6654 39.3163C38.2473 38.7986 38.7986 38.2473 39.3163 37.6654L48.6453 46.9968C48.7543 47.1044 48.8407 47.2327 48.8994 47.3741C48.9581 47.5156 48.9879 47.6674 48.9872 47.8205C48.9873 47.9737 48.9572 48.1255 48.8986 48.267C48.8399 48.4086 48.7538 48.5371 48.6453 48.6453Z" fill="black"/>
</svg>
