<svg width="52" height="52" viewBox="0 0 52 52" fill="none" xmlns="http://www.w3.org/2000/svg">
<path d="M26.6066 23.5589C24.982 23.5418 23.3988 23.0444 22.0563 22.1294C20.7138 21.2143 19.672 19.9226 19.0621 18.4167C18.4522 16.9108 18.3015 15.2582 18.6289 13.6668C18.9563 12.0755 19.7472 10.6165 20.902 9.47374C22.0568 8.33094 23.524 7.55536 25.1187 7.24463C26.7134 6.93391 28.3643 7.10194 29.8638 7.72757C31.3632 8.35319 32.6439 9.40845 33.5449 10.7605C34.4458 12.1125 34.9265 13.7008 34.9266 15.3255C34.9114 17.5195 34.0271 19.6179 32.4676 21.1611C30.9082 22.7044 28.8006 23.5666 26.6066 23.5589ZM26.6066 9.98109C25.5535 9.99817 24.5288 10.3261 23.6614 10.9236C22.794 11.5212 22.1225 12.3617 21.7312 13.3396C21.34 14.3176 21.2464 15.3893 21.4623 16.4203C21.6782 17.4512 22.194 18.3954 22.9447 19.1342C23.6955 19.873 24.6478 20.3735 25.6821 20.5727C26.7164 20.772 27.7865 20.6613 28.758 20.2543C29.7296 19.8474 30.5592 19.1625 31.1427 18.2855C31.7262 17.4086 32.0376 16.3788 32.0377 15.3255C32.0225 13.8978 31.4426 12.5342 30.4249 11.5327C29.4072 10.5312 28.0344 9.97337 26.6066 9.98109Z" fill="#1B1A1A"/>
<path d="M26.6067 23.5589C24.9821 23.5418 23.3989 23.0444 22.0563 22.1294C20.7138 21.2143 19.672 19.9226 19.0621 18.4167C18.4523 16.9108 18.3015 15.2582 18.6289 13.6668C18.9563 12.0755 19.7472 10.6165 20.9021 9.47374C22.0569 8.33094 23.524 7.55536 25.1187 7.24463C26.7134 6.93391 28.3644 7.10194 29.8638 7.72757C31.3632 8.35319 32.644 9.40845 33.5449 10.7605C34.4458 12.1125 34.9266 13.7008 34.9267 15.3255C34.9114 17.5195 34.0272 19.6179 32.4677 21.1611C30.9082 22.7044 28.8006 23.5666 26.6067 23.5589ZM26.6067 9.98109C25.5535 9.99817 24.5289 10.3261 23.6615 10.9236C22.794 11.5212 22.1225 12.3617 21.7313 13.3396C21.34 14.3176 21.2465 15.3893 21.4624 16.4203C21.6783 17.4512 22.194 18.3954 22.9448 19.1342C23.6955 19.873 24.6479 20.3735 25.6822 20.5727C26.7164 20.772 27.7866 20.6613 28.7581 20.2543C29.7296 19.8474 30.5592 19.1625 31.1428 18.2855C31.7263 17.4086 32.0377 16.3788 32.0378 15.3255C32.0225 13.8978 31.4427 12.5342 30.425 11.5327C29.4073 10.5312 28.0345 9.97337 26.6067 9.98109ZM31.6478 25.4944C25.241 24.3796 18.6454 25.3943 12.87 28.3833C12.46 28.6109 12.1206 28.9469 11.8887 29.3546C11.6569 29.7622 11.5417 30.2257 11.5556 30.6944V35.8366C11.5556 36.2197 11.7078 36.5871 11.9786 36.858C12.2495 37.1289 12.6169 37.2811 13 37.2811C13.3831 37.2811 13.7505 37.1289 14.0214 36.858C14.2923 36.5871 14.4445 36.2197 14.4445 35.8366V30.8822C19.8 28.195 25.8902 27.3424 31.7778 28.4555L31.6478 25.4944Z" fill="#1B1A1A"/>
<path d="M47.6666 31.7778H37.9889V29.64C37.9889 29.2569 37.8367 28.8895 37.5658 28.6186C37.2949 28.3477 36.9275 28.1956 36.5444 28.1956C36.1613 28.1956 35.7939 28.3477 35.523 28.6186C35.2522 28.8895 35.1 29.2569 35.1 29.64V31.7778H24.5555C24.1724 31.7778 23.805 31.93 23.5342 32.2008C23.2633 32.4717 23.1111 32.8391 23.1111 33.2222V47.6667C23.1111 48.0498 23.2633 48.4172 23.5342 48.688C23.805 48.9589 24.1724 49.1111 24.5555 49.1111H47.6666C48.0497 49.1111 48.4171 48.9589 48.688 48.688C48.9589 48.4172 49.1111 48.0498 49.1111 47.6667V33.2222C49.1111 32.8391 48.9589 32.4717 48.688 32.2008C48.4171 31.93 48.0497 31.7778 47.6666 31.7778ZM46.2222 46.2222H26V34.6667H35.1V35.2589C35.1 35.642 35.2522 36.0094 35.523 36.2803C35.7939 36.5512 36.1613 36.7033 36.5444 36.7033C36.9275 36.7033 37.2949 36.5512 37.5658 36.2803C37.8367 36.0094 37.9889 35.642 37.9889 35.2589V34.6667H46.2222V46.2222Z" fill="#1B1A1A"/>
<path d="M31.5034 39.6067H40.1123V41.6289H31.5034V39.6067ZM15.6578 17.68C11.6588 17.7469 7.7291 18.7355 4.17447 20.5689C3.78788 20.7731 3.46406 21.0786 3.23763 21.4526C3.01119 21.8265 2.89066 22.2551 2.88892 22.6923V27.17C2.88892 27.5531 3.0411 27.9205 3.31198 28.1914C3.58287 28.4623 3.95027 28.6145 4.33336 28.6145C4.71645 28.6145 5.08385 28.4623 5.35474 28.1914C5.62562 27.9205 5.77781 27.5531 5.77781 27.17V22.9811C9.17413 21.2906 12.9344 20.4622 16.7267 20.5689C16.2309 19.6635 15.8708 18.6901 15.6578 17.68ZM47.8256 20.5545C44.6375 18.8821 41.1337 17.8979 37.5411 17.6656C37.3288 18.6738 36.9738 19.6466 36.4867 20.5545C39.8711 20.636 43.1956 21.4646 46.2223 22.9811V27.17C46.2223 27.5531 46.3744 27.9205 46.6453 28.1914C46.9162 28.4623 47.2836 28.6145 47.6667 28.6145C48.0498 28.6145 48.4172 28.4623 48.6881 28.1914C48.959 27.9205 49.1111 27.5531 49.1111 27.17V22.6923C49.112 22.2526 48.9927 21.8211 48.7662 21.4443C48.5396 21.0675 48.2143 20.7598 47.8256 20.5545ZM15.3978 15.3256V14.3578C14.2663 14.2064 13.2367 13.6244 12.5235 12.733C11.8102 11.8415 11.4683 10.7094 11.5688 9.57216C11.6693 8.43495 12.2045 7.38032 13.063 6.6278C13.9216 5.87529 15.0372 5.48288 16.1778 5.53226C17.3642 5.53011 18.5044 5.9914 19.3556 6.81781C20.1069 6.19889 20.9316 5.67494 21.8111 5.25781C20.8284 4.12776 19.5262 3.32202 18.0764 2.9468C16.6265 2.57158 15.097 2.64449 13.6894 3.15592C12.2818 3.66734 11.0622 4.59328 10.1913 5.81169C9.32051 7.0301 8.8393 8.48379 8.81114 9.98115C8.84145 11.8138 9.55387 13.5693 10.8092 14.9048C12.0646 16.2403 13.7728 17.0599 15.6 17.2034C15.4773 16.5846 15.4097 15.9563 15.3978 15.3256ZM35.7789 2.64337C34.7863 2.64359 33.8037 2.8417 32.8885 3.22612C31.9733 3.61054 31.144 4.17356 30.4489 4.88226C31.4245 5.23823 32.3476 5.72409 33.1934 6.3267C33.8677 5.8586 34.6564 5.58228 35.4755 5.52721C36.2945 5.47215 37.1131 5.64039 37.8441 6.01401C38.575 6.38763 39.1908 6.95261 39.6259 7.64872C40.0609 8.34483 40.2989 9.14597 40.3145 9.9667C40.3054 10.8097 40.0577 11.633 39.6001 12.341C39.1426 13.0491 38.4938 13.6132 37.7289 13.9678C37.7876 14.4132 37.8166 14.8619 37.8156 15.3111C37.8111 15.8917 37.7628 16.4712 37.6711 17.0445C39.2447 16.6399 40.6404 15.7265 41.641 14.4464C42.6415 13.1663 43.1908 11.5914 43.2034 9.9667C43.1843 8.01281 42.3928 6.14586 41.0016 4.77369C39.6105 3.40152 37.7329 2.63564 35.7789 2.64337Z" fill="#1B1A1A"/>
</svg>
