<svg width="49" height="49" viewBox="0 0 49 49" fill="none" xmlns="http://www.w3.org/2000/svg">
<path d="M13.5367 18.6277C13.5367 18.3199 13.7863 18.0698 14.0946 18.0698H32.3512C32.659 18.0698 32.9091 18.3194 32.9091 18.6277C32.9091 18.9354 32.6595 19.1855 32.3512 19.1855H14.0941C13.7863 19.1855 13.5367 18.936 13.5367 18.6277ZM14.0941 23.668H32.3507C32.6585 23.668 32.9086 23.4184 32.9086 23.1101C32.9086 22.8024 32.659 22.5523 32.3507 22.5523H14.0941C13.7863 22.5523 13.5362 22.8018 13.5362 23.1101C13.5367 23.4184 13.7863 23.668 14.0941 23.668ZM16.8386 14.4759C15.7428 13.3448 15.0659 11.8049 15.0659 10.1088C15.0659 6.64512 17.884 3.82711 21.3476 3.82711C24.8113 3.82711 27.6288 6.64512 27.6288 10.1088C27.6288 11.8044 26.952 13.3443 25.8562 14.4754C25.8163 14.5346 25.7648 14.5857 25.7051 14.626C24.5745 15.7168 23.0387 16.39 21.3476 16.39C19.6561 16.39 18.1203 15.7168 16.9897 14.626C16.9295 14.5862 16.8784 14.5351 16.8386 14.4759ZM21.3471 15.2747C22.666 15.2747 23.8706 14.7771 24.7848 13.9604C24.401 12.3853 22.9999 11.27 21.3482 11.2695C21.3476 11.2695 21.3476 11.2695 21.3471 11.2695C21.3466 11.2695 21.3466 11.2695 21.3461 11.2695C19.6944 11.27 18.2933 12.3848 17.9095 13.9604C18.8231 14.7771 20.0282 15.2747 21.3471 15.2747ZM21.3466 10.1547H21.3471C22.1347 10.1542 22.7758 9.4565 22.7758 8.599C22.7758 7.74098 22.1347 7.04325 21.3471 7.04325C20.5596 7.04325 19.9185 7.74098 19.9185 8.599C19.9185 9.4565 20.559 10.1542 21.3466 10.1547ZM16.1812 10.1088C16.1812 11.174 16.5053 12.1643 17.0601 12.9876C17.5379 11.8519 18.4429 10.9643 19.5663 10.5039C19.0957 10.019 18.8032 9.3442 18.8032 8.599C18.8032 7.12644 19.9445 5.92799 21.3471 5.92799C22.7498 5.92799 23.891 7.12644 23.891 8.599C23.891 9.3442 23.5986 10.019 23.128 10.5039C24.2514 10.9648 25.1564 11.8519 25.6341 12.9876C26.1884 12.1643 26.5125 11.1735 26.5125 10.1088C26.5125 7.26017 24.1953 4.94288 21.3466 4.94288C18.498 4.94288 16.1812 7.26017 16.1812 10.1088ZM44.2863 45.1081C44.2587 45.6558 44.0234 46.1774 43.6238 46.5771L43.5002 46.7006C43.0582 47.1426 42.4845 47.3662 41.9261 47.3662C41.4188 47.3662 40.9237 47.1819 40.551 46.8093L35.3004 41.5586C35.1958 41.454 35.1371 41.3121 35.1371 41.1641C35.1371 41.0161 35.1958 40.8742 35.3004 40.7695L35.3366 40.7333L34.422 39.8186C33.6701 40.3245 32.8346 40.7119 31.9383 40.9635V42.998C31.9383 43.9321 31.1783 44.6916 30.2447 44.6916H6.40468C5.47062 44.6916 4.71112 43.9316 4.71112 42.998V8.38666C4.71112 7.4526 5.47113 6.6931 6.40468 6.6931H9.77088V3.32741C9.77088 2.39335 10.5309 1.63385 11.4644 1.63385H28.8166C29.2754 1.63385 29.6894 1.80535 30.014 2.12997L36.5014 8.61737C36.826 8.94199 36.9975 9.35594 36.9975 9.81481V28.2858C37.3946 28.9508 37.7075 29.6812 37.9178 30.4658C38.5119 32.6835 38.2072 34.9998 37.0593 36.9884C36.9592 37.1619 36.8516 37.3293 36.7413 37.4942L37.659 38.4119L37.7009 38.3701C37.9163 38.1547 38.2654 38.1521 38.4839 38.3645C39.6175 39.4664 40.7537 40.6174 41.8521 41.7307C42.4687 42.3554 43.1062 43.0016 43.7325 43.6279C44.1178 44.0137 44.3149 44.5395 44.2863 45.1081ZM36.8403 30.7541C35.773 26.7698 31.6627 24.3974 27.6789 25.4647C25.749 25.9817 24.136 27.2195 23.1367 28.9498C22.5737 29.9247 22.2439 30.99 22.1556 32.0797C22.1556 32.0986 22.1546 32.1175 22.1526 32.1363C22.0918 32.9627 22.1689 33.8023 22.3894 34.6262C22.9065 36.556 24.1442 38.1695 25.8745 39.1684C27.6048 40.1672 29.6205 40.4327 31.5509 39.9156C33.4808 39.3986 35.0942 38.1608 36.0931 36.4305C37.0925 34.7002 37.3579 32.684 36.8403 30.7541ZM29.8451 3.5377V8.20802C29.8451 8.52703 30.1044 8.78632 30.4234 8.78632H35.0937L29.8451 3.5377ZM10.8861 37.9388C10.8861 38.2578 11.1454 38.5171 11.4644 38.5171H23.2913C22.3588 37.5075 21.6779 36.2804 21.3119 34.9151C21.1098 34.1602 21.0143 33.394 21.0179 32.6335H14.0941C13.7863 32.6335 13.5362 32.3839 13.5362 32.0756C13.5362 31.7678 13.7858 31.5177 14.0941 31.5177H21.0955C21.245 30.4305 21.6049 29.3714 22.1704 28.3919C22.2179 28.3098 22.2679 28.2306 22.3179 28.1505H14.0941C13.7863 28.1505 13.5362 27.9009 13.5362 27.5926C13.5362 27.2843 13.7858 27.0347 14.0941 27.0347H23.1382C24.2504 25.7556 25.7163 24.8348 27.39 24.3867C30.551 23.5394 33.7814 24.5776 35.8818 26.8091V9.90158H30.4234C29.4893 9.90158 28.7298 9.14157 28.7298 8.20802V2.74911H11.4644C11.1454 2.74911 10.8861 3.0084 10.8861 3.32741V37.9388ZM30.8225 42.9985V41.2008C30.4157 41.2595 30.0074 41.2896 29.6011 41.2896C28.1117 41.2896 26.6417 40.8992 25.3172 40.1346C25.0497 39.9799 24.7935 39.812 24.5469 39.6328H11.465C10.5309 39.6328 9.77139 38.8728 9.77139 37.9393V7.80938H6.40519C6.08618 7.80938 5.82689 8.06867 5.82689 8.38768V42.999C5.82689 43.318 6.08618 43.5773 6.40519 43.5773H30.2447C30.5627 43.5768 30.8225 43.3175 30.8225 42.9985ZM36.1247 39.9452L36.8699 39.2L36.0558 38.3859C35.8225 38.6508 35.573 38.8983 35.3101 39.1311L36.1247 39.9452ZM36.483 41.1646L39.0637 43.7453L40.6787 42.1303C39.8308 41.2718 38.9652 40.398 38.0995 39.5486L36.483 41.1646ZM42.9434 44.4165C42.4508 43.9239 41.9521 43.4201 41.4627 42.924L39.8528 44.5339L41.3396 46.0207C41.6821 46.3632 42.3105 46.3137 42.7116 45.9125L42.8352 45.789C43.0393 45.5848 43.1588 45.3235 43.1725 45.0524C43.1848 44.8023 43.1036 44.5762 42.9434 44.4165ZM35.6985 31.0599C36.1339 32.685 35.9103 34.3822 35.0692 35.8389C34.228 37.2956 32.8698 38.3379 31.2446 38.7733C30.701 38.9193 30.1539 38.9887 29.6159 38.9887C26.8351 38.9887 24.2841 37.1308 23.5307 34.3199C22.6319 30.9655 24.6296 27.5048 27.9846 26.606C29.6092 26.1706 31.3069 26.3942 32.7636 27.2353C34.2209 28.077 35.2631 29.4352 35.6985 31.0599ZM34.621 31.3488C34.2627 30.0115 33.4052 28.8937 32.2062 28.2015C31.0073 27.5094 29.6108 27.3257 28.2735 27.684C25.5132 28.4236 23.8691 31.2712 24.6087 34.0315C25.3483 36.7919 28.1959 38.4359 30.9562 37.6963C32.2935 37.338 33.4113 36.4805 34.1035 35.2815C34.7956 34.0826 34.9793 32.6861 34.621 31.3488Z" fill="#A51DC8"/>
</svg>
