<svg width="45" height="53" viewBox="0 0 45 53" fill="none" xmlns="http://www.w3.org/2000/svg">
<path d="M29.2108 31.3564H14.8137C14.3 31.3564 13.8853 30.9287 13.8853 30.3989C13.8853 29.8691 14.3 29.4414 14.8137 29.4414H29.2108C29.7245 29.4414 30.1392 29.8691 30.1392 30.3989C30.1392 30.9287 29.7245 31.3564 29.2108 31.3564Z" fill="url(#paint0_linear_2571_293)"/>
<path d="M20.4896 37.2919H14.8137C14.3 37.2919 13.8853 36.8643 13.8853 36.3344C13.8853 35.8046 14.3 35.377 14.8137 35.377H20.4896C21.0033 35.377 21.418 35.8046 21.418 36.3344C21.418 36.8643 21.0033 37.2919 20.4896 37.2919Z" fill="url(#paint1_linear_2571_293)"/>
<path d="M29.2108 19.4765H14.8137C14.3 19.4765 13.8853 19.0488 13.8853 18.519C13.8853 17.9892 14.3 17.5615 14.8137 17.5615H29.2108C29.7245 17.5615 30.1392 17.9892 30.1392 18.519C30.1392 19.0488 29.7245 19.4765 29.2108 19.4765Z" fill="url(#paint2_linear_2571_293)"/>
<path d="M29.2108 25.413H14.8137C14.3 25.413 13.8853 24.9854 13.8853 24.4555C13.8853 23.9257 14.3 23.498 14.8137 23.498H29.2108C29.7245 23.498 30.1392 23.9257 30.1392 24.4555C30.1392 24.9854 29.7245 25.413 29.2108 25.413Z" fill="url(#paint3_linear_2571_293)"/>
<path d="M35.617 14.6315L29.8545 8.91849C29.6874 8.74614 29.4522 8.65039 29.217 8.65039H9.05735C8.54361 8.65039 8.12891 9.07807 8.12891 9.60789V43.7585C8.12891 44.2884 8.54361 44.716 9.05735 44.716H27.0506V42.801H9.98579V10.5654H28.827V15.7103H34.0325L34.0449 15.7231V33.7687H35.9018V15.3209C35.9018 15.0592 35.7965 14.8103 35.617 14.6315Z" fill="url(#paint4_linear_2571_293)"/>
<path d="M31.9033 46.9118C27.8987 46.9118 24.6367 43.5542 24.6367 39.4178C24.6367 35.2814 27.8987 31.9238 31.9033 31.9238C35.908 31.9238 39.17 35.2814 39.17 39.4178C39.17 43.5542 35.908 46.9118 31.9033 46.9118ZM31.9033 33.8452C28.9199 33.8452 26.4936 36.3475 26.4936 39.4242C26.4936 42.501 28.9199 45.0032 31.9033 45.0032C34.8867 45.0032 37.3131 42.501 37.3131 39.4242C37.3131 36.3475 34.8867 33.8452 31.9033 33.8452Z" fill="url(#paint5_linear_2571_293)"/>
<path d="M31.8476 41.1539C31.6124 41.1539 31.3833 41.0645 31.21 40.8922L28.697 38.441C28.3257 38.0771 28.3071 37.4707 28.6599 37.0877C29.0127 36.7047 29.6007 36.6856 29.9721 37.0494L32.0642 39.0857L33.9335 38.3452C34.4101 38.1537 34.9486 38.4027 35.1342 38.8942C35.3199 39.3857 35.0785 39.9411 34.6019 40.1326L32.188 41.0837C32.0828 41.1283 31.9652 41.1475 31.8537 41.1475L31.8476 41.1539Z" fill="url(#paint6_linear_2571_293)"/>
<defs>
<linearGradient id="paint0_linear_2571_293" x1="22.0122" y1="29.4414" x2="22.0122" y2="31.3564" gradientUnits="userSpaceOnUse">
<stop stop-color="#EB9916"/>
<stop offset="1" stop-color="#7D5412"/>
</linearGradient>
<linearGradient id="paint1_linear_2571_293" x1="17.6516" y1="35.377" x2="17.6516" y2="37.2919" gradientUnits="userSpaceOnUse">
<stop stop-color="#EB9916"/>
<stop offset="1" stop-color="#7D5412"/>
</linearGradient>
<linearGradient id="paint2_linear_2571_293" x1="22.0122" y1="17.5615" x2="22.0122" y2="19.4765" gradientUnits="userSpaceOnUse">
<stop stop-color="#EB9916"/>
<stop offset="1" stop-color="#7D5412"/>
</linearGradient>
<linearGradient id="paint3_linear_2571_293" x1="22.0122" y1="23.498" x2="22.0122" y2="25.413" gradientUnits="userSpaceOnUse">
<stop stop-color="#EB9916"/>
<stop offset="1" stop-color="#7D5412"/>
</linearGradient>
<linearGradient id="paint4_linear_2571_293" x1="22.0153" y1="8.65039" x2="22.0153" y2="44.716" gradientUnits="userSpaceOnUse">
<stop stop-color="#EB9916"/>
<stop offset="1" stop-color="#7D5412"/>
</linearGradient>
<linearGradient id="paint5_linear_2571_293" x1="31.9033" y1="31.9238" x2="31.9033" y2="46.9118" gradientUnits="userSpaceOnUse">
<stop stop-color="#EB9916"/>
<stop offset="1" stop-color="#7D5412"/>
</linearGradient>
<linearGradient id="paint6_linear_2571_293" x1="31.8017" y1="36.7881" x2="31.8017" y2="41.1539" gradientUnits="userSpaceOnUse">
<stop stop-color="#EB9916"/>
<stop offset="1" stop-color="#7D5412"/>
</linearGradient>
</defs>
</svg>
