<svg width="49" height="47" viewBox="0 0 49 47" fill="none" xmlns="http://www.w3.org/2000/svg">
<path d="M29.6482 30.5347C29.6482 30.8736 29.3788 31.1429 29.0399 31.1429C28.701 31.1429 28.4317 30.8736 28.4317 30.5347C28.4317 28.9706 29.7003 27.7019 31.2644 27.7019C33.3325 27.7019 34.6967 29.8395 33.8452 31.6991C33.5323 32.3855 33.0631 32.7331 32.5157 33.1676C31.8118 33.7324 31.8727 33.715 31.8727 34.2798C31.8727 34.6187 31.6033 34.8881 31.2644 34.8881C30.9255 34.8881 30.6561 34.6187 30.6561 34.2798V33.9322C30.6561 33.1154 31.0645 32.7852 31.7684 32.2291C32.3332 31.7773 32.8893 31.3949 32.8893 30.5434C32.8893 29.1009 31.1428 28.3797 30.1261 29.3964C29.8307 29.6744 29.6482 30.0828 29.6482 30.5347ZM30.6561 36.3653C30.6561 36.0264 30.9255 35.757 31.2644 35.757C31.6033 35.757 31.8727 36.0264 31.8727 36.3653V36.6346C31.8727 36.9735 31.6033 37.2429 31.2644 37.2429C30.9255 37.2429 30.6561 36.9735 30.6561 36.6346V36.3653ZM31.2644 25.4253C35.1573 25.4253 38.3028 28.5796 38.3028 32.4637C38.3028 36.3479 35.1486 39.5022 31.2644 39.5022C27.3715 39.5022 24.226 36.3479 24.226 32.4637C24.226 28.5796 27.3802 25.4253 31.2644 25.4253ZM35.3832 28.3536C33.1066 26.077 29.4222 26.077 27.1456 28.3536C24.869 30.6303 24.869 34.3146 27.1456 36.5912C29.4222 38.8678 33.1066 38.8678 35.3832 36.5912C37.6598 34.3146 37.6598 30.6216 35.3832 28.3536ZM29.5873 20.8634H30.6561V5.78723C30.6561 5.33538 30.2825 4.97042 29.8393 4.97042H8.10711C7.65526 4.97042 7.29031 5.34407 7.29031 5.78723V37.1213C7.29031 37.5731 7.66395 37.9381 8.10711 37.9381H22.5576L23.079 37.4167C22.575 36.5912 22.2013 35.6962 21.9754 34.749H20.2723C19.9334 34.749 19.664 34.4797 19.664 34.1408V30.778C19.664 30.4391 19.9334 30.1697 20.2723 30.1697H21.9754C22.2013 29.2313 22.575 28.3276 23.079 27.5021L21.8711 26.3029C21.6365 26.0683 21.6365 25.6773 21.8711 25.4427L24.252 23.0618C24.4867 22.8272 24.8777 22.8272 25.1123 23.0618L26.3114 24.2696C27.1369 23.7656 28.0319 23.392 28.9791 23.1661V21.4629C28.9791 21.1414 29.2485 20.8634 29.5873 20.8634ZM31.8727 20.8634H32.9415C33.2803 20.8634 33.5497 21.1327 33.5497 21.4716V23.1747C34.4882 23.4094 35.3919 23.783 36.2174 24.2783L37.4165 23.0705C37.6511 22.8359 38.0421 22.8359 38.2768 23.0705L40.6577 25.4514C40.8923 25.686 40.8923 26.077 40.6577 26.3116L39.4585 27.5108C39.9538 28.3363 40.3275 29.2313 40.5621 30.1784H42.2652C42.6041 30.1784 42.8735 30.4478 42.8735 30.7867V34.1495C42.8735 34.4971 42.5954 34.7751 42.2131 34.7577H40.5708C40.3362 35.7049 39.9625 36.5999 39.4672 37.4254L40.675 38.6245C40.9097 38.8591 40.9097 39.2502 40.675 39.4848L38.2855 41.857C38.0508 42.0916 37.6685 42.0916 37.4252 41.857L36.2261 40.6578C35.4006 41.1531 34.5056 41.5268 33.5584 41.7614V43.4645C33.5584 43.8034 33.289 44.0728 32.9502 44.0728H29.5873C29.2485 44.0728 28.9791 43.8034 28.9791 43.4645V41.7614C28.0406 41.5268 27.1369 41.1531 26.3114 40.6578L25.1123 41.857C24.869 42.0916 24.4867 42.0916 24.252 41.857L21.8711 39.4761C21.7843 39.3892 21.7234 39.2675 21.706 39.1546H16.6054V41.9439C16.6054 42.361 16.1796 42.6999 15.719 42.4826L13.6597 41.6398L11.5916 42.5C11.1919 42.6651 10.7487 42.361 10.7487 41.9352V39.1459H8.10711C6.98618 39.1459 6.07379 38.2335 6.07379 37.1126V5.78723C6.0651 4.66629 6.98618 3.75391 8.10711 3.75391H29.8393C30.9603 3.75391 31.8727 4.66629 31.8727 5.78723V20.8634ZM32.3419 22.0799H30.1956V23.6614C30.1956 23.9481 29.9871 24.2001 29.7003 24.2609C29.1355 24.3652 28.5881 24.5303 28.0667 24.7475C27.554 24.9648 27.0587 25.2254 26.5982 25.5383C26.3636 25.7207 26.016 25.7034 25.7988 25.4861L24.6778 24.3652L23.1659 25.8858L24.2868 27.0068C24.4867 27.2066 24.5214 27.5368 24.3563 27.7801C24.0348 28.2494 23.7654 28.7534 23.5482 29.2747C23.3397 29.7787 23.1746 30.3174 23.0703 30.8649C23.0355 31.169 22.7748 31.4036 22.4707 31.4036H20.8892V33.5499H22.4707C22.7575 33.5499 23.0095 33.7498 23.0703 34.0452C23.1746 34.61 23.3397 35.1574 23.5569 35.6788C23.7741 36.1915 24.0348 36.6868 24.3476 37.1473C24.5301 37.3819 24.5127 37.7295 24.2955 37.9468L23.1659 39.059L24.6865 40.5796L25.8074 39.4587C26.0073 39.2589 26.3375 39.2241 26.5808 39.3892C27.05 39.7107 27.5453 39.9801 28.0754 40.1973C28.5794 40.4059 29.1181 40.571 29.6656 40.6752C29.9697 40.71 30.2043 40.9707 30.2043 41.2748V42.8563H32.3506V41.2748C32.3506 40.988 32.5591 40.7361 32.8459 40.6752C33.4107 40.571 33.9581 40.4059 34.4795 40.1886C34.9922 39.9801 35.4875 39.7107 35.948 39.3979C36.1826 39.2154 36.5302 39.2328 36.7474 39.45L37.8684 40.571L39.389 39.0503L38.2681 37.9294C38.0682 37.7208 38.0335 37.3993 38.1986 37.156C38.8416 36.2176 39.276 35.1574 39.4933 34.0278C39.5454 33.7498 39.7974 33.5325 40.0928 33.5325H41.6743V31.3862H40.0928C39.8061 31.3862 39.5541 31.1777 39.4933 30.8909C39.389 30.3261 39.2239 29.7787 39.0067 29.2573C38.7981 28.7447 38.5288 28.2494 38.2159 27.7888C38.0335 27.5542 38.0508 27.2066 38.2681 26.9894L39.389 25.8685L37.851 24.3652L36.73 25.4861C36.5215 25.686 36.2 25.7207 35.9567 25.5556C35.4875 25.2341 34.9835 24.9648 34.4621 24.7475C33.9581 24.539 33.4194 24.3739 32.8719 24.2696C32.5678 24.2349 32.3332 23.9742 32.3332 23.67V22.0799H32.3419ZM11.9652 39.1633V41.0402L13.425 40.4319C13.5641 40.3711 13.7379 40.3711 13.8856 40.4319L15.3888 41.0489V39.1633H11.9652ZM21.6887 12.3999L23.4005 14.1117C23.6351 14.3463 23.6351 14.7373 23.4005 14.9719C23.1572 15.2066 22.7748 15.2066 22.5402 14.9719L20.8197 13.2514C18.8212 14.5548 16.1448 13.1211 16.1448 10.7141C16.1448 9.04576 17.5004 7.69021 19.1687 7.69021C21.5931 7.6989 23.0268 10.41 21.6887 12.3999ZM20.4548 9.44547C19.3165 8.30716 17.37 9.11527 17.37 10.7228C17.37 12.3304 19.3251 13.1385 20.4548 12.0002C21.1586 11.2963 21.1586 10.1493 20.4548 9.44547ZM15.1455 20.9937C14.8067 20.9937 14.5373 20.7243 14.5373 20.3854C14.5373 20.0466 14.8067 19.7772 15.1455 19.7772H22.8009C23.1398 19.7772 23.4092 20.0466 23.4092 20.3854C23.4092 20.7243 23.1398 20.9937 22.8009 20.9937H15.1455ZM11.3135 18.0741C10.9746 18.0741 10.7052 17.8047 10.7052 17.4658C10.7052 17.1269 10.9746 16.8575 11.3135 16.8575H26.6243C26.9631 16.8575 27.2325 17.1269 27.2325 17.4658C27.2325 17.8047 26.9631 18.0741 26.6243 18.0741H11.3135Z" fill="#71CD00"/>
</svg>
