<svg width="22" height="20" viewBox="0 0 22 24" fill="none" xmlns="http://www.w3.org/2000/svg">
<path d="M7.65318 8.48788C7.65318 9.2283 7.94683 9.90139 8.42683 10.3949C7.55718 10.7455 6.78071 11.326 6.20189 12.0665C5.84613 12.5236 5.5666 13.0312 5.3746 13.5725C5.17695 14.1362 5.07812 14.7252 5.07812 15.3253C5.07812 15.4235 5.11765 15.5104 5.18542 15.5721C5.21365 15.6029 5.25036 15.6282 5.29271 15.6478C7.00095 16.4303 8.73742 16.8257 10.4485 16.8257H10.4513C12.1624 16.8257 13.8932 16.4275 15.5958 15.645C15.7511 15.5749 15.8273 15.4038 15.7849 15.244C15.7765 14.6691 15.6777 14.1053 15.4885 13.5668C15.2965 13.0228 15.0198 12.5152 14.6612 12.0608C14.0824 11.3204 13.3059 10.7399 12.4362 10.3893C12.9162 9.89296 13.2099 9.21988 13.2099 8.48228C13.2099 6.95941 11.9647 5.72266 10.4315 5.72266C8.89836 5.72266 7.65318 6.96783 7.65318 8.48788ZM15.0875 15.1234C14.6386 15.3197 14.1868 15.488 13.7379 15.6282L12.9388 13.8164C12.8626 13.6426 12.6565 13.5641 12.4814 13.6398C12.3064 13.7155 12.2273 13.9203 12.3035 14.0941L13.0631 15.8161C11.3153 16.2452 9.55624 16.2424 7.80565 15.8105L8.56236 14.0941C8.6386 13.9203 8.55954 13.7155 8.38448 13.6398C8.20942 13.5641 8.0033 13.6426 7.92707 13.8164L7.13083 15.6198C6.67907 15.4796 6.2273 15.3113 5.77836 15.1122C5.86871 13.1602 7.19577 11.4635 9.07907 10.897C9.48001 11.1213 9.94024 11.2476 10.4315 11.2476C10.9228 11.2476 11.3831 11.1213 11.784 10.897C13.6729 11.4663 15 13.1686 15.0875 15.1234ZM12.5153 8.48788C12.5153 9.62934 11.5807 10.5576 10.4315 10.5576C9.28236 10.5576 8.34777 9.62934 8.34777 8.48788C8.34777 7.34647 9.28236 6.41814 10.4315 6.41814C11.5807 6.41814 12.5153 7.34647 12.5153 8.48788Z" fill="#56E7B4"/>
<path d="M20.7049 5.83478L10.6108 0.0462745C10.5035 -0.0154248 10.3708 -0.0154248 10.2635 0.0462745L0.172235 5.83478C0.0649412 5.89652 0 6.00866 0 6.13209V7.67454C0 10.782 0.827294 13.8445 2.38871 16.534C3.95294 19.2235 6.20894 21.4672 8.91953 23.0209L10.2664 23.7921C10.32 23.823 10.3793 23.837 10.4386 23.837C10.4979 23.837 10.5572 23.823 10.6108 23.7921L11.9576 23.0209C14.6654 21.4672 16.9242 19.2264 18.4885 16.534C20.0527 13.8445 20.8772 10.7792 20.8772 7.67454V6.13209C20.8772 6.01148 20.8122 5.89652 20.7049 5.83478ZM20.1826 7.67737C20.1826 10.6614 19.3892 13.6061 17.8842 16.1919C16.3793 18.7776 14.2108 20.9315 11.6075 22.4263L10.4386 23.0966L9.26682 22.4235C6.66353 20.9315 4.49506 18.7748 2.99012 16.1891C1.48518 13.6033 0.691765 10.6585 0.691765 7.67454V6.3312L10.4386 0.744598L20.1826 6.33398V7.67737Z" fill="#56E7B4"/>
<path d="M10.2674 1.24159L1.2152 6.43274C1.10791 6.49444 1.04297 6.60663 1.04297 6.73001V7.67797C1.04297 10.603 1.82226 13.4889 3.29332 16.0214C4.76438 18.5539 6.89332 20.6657 9.44297 22.1296L10.2674 22.6036C10.3211 22.6344 10.3804 22.6485 10.4397 22.6485C10.499 22.6485 10.5583 22.6344 10.6119 22.6036L11.4364 22.1296C13.986 20.6685 16.1121 18.5539 17.586 16.0214C19.0571 13.4889 19.8364 10.603 19.8364 7.67797V6.73001C19.8364 6.60663 19.7714 6.49444 19.6641 6.43274L10.6119 1.24159C10.5046 1.17989 10.3747 1.17989 10.2674 1.24159ZM19.1446 6.92917V7.67797C19.1446 13.3739 16.0585 18.6829 11.0919 21.5323L10.4397 21.9053L9.78744 21.5323C4.82085 18.6829 1.73473 13.3739 1.73473 7.67797V6.92917L10.4397 1.93711L19.1446 6.92917Z" fill="#56E7B4"/>
</svg>
