<svg width="45" height="53" viewBox="0 0 45 53" fill="none" xmlns="http://www.w3.org/2000/svg">
<path d="M28.5374 31.3574H14.1404C13.6266 31.3574 13.2119 30.9297 13.2119 30.3999C13.2119 29.8701 13.6266 29.4424 14.1404 29.4424H28.5374C29.0512 29.4424 29.4659 29.8701 29.4659 30.3999C29.4659 30.9297 29.0512 31.3574 28.5374 31.3574Z" fill="url(#paint0_linear_2519_709)"/>
<path d="M19.8162 37.2929H14.1404C13.6266 37.2929 13.2119 36.8652 13.2119 36.3354C13.2119 35.8056 13.6266 35.3779 14.1404 35.3779H19.8162C20.33 35.3779 20.7447 35.8056 20.7447 36.3354C20.7447 36.8652 20.33 37.2929 19.8162 37.2929Z" fill="url(#paint1_linear_2519_709)"/>
<path d="M28.5374 19.4775H14.1404C13.6266 19.4775 13.2119 19.0498 13.2119 18.52C13.2119 17.9902 13.6266 17.5625 14.1404 17.5625H28.5374C29.0512 17.5625 29.4659 17.9902 29.4659 18.52C29.4659 19.0498 29.0512 19.4775 28.5374 19.4775Z" fill="url(#paint2_linear_2519_709)"/>
<path d="M28.5374 25.414H14.1404C13.6266 25.414 13.2119 24.9863 13.2119 24.4565C13.2119 23.9267 13.6266 23.499 14.1404 23.499H28.5374C29.0512 23.499 29.4659 23.9267 29.4659 24.4565C29.4659 24.9863 29.0512 25.414 28.5374 25.414Z" fill="url(#paint3_linear_2519_709)"/>
<path d="M34.9437 14.6325L29.1812 8.91947C29.014 8.74712 28.7788 8.65137 28.5436 8.65137H8.38401C7.87027 8.65137 7.45557 9.07905 7.45557 9.60886V43.7595C7.45557 44.2893 7.87027 44.717 8.38401 44.717H26.3773V42.802H9.31245V10.5664H28.1537V15.7113H33.3592L33.3715 15.7241V33.7697H35.2284V15.3219C35.2284 15.0602 35.1232 14.8113 34.9437 14.6325Z" fill="url(#paint4_linear_2519_709)"/>
<path d="M31.23 46.9128C27.2253 46.9128 23.9634 43.5552 23.9634 39.4188C23.9634 35.2824 27.2253 31.9248 31.23 31.9248C35.2347 31.9248 38.4966 35.2824 38.4966 39.4188C38.4966 43.5552 35.2347 46.9128 31.23 46.9128ZM31.23 33.8462C28.2466 33.8462 25.8203 36.3484 25.8203 39.4252C25.8203 42.5019 28.2466 45.0042 31.23 45.0042C34.2134 45.0042 36.6397 42.5019 36.6397 39.4252C36.6397 36.3484 34.2134 33.8462 31.23 33.8462Z" fill="url(#paint5_linear_2519_709)"/>
<path d="M31.1742 41.1549C30.939 41.1549 30.71 41.0655 30.5367 40.8931L28.0237 38.442C27.6523 38.0781 27.6337 37.4717 27.9866 37.0887C28.3394 36.7057 28.9274 36.6865 29.2988 37.0504L31.3909 39.0867L33.2601 38.3462C33.7367 38.1547 34.2752 38.4037 34.4609 38.8952C34.6466 39.3867 34.4052 39.942 33.9286 40.1335L31.5146 41.0846C31.4094 41.1293 31.2918 41.1485 31.1804 41.1485L31.1742 41.1549Z" fill="url(#paint6_linear_2519_709)"/>
<defs>
<linearGradient id="paint0_linear_2519_709" x1="21.3389" y1="29.4424" x2="21.3389" y2="31.3574" gradientUnits="userSpaceOnUse">
<stop stop-color="#4E00BC"/>
<stop offset="1" stop-color="#9D61F1"/>
</linearGradient>
<linearGradient id="paint1_linear_2519_709" x1="16.9783" y1="35.3779" x2="16.9783" y2="37.2929" gradientUnits="userSpaceOnUse">
<stop stop-color="#4E00BC"/>
<stop offset="1" stop-color="#9D61F1"/>
</linearGradient>
<linearGradient id="paint2_linear_2519_709" x1="21.3389" y1="17.5625" x2="21.3389" y2="19.4775" gradientUnits="userSpaceOnUse">
<stop stop-color="#4E00BC"/>
<stop offset="1" stop-color="#9D61F1"/>
</linearGradient>
<linearGradient id="paint3_linear_2519_709" x1="21.3389" y1="23.499" x2="21.3389" y2="25.414" gradientUnits="userSpaceOnUse">
<stop stop-color="#4E00BC"/>
<stop offset="1" stop-color="#9D61F1"/>
</linearGradient>
<linearGradient id="paint4_linear_2519_709" x1="21.342" y1="8.65137" x2="21.342" y2="44.717" gradientUnits="userSpaceOnUse">
<stop stop-color="#4E00BC"/>
<stop offset="1" stop-color="#9D61F1"/>
</linearGradient>
<linearGradient id="paint5_linear_2519_709" x1="31.23" y1="31.9248" x2="31.23" y2="46.9128" gradientUnits="userSpaceOnUse">
<stop stop-color="#4E00BC"/>
<stop offset="1" stop-color="#9D61F1"/>
</linearGradient>
<linearGradient id="paint6_linear_2519_709" x1="31.1284" y1="36.7891" x2="31.1284" y2="41.1549" gradientUnits="userSpaceOnUse">
<stop stop-color="#4E00BC"/>
<stop offset="1" stop-color="#9D61F1"/>
</linearGradient>
</defs>
</svg>
