<svg width="39" height="47" viewBox="0 0 39 47" fill="none" xmlns="http://www.w3.org/2000/svg">
<path d="M17.039 26.5463C17.0416 26.5463 17.0437 26.5472 17.0463 26.5472C17.0511 26.5472 17.0563 26.5495 17.061 26.5495H17.0619C17.0649 26.5495 17.0679 26.5482 17.0714 26.5482C17.0843 26.5482 17.0969 26.5505 17.1094 26.5505C21.0197 26.5505 24.2004 23.165 24.2004 19.004C24.2004 14.8431 21.0192 11.4576 17.1094 11.4576C17.102 11.4576 17.0947 11.459 17.0874 11.459C17.0787 11.4585 17.0696 11.4599 17.0606 11.4599C17.0433 11.4599 17.0265 11.4608 17.0096 11.4627C16.9997 11.4636 16.9902 11.4631 16.9802 11.465C13.1308 11.5376 10.0188 14.8881 10.0188 19.0031C10.0188 23.1392 13.1619 26.505 17.039 26.5463ZM11.594 21.5832H13.2051C13.5792 22.8837 14.2327 24.0715 15.1259 25.0551C13.5464 24.4668 12.2648 23.2018 11.594 21.5832ZM23.1387 19.0031C23.1387 19.5023 23.0796 19.9859 22.9776 20.4525H21.1635C21.2378 19.9744 21.2801 19.4862 21.2801 18.9889C21.2801 18.5016 21.2387 18.0231 21.1661 17.5538H22.9776C23.0796 18.0208 23.1387 18.5044 23.1387 19.0031ZM20.218 19.0174C20.218 19.5055 20.174 19.9854 20.0902 20.4529H17.6407V17.5542H20.088C20.1735 18.0295 20.218 18.5186 20.218 19.0174ZM14.3273 21.5832H16.5785V24.9352C15.538 24.0508 14.7674 22.8929 14.3273 21.5832ZM17.6407 24.8483V21.5832H19.7982C19.3727 22.8478 18.6341 23.9735 17.6407 24.8483ZM17.6407 16.4234V13.1579C18.6319 14.0313 19.3693 15.1557 19.7956 16.4234H17.6407ZM16.5785 13.071V16.4234H14.3243C14.764 15.1175 15.5354 13.9573 16.5785 13.071ZM16.5785 17.5542V20.4529H14.0349C13.9494 19.9776 13.9049 19.4881 13.9049 18.9893C13.9049 18.5012 13.9489 18.0213 14.0323 17.5542H16.5785ZM12.9568 20.4529H11.242C11.1401 19.9863 11.0809 19.5023 11.0809 19.0036C11.0809 18.5044 11.1401 18.0208 11.2416 17.5542H12.9589C12.8846 18.0318 12.8423 18.52 12.8423 19.0174C12.8427 19.5046 12.8838 19.9836 12.9568 20.4529ZM18.9378 25.1158C19.8578 24.1216 20.532 22.914 20.9147 21.5832H22.6256C21.9323 23.2551 20.5899 24.555 18.9378 25.1158ZM22.6256 16.4234H20.9177C20.5355 15.0954 19.8608 13.8865 18.9382 12.8909C20.5903 13.4521 21.9328 14.7516 22.6256 16.4234ZM15.1264 12.9511C14.2353 13.9334 13.5826 15.1203 13.2077 16.4234H11.5936C12.2648 14.8049 13.5464 13.5395 15.1264 12.9511ZM35.8082 8.56994C35.4441 7.8193 34.8299 7.2654 34.0779 7.00982L17.2722 1.29932C16.5207 1.04328 15.7181 1.11591 15.0128 1.50387C14.3074 1.89091 13.787 2.54503 13.5468 3.34486L12.4315 7.06222H8.28931C6.65487 7.06222 5.32495 8.47755 5.32495 10.2169V39.8244C5.32495 41.5638 6.65487 42.9791 8.28931 42.9791H25.9312C27.5656 42.9791 28.8955 41.5643 28.8955 39.8244V34.6568L36.0008 10.9745C36.2401 10.1751 36.1719 9.32059 35.8082 8.56994ZM27.8326 39.8244C27.8326 40.9405 26.9795 41.8483 25.9303 41.8483H8.28888C7.24014 41.8483 6.38664 40.9405 6.38664 39.8244V10.2169C6.38664 9.10086 7.23971 8.19255 8.28888 8.19255H25.9308C26.9795 8.19255 27.833 9.10086 27.833 10.2169V39.8244H27.8326ZM34.9884 10.6307L28.8951 30.9408V10.2174C28.8951 8.47801 27.5652 7.06268 25.9308 7.06268H13.5464L14.5588 3.68915C14.7126 3.17708 15.0469 2.75785 15.5 2.50871C15.9531 2.26003 16.4675 2.21314 16.9496 2.37679L33.7557 8.08729C34.2368 8.25093 34.6312 8.60672 34.8649 9.08891C35.0977 9.57065 35.1422 10.1186 34.9884 10.6307ZM24.2743 30.9201C24.2743 31.2322 24.0367 31.4855 23.743 31.4855H10.4762C10.1829 31.4855 9.94491 31.2322 9.94491 30.9201C9.94491 30.608 10.1825 30.3547 10.4762 30.3547H23.7434C24.0367 30.3547 24.2743 30.608 24.2743 30.9201ZM24.2743 34.91C24.2743 35.2222 24.0367 35.4754 23.743 35.4754H10.4762C10.1829 35.4754 9.94491 35.2222 9.94491 34.91C9.94491 34.5979 10.1825 34.3447 10.4762 34.3447H23.7434C24.0367 34.3451 24.2743 34.5984 24.2743 34.91ZM21.2654 38.9005C21.2654 39.2126 21.0279 39.4659 20.7342 39.4659H13.4855C13.1922 39.4659 12.9542 39.2126 12.9542 38.9005C12.9542 38.5883 13.1918 38.3351 13.4855 38.3351H20.7342C21.0274 38.3351 21.2654 38.5883 21.2654 38.9005Z" fill="url(#paint0_linear_4209_465)"/>
<defs>
<linearGradient id="paint0_linear_4209_465" x1="20.7331" y1="1.14893" x2="20.7331" y2="42.9791" gradientUnits="userSpaceOnUse">
<stop stop-color="#0072FE"/>
<stop offset="1" stop-color="#2A99C1"/>
</linearGradient>
</defs>
</svg>
