<svg width="48" height="48" viewBox="0 0 48 48" fill="none" xmlns="http://www.w3.org/2000/svg">
<mask id="path-1-inside-1_3430_1286" fill="white">
<path d="M43.5028 16.3457C43.5028 14.9624 42.3655 13.8367 40.9678 13.8367H33.6954C33.2948 13.8367 32.9028 13.6761 32.6205 13.3951L29.7525 10.5566C29.281 10.0899 28.6269 9.82227 27.9594 9.82227H7.16666C5.76899 9.82227 4.63159 10.948 4.63159 12.3313V39.0942C4.63159 40.4776 5.76899 41.6033 7.16666 41.6033H40.9674C42.3651 41.6033 43.5025 40.4776 43.5025 39.0942L43.5028 16.3457ZM7.16718 10.8257H27.9599C28.3604 10.8257 28.7525 10.9863 29.0348 11.2672L31.9028 14.1058C32.3743 14.5725 33.0284 14.8401 33.6959 14.8401H40.9683C41.8066 14.8401 42.4893 15.5158 42.4893 16.3455V19.7043C42.0651 19.3864 41.5412 19.1891 40.9683 19.1891H21.5276C21.1271 19.1891 20.735 19.0285 20.4527 18.7475L18.9368 17.2471C18.4653 16.7805 17.8112 16.5128 17.1437 16.5128H7.16718C6.59426 16.5128 6.07033 16.7085 5.64616 17.028V12.331C5.64616 11.5014 6.32892 10.8257 7.16718 10.8257ZM42.4892 39.0942C42.4892 39.9238 41.8064 40.5996 40.9681 40.5996H7.16735C6.32909 40.5996 5.64633 39.9238 5.64633 39.0942V19.022C5.64633 18.1923 6.32909 17.5166 7.16735 17.5166H17.1438C17.5444 17.5166 17.9364 17.6772 18.2187 17.9582L19.7347 19.4586C20.2062 19.9252 20.8602 20.1928 21.5278 20.1928H40.9685C41.8067 20.1928 42.4895 20.8686 42.4895 21.6982L42.4892 39.0942ZM8.68838 33.0728C8.68838 32.7951 8.91484 32.5709 9.1954 32.5709H16.6318C16.9123 32.5709 17.1388 32.7951 17.1388 33.0728C17.1388 33.3504 16.9123 33.5746 16.6318 33.5746H9.1954C8.91485 33.5746 8.68838 33.3504 8.68838 33.0728ZM21.1946 37.0872C21.1946 37.3649 20.9681 37.589 20.6875 37.589H9.19549C8.91494 37.589 8.68846 37.3649 8.68846 37.0872C8.68846 36.8095 8.91493 36.5854 9.19549 36.5854H20.6875C20.9681 36.5854 21.1946 36.8095 21.1946 37.0872Z"/>
</mask>
<path d="M43.5028 16.3457C43.5028 14.9624 42.3655 13.8367 40.9678 13.8367H33.6954C33.2948 13.8367 32.9028 13.6761 32.6205 13.3951L29.7525 10.5566C29.281 10.0899 28.6269 9.82227 27.9594 9.82227H7.16666C5.76899 9.82227 4.63159 10.948 4.63159 12.3313V39.0942C4.63159 40.4776 5.76899 41.6033 7.16666 41.6033H40.9674C42.3651 41.6033 43.5025 40.4776 43.5025 39.0942L43.5028 16.3457ZM7.16718 10.8257H27.9599C28.3604 10.8257 28.7525 10.9863 29.0348 11.2672L31.9028 14.1058C32.3743 14.5725 33.0284 14.8401 33.6959 14.8401H40.9683C41.8066 14.8401 42.4893 15.5158 42.4893 16.3455V19.7043C42.0651 19.3864 41.5412 19.1891 40.9683 19.1891H21.5276C21.1271 19.1891 20.735 19.0285 20.4527 18.7475L18.9368 17.2471C18.4653 16.7805 17.8112 16.5128 17.1437 16.5128H7.16718C6.59426 16.5128 6.07033 16.7085 5.64616 17.028V12.331C5.64616 11.5014 6.32892 10.8257 7.16718 10.8257ZM42.4892 39.0942C42.4892 39.9238 41.8064 40.5996 40.9681 40.5996H7.16735C6.32909 40.5996 5.64633 39.9238 5.64633 39.0942V19.022C5.64633 18.1923 6.32909 17.5166 7.16735 17.5166H17.1438C17.5444 17.5166 17.9364 17.6772 18.2187 17.9582L19.7347 19.4586C20.2062 19.9252 20.8602 20.1928 21.5278 20.1928H40.9685C41.8067 20.1928 42.4895 20.8686 42.4895 21.6982L42.4892 39.0942ZM8.68838 33.0728C8.68838 32.7951 8.91484 32.5709 9.1954 32.5709H16.6318C16.9123 32.5709 17.1388 32.7951 17.1388 33.0728C17.1388 33.3504 16.9123 33.5746 16.6318 33.5746H9.1954C8.91485 33.5746 8.68838 33.3504 8.68838 33.0728ZM21.1946 37.0872C21.1946 37.3649 20.9681 37.589 20.6875 37.589H9.19549C8.91494 37.589 8.68846 37.3649 8.68846 37.0872C8.68846 36.8095 8.91493 36.5854 9.19549 36.5854H20.6875C20.9681 36.5854 21.1946 36.8095 21.1946 37.0872Z" fill="#D0D716"/>
<path d="M43.5028 16.3457L123.503 16.3469V16.3457H43.5028ZM32.6205 13.3951L89.0612 -43.301L88.9789 -43.3829L88.8963 -43.4647L32.6205 13.3951ZM29.7525 10.5566L-26.5233 67.4163L-26.5233 67.4163L29.7525 10.5566ZM43.5025 39.0942L-36.4975 39.093V39.0942H43.5025ZM29.0348 11.2672L-27.4059 67.9633L-27.3236 68.0453L-27.2411 68.127L29.0348 11.2672ZM31.9028 14.1058L-24.3731 70.9655L-24.3731 70.9655L31.9028 14.1058ZM42.4893 19.7043L-5.4779 83.7288L122.489 179.602V19.7043H42.4893ZM20.4527 18.7475L76.8934 -37.9486L76.8111 -38.0305L76.7285 -38.1123L20.4527 18.7475ZM18.9368 17.2471L-37.3391 74.1069L-37.339 74.1069L18.9368 17.2471ZM5.64616 17.028H-74.3538V177.434L53.7757 80.9306L5.64616 17.028ZM42.4892 39.0942L-37.5108 39.0926V39.0942H42.4892ZM18.2187 17.9582L-38.222 74.6542L-38.1397 74.7362L-38.0571 74.8179L18.2187 17.9582ZM42.4895 21.6982L122.49 21.6998V21.6982H42.4895ZM123.503 16.3457C123.503 -29.9969 85.7677 -66.1633 40.9678 -66.1633V93.8367C-1.03682 93.8367 -36.4972 59.9216 -36.4972 16.3457H123.503ZM40.9678 -66.1633H33.6954V93.8367H40.9678V-66.1633ZM33.6954 -66.1633C54.2104 -66.1633 74.1824 -58.1128 89.0612 -43.301L-23.8202 70.0912C-8.37691 85.4649 12.3792 93.8367 33.6954 93.8367V-66.1633ZM88.8963 -43.4647L86.0283 -46.3032L-26.5233 67.4163L-23.6553 70.2548L88.8963 -43.4647ZM86.0283 -46.3032C70.4538 -61.7178 49.5253 -70.1777 27.9594 -70.1777V89.8223C7.72857 89.8223 -11.8918 81.8976 -26.5233 67.4163L86.0283 -46.3032ZM27.9594 -70.1777H7.16666V89.8223H27.9594V-70.1777ZM7.16666 -70.1777C-37.6332 -70.1777 -75.3684 -34.0113 -75.3684 12.3313H84.6316C84.6316 55.9073 49.1712 89.8223 7.16666 89.8223V-70.1777ZM-75.3684 12.3313V39.0942H84.6316V12.3313H-75.3684ZM-75.3684 39.0942C-75.3684 85.4369 -37.6332 121.603 7.16666 121.603V-38.3967C49.1712 -38.3967 84.6316 -4.48177 84.6316 39.0942H-75.3684ZM7.16666 121.603H40.9674V-38.3967H7.16666V121.603ZM40.9674 121.603C85.7672 121.603 123.503 85.437 123.503 39.0942H-36.4975C-36.4975 -4.48187 -1.037 -38.3967 40.9674 -38.3967V121.603ZM123.503 39.0954L123.503 16.3469L-36.4972 16.3445L-36.4975 39.093L123.503 39.0954ZM7.16718 90.8257H27.9599V-69.1743H7.16718V90.8257ZM27.9599 90.8257C7.44491 90.8257 -12.5271 82.7751 -27.4059 67.9633L85.4755 -45.4288C70.0321 -60.8026 49.276 -69.1743 27.9599 -69.1743V90.8257ZM-27.2411 68.127L-24.3731 70.9655L88.1786 -42.7539L85.3106 -45.5925L-27.2411 68.127ZM-24.3731 70.9655C-8.79851 86.3802 12.13 94.8401 33.6959 94.8401V-65.1599C53.9267 -65.1599 73.5471 -57.2353 88.1786 -42.7539L-24.3731 70.9655ZM33.6959 94.8401H40.9683V-65.1599H33.6959V94.8401ZM40.9683 94.8401C-1.59563 94.8401 -37.5107 60.4752 -37.5107 16.3455H122.489C122.489 -29.4435 85.2087 -65.1599 40.9683 -65.1599V94.8401ZM-37.5107 16.3455V19.7043H122.489V16.3455H-37.5107ZM90.4566 -44.3203C77.457 -54.0595 60.3551 -60.8109 40.9683 -60.8109V99.1891C22.7273 99.1891 6.6732 92.8324 -5.4779 83.7288L90.4566 -44.3203ZM40.9683 -60.8109H21.5276V99.1891H40.9683V-60.8109ZM21.5276 -60.8109C42.0427 -60.8109 62.0147 -52.7603 76.8934 -37.9486L-35.988 75.4436C-20.5447 90.8173 0.211484 99.1891 21.5276 99.1891V-60.8109ZM76.7285 -38.1123L75.2126 -39.6126L-37.339 74.1069L-35.8231 75.6073L76.7285 -38.1123ZM75.2126 -39.6126C59.6381 -55.0272 38.7096 -63.4872 17.1437 -63.4872V96.5128C-3.08725 96.5128 -22.7076 88.5881 -37.3391 74.1069L75.2126 -39.6126ZM17.1437 -63.4872H7.16718V96.5128H17.1437V-63.4872ZM7.16718 -63.4872C-12.0737 -63.4872 -29.2664 -56.8292 -42.4834 -46.8746L53.7757 80.9306C41.4071 90.2463 25.2623 96.5128 7.16718 96.5128V-63.4872ZM85.6462 17.028V12.331H-74.3538V17.028H85.6462ZM85.6462 12.331C85.6462 56.4666 49.7252 90.8257 7.16718 90.8257V-69.1743C-37.0673 -69.1743 -74.3538 -33.4639 -74.3538 12.331H85.6462ZM-37.5108 39.0942C-37.5108 -5.03545 -1.59586 -39.4004 40.9681 -39.4004V120.6C85.2086 120.6 122.489 84.8831 122.489 39.0942H-37.5108ZM40.9681 -39.4004H7.16735V120.6H40.9681V-39.4004ZM7.16735 -39.4004C49.7314 -39.4004 85.6463 -5.03539 85.6463 39.0942H-74.3537C-74.3537 84.8831 -37.0732 120.6 7.16735 120.6V-39.4004ZM85.6463 39.0942V19.022H-74.3537V39.0942H85.6463ZM85.6463 19.022C85.6463 63.1517 49.7313 97.5166 7.16735 97.5166V-62.4834C-37.0731 -62.4834 -74.3537 -26.767 -74.3537 19.022H85.6463ZM7.16735 97.5166H17.1438V-62.4834H7.16735V97.5166ZM17.1438 97.5166C-3.37113 97.5166 -23.3432 89.4661 -38.222 74.6542L74.6594 -38.7379C59.216 -54.1117 38.4599 -62.4834 17.1438 -62.4834V97.5166ZM-38.0571 74.8179L-36.5412 76.3183L76.0105 -37.4012L74.4945 -38.9016L-38.0571 74.8179ZM-36.5412 76.3183C-20.9666 91.733 -0.0380368 100.193 21.5278 100.193V-59.8072C41.7585 -59.8072 61.3789 -51.8825 76.0105 -37.4012L-36.5412 76.3183ZM21.5278 100.193H40.9685V-59.8072H21.5278V100.193ZM40.9685 100.193C-1.59551 100.193 -37.5105 65.8279 -37.5105 21.6982H122.49C122.49 -24.0907 85.209 -59.8072 40.9685 -59.8072V100.193ZM-37.5105 21.6967L-37.5108 39.0926L122.489 39.0958L122.49 21.6998L-37.5105 21.6967ZM88.6884 33.0728C88.6884 77.753 52.3185 112.571 9.1954 112.571V-47.4291C-34.4888 -47.4291 -71.3116 -12.1628 -71.3116 33.0728H88.6884ZM9.1954 112.571H16.6318V-47.4291H9.1954V112.571ZM16.6318 112.571C-26.4894 112.571 -62.8612 77.7549 -62.8612 33.0728H97.1388C97.1388 -12.1648 60.314 -47.4291 16.6318 -47.4291V112.571ZM-62.8612 33.0728C-62.8612 -11.6092 -26.4896 -46.4254 16.6318 -46.4254V113.575C60.3142 113.575 97.1388 78.3101 97.1388 33.0728H-62.8612ZM16.6318 -46.4254H9.1954V113.575H16.6318V-46.4254ZM9.1954 -46.4254C52.316 -46.4254 88.6884 -11.6099 88.6884 33.0728H-71.3116C-71.3116 78.3108 -34.4863 113.575 9.1954 113.575V-46.4254ZM-58.8054 37.0872C-58.8054 -7.59389 -22.4347 -42.411 20.6875 -42.411V117.589C64.3709 117.589 101.195 82.3236 101.195 37.0872H-58.8054ZM20.6875 -42.411H9.19549V117.589H20.6875V-42.411ZM9.19549 -42.411C52.3161 -42.411 88.6885 -7.59548 88.6885 37.0872H-71.3115C-71.3115 82.3252 -34.4862 117.589 9.19549 117.589V-42.411ZM88.6885 37.0872C88.6885 81.7683 52.3177 116.585 9.19549 116.585V-43.4146C-34.4878 -43.4146 -71.3115 -8.14927 -71.3115 37.0872H88.6885ZM9.19549 116.585H20.6875V-43.4146H9.19549V116.585ZM20.6875 116.585C-22.4336 116.585 -58.8054 81.7694 -58.8054 37.0872H101.195C101.195 -8.15033 64.3698 -43.4146 20.6875 -43.4146V116.585Z" fill="#D0D716" mask="url(#path-1-inside-1_3430_1286)"/>
</svg>
