<svg width="58" height="57" viewBox="0 0 58 57" fill="none" xmlns="http://www.w3.org/2000/svg">
<path d="M54.5027 18.1414L54.5056 18.1447C54.5206 18.1621 54.5317 18.1826 54.5379 18.2047C54.5439 18.2264 54.5453 18.249 54.5418 18.2712C54.5417 18.2718 54.5416 18.2723 54.5415 18.2728L48.9056 50.3576L48.9052 50.3599C48.8989 50.3966 48.8796 50.4299 48.851 50.4536C48.8224 50.4774 48.7862 50.4902 48.7489 50.4896L48.7489 50.4896H48.738H3.50264C3.50184 50.4895 3.50104 50.4895 3.50023 50.4894L3.46935 50.4476L3.46606 50.4149L3.46866 50.389V50.3514V7.64893C3.46866 7.60749 3.48512 7.56774 3.51442 7.53844C3.54373 7.50914 3.58347 7.49268 3.62491 7.49268H16.419C16.4393 7.49288 16.4594 7.49706 16.4782 7.50499C16.4973 7.51303 16.5145 7.52478 16.529 7.53955L16.5303 7.54092L21.9678 13.06L22.1882 13.2836H22.5021H48.738C48.7795 13.2836 48.8192 13.3001 48.8485 13.3294C48.8778 13.3587 48.8943 13.3984 48.8943 13.4399V17.3367V18.0867H49.6443H54.3749L54.3749 18.0868L54.3824 18.0867C54.4053 18.0865 54.4279 18.0912 54.4487 18.1007C54.4694 18.1101 54.4879 18.124 54.5027 18.1414ZM16.5476 8.06506L16.3283 7.84242L16.0157 7.84143L4.53353 7.80518L3.78116 7.8028V8.55518V39.9477L5.26991 40.0771L9.0933 18.251C9.0934 18.2505 9.0935 18.2499 9.09361 18.2494C9.10054 18.2136 9.11974 18.1814 9.14793 18.1583C9.17654 18.1348 9.21255 18.1223 9.24955 18.1229L9.24955 18.123H9.26179H47.8318H48.5818V17.373V14.3824V13.6324H47.8318H22.0965C22.0761 13.6322 22.056 13.628 22.0372 13.62C22.0182 13.612 22.0009 13.6003 21.9865 13.5855L21.9851 13.5841L16.5476 8.06506ZM47.9768 50.1952H48.6066L48.7155 49.5749L54.0352 19.2789L54.1896 18.3992H53.2965H10.023H9.39325L9.28434 19.0195L3.96465 49.3155L3.81018 50.1952H4.70335H47.9768Z" fill="url(#paint0_linear_1565_122)" stroke="url(#paint1_linear_1565_122)" stroke-width="1.5"/>
<path d="M29 31.3838C28.3676 31.3867 27.7596 31.6282 27.2975 32.06C26.8355 32.4918 26.5534 33.0821 26.5078 33.7129L25.819 43.5004C25.7967 43.8427 25.8449 44.186 25.9604 44.509C26.076 44.8321 26.2565 45.128 26.4909 45.3785C26.7253 45.6291 27.0086 45.8289 27.3232 45.9657C27.6379 46.1024 27.9772 46.1733 28.3203 46.1738H29.6797C30.0227 46.1733 30.3621 46.1024 30.6767 45.9657C30.9913 45.8289 31.2746 45.6291 31.509 45.3785C31.7434 45.128 31.924 44.8321 32.0395 44.509C32.1551 44.186 32.2032 43.8427 32.1809 43.5004L31.5012 33.7129C31.4513 33.0821 31.1668 32.4929 30.7037 32.0617C30.2406 31.6305 29.6327 31.3886 29 31.3838ZM30.1872 44.0713C30.1232 44.142 30.0448 44.198 29.9572 44.2355C29.8696 44.2731 29.7749 44.2912 29.6797 44.2888H28.3203C28.2255 44.2904 28.1314 44.2721 28.0441 44.2351C27.9568 44.1982 27.8782 44.1434 27.8134 44.0743C27.7485 44.0051 27.6988 43.9232 27.6675 43.8337C27.6362 43.7443 27.6239 43.6492 27.6315 43.5547L28.3112 33.8035C28.3112 33.6208 28.3838 33.4456 28.5129 33.3165C28.6421 33.1873 28.8173 33.1147 29 33.1147C29.1826 33.1147 29.3578 33.1873 29.487 33.3165C29.6161 33.4456 29.6887 33.6208 29.6887 33.8035L30.3684 43.5547C30.383 43.6546 30.3742 43.7565 30.3428 43.8524C30.3113 43.9484 30.2581 44.0357 30.1872 44.1075V44.0713Z" fill="url(#paint2_linear_1565_122)"/>
<path d="M28.9999 29.0546C29.6545 29.0564 30.2949 28.8639 30.8401 28.5015C31.3853 28.1391 31.8106 27.6232 32.0624 27.0189C32.3141 26.4146 32.3809 25.7493 32.2543 25.107C32.1277 24.4648 31.8134 23.8745 31.3512 23.411C30.8889 22.9475 30.2995 22.6316 29.6576 22.5032C29.0157 22.3748 28.3502 22.4398 27.7452 22.6899C27.1403 22.94 26.6231 23.3639 26.2593 23.9081C25.8954 24.4523 25.7012 25.0922 25.7012 25.7468C25.7012 26.6225 26.0484 27.4625 26.6668 28.0825C27.2852 28.7026 28.1242 29.0522 28.9999 29.0546ZM28.9999 24.2605C29.2964 24.2587 29.5868 24.3451 29.8341 24.5087C30.0814 24.6724 30.2744 24.9058 30.3887 25.1794C30.503 25.453 30.5334 25.7544 30.476 26.0453C30.4186 26.3362 30.276 26.6035 30.0663 26.8131C29.8566 27.0228 29.5894 27.1654 29.2985 27.2228C29.0076 27.2802 28.7062 27.2499 28.4326 27.1356C28.159 27.0213 27.9255 26.8282 27.7619 26.5809C27.5983 26.3336 27.5119 26.0433 27.5137 25.7468C27.5137 25.3526 27.6703 24.9746 27.949 24.6958C28.2277 24.4171 28.6057 24.2605 28.9999 24.2605Z" fill="url(#paint3_linear_1565_122)"/>
<defs>
<linearGradient id="paint0_linear_1565_122" x1="29.0043" y1="6.74268" x2="29.0043" y2="51.2396" gradientUnits="userSpaceOnUse">
<stop stop-color="#F9A938"/>
<stop offset="1" stop-color="#936421"/>
</linearGradient>
<linearGradient id="paint1_linear_1565_122" x1="4.5" y1="8.50012" x2="46.7867" y2="51.2396" gradientUnits="userSpaceOnUse">
<stop stop-color="#F9A938"/>
<stop offset="1" stop-color="#936421"/>
</linearGradient>
<linearGradient id="paint2_linear_1565_122" x1="29" y1="31.3838" x2="29" y2="46.1738" gradientUnits="userSpaceOnUse">
<stop stop-color="#F9A938"/>
<stop offset="1" stop-color="#936421"/>
</linearGradient>
<linearGradient id="paint3_linear_1565_122" x1="29.009" y1="22.439" x2="29.009" y2="29.0546" gradientUnits="userSpaceOnUse">
<stop stop-color="#F9A938"/>
<stop offset="1" stop-color="#936421"/>
</linearGradient>
</defs>
</svg>
