<svg width="52" height="52" viewBox="0 0 52 52" fill="none" xmlns="http://www.w3.org/2000/svg">
<path d="M45.4904 8.8119C45.4904 7.60238 44.5081 6.61816 43.2967 6.61816H8.70253C7.49301 6.61816 6.50879 7.60054 6.50879 8.8119C6.50879 9.97524 7.42101 10.9207 8.5696 10.9909V31.7762C8.5696 32.5555 9.20296 33.1889 9.98225 33.1889H12.549C12.5435 33.2498 12.5398 33.3163 12.5398 33.3772C12.5398 35.3919 14.1758 37.0261 16.1887 37.0261C18.2033 37.0261 19.8376 35.3901 19.8376 33.3772C19.8376 33.3108 19.832 33.2498 19.8283 33.1889H21.7248C22.2399 35.065 23.9517 36.4463 25.9885 36.4463C28.0253 36.4463 29.7371 35.0613 30.2523 33.1889H32.1487C32.1432 33.2498 32.1395 33.3163 32.1395 33.3772C32.1395 35.3919 33.7756 37.0261 35.7884 37.0261C37.803 37.0261 39.4373 35.3901 39.4373 33.3772C39.4373 33.3108 39.4317 33.2498 39.428 33.1889H42.0096C42.7888 33.1889 43.4222 32.5555 43.4222 31.7762L43.4241 10.9966C44.5782 10.9209 45.4904 9.97524 45.4904 8.8119ZM16.1908 35.9753C14.7634 35.9753 13.6 34.812 13.6 33.3845C13.6 31.9571 14.7634 30.7937 16.1908 30.7937C17.6183 30.7937 18.7816 31.9571 18.7816 33.3845C18.7816 34.8119 17.6183 35.9753 16.1908 35.9753ZM25.9904 35.3881C24.1365 35.3881 22.6241 33.8794 22.6241 32.0217C22.6241 30.164 24.1328 28.6554 25.9904 28.6554C27.8444 28.6554 29.3568 30.164 29.3568 32.0217C29.3568 33.8812 27.8481 35.3881 25.9904 35.3881ZM35.7939 35.9753C34.3665 35.9753 33.2031 34.812 33.2031 33.3845C33.2031 31.9571 34.3664 30.7937 35.7939 30.7937C37.2213 30.7937 38.3846 31.9571 38.3846 33.3845C38.3846 34.8119 37.2213 35.9753 35.7939 35.9753ZM42.015 32.1307H39.221C38.7114 30.731 37.3671 29.7301 35.7938 29.7301C34.2205 29.7301 32.8817 30.7328 32.3665 32.1307H30.4091C30.4091 32.0975 30.4147 32.0605 30.4147 32.0273C30.4147 29.5879 28.4296 27.6028 25.9902 27.6028C23.5509 27.6028 21.5658 29.5879 21.5658 32.0273C21.5658 32.0605 21.5713 32.0975 21.5713 32.1307H19.6139C19.1043 30.731 17.76 29.7301 16.1867 29.7301C14.6134 29.7301 13.2746 30.7328 12.7594 32.1307H9.98028C9.78639 32.1307 9.62573 31.97 9.62573 31.7761L9.62389 11.0055H42.3659V31.7776C42.3696 31.9696 42.2144 32.1307 42.015 32.1307ZM43.2965 9.9456H8.70229C8.07815 9.9456 7.5685 9.43595 7.5685 8.81181C7.5685 8.18767 8.07815 7.67802 8.70229 7.67802H43.2965C43.9206 7.67802 44.4303 8.18767 44.4303 8.81181C44.4303 9.43595 43.9206 9.9456 43.2965 9.9456ZM35.7938 37.1515C34.1116 37.1515 32.5937 37.6483 31.3731 38.5845C29.8847 37.4599 28.0455 36.8598 25.9882 36.8598C23.9311 36.8598 22.0938 37.4562 20.6034 38.5845C19.3847 37.6482 17.8667 37.1515 16.1826 37.1515C14.2105 37.1515 12.4858 37.8182 11.1821 39.0794C9.95228 40.2704 9.18778 41.9434 9.02162 43.7919C8.96991 44.3588 9.1675 44.8887 9.57561 45.2858C11.3539 47.0216 13.7028 47.98 16.1843 47.98C17.0689 47.98 17.933 47.8525 18.7751 47.6106C20.8267 49.2301 23.3418 50.1091 25.9899 50.1091C28.6379 50.1091 31.153 49.2301 33.2046 47.6125C34.0467 47.8544 34.9164 47.9818 35.7954 47.9818C38.2828 47.9818 40.6262 47.0272 42.4042 45.2877C42.8104 44.8907 43.0043 44.3607 42.9581 43.7938C42.7919 41.9453 42.0274 40.2668 40.7976 39.0812C39.4958 37.8182 37.7655 37.1516 35.7933 37.1516L35.7938 37.1515ZM16.1903 46.9181C13.9818 46.9181 11.9025 46.0668 10.3237 44.5267C10.1446 44.3476 10.0634 44.139 10.0874 43.8878C10.3902 40.4938 12.8425 38.2151 16.1903 38.2151C17.5512 38.2151 18.7811 38.5881 19.7838 39.2935C18.2659 40.7929 17.3389 42.8998 17.1746 45.221C17.1376 45.7694 17.3204 46.2699 17.7082 46.6576C17.7415 46.6909 17.7784 46.7241 17.8116 46.7574C17.278 46.8608 16.7332 46.9181 16.1903 46.9181ZM18.4598 45.9117C18.2899 45.7363 18.2142 45.5387 18.2326 45.2968C18.5447 40.8908 21.6654 37.9269 25.9958 37.9269C30.326 37.9269 33.4469 40.8907 33.7589 45.2968C33.7774 45.5387 33.7016 45.7418 33.5318 45.9117C31.5227 47.9355 28.8469 49.0509 25.996 49.0509C23.1451 49.0509 20.4694 47.9337 18.4603 45.9117H18.4598ZM41.6659 44.5267C40.0871 46.0686 38.0023 46.9181 35.7994 46.9181C35.2509 46.9181 34.7117 46.8608 34.1781 46.7574C34.2113 46.7242 34.2483 46.6909 34.2815 46.6577C34.6693 46.2662 34.8539 45.7695 34.8152 45.221C34.649 42.8999 33.7238 40.7966 32.2059 39.2935C33.2086 38.5899 34.4366 38.2151 35.7994 38.2151C39.151 38.2151 41.605 40.4938 41.9023 43.8879C41.9208 44.139 41.8451 44.3513 41.6659 44.5267ZM38.2849 18.0724C38.2849 18.366 38.0485 18.6024 37.7549 18.6024H21.8873C21.5937 18.6024 21.3573 18.3661 21.3573 18.0724C21.3573 17.7788 21.5937 17.5425 21.8873 17.5425H37.7568C38.0485 17.5425 38.2849 17.7788 38.2849 18.0724ZM38.2849 14.4088C38.2849 14.7024 38.0485 14.9388 37.7549 14.9388H21.8873C21.5937 14.9388 21.3573 14.7024 21.3573 14.4088C21.3573 14.1152 21.5937 13.8788 21.8873 13.8788H37.7568C38.0485 13.8788 38.2849 14.1152 38.2849 14.4088ZM38.2849 21.7361C38.2849 22.0297 38.0485 22.2661 37.7549 22.2661H21.8873C21.5937 22.2661 21.3573 22.0297 21.3573 21.7361C21.3573 21.4425 21.5937 21.2061 21.8873 21.2061H37.7568C38.0485 21.2061 38.2849 21.4425 38.2849 21.7361ZM14.6873 22.2697H18.9141C19.4478 22.2697 19.8873 21.8339 19.8873 21.2966V14.8481C19.8873 14.3144 19.4515 13.875 18.9141 13.875H14.6873C14.1536 13.875 13.7141 14.3108 13.7141 14.8481V21.2966C13.7141 21.8302 14.148 22.2697 14.6873 22.2697ZM14.7722 14.9387H18.8236V21.208H14.7722V14.9387ZM38.2847 25.4034C38.2847 25.6971 38.0483 25.9334 37.7547 25.9334H14.2422C13.9486 25.9334 13.7122 25.6971 13.7122 25.4034C13.7122 25.1098 13.9486 24.8735 14.2422 24.8735H37.7547C38.0483 24.8698 38.2847 25.1117 38.2847 25.4034Z" fill="#8534F7"/>
</svg>
