<svg width="39" height="40" viewBox="0 0 39 40" fill="none" xmlns="http://www.w3.org/2000/svg">
<path d="M4.75238 11.7201V4.24006H12.0018V6.12006L19.1304 0.560059L37.5762 14.8801V37.4401H31.535H22.3524H0.684639V14.8801L4.75238 11.7201ZM30.2462 36.1201V22.6801H23.6814V36.1201H30.2462ZM1.97343 36.1201H22.3524V21.3601H31.535V36.1201H36.2874V15.5201L19.1304 2.24006L10.6727 8.80006V5.56006H6.04116V12.3601L1.97343 15.5201V36.1201Z" fill="url(#paint0_linear_4209_482)"/>
<path d="M15.707 30.4798H6.52442V21.3198H15.707V30.4798ZM14.378 22.6398H7.81321V29.1598H14.378V22.6398Z" fill="url(#paint1_linear_4209_482)"/>
<defs>
<linearGradient id="paint0_linear_4209_482" x1="19.1304" y1="0.560059" x2="19.1304" y2="37.4401" gradientUnits="userSpaceOnUse">
<stop stop-color="#F9A938"/>
<stop offset="1" stop-color="#936421"/>
</linearGradient>
<linearGradient id="paint1_linear_4209_482" x1="11.1157" y1="21.3198" x2="11.1157" y2="30.4798" gradientUnits="userSpaceOnUse">
<stop stop-color="#936421"/>
<stop offset="1" stop-color="#720909"/>
</linearGradient>
</defs>
</svg>
