<svg width="55" height="51" viewBox="0 0 55 51" fill="none" xmlns="http://www.w3.org/2000/svg">
<path d="M15.7891 24.0633C16.6491 24.0628 17.4896 23.8071 18.2044 23.3285C18.9192 22.8499 19.4762 22.1699 19.8049 21.3745C20.1337 20.5791 20.2195 19.7039 20.0514 18.8596C19.8834 18.0154 19.469 17.24 18.8608 16.6315C18.2526 16.0229 17.4777 15.6086 16.6343 15.4408C15.7908 15.273 14.9166 15.3594 14.1222 15.6889C13.3277 16.0184 12.6487 16.5764 12.171 17.2922C11.6933 18.0079 11.4383 18.8495 11.4383 19.7103C11.4391 20.8649 11.8978 21.972 12.7136 22.7883C13.5295 23.6045 14.6357 24.0631 15.7891 24.0633ZM15.7891 16.5292C16.4171 16.5295 17.0309 16.7162 17.5529 17.0657C18.0748 17.4152 18.4816 17.9118 18.7217 18.4927C18.9618 19.0736 19.0244 19.7127 18.9017 20.3292C18.7789 20.9457 18.4764 21.512 18.0322 21.9563C17.588 22.4007 17.0222 22.7033 16.4062 22.8258C15.7903 22.9483 15.1519 22.8853 14.5717 22.6446C13.9916 22.404 13.4957 21.9966 13.1469 21.4738C12.798 20.9511 12.6118 20.3366 12.6118 19.708C12.6129 18.8651 12.9481 18.0572 13.5439 17.4616C14.1396 16.866 14.9471 16.5315 15.7891 16.5315V16.5292ZM26.8377 15.2895C26.8379 15.1338 26.8998 14.9844 27.0099 14.8744C27.12 14.7643 27.2692 14.7024 27.4248 14.7024H39.4021C39.5576 14.7024 39.7068 14.7643 39.8168 14.8744C39.9267 14.9845 39.9885 15.1338 39.9885 15.2895C39.9885 15.4452 39.9267 15.5945 39.8168 15.7046C39.7068 15.8147 39.5576 15.8766 39.4021 15.8766H27.4248C27.2696 15.8766 27.1207 15.8151 27.0107 15.7055C26.9007 15.5959 26.8385 15.4472 26.8377 15.2918V15.2895ZM26.8377 18.3072C26.8385 18.1519 26.9007 18.0031 27.0107 17.8935C27.1207 17.784 27.2696 17.7224 27.4248 17.7225H39.4021C39.5576 17.7225 39.7068 17.7843 39.8168 17.8944C39.9267 18.0045 39.9885 18.1538 39.9885 18.3095C39.9885 18.4652 39.9267 18.6146 39.8168 18.7247C39.7068 18.8348 39.5576 18.8966 39.4021 18.8966H27.4248C27.2692 18.8966 27.12 18.8348 27.0099 18.7247C26.8998 18.6146 26.8379 18.4653 26.8377 18.3095V18.3072ZM26.8377 21.3255C26.8379 21.1697 26.8998 21.0204 27.0099 20.9103C27.12 20.8002 27.2692 20.7384 27.4248 20.7384H39.4021C39.5576 20.7384 39.7068 20.8003 39.8168 20.9104C39.9267 21.0205 39.9885 21.1698 39.9885 21.3255C39.9885 21.4812 39.9267 21.6305 39.8168 21.7406C39.7068 21.8507 39.5576 21.9126 39.4021 21.9126H27.4248C27.2695 21.9126 27.1205 21.851 27.0105 21.7413C26.9005 21.6316 26.8383 21.4827 26.8377 21.3272V21.3255ZM26.8377 24.3432C26.8393 24.1883 26.9018 24.0403 27.0117 23.9314C27.1216 23.8224 27.2701 23.7613 27.4248 23.7613H39.4021C39.4791 23.7613 39.5553 23.7765 39.6265 23.806C39.6976 23.8355 39.7623 23.8787 39.8168 23.9333C39.8712 23.9878 39.9144 24.0525 39.9439 24.1237C39.9734 24.195 39.9885 24.2713 39.9885 24.3484C39.9885 24.4255 39.9734 24.5018 39.9439 24.5731C39.9144 24.6443 39.8712 24.709 39.8168 24.7635C39.7623 24.818 39.6976 24.8613 39.6265 24.8908C39.5553 24.9203 39.4791 24.9355 39.4021 24.9355H27.4248C27.3475 24.9355 27.271 24.9202 27.1996 24.8905C27.1282 24.8608 27.0634 24.8173 27.0089 24.7625C26.9543 24.7077 26.9111 24.6427 26.8818 24.5711C26.8524 24.4995 26.8374 24.4229 26.8377 24.3455V24.3432ZM44.887 37.6351C45.3457 37.2182 45.6676 36.6722 45.8103 36.0687C45.9531 35.4653 45.91 34.8327 45.6869 34.2542C45.4637 33.6757 45.0708 33.1784 44.5599 32.8277C44.049 32.477 43.444 32.2893 42.8245 32.2893C42.205 32.2893 41.6 32.477 41.0891 32.8277C40.5782 33.1784 40.1853 33.6757 39.9621 34.2542C39.739 34.8327 39.6959 35.4653 39.8387 36.0687C39.9814 36.6722 40.3033 37.2182 40.762 37.6351C39.3332 38.1473 38.1487 39.1782 37.4435 40.5235C36.7383 39.178 35.5535 38.147 34.1244 37.6351C34.583 37.2182 34.9049 36.6722 35.0477 36.0687C35.1905 35.4653 35.1474 34.8327 34.9242 34.2542C34.701 33.6757 34.3081 33.1784 33.7972 32.8277C33.2863 32.477 32.6814 32.2893 32.0619 32.2893C31.4424 32.2893 30.8374 32.477 30.3265 32.8277C29.8156 33.1784 29.4227 33.6757 29.1995 34.2542C28.9763 34.8327 28.9333 35.4653 29.076 36.0687C29.2188 36.6722 29.5407 37.2182 29.9994 37.6351C28.5144 38.1685 27.2964 39.2615 26.605 40.6811C25.9139 39.2613 24.6958 38.1682 23.2106 37.6351C23.6189 37.2672 23.92 36.7956 24.082 36.2703C24.244 35.7449 24.2609 35.1854 24.1308 34.6513C24.0007 34.1171 23.7285 33.6282 23.3432 33.2364C22.9578 32.8446 22.4737 32.5646 21.9422 32.4261V28.6718L22.1737 28.0923C22.5175 28.3682 22.9448 28.5188 23.3855 28.5194H41.2153C41.7332 28.5186 42.2296 28.3123 42.5957 27.9456C42.9618 27.5789 43.1676 27.0818 43.1681 26.5634V13.0722C43.1676 12.5538 42.9618 12.0567 42.5957 11.69C42.2296 11.3233 41.7332 11.117 41.2153 11.1162H23.3895C22.8716 11.117 22.3751 11.3233 22.0089 11.69C21.6428 12.0566 21.4368 12.5537 21.4362 13.0722V19.7624C21.4217 19.7937 21.4014 19.8204 21.3881 19.8534L19.7005 24.1131H11.843C11.6691 24.1125 11.4975 24.1522 11.3416 24.2293C11.1857 24.3063 11.0497 24.4185 10.9445 24.557L6.508 30.3635C6.20359 30.7664 6.07153 31.2738 6.14085 31.7741C6.21018 32.2744 6.47521 32.7267 6.87766 33.0314C7.2801 33.3362 7.78699 33.4684 8.28681 33.399C8.78663 33.3296 9.23844 33.0643 9.54284 32.6614L10.9902 30.7999V34.3995C10.9899 34.842 11.165 35.2667 11.477 35.5802C11.789 35.8938 12.2126 36.0706 12.6547 36.072H18.1651C18.3066 36.6749 18.6276 37.2205 19.0856 37.6368C18.0119 38.0213 17.0686 38.7018 16.3647 39.5999C15.6607 40.498 15.2248 41.577 15.1071 42.7125C15.0919 42.8682 15.1091 43.0255 15.1577 43.1742C15.2064 43.3229 15.2853 43.46 15.3896 43.5766C15.4937 43.692 15.621 43.784 15.7632 43.8464C15.9055 43.9089 16.0593 43.9404 16.2146 43.9388H26.0816C26.2639 43.9375 26.4429 43.8909 26.6027 43.8032C26.7637 43.8919 26.9445 43.9386 27.1284 43.9388H36.9948C37.1481 43.9397 37.3 43.9085 37.4406 43.8472C37.5826 43.9084 37.7358 43.9396 37.8904 43.9388H47.758C47.9137 43.9395 48.0679 43.9073 48.2103 43.8443C48.3528 43.7813 48.4804 43.6889 48.5847 43.5731C48.689 43.4574 48.7678 43.3209 48.8158 43.1726C48.8637 43.0242 48.8799 42.8675 48.8632 42.7125C48.7463 41.5769 48.311 40.4975 47.6074 39.5991C46.9038 38.7007 45.9607 38.0198 44.887 37.6351ZM40.9316 35.3783C40.9309 35.0029 41.0415 34.6357 41.2494 34.3232C41.4572 34.0107 41.753 33.767 42.0993 33.6228C42.4456 33.4787 42.8268 33.4406 43.1948 33.5134C43.5627 33.5862 43.9007 33.7667 44.1662 34.0319C44.4316 34.2971 44.6125 34.6352 44.6859 35.0034C44.7593 35.3715 44.722 35.7532 44.5786 36.1001C44.4353 36.447 44.1923 36.7436 43.8805 36.9522C43.5687 37.1609 43.2021 37.2723 42.8271 37.2723C42.3251 37.272 41.8437 37.0724 41.4884 36.7174C41.1331 36.3624 40.9329 35.8808 40.9316 35.3783ZM30.169 35.3783C30.1683 35.0029 30.2789 34.6357 30.4868 34.3232C30.6946 34.0107 30.9904 33.767 31.3367 33.6228C31.683 33.4787 32.0642 33.4406 32.4321 33.5134C32.8 33.5862 33.1381 33.7667 33.4035 34.0319C33.669 34.2971 33.8498 34.6352 33.9233 35.0034C33.9967 35.3715 33.9594 35.7532 33.816 36.1001C33.6726 36.447 33.4297 36.7436 33.1179 36.9522C32.8061 37.1609 32.4395 37.2723 32.0645 37.2723C31.5621 37.2726 31.08 37.0733 30.7242 36.7182C30.3684 36.3631 30.1679 35.8812 30.1667 35.3783H30.169ZM23.3895 12.2904H41.2153C41.4222 12.2907 41.6205 12.3732 41.7666 12.5198C41.9127 12.6664 41.9947 12.8651 41.9946 13.0722V26.5652C41.9947 26.7723 41.9127 26.9709 41.7666 27.1175C41.6205 27.2641 41.4222 27.3467 41.2153 27.347H23.3895C23.2347 27.3454 23.0839 27.297 22.9571 27.208C22.8303 27.1191 22.7334 26.9937 22.6792 26.8486L24.9191 21.2849C25.0138 21.0526 25.0613 20.8038 25.0588 20.5529C25.0563 20.3021 25.0039 20.0542 24.9046 19.8239C24.8109 19.6066 24.6778 19.4085 24.5121 19.2397L26.0961 15.679C26.1274 15.6085 26.1446 15.5326 26.1466 15.4555C26.1486 15.3785 26.1354 15.3017 26.1078 15.2298C26.0802 15.1578 26.0387 15.092 25.9857 15.036C25.9327 14.9801 25.8692 14.9352 25.7988 14.9038C25.7285 14.8725 25.6526 14.8553 25.5756 14.8533C25.4986 14.8513 25.422 14.8645 25.3501 14.8921C25.2782 14.9197 25.2124 14.9613 25.1565 15.0143C25.1007 15.0674 25.0558 15.131 25.0245 15.2014L23.4712 18.6932C23.1833 18.6467 22.8886 18.6678 22.6103 18.7546V13.0751C22.6098 12.9723 22.6296 12.8704 22.6686 12.7753C22.7075 12.6802 22.7648 12.5937 22.8372 12.5208C22.9096 12.4479 22.9956 12.39 23.0904 12.3505C23.1852 12.311 23.2868 12.2905 23.3895 12.2904ZM18.1281 34.8973H12.6547C12.5238 34.8962 12.3986 34.8432 12.3067 34.7499C12.2147 34.6565 12.1635 34.5305 12.1643 34.3995V29.0891C12.1638 28.9671 12.1255 28.8483 12.0545 28.7491C11.9835 28.6499 11.8835 28.5753 11.7682 28.5356C11.653 28.4959 11.5283 28.4931 11.4114 28.5276C11.2945 28.5621 11.1912 28.6321 11.1158 28.728L8.61189 31.9486C8.49476 32.1007 8.32246 32.2005 8.13233 32.2264C7.9422 32.2522 7.74955 32.202 7.59611 32.0867C7.44267 31.9714 7.34081 31.8002 7.31258 31.6102C7.28435 31.4202 7.33204 31.2267 7.44532 31.0717L11.8453 25.2902H19.6982C19.9227 25.2903 20.1421 25.2229 20.3279 25.0967C20.5137 24.9705 20.6573 24.7914 20.7403 24.5825L22.4702 20.2939C22.5235 20.1584 22.616 20.042 22.7359 19.9597C22.8558 19.8773 22.9976 19.8327 23.143 19.8316C23.2885 19.8306 23.4309 19.8731 23.552 19.9537C23.6731 20.0343 23.7673 20.1494 23.8226 20.284C23.861 20.372 23.8813 20.4668 23.8824 20.5627C23.8835 20.6587 23.8653 20.7539 23.8289 20.8427L20.8636 28.2105C20.7996 28.3501 20.7665 28.5019 20.7663 28.6556V32.3479C20.1102 32.4298 19.4983 32.7226 19.0226 33.1823C18.5469 33.642 18.233 34.2438 18.1281 34.8973ZM19.2529 35.3783C19.2523 35.0029 19.3629 34.6356 19.5707 34.3231C19.7786 34.0106 20.0745 33.7669 20.4208 33.6228C20.7671 33.4786 21.1484 33.4406 21.5163 33.5135C21.8842 33.5863 22.2223 33.7668 22.4877 34.0321C22.7531 34.2974 22.9339 34.6355 23.0073 35.0037C23.0806 35.3719 23.0432 35.7536 22.8998 36.1005C22.7563 36.4474 22.5133 36.7439 22.2014 36.9525C21.8896 37.1611 21.5229 37.2724 21.1478 37.2723C20.6459 37.2718 20.1647 37.0722 19.8095 36.7172C19.4543 36.3622 19.2542 35.8807 19.2529 35.3783ZM21.1478 38.4499C22.3413 38.4464 23.495 38.8791 24.3923 39.6668C25.2895 40.4546 25.8686 41.5432 26.0208 42.7281C26.0208 42.742 26.0208 42.7553 26.0208 42.7692L16.2795 42.7832C16.4157 41.5873 16.9876 40.4838 17.8859 39.6838C18.7841 38.8837 19.9455 38.4434 21.1478 38.447V38.4499ZM32.0622 38.4499C33.1786 38.4467 34.2624 38.8264 35.1332 39.5259C36.0039 40.2253 36.609 41.2023 36.8477 42.294C36.8234 42.4337 36.7985 42.5739 36.7835 42.7171C36.7835 42.7345 36.7835 42.7519 36.7835 42.7692L27.1949 42.782C27.331 41.5864 27.9028 40.4831 28.8009 39.6833C29.6989 38.8834 30.8601 38.4433 32.0622 38.447V38.4499ZM38.1023 42.7832C38.1023 42.76 38.1023 42.7374 38.1023 42.7142C38.0878 42.5722 38.0629 42.4343 38.0392 42.2958C38.2912 41.1647 38.9343 40.1592 39.855 39.4568C40.7757 38.7544 41.9147 38.4002 43.0709 38.4569C44.2272 38.5135 45.3262 38.9773 46.174 39.7664C47.0217 40.5555 47.5637 41.619 47.7042 42.7692L38.1023 42.7832Z" fill="#2C6CF7"/>
</svg>
