<svg width="44" height="52" viewBox="0 0 44 52" fill="none" xmlns="http://www.w3.org/2000/svg">
<path d="M28.4661 31.0234H14.0691C13.5553 31.0234 13.1406 30.5957 13.1406 30.0659C13.1406 29.5361 13.5553 29.1084 14.0691 29.1084H28.4661C28.9799 29.1084 29.3946 29.5361 29.3946 30.0659C29.3946 30.5957 28.9799 31.0234 28.4661 31.0234Z" fill="url(#paint0_linear_7805_2978)"/>
<path d="M19.745 36.9589H14.0691C13.5553 36.9589 13.1406 36.5313 13.1406 36.0014C13.1406 35.4716 13.5553 35.0439 14.0691 35.0439H19.745C20.2587 35.0439 20.6734 35.4716 20.6734 36.0014C20.6734 36.5313 20.2587 36.9589 19.745 36.9589Z" fill="url(#paint1_linear_7805_2978)"/>
<path d="M28.4661 19.1435H14.0691C13.5553 19.1435 13.1406 18.7158 13.1406 18.186C13.1406 17.6562 13.5553 17.2285 14.0691 17.2285H28.4661C28.9799 17.2285 29.3946 17.6562 29.3946 18.186C29.3946 18.7158 28.9799 19.1435 28.4661 19.1435Z" fill="url(#paint2_linear_7805_2978)"/>
<path d="M28.4661 25.08H14.0691C13.5553 25.08 13.1406 24.6523 13.1406 24.1225C13.1406 23.5927 13.5553 23.165 14.0691 23.165H28.4661C28.9799 23.165 29.3946 23.5927 29.3946 24.1225C29.3946 24.6523 28.9799 25.08 28.4661 25.08Z" fill="url(#paint3_linear_7805_2978)"/>
<path d="M34.8724 14.2985L29.1099 8.58548C28.9428 8.41313 28.7075 8.31738 28.4723 8.31738H8.31272C7.79898 8.31738 7.38428 8.74506 7.38428 9.27488V43.4255C7.38428 43.9553 7.79898 44.383 8.31272 44.383H26.306V42.468H9.24117V10.2324H28.0824V15.3773H33.2879L33.3003 15.3901V33.4357H35.1571V14.9879C35.1571 14.7262 35.0519 14.4773 34.8724 14.2985Z" fill="url(#paint4_linear_7805_2978)"/>
<path d="M31.1587 46.5788C27.154 46.5788 23.8921 43.2212 23.8921 39.0848C23.8921 34.9484 27.154 31.5908 31.1587 31.5908C35.1634 31.5908 38.4253 34.9484 38.4253 39.0848C38.4253 43.2212 35.1634 46.5788 31.1587 46.5788ZM31.1587 33.5122C28.1753 33.5122 25.749 36.0144 25.749 39.0912C25.749 42.1679 28.1753 44.6702 31.1587 44.6702C34.1421 44.6702 36.5685 42.1679 36.5685 39.0912C36.5685 36.0144 34.1421 33.5122 31.1587 33.5122Z" fill="url(#paint5_linear_7805_2978)"/>
<path d="M31.1029 40.8209C30.8677 40.8209 30.6387 40.7315 30.4654 40.5592L27.9524 38.108C27.581 37.7441 27.5625 37.1377 27.9153 36.7547C28.2681 36.3717 28.8561 36.3526 29.2275 36.7164L31.3196 38.7527L33.1888 38.0122C33.6654 37.8207 34.2039 38.0697 34.3896 38.5612C34.5753 39.0527 34.3339 39.608 33.8573 39.7995L31.4434 40.7507C31.3381 40.7953 31.2205 40.8145 31.1091 40.8145L31.1029 40.8209Z" fill="url(#paint6_linear_7805_2978)"/>
<defs>
<linearGradient id="paint0_linear_7805_2978" x1="21.2676" y1="29.1084" x2="21.2676" y2="31.0234" gradientUnits="userSpaceOnUse">
<stop stop-color="#B7610B"/>
<stop offset="1" stop-color="#48483B"/>
</linearGradient>
<linearGradient id="paint1_linear_7805_2978" x1="16.907" y1="35.0439" x2="16.907" y2="36.9589" gradientUnits="userSpaceOnUse">
<stop stop-color="#B7610B"/>
<stop offset="1" stop-color="#48483B"/>
</linearGradient>
<linearGradient id="paint2_linear_7805_2978" x1="21.2676" y1="17.2285" x2="21.2676" y2="19.1435" gradientUnits="userSpaceOnUse">
<stop stop-color="#B7610B"/>
<stop offset="1" stop-color="#48483B"/>
</linearGradient>
<linearGradient id="paint3_linear_7805_2978" x1="21.2676" y1="23.165" x2="21.2676" y2="25.08" gradientUnits="userSpaceOnUse">
<stop stop-color="#B7610B"/>
<stop offset="1" stop-color="#48483B"/>
</linearGradient>
<linearGradient id="paint4_linear_7805_2978" x1="21.2707" y1="8.31738" x2="21.2707" y2="44.383" gradientUnits="userSpaceOnUse">
<stop stop-color="#B7610B"/>
<stop offset="1" stop-color="#48483B"/>
</linearGradient>
<linearGradient id="paint5_linear_7805_2978" x1="31.1587" y1="31.5908" x2="31.1587" y2="46.5788" gradientUnits="userSpaceOnUse">
<stop stop-color="#B7610B"/>
<stop offset="1" stop-color="#48483B"/>
</linearGradient>
<linearGradient id="paint6_linear_7805_2978" x1="31.0571" y1="36.4551" x2="31.0571" y2="40.8209" gradientUnits="userSpaceOnUse">
<stop stop-color="#B7610B"/>
<stop offset="1" stop-color="#48483B"/>
</linearGradient>
</defs>
</svg>
