<svg width="66" height="66" viewBox="0 0 66 66" fill="none" xmlns="http://www.w3.org/2000/svg">
<path d="M41.25 39.1875H24.75C14.52 39.1875 6.1875 47.52 6.1875 57.75C6.1875 58.8844 7.11562 59.8125 8.25 59.8125C9.38438 59.8125 10.3125 58.8844 10.3125 57.75C10.3125 49.7888 16.7888 43.3125 24.75 43.3125H41.25C42.3844 43.3125 43.3125 42.3844 43.3125 41.25C43.3125 40.1156 42.3844 39.1875 41.25 39.1875Z" fill="url(#paint0_linear_1168_885)"/>
<path d="M18.5625 20.625C18.5625 28.5863 25.0388 35.0625 33 35.0625C40.9613 35.0625 47.4375 28.5863 47.4375 20.625C47.4375 12.6638 40.9613 6.1875 33 6.1875C25.0388 6.1875 18.5625 12.6638 18.5625 20.625ZM33 10.3125C38.6925 10.3125 43.3125 14.9325 43.3125 20.625C43.3125 26.3175 38.6925 30.9375 33 30.9375C27.3075 30.9375 22.6875 26.3175 22.6875 20.625C22.6875 14.9325 27.3075 10.3125 33 10.3125Z" fill="url(#paint1_linear_1168_885)"/>
<path d="M53.0269 41.8479C52.2225 41.0435 50.9231 41.0435 50.1187 41.8479L43.9312 48.0354C43.5394 48.4273 43.3125 48.9429 43.3125 49.4998V55.6873C43.3125 56.8217 44.2406 57.7498 45.375 57.7498H51.5625C52.1194 57.7498 52.635 57.5229 53.0269 57.1517L59.2144 50.9642C59.5856 50.5723 59.8125 50.036 59.8125 49.4998C59.8125 48.9429 59.5856 48.4273 59.2144 48.0354L53.0269 41.8479ZM50.7169 53.6248H47.4375V50.3454L51.5625 46.2204L54.8419 49.4998L50.7169 53.6248Z" fill="url(#paint2_linear_1168_885)"/>
<defs>
<linearGradient id="paint0_linear_1168_885" x1="24.75" y1="39.1875" x2="24.75" y2="59.8125" gradientUnits="userSpaceOnUse">
<stop stop-color="#0AAF19"/>
<stop offset="0.215" stop-color="#0AA818"/>
<stop offset="0.88" stop-color="#04490A"/>
</linearGradient>
<linearGradient id="paint1_linear_1168_885" x1="33" y1="6.1875" x2="33" y2="35.0625" gradientUnits="userSpaceOnUse">
<stop stop-color="#0AAF19"/>
<stop offset="0.215" stop-color="#0AA818"/>
<stop offset="0.88" stop-color="#04490A"/>
</linearGradient>
<linearGradient id="paint2_linear_1168_885" x1="51.5625" y1="41.2446" x2="51.5625" y2="57.7498" gradientUnits="userSpaceOnUse">
<stop stop-color="#0AAF19"/>
<stop offset="0.215" stop-color="#0AA818"/>
<stop offset="0.88" stop-color="#04490A"/>
</linearGradient>
</defs>
</svg>
