<svg width="54" height="55" viewBox="0 0 54 55" fill="none" xmlns="http://www.w3.org/2000/svg">
<path d="M45.4168 10.1329C39.0817 8.99891 31.7229 5.15571 27.5217 0.788034C27.4546 0.718124 27.3739 0.662494 27.2846 0.62449C27.1954 0.586486 27.0993 0.566895 27.0022 0.566895C26.9051 0.566895 26.8091 0.586486 26.7198 0.62449C26.6305 0.662494 26.5498 0.718124 26.4827 0.788034C22.282 5.15571 14.9204 8.99834 8.5831 10.1329C8.41679 10.1626 8.26626 10.2497 8.15786 10.379C8.04947 10.5083 7.99013 10.6715 7.99023 10.84V37.0761C7.99023 39.2688 10.2577 42.5585 14.0553 45.8756C17.9586 49.285 22.5987 51.9789 26.7879 53.2671C26.9261 53.3094 27.0738 53.3094 27.212 53.2671C31.3989 51.9789 36.039 49.285 39.9446 45.8756C43.7422 42.5585 46.0096 39.2688 46.0096 37.0761V10.84C46.0097 10.6715 45.9504 10.5083 45.842 10.379C45.7336 10.2497 45.5831 10.1626 45.4168 10.1329ZM44.5698 37.0761C44.5698 38.8078 42.382 41.839 38.9959 44.7948C35.5012 47.9035 31.4253 50.2929 27.0022 51.8258C22.5783 50.2928 18.5015 47.903 15.0063 44.7937C11.6202 41.8362 9.43232 38.8066 9.43232 37.075V11.4337C15.7333 10.1653 22.6282 6.57721 26.9999 2.30592C31.3717 6.57948 38.2666 10.1652 44.5676 11.4348L44.5698 37.0761ZM26.5497 6.1236C22.378 9.39218 17.6171 11.8333 12.5245 13.315C12.3743 13.3581 12.2422 13.4488 12.1481 13.5733C12.0541 13.6979 12.0032 13.8497 12.0033 14.0056V36.9724C12.0033 37.032 12.0107 37.0914 12.0255 37.1493C12.359 37.9861 12.8225 38.7655 13.3988 39.4587C14.524 40.8552 15.7895 42.1333 17.1753 43.273C20.0231 45.7088 23.2582 47.6537 26.7476 49.0276C26.9103 49.0881 27.0895 49.0881 27.2523 49.0276C30.7416 47.6537 33.9768 45.7088 36.8245 43.273C38.21 42.133 39.4754 40.8552 40.6011 39.4593C41.1773 38.7657 41.6407 37.9862 41.9744 37.1493C41.9892 37.0914 41.9966 37.032 41.9966 36.9724V14.005C41.9966 13.8491 41.9458 13.6974 41.8518 13.5728C41.7577 13.4482 41.6256 13.3575 41.4753 13.3144C36.3828 11.8329 31.622 9.39198 27.4501 6.1236C27.3225 6.02126 27.1637 5.96546 26.9999 5.96546C26.8362 5.96546 26.6774 6.02126 26.5497 6.1236ZM40.5568 14.5426V36.8663C40.2615 37.4763 39.8956 38.0497 39.4665 38.5747C38.402 39.893 37.2056 41.0996 35.8957 42.1758C33.2413 44.4446 30.2375 46.2715 26.9999 47.5862C23.7624 46.2715 20.7586 44.4446 18.1042 42.1758C16.7943 41.0996 15.5978 39.893 14.5333 38.5747C14.1043 38.0497 13.7383 37.4763 13.4431 36.8663V14.5426C18.3384 13.0461 22.9286 10.6947 26.9999 7.59783C31.0713 10.6947 35.6615 13.0461 40.5568 14.5426ZM21.7835 20.5438C21.7835 21.573 22.0895 22.579 22.6627 23.4347C23.2358 24.2904 24.0505 24.9573 25.0037 25.3512C25.9569 25.745 27.0057 25.8481 28.0176 25.6473C29.0295 25.4465 29.959 24.9509 30.6885 24.2232C31.418 23.4955 31.9148 22.5683 32.1161 21.5589C32.3174 20.5496 32.2141 19.5033 31.8193 18.5525C31.4244 17.6017 30.7558 16.7891 29.898 16.2173C29.0402 15.6455 28.0316 15.3404 26.9999 15.3404C25.617 15.342 24.2911 15.8908 23.3132 16.8662C22.3353 17.8417 21.7852 19.1643 21.7835 20.5438ZM30.7765 20.5438C30.7765 21.2889 30.555 22.0172 30.1401 22.6368C29.7251 23.2563 29.1353 23.7391 28.4452 24.0243C27.7551 24.3094 26.9957 24.384 26.2632 24.2386C25.5306 24.0933 24.8577 23.7345 24.3295 23.2076C23.8013 22.6808 23.4416 22.0095 23.2959 21.2788C23.1502 20.548 23.225 19.7905 23.5108 19.1022C23.7967 18.4138 24.2807 17.8254 24.9018 17.4115C25.5228 16.9975 26.253 16.7766 26.9999 16.7766C28.0012 16.7778 28.9611 17.1751 29.6691 17.8813C30.377 18.5875 30.7753 19.545 30.7765 20.5438ZM17.8921 36.3197C17.8921 36.5103 17.968 36.693 18.1031 36.8277C18.2381 36.9624 18.4213 37.0381 18.6123 37.0381H35.3876C35.5786 37.0381 35.7617 36.9624 35.8968 36.8277C36.0319 36.693 36.1077 36.5103 36.1077 36.3197C36.1077 33.9102 35.1482 31.5993 33.4401 29.8955C31.7321 28.1917 29.4155 27.2345 26.9999 27.2345C24.5844 27.2345 22.2678 28.1917 20.5597 29.8955C18.8517 31.5993 17.8921 33.9102 17.8921 36.3197ZM34.6344 35.6019H31.827V33.17C31.8217 32.983 31.7435 32.8055 31.6091 32.6751C31.4747 32.5447 31.2946 32.4718 31.1071 32.4718C30.9196 32.4718 30.7395 32.5447 30.605 32.6751C30.4706 32.8055 30.3924 32.983 30.3872 33.17V35.6013H23.6127V33.17C23.6075 32.983 23.5293 32.8055 23.3949 32.6751C23.2604 32.5447 23.0803 32.4718 22.8928 32.4718C22.7053 32.4718 22.5252 32.5447 22.3908 32.6751C22.2563 32.8055 22.1782 32.983 22.1729 33.17V35.6013H19.3655C19.5453 33.7058 20.4273 31.9452 21.8392 30.6639C23.251 29.3825 25.0912 28.6724 26.9999 28.6724C28.9087 28.6724 30.7489 29.3825 32.1607 30.6639C33.5725 31.9452 34.4546 33.7058 34.6344 35.6013V35.6019Z" fill="url(#paint0_linear_1565_135)"/>
<defs>
<linearGradient id="paint0_linear_1565_135" x1="26.9999" y1="0.566895" x2="26.9999" y2="53.2989" gradientUnits="userSpaceOnUse">
<stop stop-color="#0072FE"/>
<stop offset="0.78" stop-color="#004498"/>
</linearGradient>
</defs>
</svg>
