<svg width="43" height="33" viewBox="0 0 43 33" fill="none" xmlns="http://www.w3.org/2000/svg">
<path d="M9.78911 13.0633C10.6491 13.0628 11.4896 12.8071 12.2044 12.3285C12.9192 11.8499 13.4762 11.1699 13.8049 10.3745C14.1337 9.57905 14.2195 8.70389 14.0514 7.85965C13.8834 7.01541 13.469 6.24 12.8608 5.63146C12.2526 5.02292 11.4777 4.60857 10.6343 4.4408C9.79083 4.27302 8.91661 4.35936 8.12217 4.6889C7.32772 5.01843 6.64872 5.57636 6.17101 6.29215C5.69329 7.00795 5.43832 7.84945 5.43832 8.71029C5.43908 9.86493 5.89779 10.972 6.71362 11.7883C7.52945 12.6045 8.63565 13.0631 9.78911 13.0633ZM9.78911 5.52917C10.4171 5.52951 11.0309 5.71624 11.5529 6.06574C12.0748 6.41524 12.4816 6.91182 12.7217 7.4927C12.9618 8.07358 13.0244 8.71268 12.9017 9.32919C12.7789 9.94571 12.4764 10.512 12.0322 10.9563C11.588 11.4007 11.0222 11.7033 10.4062 11.8258C9.7903 11.9483 9.1519 11.8853 8.57175 11.6446C7.9916 11.404 7.49575 10.9966 7.14689 10.4738C6.79804 9.95113 6.61184 9.33661 6.61184 8.70797C6.61292 7.86514 6.94814 7.0572 7.54387 6.46161C8.13961 5.86602 8.94714 5.53148 9.78911 5.53148V5.52917ZM20.8377 4.28952C20.8379 4.13376 20.8998 3.98444 21.0099 3.87435C21.12 3.76427 21.2692 3.70244 21.4248 3.70244H33.4021C33.5576 3.70244 33.7068 3.76429 33.8167 3.87439C33.9267 3.98449 33.9885 4.13381 33.9885 4.28952C33.9885 4.44522 33.9267 4.59455 33.8167 4.70465C33.7068 4.81474 33.5576 4.8766 33.4021 4.8766H21.4248C21.2696 4.8766 21.1207 4.81508 21.0107 4.7055C20.9007 4.59592 20.8385 4.44719 20.8377 4.29184V4.28952ZM20.8377 7.30721C20.8385 7.15186 20.9007 7.00313 21.0107 6.89355C21.1207 6.78396 21.2696 6.72245 21.4248 6.72245H33.4021C33.5576 6.72245 33.7068 6.7843 33.8167 6.8944C33.9267 7.0045 33.9885 7.15383 33.9885 7.30953C33.9885 7.46523 33.9267 7.61456 33.8167 7.72466C33.7068 7.83476 33.5576 7.89661 33.4021 7.89661H21.4248C21.2692 7.89661 21.12 7.83478 21.0099 7.72469C20.8998 7.61461 20.8379 7.46529 20.8377 7.30953V7.30721ZM20.8377 10.3255C20.8379 10.1697 20.8998 10.0204 21.0099 9.91032C21.12 9.80024 21.2692 9.73841 21.4248 9.73841H33.4021C33.5576 9.73841 33.7068 9.80026 33.8167 9.91036C33.9267 10.0205 33.9885 10.1698 33.9885 10.3255C33.9885 10.4812 33.9267 10.6305 33.8167 10.7406C33.7068 10.8507 33.5576 10.9126 33.4021 10.9126H21.4248C21.2695 10.9126 21.1205 10.851 21.0105 10.7413C20.9005 10.6316 20.8383 10.4827 20.8377 10.3272V10.3255ZM20.8377 13.3432C20.8393 13.1883 20.9018 13.0403 21.0117 12.9314C21.1216 12.8224 21.2701 12.7613 21.4248 12.7613H33.4021C33.4791 12.7613 33.5553 12.7765 33.6265 12.806C33.6976 12.8355 33.7623 12.8787 33.8167 12.9333C33.8712 12.9878 33.9144 13.0525 33.9439 13.1237C33.9734 13.195 33.9885 13.2713 33.9885 13.3484C33.9885 13.4255 33.9734 13.5018 33.9439 13.5731C33.9144 13.6443 33.8712 13.709 33.8167 13.7635C33.7623 13.818 33.6976 13.8613 33.6265 13.8908C33.5553 13.9203 33.4791 13.9355 33.4021 13.9355H21.4248C21.3475 13.9355 21.271 13.9202 21.1996 13.8905C21.1282 13.8608 21.0634 13.8173 21.0089 13.7625C20.9543 13.7077 20.9111 13.6427 20.8818 13.5711C20.8524 13.4995 20.8374 13.4229 20.8377 13.3455V13.3432ZM38.887 26.6351C39.3457 26.2182 39.6676 25.6722 39.8103 25.0687C39.9531 24.4653 39.91 23.8327 39.6869 23.2542C39.4637 22.6757 39.0708 22.1784 38.5599 21.8277C38.049 21.477 37.444 21.2893 36.8245 21.2893C36.205 21.2893 35.6 21.477 35.0891 21.8277C34.5782 22.1784 34.1853 22.6757 33.9621 23.2542C33.7389 23.8327 33.6959 24.4653 33.8387 25.0687C33.9814 25.6722 34.3033 26.2182 34.762 26.6351C33.3332 27.1473 32.1487 28.1782 31.4435 29.5235C30.7383 28.178 29.5535 27.147 28.1244 26.6351C28.583 26.2182 28.9049 25.6722 29.0477 25.0687C29.1905 24.4653 29.1474 23.8327 28.9242 23.2542C28.701 22.6757 28.3081 22.1784 27.7972 21.8277C27.2863 21.477 26.6814 21.2893 26.0619 21.2893C25.4424 21.2893 24.8374 21.477 24.3265 21.8277C23.8156 22.1784 23.4227 22.6757 23.1995 23.2542C22.9763 23.8327 22.9333 24.4653 23.076 25.0687C23.2188 25.6722 23.5407 26.2182 23.9994 26.6351C22.5144 27.1685 21.2964 28.2615 20.605 29.6811C19.9139 28.2613 18.6958 27.1682 17.2106 26.6351C17.6189 26.2672 17.92 25.7956 18.082 25.2703C18.244 24.7449 18.2609 24.1854 18.1308 23.6513C18.0007 23.1171 17.7285 22.6282 17.3432 22.2364C16.9578 21.8446 16.4737 21.5646 15.9422 21.4261V17.6718L16.1737 17.0923C16.5175 17.3682 16.9448 17.5188 17.3855 17.5194H35.2153C35.7332 17.5186 36.2296 17.3123 36.5957 16.9456C36.9618 16.5789 37.1676 16.0818 37.1681 15.5634V2.07218C37.1676 1.55376 36.9618 1.0567 36.5957 0.690017C36.2296 0.323335 35.7332 0.116978 35.2153 0.116211H17.3895C16.8716 0.116978 16.3751 0.323317 16.0089 0.689982C15.6428 1.05665 15.4368 1.55371 15.4362 2.07218V8.76245C15.4217 8.79375 15.4014 8.82041 15.3881 8.85344L13.7005 13.1131H5.843C5.66913 13.1125 5.49749 13.1522 5.34157 13.2293C5.18566 13.3063 5.04973 13.4185 4.94447 13.557L0.508 19.3635C0.203595 19.7664 0.0715268 20.2738 0.140851 20.7741C0.210175 21.2744 0.475213 21.7267 0.877658 22.0314C1.2801 22.3362 1.78699 22.4684 2.28681 22.399C2.78663 22.3296 3.23844 22.0643 3.54284 21.6614L4.99021 19.7999V23.3995C4.9899 23.842 5.16496 24.2667 5.477 24.5802C5.78903 24.8938 6.21256 25.0706 6.65468 25.072H12.1651C12.3066 25.6749 12.6276 26.2205 13.0856 26.6368C12.0119 27.0213 11.0686 27.7018 10.3647 28.5999C9.66071 29.498 9.22475 30.577 9.10711 31.7125C9.09186 31.8682 9.1091 32.0255 9.15773 32.1742C9.20636 32.3229 9.28533 32.46 9.38963 32.5766C9.49366 32.692 9.621 32.784 9.76324 32.8464C9.90547 32.9089 10.0593 32.9404 10.2146 32.9388H20.0816C20.2639 32.9375 20.4429 32.8909 20.6027 32.8032C20.7637 32.8919 20.9445 32.9386 21.1284 32.9388H30.9948C31.1481 32.9397 31.3 32.9085 31.4406 32.8472C31.5826 32.9084 31.7358 32.9396 31.8904 32.9388H41.758C41.9137 32.9395 42.0679 32.9073 42.2103 32.8443C42.3528 32.7813 42.4804 32.6889 42.5847 32.5731C42.689 32.4574 42.7678 32.3209 42.8158 32.1726C42.8637 32.0242 42.8799 31.8675 42.8632 31.7125C42.7463 30.5769 42.311 29.4975 41.6074 28.5991C40.9038 27.7007 39.9607 27.0198 38.887 26.6351ZM34.9316 24.3783C34.9309 24.0029 35.0415 23.6357 35.2494 23.3232C35.4572 23.0107 35.753 22.767 36.0993 22.6228C36.4456 22.4787 36.8268 22.4406 37.1948 22.5134C37.5627 22.5863 37.9007 22.7667 38.1662 23.0319C38.4316 23.2971 38.6125 23.6352 38.6859 24.0034C38.7593 24.3715 38.722 24.7532 38.5786 25.1001C38.4353 25.4471 38.1923 25.7436 37.8805 25.9522C37.5687 26.1609 37.2021 26.2723 36.8271 26.2723C36.3251 26.272 35.8437 26.0724 35.4884 25.7174C35.1331 25.3624 34.9329 24.8808 34.9316 24.3783ZM24.169 24.3783C24.1683 24.0029 24.2789 23.6357 24.4868 23.3232C24.6946 23.0107 24.9904 22.767 25.3367 22.6228C25.683 22.4787 26.0642 22.4406 26.4321 22.5134C26.8 22.5863 27.1381 22.7667 27.4035 23.0319C27.669 23.2971 27.8498 23.6352 27.9233 24.0034C27.9967 24.3715 27.9594 24.7532 27.816 25.1001C27.6726 25.4471 27.4297 25.7436 27.1179 25.9522C26.8061 26.1609 26.4395 26.2723 26.0645 26.2723C25.5621 26.2726 25.08 26.0733 24.7242 25.7182C24.3684 25.3631 24.1679 24.8812 24.1667 24.3783H24.169ZM17.3895 1.29037H35.2153C35.4222 1.29068 35.6205 1.3732 35.7666 1.5198C35.9127 1.6664 35.9947 1.86508 35.9946 2.07218V15.5652C35.9947 15.7723 35.9127 15.9709 35.7666 16.1175C35.6205 16.2641 35.4222 16.3467 35.2153 16.347H17.3895C17.2347 16.3454 17.0839 16.297 16.9571 16.208C16.8303 16.1191 16.7334 15.9937 16.6792 15.8486L18.9191 10.2849C19.0138 10.0526 19.0613 9.8038 19.0588 9.55294C19.0563 9.30208 19.0039 9.05423 18.9046 8.82388C18.8109 8.60659 18.6778 8.40853 18.5121 8.2397L20.0961 4.67897C20.1274 4.60854 20.1446 4.53261 20.1466 4.45554C20.1486 4.37846 20.1354 4.30175 20.1078 4.22977C20.0802 4.15779 20.0387 4.09196 19.9857 4.03603C19.9327 3.98011 19.8692 3.93519 19.7988 3.90383C19.7285 3.87247 19.6526 3.8553 19.5756 3.85329C19.4986 3.85127 19.422 3.86446 19.3501 3.89209C19.2782 3.91973 19.2124 3.96127 19.1565 4.01434C19.1007 4.06742 19.0558 4.13099 19.0245 4.20143L17.4712 7.69319C17.1833 7.64672 16.8886 7.66775 16.6103 7.75462V2.07508C16.6098 1.97229 16.6296 1.87042 16.6686 1.77531C16.7075 1.6802 16.7648 1.59372 16.8372 1.52082C16.9096 1.44793 16.9956 1.39005 17.0904 1.3505C17.1852 1.31096 17.2868 1.29052 17.3895 1.29037ZM12.1281 23.8973H6.65468C6.52376 23.8962 6.3986 23.8432 6.30667 23.7499C6.21474 23.6565 6.16354 23.5305 6.16432 23.3995V18.0891C6.16385 17.9671 6.12547 17.8483 6.0545 17.7491C5.98352 17.6499 5.88348 17.5753 5.76824 17.5356C5.65299 17.4959 5.52827 17.4931 5.41137 17.5276C5.29447 17.5621 5.19118 17.6321 5.11584 17.728L2.6119 20.9486C2.49476 21.1007 2.32246 21.2005 2.13233 21.2264C1.9422 21.2522 1.74955 21.202 1.59611 21.0867C1.44267 20.9714 1.34081 20.8002 1.31258 20.6102C1.28435 20.4202 1.33204 20.2267 1.44532 20.0717L5.84532 14.2902H13.6982C13.9227 14.2903 14.1421 14.2229 14.3279 14.0967C14.5137 13.9705 14.6573 13.7914 14.7403 13.5825L16.4702 9.29389C16.5235 9.15844 16.616 9.04204 16.7359 8.95967C16.8558 8.87729 16.9976 8.83271 17.143 8.83165C17.2885 8.83059 17.4309 8.8731 17.552 8.95372C17.6731 9.03434 17.7673 9.14938 17.8226 9.28404C17.861 9.37199 17.8813 9.46676 17.8824 9.56274C17.8835 9.65871 17.8653 9.75392 17.8289 9.84272L14.8636 17.2105C14.7996 17.3501 14.7665 17.5019 14.7663 17.6556V21.3479C14.1102 21.4298 13.4983 21.7226 13.0226 22.1823C12.5469 22.642 12.233 23.2438 12.1281 23.8973ZM13.2529 24.3783C13.2523 24.0029 13.3629 23.6356 13.5707 23.3231C13.7786 23.0106 14.0745 22.7669 14.4208 22.6228C14.7671 22.4786 15.1484 22.4406 15.5163 22.5135C15.8842 22.5863 16.2223 22.7668 16.4877 23.0321C16.7531 23.2974 16.9339 23.6355 17.0073 24.0037C17.0806 24.3719 17.0432 24.7536 16.8998 25.1005C16.7563 25.4474 16.5133 25.7439 16.2014 25.9525C15.8896 26.1611 15.5229 26.2724 15.1478 26.2723C14.6459 26.2718 14.1647 26.0722 13.8095 25.7172C13.4543 25.3622 13.2542 24.8807 13.2529 24.3783ZM15.1478 27.4499C16.3413 27.4464 17.495 27.8791 18.3923 28.6668C19.2895 29.4546 19.8686 30.5432 20.0208 31.7281C20.0208 31.742 20.0208 31.7553 20.0208 31.7692L10.2795 31.7832C10.4157 30.5873 10.9876 29.4838 11.8859 28.6838C12.7841 27.8837 13.9455 27.4434 15.1478 27.447V27.4499ZM26.0622 27.4499C27.1786 27.4467 28.2624 27.8264 29.1332 28.5259C30.0039 29.2253 30.609 30.2023 30.8477 31.294C30.8234 31.4337 30.7985 31.5739 30.7835 31.7171C30.7835 31.7345 30.7835 31.7519 30.7835 31.7692L21.1949 31.782C21.331 30.5864 21.9028 29.4831 22.8009 28.6833C23.6989 27.8834 24.8601 27.4433 26.0622 27.447V27.4499ZM32.1023 31.7832C32.1023 31.76 32.1023 31.7374 32.1023 31.7142C32.0878 31.5722 32.0629 31.4343 32.0392 31.2958C32.2912 30.1647 32.9343 29.1592 33.855 28.4568C34.7757 27.7544 35.9147 27.4002 37.0709 27.4569C38.2272 27.5135 39.3262 27.9773 40.174 28.7664C41.0217 29.5555 41.5637 30.619 41.7042 31.7692L32.1023 31.7832Z" fill="#71013B"/>
</svg>
