<svg width="44" height="53" viewBox="0 0 44 53" fill="none" xmlns="http://www.w3.org/2000/svg">
<path d="M28.4661 31.3574H14.0691C13.5553 31.3574 13.1406 30.9297 13.1406 30.3999C13.1406 29.8701 13.5553 29.4424 14.0691 29.4424H28.4661C28.9799 29.4424 29.3946 29.8701 29.3946 30.3999C29.3946 30.9297 28.9799 31.3574 28.4661 31.3574Z" fill="url(#paint0_linear_4296_520)"/>
<path d="M19.745 37.2929H14.0691C13.5553 37.2929 13.1406 36.8652 13.1406 36.3354C13.1406 35.8056 13.5553 35.3779 14.0691 35.3779H19.745C20.2587 35.3779 20.6734 35.8056 20.6734 36.3354C20.6734 36.8652 20.2587 37.2929 19.745 37.2929Z" fill="url(#paint1_linear_4296_520)"/>
<path d="M28.4661 19.4775H14.0691C13.5553 19.4775 13.1406 19.0498 13.1406 18.52C13.1406 17.9902 13.5553 17.5625 14.0691 17.5625H28.4661C28.9799 17.5625 29.3946 17.9902 29.3946 18.52C29.3946 19.0498 28.9799 19.4775 28.4661 19.4775Z" fill="url(#paint2_linear_4296_520)"/>
<path d="M28.4661 25.414H14.0691C13.5553 25.414 13.1406 24.9863 13.1406 24.4565C13.1406 23.9267 13.5553 23.499 14.0691 23.499H28.4661C28.9799 23.499 29.3946 23.9267 29.3946 24.4565C29.3946 24.9863 28.9799 25.414 28.4661 25.414Z" fill="url(#paint3_linear_4296_520)"/>
<path d="M34.8724 14.6325L29.1099 8.91947C28.9428 8.74712 28.7075 8.65137 28.4723 8.65137H8.31272C7.79898 8.65137 7.38428 9.07905 7.38428 9.60886V43.7595C7.38428 44.2893 7.79898 44.717 8.31272 44.717H26.306V42.802H9.24117V10.5664H28.0824V15.7113H33.2879L33.3003 15.7241V33.7697H35.1571V15.3219C35.1571 15.0602 35.0519 14.8113 34.8724 14.6325Z" fill="url(#paint4_linear_4296_520)"/>
<path d="M31.1587 46.9128C27.154 46.9128 23.8921 43.5552 23.8921 39.4188C23.8921 35.2824 27.154 31.9248 31.1587 31.9248C35.1634 31.9248 38.4253 35.2824 38.4253 39.4188C38.4253 43.5552 35.1634 46.9128 31.1587 46.9128ZM31.1587 33.8462C28.1753 33.8462 25.749 36.3484 25.749 39.4252C25.749 42.5019 28.1753 45.0042 31.1587 45.0042C34.1421 45.0042 36.5685 42.5019 36.5685 39.4252C36.5685 36.3484 34.1421 33.8462 31.1587 33.8462Z" fill="url(#paint5_linear_4296_520)"/>
<path d="M31.1032 41.1549C30.868 41.1549 30.6389 41.0655 30.4656 40.8931L27.9527 38.442C27.5813 38.0781 27.5627 37.4717 27.9155 37.0887C28.2683 36.7057 28.8563 36.6865 29.2277 37.0504L31.3198 39.0867L33.1891 38.3462C33.6657 38.1547 34.2042 38.4037 34.3899 38.8952C34.5756 39.3867 34.3342 39.942 33.8576 40.1335L31.4436 41.0846C31.3384 41.1293 31.2208 41.1485 31.1094 41.1485L31.1032 41.1549Z" fill="url(#paint6_linear_4296_520)"/>
<defs>
<linearGradient id="paint0_linear_4296_520" x1="21.2676" y1="29.4424" x2="21.2676" y2="31.3574" gradientUnits="userSpaceOnUse">
<stop stop-color="#4E00BC"/>
<stop offset="1" stop-color="#9D61F1"/>
</linearGradient>
<linearGradient id="paint1_linear_4296_520" x1="16.907" y1="35.3779" x2="16.907" y2="37.2929" gradientUnits="userSpaceOnUse">
<stop stop-color="#4E00BC"/>
<stop offset="1" stop-color="#9D61F1"/>
</linearGradient>
<linearGradient id="paint2_linear_4296_520" x1="21.2676" y1="17.5625" x2="21.2676" y2="19.4775" gradientUnits="userSpaceOnUse">
<stop stop-color="#4E00BC"/>
<stop offset="1" stop-color="#9D61F1"/>
</linearGradient>
<linearGradient id="paint3_linear_4296_520" x1="21.2676" y1="23.499" x2="21.2676" y2="25.414" gradientUnits="userSpaceOnUse">
<stop stop-color="#4E00BC"/>
<stop offset="1" stop-color="#9D61F1"/>
</linearGradient>
<linearGradient id="paint4_linear_4296_520" x1="21.2707" y1="8.65137" x2="21.2707" y2="44.717" gradientUnits="userSpaceOnUse">
<stop stop-color="#4E00BC"/>
<stop offset="1" stop-color="#9D61F1"/>
</linearGradient>
<linearGradient id="paint5_linear_4296_520" x1="31.1587" y1="31.9248" x2="31.1587" y2="46.9128" gradientUnits="userSpaceOnUse">
<stop stop-color="#4E00BC"/>
<stop offset="1" stop-color="#9D61F1"/>
</linearGradient>
<linearGradient id="paint6_linear_4296_520" x1="31.0573" y1="36.7891" x2="31.0573" y2="41.1549" gradientUnits="userSpaceOnUse">
<stop stop-color="#4E00BC"/>
<stop offset="1" stop-color="#9D61F1"/>
</linearGradient>
</defs>
</svg>
