<svg width="52" height="45" viewBox="0 0 52 45" fill="none" xmlns="http://www.w3.org/2000/svg">
<path fill-rule="evenodd" clip-rule="evenodd" d="M13.4686 26.9613V6.58251C13.4686 6.20567 13.623 5.86378 13.8694 5.61742C14.1175 5.36926 14.4594 5.21669 14.8344 5.21669H31.2114C31.3658 5.21669 31.5092 5.28654 31.6029 5.395L36.0864 9.54573V3.63561C36.0864 3.54554 36.0514 3.4665 35.9926 3.41318C35.9338 3.35804 35.8547 3.31943 35.7702 3.31943L11.9777 3.3176C11.8876 3.3176 11.8086 3.35252 11.7553 3.41135C11.7001 3.47017 11.6615 3.54921 11.6615 3.63377V26.9942C11.9538 27.1487 12.2461 27.327 12.5292 27.5237C12.8362 27.3049 13.1542 27.1119 13.4759 26.9538L13.4686 26.9613ZM39.4592 26.8915C41.0493 26.8915 42.4905 27.5349 43.5309 28.5808C44.5713 29.6212 45.2202 31.0624 45.2202 32.6525C45.2202 34.2425 44.5768 35.6837 43.5309 36.7241C42.4905 37.7646 41.0493 38.4135 39.4592 38.4135C37.8691 38.4135 36.428 37.7701 35.3875 36.7241C34.3471 35.6837 33.6982 34.2425 33.6982 32.6525C33.6982 31.0624 34.3416 29.6212 35.3875 28.5808C36.428 27.5404 37.8691 26.8915 39.4592 26.8915ZM42.7937 29.3179C41.9426 28.4668 40.7625 27.9356 39.4592 27.9356C38.1559 27.9356 36.9776 28.465 36.1247 29.3179C35.2736 30.169 34.7423 31.3492 34.7423 32.6525C34.7423 33.9558 35.2717 35.1341 36.1247 35.987C36.9758 36.8381 38.1559 37.3694 39.4592 37.3694C40.7625 37.3694 41.9408 36.8399 42.7937 35.987C43.6448 35.1359 44.1761 33.9558 44.1761 32.6525C44.1761 31.3492 43.6467 30.1709 42.7937 29.3179ZM38.325 29.0165C38.1412 29.0165 37.9776 29.09 37.8599 29.2095C37.7404 29.329 37.6669 29.4926 37.6669 29.6745V30.8676H36.4739C36.3195 30.8676 36.1816 30.9227 36.0731 31.0054C36.0529 31.0202 36.0327 31.0404 36.0143 31.0606C35.8948 31.1801 35.8213 31.3437 35.8213 31.5257V33.7885C35.8213 33.9724 35.8948 34.136 36.0143 34.2536C36.1338 34.3731 36.2974 34.4466 36.4757 34.4466H37.6687V35.6397C37.6687 35.7941 37.7239 35.9319 37.8066 36.0404C37.8213 36.0606 37.8415 36.0845 37.8618 36.0992C37.9812 36.2187 38.1448 36.2922 38.3268 36.2922H40.5897C40.7735 36.2922 40.9371 36.2187 41.0548 36.0992C41.1743 35.9797 41.2478 35.8161 41.2478 35.6378V34.4448H42.4408C42.6246 34.4448 42.7883 34.3713 42.9059 34.2518C43.0254 34.1323 43.0989 33.9687 43.0989 33.7867V31.5238C43.0989 31.3749 43.0493 31.2371 42.961 31.1268C42.9463 31.1029 42.9261 31.0827 42.9059 31.0624C42.7864 30.9429 42.6228 30.8694 42.4408 30.8694H41.2478V29.6764C41.2478 29.4981 41.1743 29.3345 41.0548 29.215C40.9353 29.0955 40.7717 29.022 40.5934 29.022H38.3305L38.325 29.0165ZM40.1982 30.0624H38.7129V31.3896C38.7129 31.6764 38.4794 31.9099 38.1927 31.9099H36.8655V33.3951H38.1927C38.4794 33.3951 38.7129 33.6286 38.7129 33.9154V35.2426H40.1982V33.9154C40.1982 33.6286 40.4316 33.3951 40.7184 33.3951H42.0456V31.9099H40.7184C40.4316 31.9099 40.1982 31.6764 40.1982 31.3896V30.0624ZM39.3066 42.1744C38.064 41.8123 36.9133 41.2921 35.8894 40.6487L14.8249 40.6469C14.2054 41.1266 13.5363 41.6119 12.8139 42.1028C12.6264 42.2314 12.3874 42.2222 12.2146 42.0972C6.03817 37.8914 3.74405 34.0972 3.59535 31.2977C3.53652 30.1727 3.81777 29.2021 4.33431 28.4154C4.84904 27.6286 5.59718 27.0385 6.47403 26.6709C7.69276 26.1599 9.1689 26.0955 10.6101 26.5569V3.63974C10.6101 3.2629 10.7645 2.92101 11.0108 2.67466C11.259 2.4265 11.6009 2.27393 11.9759 2.27393H35.7627C36.1395 2.27393 36.4814 2.42834 36.7278 2.67466C36.976 2.92282 37.1285 3.26473 37.1285 3.63974V10.5146L39.8142 13.0017C39.9226 13.1065 39.9833 13.2444 39.9833 13.3822V23.3493C41.0476 24.057 42.2223 24.6268 43.4704 25.0442C44.8087 25.4909 46.2241 25.7629 47.6818 25.8419C47.9594 25.8567 48.1763 26.0846 48.1763 26.3622V32.7316C48.1763 32.7665 48.1763 32.7959 48.1671 32.8309C47.9484 34.9761 46.998 36.9669 45.5127 38.5918C44.0219 40.2168 41.9907 41.4797 39.6083 42.1727C39.509 42.2021 39.4061 42.1966 39.3105 42.1727L39.3066 42.1744ZM34.4629 39.6028C34.086 39.2866 33.7349 38.9484 33.4132 38.5917C33.0419 38.1855 32.7055 37.759 32.4022 37.3142H18.4629C17.8049 38.0532 17.0273 38.8197 16.11 39.6028L34.4629 39.6028ZM31.7827 36.2682C31.2423 35.2186 30.8912 34.0881 30.7625 32.9043H21.1521C20.8305 33.9355 20.2404 35.0642 19.3286 36.2682H31.7865H31.7827ZM30.7423 31.8601V28.4962H20.7607C21.2459 29.2682 21.5033 30.2094 21.45 31.2995C21.4408 31.4833 21.4206 31.6708 21.3912 31.8601H30.7441H30.7423ZM30.7423 27.452H19.8491C19.4686 27.1303 19.0366 26.873 18.5716 26.68C17.373 26.18 15.9264 26.1046 14.5146 26.5421V6.58259C14.5146 6.49251 14.5495 6.41347 14.6083 6.36016C14.6672 6.30501 14.7462 6.26641 14.8308 6.26641H30.6821V12.5478C30.6821 12.9247 30.8365 13.2665 31.0828 13.5129C31.331 13.7611 31.6729 13.9136 32.0479 13.9136H38.9378V23.3602C37.8734 24.0679 36.6988 24.6378 35.4506 25.0551C34.1234 25.4963 32.7172 25.7683 31.2741 25.8474H31.265C30.9782 25.8474 30.7447 26.0808 30.7447 26.3676V27.4577L30.7423 27.452ZM34.1743 37.8897C32.8324 36.4228 31.9794 34.6397 31.7865 32.7226V26.8478C33.1578 26.7338 34.5015 26.4563 35.7791 26.0298C37.0916 25.5941 38.3306 24.9949 39.4592 24.2522C40.5879 24.9949 41.8269 25.5905 43.1394 26.0298C44.4133 26.4562 45.7552 26.7338 47.132 26.8478V32.7226C46.939 34.6399 46.0861 36.4285 44.7442 37.8897C43.4115 39.3456 41.599 40.4853 39.4628 41.1341C37.3286 40.4853 35.5143 39.3455 34.1814 37.8897H34.1743ZM5.83972 32.4652H7.99045C8.21288 32.4652 8.40222 32.3273 8.47572 32.1325L8.64484 31.7998L9.03087 33.2409C9.1044 33.5185 9.393 33.6876 9.67059 33.6123C9.79375 33.5773 9.89853 33.5038 9.96838 33.4045L11.5345 31.3843L12.3857 34.5553C12.45 34.7887 12.6577 34.9413 12.8912 34.9413H15.5603C15.8471 34.9413 16.0805 34.7078 16.0805 34.4211C16.0805 34.1343 15.8471 33.9008 15.5603 33.9008H13.2919L12.2717 30.1012C12.2423 29.9964 12.1816 29.899 12.0879 29.8236C11.8599 29.6508 11.5327 29.6894 11.3544 29.9174L9.76983 31.9634L9.29924 30.2152C9.26432 30.0774 9.17057 29.9524 9.03086 29.8825C8.77351 29.7538 8.46103 29.8586 8.33232 30.116L7.67425 31.4285H5.84154C5.55478 31.4285 5.32131 31.6619 5.32131 31.9487C5.32131 32.2355 5.55476 32.4689 5.84154 32.4689L5.83972 32.4652ZM4.63568 31.2465C4.58604 30.355 4.8048 29.5976 5.20001 28.9928C5.59706 28.388 6.18161 27.9285 6.86914 27.6453C8.41878 27.002 10.4849 27.2244 12.1891 28.5957C12.3877 28.7538 12.6597 28.7446 12.8472 28.5957C14.5513 27.2281 16.6119 27.0056 18.1616 27.649C18.577 27.8218 18.9483 28.0553 19.2719 28.3476C19.2866 28.3623 19.3013 28.377 19.316 28.388C19.509 28.5718 19.6818 28.774 19.8307 28.9965C20.2278 29.6013 20.4447 30.3641 20.395 31.2502C20.3803 31.5663 20.3252 31.9046 20.2406 32.2557C19.9392 33.48 19.2002 34.8715 17.8822 36.4009C17.8473 36.4303 17.8123 36.4708 17.7884 36.5094C16.555 37.9156 14.8307 39.4414 12.5127 41.0461C6.86561 37.138 4.76067 33.7242 4.6322 31.2485L4.63568 31.2465ZM23.2314 7.8253C24.941 7.8253 26.4851 8.51834 27.6046 9.63782C28.7241 10.7573 29.4171 12.3033 29.4171 14.011C29.4171 15.7206 28.7241 17.2647 27.6046 18.3842C26.4851 19.5037 24.9392 20.1967 23.2314 20.1967C21.5219 20.1967 19.9777 19.5037 18.8583 18.3842C17.7388 17.2647 17.0457 15.7187 17.0457 14.011C17.0457 12.3014 17.7388 10.7573 18.8583 9.63782C19.9777 8.51834 21.5237 7.8253 23.2314 7.8253ZM26.8675 10.3768C27.7995 11.3088 28.373 12.5918 28.373 14.0128C28.373 15.4338 27.7976 16.7169 26.8675 17.6489C25.9355 18.5809 24.6524 19.1544 23.2314 19.1544C21.8105 19.1544 20.5274 18.579 19.5954 17.6489C18.6634 16.7169 18.0899 15.4338 18.0899 14.0128C18.0899 12.5919 18.6653 11.3088 19.5954 10.3768C20.5274 9.44478 21.8105 8.87128 23.2314 8.87128C24.6524 8.87128 25.9355 9.44667 26.8675 10.3768ZM22.7113 10.2536C22.7113 9.96686 22.9447 9.73339 23.2315 9.73339C23.5182 9.73339 23.7517 9.96684 23.7517 10.2536V10.2885C24.1378 10.3823 24.4797 10.5863 24.7517 10.8529C25.1433 11.2444 25.3804 11.7794 25.3804 12.3731C25.3804 12.6599 25.1469 12.8933 24.8601 12.8933C24.5734 12.8933 24.3399 12.6599 24.3399 12.3731C24.3399 12.0661 24.2167 11.7885 24.0127 11.59C23.8142 11.3878 23.5366 11.2628 23.2296 11.2628C22.9226 11.2628 22.645 11.386 22.4465 11.59C22.248 11.7922 22.1193 12.0661 22.1193 12.3731C22.1193 13.2058 22.7333 13.3492 23.3472 13.4981C24.3619 13.7407 25.3785 13.9834 25.3785 15.6378C25.3785 16.2316 25.1358 16.772 24.7498 17.1581C24.4778 17.4301 24.1359 17.6286 23.7498 17.7224V17.7573C23.7498 18.0441 23.5164 18.2775 23.2296 18.2775C22.9428 18.2775 22.7094 18.0441 22.7094 17.7573V17.7224C22.3233 17.6286 21.9814 17.4246 21.7094 17.1581C21.3178 16.7665 21.0807 16.2316 21.0807 15.6378C21.0807 15.3511 21.3142 15.1176 21.6009 15.1176C21.8877 15.1176 22.1212 15.351 22.1212 15.6378C22.1212 15.9448 22.2443 16.2224 22.4484 16.4209C22.6506 16.6195 22.9245 16.7481 23.2315 16.7481C23.5385 16.7481 23.816 16.625 24.0146 16.4209C24.2131 16.2187 24.3418 15.9448 24.3418 15.6378C24.3418 14.8051 23.7278 14.6617 23.1138 14.5128C22.0992 14.2702 21.0826 14.0276 21.0826 12.3731C21.0826 11.7794 21.3252 11.2389 21.7113 10.8529C21.9833 10.5808 22.3252 10.3823 22.7113 10.2885V10.2536ZM17.5696 24.0847C17.2828 24.0847 17.0494 23.8512 17.0494 23.5644C17.0494 23.2777 17.2828 23.0442 17.5696 23.0442H35.8877C36.1745 23.0442 36.408 23.2777 36.408 23.5644C36.408 23.8512 36.1745 24.0847 35.8877 24.0847L17.5658 24.0828L17.5696 24.0847ZM38.132 12.855H32.0491C31.9591 12.855 31.88 12.8201 31.8267 12.7613C31.7679 12.7025 31.733 12.6234 31.733 12.5389V6.92662L38.1339 12.857L38.132 12.855Z" fill="url(#paint0_linear_4209_464)"/>
<defs>
<linearGradient id="paint0_linear_4209_464" x1="25.882" y1="2.27393" x2="25.882" y2="42.1952" gradientUnits="userSpaceOnUse">
<stop stop-color="#AF0A12"/>
<stop offset="1" stop-color="#490408"/>
</linearGradient>
</defs>
</svg>
