<svg width="40" height="41" viewBox="0 0 40 41" fill="none" xmlns="http://www.w3.org/2000/svg">
<mask id="path-1-inside-1_3430_1313" fill="white">
<path d="M35.4824 5.74072L32.3095 2.5674C32.2528 2.50989 32.1852 2.4644 32.1105 2.43365L32.1021 2.43126C32.0329 2.40335 31.959 2.38889 31.8844 2.38867H21.0266C20.8682 2.38867 20.7163 2.45158 20.6044 2.56355C20.4924 2.67553 20.4295 2.8274 20.4295 2.98576V7.10606H15.5962C15.4379 7.10606 15.286 7.16897 15.174 7.28094C15.0621 7.39292 14.9992 7.54479 14.9992 7.70315V11.8227H10.1695C10.0112 11.8227 9.85929 11.8856 9.74731 11.9975C9.63533 12.1095 9.57243 12.2614 9.57243 12.4197V16.5396H4.7404C4.58204 16.5396 4.43017 16.6025 4.31819 16.7145C4.20622 16.8265 4.14331 16.9784 4.14331 17.1367V34.6911C4.14331 34.8495 4.20622 35.0013 4.31819 35.1133C4.43017 35.2253 4.58204 35.2882 4.7404 35.2882C4.89876 35.2882 5.05063 35.2253 5.1626 35.1133C5.27458 35.0013 5.33749 34.8495 5.33749 34.6911V17.7338H14.9992V20.318C14.9992 20.4764 15.0621 20.6282 15.174 20.7402C15.286 20.8522 15.4379 20.9151 15.5962 20.9151H18.1836V32.0838C18.1836 32.0902 18.1816 32.0962 18.1816 32.1029C18.1816 32.1097 18.1816 32.1157 18.1836 32.122V36.2236H4.7404C4.58204 36.2236 4.43017 36.2865 4.31819 36.3985C4.20622 36.5105 4.14331 36.6624 4.14331 36.8207C4.14331 36.9791 4.20622 37.1309 4.31819 37.2429C4.43017 37.3549 4.58204 37.4178 4.7404 37.4178H18.7791C18.9375 37.4178 19.0893 37.3549 19.2013 37.2429C19.3133 37.1309 19.3762 36.9791 19.3762 36.8207V32.7004H24.2074C24.3658 32.7004 24.5177 32.6375 24.6296 32.5255C24.7416 32.4136 24.8045 32.2617 24.8045 32.1033V27.9838H29.6346C29.7929 27.9838 29.9448 27.9209 30.0568 27.8089C30.1687 27.697 30.2317 27.5451 30.2317 27.3867V23.266H35.0653C35.2236 23.266 35.3755 23.2031 35.4875 23.0911C35.5995 22.9792 35.6624 22.8273 35.6624 22.6689V6.16704C35.6624 6.08756 35.6465 6.00889 35.6156 5.93566C35.5847 5.86244 35.5394 5.79615 35.4824 5.74072ZM32.4815 4.42713L33.6231 5.56916H32.4815V4.42713ZM16.1949 18.5781L17.3377 19.7209H16.1949V18.5781ZM23.6104 31.5062H19.3762V20.318C19.3758 20.2434 19.3614 20.1695 19.3336 20.1003L19.3308 20.0911C19.3009 20.0179 19.2567 19.9515 19.2007 19.8957L16.0202 16.7152C15.9643 16.6591 15.8977 16.6148 15.8243 16.585L15.8156 16.5822C15.7463 16.5545 15.6725 16.54 15.5978 16.5396H10.7666V13.0168H20.4295V15.6006C20.4295 15.759 20.4924 15.9109 20.6044 16.0228C20.7163 16.1348 20.8682 16.1977 21.0266 16.1977H23.6104V31.5062ZM22.7661 15.0039H21.6236V13.8615L22.7661 15.0039ZM29.0375 26.7896H24.8045V15.601C24.8044 15.5252 24.7896 15.45 24.7611 15.3797V15.3753C24.7308 15.3006 24.6856 15.2329 24.6282 15.1763L21.4513 11.999C21.3951 11.9426 21.3283 11.8979 21.2546 11.8676C21.2513 11.8668 21.2479 11.8657 21.2447 11.8644C21.176 11.8373 21.1028 11.8231 21.0289 11.8227H16.1933V8.29984H25.8566V10.8836C25.8566 11.042 25.9195 11.1939 26.0315 11.3058C26.1435 11.4178 26.2953 11.4807 26.4537 11.4807H29.0375V26.7896ZM28.1944 10.2869H27.0508V9.14292L28.1944 10.2869ZM34.4682 22.0719H30.2317V10.89C30.2317 10.8836 30.2317 10.8781 30.2317 10.8717C30.2298 10.8047 30.2163 10.7386 30.1918 10.6762C30.19 10.6687 30.1878 10.6613 30.1851 10.654C30.1561 10.585 30.1143 10.522 30.0621 10.4685C30.0621 10.4685 30.0597 10.4637 30.0577 10.4617L26.8772 7.28081C26.8772 7.28081 26.8724 7.27802 26.8704 7.27603C26.8164 7.22336 26.7529 7.18124 26.6834 7.15184C26.6782 7.14985 26.673 7.14905 26.6678 7.14706C26.6009 7.12119 26.5298 7.10771 26.4581 7.10725H21.6236V3.58285H31.2873V6.16704C31.2873 6.3254 31.3502 6.47727 31.4622 6.58925C31.5742 6.70122 31.726 6.76413 31.8844 6.76413H34.4682V22.0719Z"/>
</mask>
<path d="M35.4824 5.74072L32.3095 2.5674C32.2528 2.50989 32.1852 2.4644 32.1105 2.43365L32.1021 2.43126C32.0329 2.40335 31.959 2.38889 31.8844 2.38867H21.0266C20.8682 2.38867 20.7163 2.45158 20.6044 2.56355C20.4924 2.67553 20.4295 2.8274 20.4295 2.98576V7.10606H15.5962C15.4379 7.10606 15.286 7.16897 15.174 7.28094C15.0621 7.39292 14.9992 7.54479 14.9992 7.70315V11.8227H10.1695C10.0112 11.8227 9.85929 11.8856 9.74731 11.9975C9.63533 12.1095 9.57243 12.2614 9.57243 12.4197V16.5396H4.7404C4.58204 16.5396 4.43017 16.6025 4.31819 16.7145C4.20622 16.8265 4.14331 16.9784 4.14331 17.1367V34.6911C4.14331 34.8495 4.20622 35.0013 4.31819 35.1133C4.43017 35.2253 4.58204 35.2882 4.7404 35.2882C4.89876 35.2882 5.05063 35.2253 5.1626 35.1133C5.27458 35.0013 5.33749 34.8495 5.33749 34.6911V17.7338H14.9992V20.318C14.9992 20.4764 15.0621 20.6282 15.174 20.7402C15.286 20.8522 15.4379 20.9151 15.5962 20.9151H18.1836V32.0838C18.1836 32.0902 18.1816 32.0962 18.1816 32.1029C18.1816 32.1097 18.1816 32.1157 18.1836 32.122V36.2236H4.7404C4.58204 36.2236 4.43017 36.2865 4.31819 36.3985C4.20622 36.5105 4.14331 36.6624 4.14331 36.8207C4.14331 36.9791 4.20622 37.1309 4.31819 37.2429C4.43017 37.3549 4.58204 37.4178 4.7404 37.4178H18.7791C18.9375 37.4178 19.0893 37.3549 19.2013 37.2429C19.3133 37.1309 19.3762 36.9791 19.3762 36.8207V32.7004H24.2074C24.3658 32.7004 24.5177 32.6375 24.6296 32.5255C24.7416 32.4136 24.8045 32.2617 24.8045 32.1033V27.9838H29.6346C29.7929 27.9838 29.9448 27.9209 30.0568 27.8089C30.1687 27.697 30.2317 27.5451 30.2317 27.3867V23.266H35.0653C35.2236 23.266 35.3755 23.2031 35.4875 23.0911C35.5995 22.9792 35.6624 22.8273 35.6624 22.6689V6.16704C35.6624 6.08756 35.6465 6.00889 35.6156 5.93566C35.5847 5.86244 35.5394 5.79615 35.4824 5.74072ZM32.4815 4.42713L33.6231 5.56916H32.4815V4.42713ZM16.1949 18.5781L17.3377 19.7209H16.1949V18.5781ZM23.6104 31.5062H19.3762V20.318C19.3758 20.2434 19.3614 20.1695 19.3336 20.1003L19.3308 20.0911C19.3009 20.0179 19.2567 19.9515 19.2007 19.8957L16.0202 16.7152C15.9643 16.6591 15.8977 16.6148 15.8243 16.585L15.8156 16.5822C15.7463 16.5545 15.6725 16.54 15.5978 16.5396H10.7666V13.0168H20.4295V15.6006C20.4295 15.759 20.4924 15.9109 20.6044 16.0228C20.7163 16.1348 20.8682 16.1977 21.0266 16.1977H23.6104V31.5062ZM22.7661 15.0039H21.6236V13.8615L22.7661 15.0039ZM29.0375 26.7896H24.8045V15.601C24.8044 15.5252 24.7896 15.45 24.7611 15.3797V15.3753C24.7308 15.3006 24.6856 15.2329 24.6282 15.1763L21.4513 11.999C21.3951 11.9426 21.3283 11.8979 21.2546 11.8676C21.2513 11.8668 21.2479 11.8657 21.2447 11.8644C21.176 11.8373 21.1028 11.8231 21.0289 11.8227H16.1933V8.29984H25.8566V10.8836C25.8566 11.042 25.9195 11.1939 26.0315 11.3058C26.1435 11.4178 26.2953 11.4807 26.4537 11.4807H29.0375V26.7896ZM28.1944 10.2869H27.0508V9.14292L28.1944 10.2869ZM34.4682 22.0719H30.2317V10.89C30.2317 10.8836 30.2317 10.8781 30.2317 10.8717C30.2298 10.8047 30.2163 10.7386 30.1918 10.6762C30.19 10.6687 30.1878 10.6613 30.1851 10.654C30.1561 10.585 30.1143 10.522 30.0621 10.4685C30.0621 10.4685 30.0597 10.4637 30.0577 10.4617L26.8772 7.28081C26.8772 7.28081 26.8724 7.27802 26.8704 7.27603C26.8164 7.22336 26.7529 7.18124 26.6834 7.15184C26.6782 7.14985 26.673 7.14905 26.6678 7.14706C26.6009 7.12119 26.5298 7.10771 26.4581 7.10725H21.6236V3.58285H31.2873V6.16704C31.2873 6.3254 31.3502 6.47727 31.4622 6.58925C31.5742 6.70122 31.726 6.76413 31.8844 6.76413H34.4682V22.0719Z" fill="url(#paint0_linear_3430_1313)" stroke="url(#paint1_linear_3430_1313)" stroke-width="1.8" mask="url(#path-1-inside-1_3430_1313)"/>
<path d="M14.0684 25.2676C13.9564 25.1557 13.8046 25.0928 13.6463 25.0928C13.4879 25.0928 13.3361 25.1557 13.2241 25.2676L11.0659 27.4247L10.2936 26.6528C10.181 26.5441 10.0302 26.4839 9.87364 26.4852C9.71708 26.4866 9.56733 26.5494 9.45662 26.6601C9.34592 26.7708 9.28312 26.9206 9.28176 27.0771C9.2804 27.2337 9.34058 27.3845 9.44935 27.4971L10.6435 28.6913C10.7555 28.8032 10.9073 28.8661 11.0657 28.8661C11.224 28.8661 11.3758 28.8032 11.4878 28.6913L14.0672 26.1119C14.1793 26.0001 14.2424 25.8483 14.2426 25.69C14.2429 25.5317 14.1802 25.3797 14.0684 25.2676Z" fill="url(#paint2_linear_3430_1313)"/>
<path d="M16.1934 26.9783C16.1935 26.1013 15.9335 25.244 15.4463 24.5148C14.9591 23.7856 14.2666 23.2172 13.4564 22.8815C12.6462 22.5459 11.7546 22.4581 10.8945 22.6291C10.0343 22.8002 9.24425 23.2225 8.62412 23.8426C8.004 24.4628 7.58169 25.2528 7.41062 26.113C7.23955 26.9731 7.32739 27.8647 7.66303 28.6749C7.99868 29.4851 8.56705 30.1776 9.29628 30.6648C10.0255 31.152 10.8828 31.412 11.7598 31.4119C12.9352 31.4105 14.0621 30.943 14.8933 30.1118C15.7245 29.2807 16.192 28.1538 16.1934 26.9783ZM8.52001 26.9783C8.51994 26.3375 8.70988 25.7111 9.06583 25.1783C9.42177 24.6454 9.92773 24.2301 10.5197 23.9849C11.1117 23.7396 11.7631 23.6754 12.3916 23.8003C13.0201 23.9253 13.5974 24.2338 14.0506 24.6869C14.5037 25.14 14.8123 25.7172 14.9373 26.3457C15.0624 26.9742 14.9982 27.6256 14.753 28.2176C14.5078 28.8097 14.0926 29.3157 13.5598 29.6717C13.027 30.0277 12.4006 30.2177 11.7598 30.2177C10.9006 30.2172 10.0768 29.8758 9.46909 29.2685C8.86138 28.6611 8.51948 27.8375 8.51842 26.9783H8.52001Z" fill="url(#paint3_linear_3430_1313)"/>
<defs>
<linearGradient id="paint0_linear_3430_1313" x1="19.9028" y1="2.38867" x2="19.9028" y2="37.4178" gradientUnits="userSpaceOnUse">
<stop stop-color="#107B8E"/>
<stop offset="1" stop-color="#59C1D3"/>
</linearGradient>
<linearGradient id="paint1_linear_3430_1313" x1="19.9028" y1="2.38867" x2="19.9028" y2="37.4178" gradientUnits="userSpaceOnUse">
<stop stop-color="#107B8E"/>
<stop offset="1" stop-color="#59C1D3"/>
</linearGradient>
<linearGradient id="paint2_linear_3430_1313" x1="11.7622" y1="25.0928" x2="11.7622" y2="28.8661" gradientUnits="userSpaceOnUse">
<stop stop-color="#107B8E"/>
<stop offset="1" stop-color="#59C1D3"/>
</linearGradient>
<linearGradient id="paint3_linear_3430_1313" x1="11.7594" y1="22.5439" x2="11.7594" y2="31.4119" gradientUnits="userSpaceOnUse">
<stop stop-color="#107B8E"/>
<stop offset="1" stop-color="#59C1D3"/>
</linearGradient>
</defs>
</svg>
