<svg width="48" height="48" viewBox="0 0 48 48" fill="none" xmlns="http://www.w3.org/2000/svg">
<path d="M32.7969 13.2179L32.7964 13.2174L29.9284 10.3789C29.4097 9.8655 28.6922 9.57227 27.9594 9.57227H7.16666C5.63335 9.57227 4.38159 10.8075 4.38159 12.3313V39.0942C4.38159 40.6181 5.63335 41.8533 7.16666 41.8533H40.9674C42.5007 41.8533 43.7525 40.6181 43.7525 39.0942L43.7528 16.3457C43.7528 14.8219 42.5011 13.5867 40.9678 13.5867H33.6954C33.3602 13.5867 33.0318 13.4517 32.7969 13.2179ZM28.8584 11.4444L28.8589 11.4449L31.7269 14.2835C32.2456 14.7969 32.963 15.0901 33.6959 15.0901H40.9683C41.6709 15.0901 42.2393 15.6563 42.2393 16.3455V19.2524C41.86 19.055 41.429 18.9391 40.9683 18.9391H21.5276C21.1924 18.9391 20.864 18.8042 20.6291 18.5703L20.6286 18.5698L19.1126 17.0694C18.5939 16.5561 17.8765 16.2628 17.1437 16.2628H7.16718C6.70681 16.2628 6.27581 16.3777 5.89616 16.5754V12.331C5.89616 11.6419 6.46453 11.0757 7.16718 11.0757H27.9599C28.2951 11.0757 28.6235 11.2106 28.8584 11.4444ZM18.0423 18.1353L18.0428 18.1358L19.5588 19.6362C20.0775 20.1496 20.7949 20.4428 21.5278 20.4428H40.9685C41.6711 20.4428 42.2395 21.0091 42.2395 21.6982L42.2392 39.0942C42.2392 39.7833 41.6708 40.3496 40.9681 40.3496H7.16735C6.46473 40.3496 5.89633 39.7833 5.89633 39.0942V19.022C5.89633 18.3328 6.46473 17.7666 7.16735 17.7666H17.1438C17.479 17.7666 17.8074 17.9015 18.0423 18.1353ZM9.1954 32.3209C8.77921 32.3209 8.43838 32.6546 8.43838 33.0728C8.43838 33.4909 8.77922 33.8246 9.1954 33.8246H16.6318C17.048 33.8246 17.3888 33.4909 17.3888 33.0728C17.3888 32.6546 17.048 32.3209 16.6318 32.3209H9.1954ZM20.6875 37.839C21.1037 37.839 21.4446 37.5054 21.4446 37.0872C21.4446 36.669 21.1037 36.3354 20.6875 36.3354H9.19549C8.77929 36.3354 8.43846 36.669 8.43846 37.0872C8.43846 37.5054 8.77931 37.839 9.19549 37.839H20.6875Z" fill="#9B9F27" stroke="url(#paint0_linear_3430_1286)" stroke-width="0.5"/>
<defs>
<linearGradient id="paint0_linear_3430_1286" x1="24.0672" y1="9.82227" x2="24.0672" y2="41.6033" gradientUnits="userSpaceOnUse">
<stop stop-color="#9B9F27"/>
<stop offset="1" stop-color="#797968"/>
</linearGradient>
</defs>
</svg>
