<svg width="45" height="52" viewBox="0 0 45 52" fill="none" xmlns="http://www.w3.org/2000/svg">
<path d="M28.6595 31.0234H14.2624C13.7487 31.0234 13.334 30.5957 13.334 30.0659C13.334 29.5361 13.7487 29.1084 14.2624 29.1084H28.6595C29.1732 29.1084 29.5879 29.5361 29.5879 30.0659C29.5879 30.5957 29.1732 31.0234 28.6595 31.0234Z" fill="url(#paint0_linear_4172_422)"/>
<path d="M19.9383 36.9589H14.2624C13.7487 36.9589 13.334 36.5313 13.334 36.0014C13.334 35.4716 13.7487 35.0439 14.2624 35.0439H19.9383C20.4521 35.0439 20.8668 35.4716 20.8668 36.0014C20.8668 36.5313 20.4521 36.9589 19.9383 36.9589Z" fill="url(#paint1_linear_4172_422)"/>
<path d="M28.6595 19.1435H14.2624C13.7487 19.1435 13.334 18.7158 13.334 18.186C13.334 17.6562 13.7487 17.2285 14.2624 17.2285H28.6595C29.1732 17.2285 29.5879 17.6562 29.5879 18.186C29.5879 18.7158 29.1732 19.1435 28.6595 19.1435Z" fill="url(#paint2_linear_4172_422)"/>
<path d="M28.6595 25.08H14.2624C13.7487 25.08 13.334 24.6523 13.334 24.1225C13.334 23.5927 13.7487 23.165 14.2624 23.165H28.6595C29.1732 23.165 29.5879 23.5927 29.5879 24.1225C29.5879 24.6523 29.1732 25.08 28.6595 25.08Z" fill="url(#paint3_linear_4172_422)"/>
<path d="M35.0658 14.2985L29.3032 8.58548C29.1361 8.41313 28.9009 8.31738 28.6657 8.31738H8.50608C7.99234 8.31738 7.57764 8.74506 7.57764 9.27488V43.4255C7.57764 43.9553 7.99234 44.383 8.50608 44.383H26.4993V42.468H9.43453V10.2324H28.2758V15.3773H33.4812L33.4936 15.3901V33.4357H35.3505V14.9879C35.3505 14.7262 35.2453 14.4773 35.0658 14.2985Z" fill="url(#paint4_linear_4172_422)"/>
<path d="M31.3521 46.5788C27.3474 46.5788 24.0854 43.2212 24.0854 39.0848C24.0854 34.9484 27.3474 31.5908 31.3521 31.5908C35.3568 31.5908 38.6187 34.9484 38.6187 39.0848C38.6187 43.2212 35.3568 46.5788 31.3521 46.5788ZM31.3521 33.5122C28.3687 33.5122 25.9423 36.0144 25.9423 39.0912C25.9423 42.1679 28.3687 44.6702 31.3521 44.6702C34.3355 44.6702 36.7618 42.1679 36.7618 39.0912C36.7618 36.0144 34.3355 33.5122 31.3521 33.5122Z" fill="url(#paint5_linear_4172_422)"/>
<path d="M31.2963 40.8209C31.0611 40.8209 30.8321 40.7315 30.6588 40.5592L28.1458 38.108C27.7744 37.7441 27.7558 37.1377 28.1086 36.7547C28.4614 36.3717 29.0495 36.3526 29.4208 36.7164L31.5129 38.7527L33.3822 38.0122C33.8588 37.8207 34.3973 38.0697 34.583 38.5612C34.7687 39.0527 34.5273 39.608 34.0507 39.7995L31.6367 40.7507C31.5315 40.7953 31.4139 40.8145 31.3025 40.8145L31.2963 40.8209Z" fill="url(#paint6_linear_4172_422)"/>
<defs>
<linearGradient id="paint0_linear_4172_422" x1="21.461" y1="29.1084" x2="21.461" y2="31.0234" gradientUnits="userSpaceOnUse">
<stop stop-color="#06830E"/>
<stop offset="1" stop-color="#A6D3C3"/>
</linearGradient>
<linearGradient id="paint1_linear_4172_422" x1="17.1004" y1="35.0439" x2="17.1004" y2="36.9589" gradientUnits="userSpaceOnUse">
<stop stop-color="#06830E"/>
<stop offset="1" stop-color="#A6D3C3"/>
</linearGradient>
<linearGradient id="paint2_linear_4172_422" x1="21.461" y1="17.2285" x2="21.461" y2="19.1435" gradientUnits="userSpaceOnUse">
<stop stop-color="#06830E"/>
<stop offset="1" stop-color="#A6D3C3"/>
</linearGradient>
<linearGradient id="paint3_linear_4172_422" x1="21.461" y1="23.165" x2="21.461" y2="25.08" gradientUnits="userSpaceOnUse">
<stop stop-color="#06830E"/>
<stop offset="1" stop-color="#A6D3C3"/>
</linearGradient>
<linearGradient id="paint4_linear_4172_422" x1="21.4641" y1="8.31738" x2="21.4641" y2="44.383" gradientUnits="userSpaceOnUse">
<stop stop-color="#06830E"/>
<stop offset="1" stop-color="#A6D3C3"/>
</linearGradient>
<linearGradient id="paint5_linear_4172_422" x1="31.3521" y1="31.5908" x2="31.3521" y2="46.5788" gradientUnits="userSpaceOnUse">
<stop stop-color="#06830E"/>
<stop offset="1" stop-color="#A6D3C3"/>
</linearGradient>
<linearGradient id="paint6_linear_4172_422" x1="31.2504" y1="36.4551" x2="31.2504" y2="40.8209" gradientUnits="userSpaceOnUse">
<stop stop-color="#06830E"/>
<stop offset="1" stop-color="#A6D3C3"/>
</linearGradient>
</defs>
</svg>
