<svg width="42" height="42" viewBox="0 0 42 42" fill="none" xmlns="http://www.w3.org/2000/svg">
<path d="M36.3473 7.53516H5.46436C3.60416 7.53516 2.09058 9.1528 2.09058 11.1409V33.5458C2.09058 35.5339 3.60416 37.1515 5.46436 37.1515H36.3468C38.207 37.1515 39.7206 35.5339 39.7206 33.5458V11.1409C39.721 9.1528 38.2075 7.53516 36.3473 7.53516ZM38.0486 33.5458C38.0486 34.5485 37.2855 35.3641 36.3473 35.3641H5.46436C4.5261 35.3641 3.76304 34.5485 3.76304 33.5458V11.1409C3.76304 10.1381 4.5261 9.32261 5.46436 9.32261H36.3468C37.2851 9.32261 38.0481 10.1381 38.0481 11.1409L38.0486 33.5458Z" fill="url(#paint0_linear_1939_189)"/>
<path d="M13.9148 21.8025C14.7105 21.0499 15.2156 19.9542 15.2156 18.7325C15.2156 16.47 13.4934 14.6294 11.3764 14.6294C9.25951 14.6294 7.53688 16.47 7.53688 18.7325C7.53688 19.9529 8.04071 21.0477 8.83513 21.7998C8.28823 22.1497 7.7982 22.6082 7.40015 23.1761C7.12336 23.5711 7.19862 24.1315 7.56782 24.4273C7.93743 24.7241 8.46217 24.6432 8.73854 24.2481C9.36781 23.3508 10.3291 22.8361 11.3764 22.8361C13.1923 22.8361 14.6691 24.4148 14.6691 26.3551V28.1296C14.6691 28.2069 14.6101 28.2699 14.5382 28.2699H8.21464C8.14189 28.2699 8.08335 28.2069 8.08335 28.1296V26.3551C8.08335 26.1777 8.0959 25.999 8.12057 25.8242C8.18956 25.3363 7.87513 24.8809 7.41855 24.8072C6.96364 24.7348 6.53591 25.0695 6.46692 25.5575C6.4297 25.8202 6.41089 26.0883 6.41089 26.3551V28.1296C6.41089 29.1927 7.22036 30.0574 8.21464 30.0574H14.5378C15.5325 30.0574 16.3411 29.1927 16.3411 28.1296V26.3551C16.3416 24.4206 15.3653 22.7301 13.9148 21.8025ZM9.20934 18.7325C9.20934 17.4558 10.1815 16.4169 11.3764 16.4169C12.5714 16.4169 13.5431 17.4558 13.5431 18.7325C13.5431 20.0092 12.5714 21.0482 11.3764 21.0482C10.1815 21.0482 9.20934 20.0092 9.20934 18.7325Z" fill="url(#paint1_linear_1939_189)"/>
<path d="M20.1622 16.4169H27.3274C27.789 16.4169 28.1637 16.0165 28.1637 15.5231C28.1637 15.0298 27.789 14.6294 27.3274 14.6294H20.1622C19.7006 14.6294 19.3259 15.0298 19.3259 15.5231C19.3259 16.0165 19.7001 16.4169 20.1622 16.4169Z" fill="url(#paint2_linear_1939_189)"/>
<path d="M34.1463 14.6294H31.9683C31.5067 14.6294 31.1321 15.0298 31.1321 15.5231C31.1321 16.0165 31.5067 16.4169 31.9683 16.4169H34.1463C34.6079 16.4169 34.9825 16.0165 34.9825 15.5231C34.9825 15.0298 34.6079 14.6294 34.1463 14.6294Z" fill="url(#paint3_linear_1939_189)"/>
<path d="M33.9728 21.4497H20.0755C19.6139 21.4497 19.2393 21.8501 19.2393 22.3434C19.2393 22.8368 19.6139 23.2372 20.0755 23.2372H33.9728C34.4344 23.2372 34.8091 22.8368 34.8091 22.3434C34.8091 21.8501 34.4344 21.4497 33.9728 21.4497Z" fill="url(#paint4_linear_1939_189)"/>
<path d="M23.0228 28.2695H19.9886C19.527 28.2695 19.1523 28.6699 19.1523 29.1633C19.1523 29.6566 19.527 30.057 19.9886 30.057H23.0228C23.4844 30.057 23.8591 29.6566 23.8591 29.1633C23.8591 28.6699 23.4849 28.2695 23.0228 28.2695Z" fill="url(#paint5_linear_1939_189)"/>
<path d="M33.7994 28.2695H26.3143C25.8527 28.2695 25.478 28.6699 25.478 29.1633C25.478 29.6566 25.8527 30.057 26.3143 30.057H33.7994C34.261 30.057 34.6356 29.6566 34.6356 29.1633C34.6356 28.6699 34.261 28.2695 33.7994 28.2695Z" fill="url(#paint6_linear_1939_189)"/>
<defs>
<linearGradient id="paint0_linear_1939_189" x1="20.9056" y1="7.53516" x2="20.9056" y2="37.1515" gradientUnits="userSpaceOnUse">
<stop stop-color="#AF0A12"/>
<stop offset="1" stop-color="#490408"/>
</linearGradient>
<linearGradient id="paint1_linear_1939_189" x1="11.376" y1="14.6294" x2="11.376" y2="30.0574" gradientUnits="userSpaceOnUse">
<stop stop-color="#AF0A12"/>
<stop offset="1" stop-color="#490408"/>
</linearGradient>
<linearGradient id="paint2_linear_1939_189" x1="23.7448" y1="14.6294" x2="23.7448" y2="16.4169" gradientUnits="userSpaceOnUse">
<stop stop-color="#AF0A12"/>
<stop offset="1" stop-color="#490408"/>
</linearGradient>
<linearGradient id="paint3_linear_1939_189" x1="33.0573" y1="14.6294" x2="33.0573" y2="16.4169" gradientUnits="userSpaceOnUse">
<stop stop-color="#AF0A12"/>
<stop offset="1" stop-color="#490408"/>
</linearGradient>
<linearGradient id="paint4_linear_1939_189" x1="27.0242" y1="21.4497" x2="27.0242" y2="23.2372" gradientUnits="userSpaceOnUse">
<stop stop-color="#AF0A12"/>
<stop offset="1" stop-color="#490408"/>
</linearGradient>
<linearGradient id="paint5_linear_1939_189" x1="21.5057" y1="28.2695" x2="21.5057" y2="30.057" gradientUnits="userSpaceOnUse">
<stop stop-color="#AF0A12"/>
<stop offset="1" stop-color="#490408"/>
</linearGradient>
<linearGradient id="paint6_linear_1939_189" x1="30.0568" y1="28.2695" x2="30.0568" y2="30.057" gradientUnits="userSpaceOnUse">
<stop stop-color="#AF0A12"/>
<stop offset="1" stop-color="#490408"/>
</linearGradient>
</defs>
</svg>
