<svg width="48" height="48" viewBox="0 0 48 48" fill="none" xmlns="http://www.w3.org/2000/svg">
<mask id="path-1-outside-1_6369_331" maskUnits="userSpaceOnUse" x="4.26221" y="1.40039" width="39" height="45" fill="black">
<rect fill="white" x="4.26221" y="1.40039" width="39" height="45"/>
<path d="M10.0142 23.3548H13.4265C13.6651 23.3548 13.8585 23.1613 13.8585 22.9228V19.5105C13.8585 19.2719 13.6651 19.0785 13.4265 19.0785H10.0142C9.77565 19.0785 9.58221 19.2719 9.58221 19.5105V22.9228C9.58221 23.1613 9.77565 23.3548 10.0142 23.3548ZM10.4462 19.9425H12.9945V22.4908H10.4462V19.9425ZM15.3835 20.4105C15.3835 20.1719 15.5769 19.9785 15.8155 19.9785H21.6144C21.8529 19.9785 22.0464 20.1719 22.0464 20.4105C22.0464 20.649 21.8529 20.8425 21.6144 20.8425H15.8155C15.5769 20.8425 15.3835 20.649 15.3835 20.4105ZM15.3835 22.0223C15.3835 21.7838 15.5769 21.5903 15.8155 21.5903H24.514C24.7526 21.5903 24.946 21.7838 24.946 22.0223C24.946 22.2609 24.7526 22.4543 24.514 22.4543H15.8155C15.5769 22.4543 15.3835 22.2609 15.3835 22.0223ZM10.0142 29.9044H13.4265C13.6651 29.9044 13.8585 29.7109 13.8585 29.4724V26.0601C13.8585 25.8215 13.6651 25.6281 13.4265 25.6281H10.0142C9.77565 25.6281 9.58221 25.8215 9.58221 26.0601V29.4724C9.58221 29.7109 9.77565 29.9044 10.0142 29.9044ZM10.4462 26.4921H12.9945V29.0404H10.4462V26.4921ZM15.3835 26.9601C15.3835 26.7215 15.5769 26.5281 15.8155 26.5281H21.6144C21.8529 26.5281 22.0464 26.7215 22.0464 26.9601C22.0464 27.1986 21.8529 27.3921 21.6144 27.3921H15.8155C15.5769 27.3921 15.3835 27.1986 15.3835 26.9601ZM15.3835 28.5719C15.3835 28.3333 15.5769 28.1399 15.8155 28.1399H24.514C24.7526 28.1399 24.946 28.3333 24.946 28.5719C24.946 28.8105 24.7526 29.0039 24.514 29.0039H15.8155C15.5769 29.0039 15.3835 28.8105 15.3835 28.5719ZM10.0142 36.454H13.4265C13.6651 36.454 13.8585 36.2605 13.8585 36.022V32.6097C13.8585 32.3711 13.6651 32.1777 13.4265 32.1777H10.0142C9.77565 32.1777 9.58221 32.3711 9.58221 32.6097V36.022C9.58221 36.2605 9.77565 36.454 10.0142 36.454ZM10.4462 33.0417H12.9945V35.59H10.4462V33.0417ZM15.3835 33.5097C15.3835 33.2711 15.5769 33.0777 15.8155 33.0777H21.6144C21.8529 33.0777 22.0464 33.2711 22.0464 33.5097C22.0464 33.7482 21.8529 33.9417 21.6144 33.9417H15.8155C15.5769 33.9417 15.3835 33.7482 15.3835 33.5097ZM15.3835 35.1215C15.3835 34.8829 15.5769 34.6895 15.8155 34.6895H21.5428C21.7814 34.6895 21.9748 34.8829 21.9748 35.1215C21.9748 35.3601 21.7814 35.5535 21.5428 35.5535H15.8155C15.5769 35.5535 15.3835 35.3601 15.3835 35.1215ZM12.7329 20.457C12.9014 20.6255 12.9019 20.8991 12.7329 21.0681L11.8276 21.9733C11.7432 22.0578 11.6328 22.1001 11.5224 22.1001C11.412 22.1001 11.3011 22.0578 11.2171 21.9733L10.7083 21.4645C10.5398 21.2961 10.5393 21.0225 10.7083 20.8535C10.8768 20.6845 11.1504 20.685 11.3193 20.8535L11.5228 21.057L12.1224 20.457C12.2913 20.2881 12.564 20.2885 12.7329 20.457ZM12.7329 27.0637C12.9014 27.2322 12.9014 27.5058 12.7329 27.6748L11.8276 28.5801C11.7432 28.6645 11.6328 28.7068 11.5224 28.7068C11.412 28.7068 11.3011 28.6645 11.2171 28.5801L10.7083 28.0713C10.5398 27.9028 10.5393 27.6292 10.7083 27.4602C10.8768 27.2913 11.1504 27.2913 11.3193 27.4602L11.5228 27.6637L12.1228 27.0637C12.2918 26.8953 12.564 26.8953 12.7329 27.0637ZM12.7329 33.6138C12.9014 33.7823 12.9019 34.0559 12.7329 34.2249L11.8276 35.1301C11.7432 35.2146 11.6328 35.2569 11.5224 35.2569C11.412 35.2569 11.3011 35.2146 11.2171 35.1301L10.7083 34.6213C10.5398 34.4529 10.5393 34.1793 10.7083 34.0103C10.8768 33.8413 11.1504 33.8418 11.3193 34.0103L11.5228 34.2138L12.1224 33.6138C12.2913 33.4449 12.564 33.4453 12.7329 33.6138ZM41.6227 40.2973C41.5536 38.5703 41.062 36.9498 40.2475 35.5382C40.2441 35.5319 40.2422 35.5252 40.2388 35.5189C40.2345 35.5113 40.2283 35.505 40.2235 35.4978C39.3148 33.9393 38.0131 32.6375 36.455 31.7289C36.4478 31.7241 36.4416 31.7178 36.4334 31.7135C36.4272 31.7097 36.4204 31.7082 36.4142 31.7049C35.7465 31.3199 35.0323 31.0069 34.2825 30.7765V12.4444C34.2825 12.2058 34.0891 12.0124 33.8505 12.0124H32.9424V11.0716C32.9424 10.833 32.7489 10.6396 32.5104 10.6396H31.6022V9.69879C31.6022 9.46023 31.4088 9.26679 31.1702 9.26679H25.8686V8.94423C25.8686 8.72679 25.7068 8.54343 25.4913 8.51559L24.3528 8.37063C24.2064 7.77591 23.9726 7.21191 23.6553 6.68727L24.3576 5.77959C24.4905 5.60775 24.4752 5.36343 24.3216 5.20983L23.0592 3.94743C22.9056 3.79383 22.6612 3.77847 22.4894 3.91143L21.5817 4.61367C21.0571 4.29639 20.4931 4.06263 19.8984 3.91623L19.7534 2.77767C19.726 2.56215 19.5422 2.40039 19.3248 2.40039H17.5392C17.3217 2.40039 17.1384 2.56215 17.1105 2.77767L16.9656 3.91623C16.3708 4.06263 15.8068 4.29639 15.2822 4.61367L14.3745 3.91143C14.2022 3.77847 13.9584 3.79383 13.8048 3.94743L12.5424 5.20983C12.3888 5.36343 12.3729 5.60775 12.5064 5.77959L13.2086 6.68727C12.8913 7.21191 12.6576 7.77591 12.5112 8.37063L11.3731 8.51559C11.1576 8.54295 10.9958 8.72679 10.9958 8.94423V9.26679H9.47565C9.47565 9.26679 9.47277 9.26679 9.47133 9.26679C9.44445 9.26679 9.41757 9.26967 9.39117 9.27495C9.37821 9.27735 9.36573 9.28263 9.35325 9.28599C9.33885 9.29031 9.32445 9.29367 9.31053 9.29943C9.29613 9.30519 9.28317 9.31335 9.26925 9.32103C9.25821 9.32727 9.24669 9.33207 9.23565 9.33927C9.21309 9.35415 9.19245 9.37143 9.17325 9.39015C9.17229 9.39111 9.17085 9.39207 9.16989 9.39303L5.38845 13.1745C5.38845 13.1745 5.38653 13.1769 5.38557 13.1778C5.36685 13.197 5.34957 13.2177 5.33469 13.2402C5.32749 13.2513 5.32221 13.2633 5.31597 13.2748C5.30877 13.2878 5.30109 13.3007 5.29533 13.3146C5.28909 13.329 5.28573 13.3444 5.28141 13.3593C5.27805 13.3713 5.27325 13.3828 5.27085 13.3953C5.26509 13.4231 5.26221 13.4514 5.26221 13.4802V42.4228C5.26221 42.6613 5.45565 42.8548 5.69421 42.8548H6.60237V43.7956C6.60237 44.0341 6.79581 44.2276 7.03437 44.2276H7.94253V45.1684C7.94253 45.4069 8.13597 45.6004 8.37453 45.6004H33.8515C34.09 45.6004 34.2835 45.4069 34.2835 45.1684V42.8548H41.4556C42.1636 42.8548 42.7401 42.2788 42.7401 41.5703C42.7401 40.9194 42.2529 40.3813 41.6241 40.2983L41.6227 40.2973ZM32.7777 40.2849C32.5886 39.6105 31.9694 39.1137 31.2355 39.1137C30.8539 39.1137 30.503 39.2481 30.2275 39.4717L26.8176 37.5033C26.6107 37.3837 26.3467 37.4548 26.2276 37.6612C26.1081 37.8676 26.1792 38.1321 26.3856 38.2511L29.7264 40.1802C29.7139 40.2148 29.7028 40.2494 29.6928 40.2849H24.8289C25.0521 36.9445 27.839 34.2945 31.2355 34.2945C34.632 34.2945 37.4188 36.9445 37.642 40.2849H32.7777ZM21.0163 41.9893C20.7844 41.9893 20.5958 41.8007 20.5958 41.5689C20.5958 41.337 20.7844 41.1484 21.0163 41.1484H29.6928C29.7878 41.4873 29.9913 41.7805 30.264 41.9889L21.0163 41.9893ZM26.1009 32.6884L27.226 34.6367C26.4043 35.1805 25.6987 35.8857 25.1553 36.7074L23.207 35.5823C23.9515 34.4217 24.9403 33.4329 26.1009 32.6884ZM35.6212 32.2554L34.4961 34.2038C33.6355 33.7713 32.6788 33.5034 31.6665 33.4439V31.1941C33.0868 31.258 34.428 31.6343 35.6212 32.2554ZM30.803 31.1946V33.4444C29.7907 33.5039 28.834 33.7713 27.9734 34.2042L26.8483 32.2559C28.0416 31.6348 29.3827 31.2585 30.803 31.1946ZM22.7736 36.3306L24.7219 37.4557C24.2894 38.3164 24.0216 39.273 23.962 40.2853H21.7123C21.7761 38.865 22.1524 37.5239 22.7736 36.3306ZM31.9742 40.7174C31.9742 41.1249 31.6425 41.4561 31.235 41.4561C30.8275 41.4561 30.4958 41.1244 30.4958 40.7169C30.4958 40.5825 30.5323 40.4562 30.5956 40.3477C30.6316 40.317 30.6633 40.2806 30.6883 40.2374C30.694 40.2273 30.6974 40.2162 30.7022 40.2057C30.8366 40.0655 31.0257 39.9777 31.235 39.9777C31.6425 39.9777 31.9742 40.3103 31.9742 40.7174ZM38.5075 40.2849C38.448 39.2725 38.1806 38.3159 37.7476 37.4553L39.696 36.3301C40.3171 37.5234 40.6929 38.8641 40.7568 40.2844L38.5075 40.2849ZM39.2635 35.5828L37.3152 36.7079C36.7713 35.8862 36.0662 35.1805 35.2444 34.6372L36.3696 32.6889C37.5302 33.4333 38.519 34.4221 39.2635 35.5828ZM33.4176 12.875V30.5519C33.2601 30.5183 33.1017 30.4881 32.9414 30.4617V12.8764H33.4176V12.875ZM32.0774 11.5021V30.3546C31.92 30.3421 31.7611 30.333 31.6012 30.3273V11.5036H32.0774V11.5021ZM11.8579 9.32343L12.9211 9.18807C13.1064 9.16455 13.2556 9.02439 13.2907 8.84103C13.4246 8.14455 13.6944 7.49319 14.0928 6.90423C14.1974 6.74967 14.1912 6.54519 14.0769 6.39783L13.4208 5.55015L14.1451 4.82535L14.9928 5.48151C15.1406 5.59575 15.3451 5.60247 15.4992 5.49735C16.0876 5.09895 16.739 4.82919 17.4355 4.69527C17.6188 4.66023 17.759 4.51095 17.7825 4.32567L17.9179 3.26247H18.9427L19.078 4.32567C19.1016 4.51095 19.2417 4.66023 19.4251 4.69527C20.1216 4.82919 20.7734 5.09895 21.3614 5.49735C21.516 5.60199 21.7204 5.59575 21.8678 5.48151L22.7155 4.82535L23.4398 5.55015L22.7836 6.39783C22.6694 6.54567 22.6627 6.74967 22.7678 6.90423C23.1662 7.49271 23.436 8.14407 23.5699 8.84055C23.6049 9.02391 23.7542 9.16407 23.9395 9.18759L25.0027 9.32295V10.3477L23.9395 10.4831C23.7542 10.5066 23.6049 10.6468 23.5699 10.8301C23.436 11.5266 23.1662 12.178 22.7678 12.7665C22.6632 12.921 22.6694 13.1255 22.7836 13.2729L23.4398 14.1205L22.7155 14.8449L21.8678 14.1887C21.72 14.0745 21.516 14.0677 21.3614 14.1729C20.7734 14.5713 20.1216 14.841 19.4251 14.9749C19.2417 15.01 19.1016 15.1593 19.078 15.3445L18.9427 16.4077H17.9179L17.7825 15.3445C17.759 15.1593 17.6188 15.01 17.4355 14.9749C16.739 14.841 16.0876 14.5713 15.4992 14.1729C15.3446 14.0682 15.1401 14.0745 14.9928 14.1887L14.1451 14.8449L13.4208 14.1205L14.0769 13.2729C14.1912 13.125 14.1979 12.921 14.0928 12.7665C13.6944 12.178 13.4246 11.5266 13.2907 10.8301C13.2556 10.6468 13.1064 10.5066 12.9211 10.4831L11.8579 10.3477V9.32343ZM9.04173 10.7404V13.0468H6.73533L9.04173 10.7404ZM6.12429 13.9108H9.47373C9.71229 13.9108 9.90573 13.7173 9.90573 13.4788V10.1293H10.9939V10.7284C10.9939 10.9458 11.1556 11.1292 11.3712 11.157L12.5092 11.302C12.6556 11.8967 12.8894 12.4607 13.2067 12.9853L12.5044 13.893C12.3715 14.0649 12.3868 14.3092 12.5404 14.4628L13.8028 15.7252C13.9564 15.8788 14.2008 15.8946 14.3726 15.7612L15.2803 15.0589C15.8049 15.3762 16.3689 15.61 16.9636 15.7564L17.1086 16.8949C17.136 17.1105 17.3198 17.2722 17.5372 17.2722H19.3228C19.5403 17.2722 19.7236 17.1105 19.7515 16.8949L19.8964 15.7564C20.4912 15.61 21.0552 15.3762 21.5798 15.0589L22.4875 15.7612C22.6593 15.8941 22.9036 15.8788 23.0572 15.7252L24.3196 14.4628C24.4732 14.3092 24.4891 14.0649 24.3556 13.893L23.6534 12.9853C23.9707 12.4607 24.2044 11.8967 24.3508 11.302L25.4894 11.157C25.7049 11.1297 25.8667 10.9458 25.8667 10.7284V10.1293H30.7363V30.3325C29.038 30.4127 27.4454 30.9023 26.0544 31.7044C26.0481 31.7078 26.0414 31.7097 26.0352 31.713C26.0275 31.7173 26.0212 31.7236 26.0136 31.7284C24.4555 32.637 23.1537 33.9388 22.2451 35.4969C22.2403 35.5041 22.234 35.5103 22.2297 35.5185C22.2259 35.5247 22.2244 35.5314 22.2211 35.5382C21.4065 36.9498 20.915 38.5703 20.8464 40.2973C20.2176 40.3804 19.7304 40.9185 19.7304 41.5693C19.7304 41.7167 19.7568 41.8578 19.8024 41.9898H6.12525V13.9127L6.12429 13.9108ZM7.46445 42.8533H20.9476C20.9553 42.8533 20.9625 42.8514 20.9702 42.8509C20.9856 42.8514 21.0004 42.8533 21.0153 42.8533H32.0774V43.3621H7.46541L7.46445 42.8533ZM33.4176 44.7349H8.80509V44.2261H32.5104C32.7489 44.2261 32.9424 44.0327 32.9424 43.7941V42.8533H33.4185L33.4176 44.7349ZM41.4537 41.9893H32.206C32.4787 41.781 32.6822 41.4877 32.7772 41.1489H41.4537C41.6856 41.1489 41.8742 41.3375 41.8742 41.5693C41.8742 41.8012 41.6856 41.9893 41.4537 41.9893ZM18.432 14.0893C20.7768 14.0893 22.6838 12.1818 22.6838 9.83751C22.6838 7.49319 20.7763 5.58567 18.432 5.58567C16.0876 5.58567 14.1801 7.49319 14.1801 9.83751C14.1801 12.1818 16.0876 14.0893 18.432 14.0893ZM18.432 6.44919C20.3001 6.44919 21.8198 7.96887 21.8198 9.83703C21.8198 11.7052 20.3001 13.2249 18.432 13.2249C16.5638 13.2249 15.0441 11.7052 15.0441 9.83703C15.0441 7.96887 16.5638 6.44919 18.432 6.44919Z"/>
</mask>
<path d="M10.0142 23.3548H13.4265C13.6651 23.3548 13.8585 23.1613 13.8585 22.9228V19.5105C13.8585 19.2719 13.6651 19.0785 13.4265 19.0785H10.0142C9.77565 19.0785 9.58221 19.2719 9.58221 19.5105V22.9228C9.58221 23.1613 9.77565 23.3548 10.0142 23.3548ZM10.4462 19.9425H12.9945V22.4908H10.4462V19.9425ZM15.3835 20.4105C15.3835 20.1719 15.5769 19.9785 15.8155 19.9785H21.6144C21.8529 19.9785 22.0464 20.1719 22.0464 20.4105C22.0464 20.649 21.8529 20.8425 21.6144 20.8425H15.8155C15.5769 20.8425 15.3835 20.649 15.3835 20.4105ZM15.3835 22.0223C15.3835 21.7838 15.5769 21.5903 15.8155 21.5903H24.514C24.7526 21.5903 24.946 21.7838 24.946 22.0223C24.946 22.2609 24.7526 22.4543 24.514 22.4543H15.8155C15.5769 22.4543 15.3835 22.2609 15.3835 22.0223ZM10.0142 29.9044H13.4265C13.6651 29.9044 13.8585 29.7109 13.8585 29.4724V26.0601C13.8585 25.8215 13.6651 25.6281 13.4265 25.6281H10.0142C9.77565 25.6281 9.58221 25.8215 9.58221 26.0601V29.4724C9.58221 29.7109 9.77565 29.9044 10.0142 29.9044ZM10.4462 26.4921H12.9945V29.0404H10.4462V26.4921ZM15.3835 26.9601C15.3835 26.7215 15.5769 26.5281 15.8155 26.5281H21.6144C21.8529 26.5281 22.0464 26.7215 22.0464 26.9601C22.0464 27.1986 21.8529 27.3921 21.6144 27.3921H15.8155C15.5769 27.3921 15.3835 27.1986 15.3835 26.9601ZM15.3835 28.5719C15.3835 28.3333 15.5769 28.1399 15.8155 28.1399H24.514C24.7526 28.1399 24.946 28.3333 24.946 28.5719C24.946 28.8105 24.7526 29.0039 24.514 29.0039H15.8155C15.5769 29.0039 15.3835 28.8105 15.3835 28.5719ZM10.0142 36.454H13.4265C13.6651 36.454 13.8585 36.2605 13.8585 36.022V32.6097C13.8585 32.3711 13.6651 32.1777 13.4265 32.1777H10.0142C9.77565 32.1777 9.58221 32.3711 9.58221 32.6097V36.022C9.58221 36.2605 9.77565 36.454 10.0142 36.454ZM10.4462 33.0417H12.9945V35.59H10.4462V33.0417ZM15.3835 33.5097C15.3835 33.2711 15.5769 33.0777 15.8155 33.0777H21.6144C21.8529 33.0777 22.0464 33.2711 22.0464 33.5097C22.0464 33.7482 21.8529 33.9417 21.6144 33.9417H15.8155C15.5769 33.9417 15.3835 33.7482 15.3835 33.5097ZM15.3835 35.1215C15.3835 34.8829 15.5769 34.6895 15.8155 34.6895H21.5428C21.7814 34.6895 21.9748 34.8829 21.9748 35.1215C21.9748 35.3601 21.7814 35.5535 21.5428 35.5535H15.8155C15.5769 35.5535 15.3835 35.3601 15.3835 35.1215ZM12.7329 20.457C12.9014 20.6255 12.9019 20.8991 12.7329 21.0681L11.8276 21.9733C11.7432 22.0578 11.6328 22.1001 11.5224 22.1001C11.412 22.1001 11.3011 22.0578 11.2171 21.9733L10.7083 21.4645C10.5398 21.2961 10.5393 21.0225 10.7083 20.8535C10.8768 20.6845 11.1504 20.685 11.3193 20.8535L11.5228 21.057L12.1224 20.457C12.2913 20.2881 12.564 20.2885 12.7329 20.457ZM12.7329 27.0637C12.9014 27.2322 12.9014 27.5058 12.7329 27.6748L11.8276 28.5801C11.7432 28.6645 11.6328 28.7068 11.5224 28.7068C11.412 28.7068 11.3011 28.6645 11.2171 28.5801L10.7083 28.0713C10.5398 27.9028 10.5393 27.6292 10.7083 27.4602C10.8768 27.2913 11.1504 27.2913 11.3193 27.4602L11.5228 27.6637L12.1228 27.0637C12.2918 26.8953 12.564 26.8953 12.7329 27.0637ZM12.7329 33.6138C12.9014 33.7823 12.9019 34.0559 12.7329 34.2249L11.8276 35.1301C11.7432 35.2146 11.6328 35.2569 11.5224 35.2569C11.412 35.2569 11.3011 35.2146 11.2171 35.1301L10.7083 34.6213C10.5398 34.4529 10.5393 34.1793 10.7083 34.0103C10.8768 33.8413 11.1504 33.8418 11.3193 34.0103L11.5228 34.2138L12.1224 33.6138C12.2913 33.4449 12.564 33.4453 12.7329 33.6138ZM41.6227 40.2973C41.5536 38.5703 41.062 36.9498 40.2475 35.5382C40.2441 35.5319 40.2422 35.5252 40.2388 35.5189C40.2345 35.5113 40.2283 35.505 40.2235 35.4978C39.3148 33.9393 38.0131 32.6375 36.455 31.7289C36.4478 31.7241 36.4416 31.7178 36.4334 31.7135C36.4272 31.7097 36.4204 31.7082 36.4142 31.7049C35.7465 31.3199 35.0323 31.0069 34.2825 30.7765V12.4444C34.2825 12.2058 34.0891 12.0124 33.8505 12.0124H32.9424V11.0716C32.9424 10.833 32.7489 10.6396 32.5104 10.6396H31.6022V9.69879C31.6022 9.46023 31.4088 9.26679 31.1702 9.26679H25.8686V8.94423C25.8686 8.72679 25.7068 8.54343 25.4913 8.51559L24.3528 8.37063C24.2064 7.77591 23.9726 7.21191 23.6553 6.68727L24.3576 5.77959C24.4905 5.60775 24.4752 5.36343 24.3216 5.20983L23.0592 3.94743C22.9056 3.79383 22.6612 3.77847 22.4894 3.91143L21.5817 4.61367C21.0571 4.29639 20.4931 4.06263 19.8984 3.91623L19.7534 2.77767C19.726 2.56215 19.5422 2.40039 19.3248 2.40039H17.5392C17.3217 2.40039 17.1384 2.56215 17.1105 2.77767L16.9656 3.91623C16.3708 4.06263 15.8068 4.29639 15.2822 4.61367L14.3745 3.91143C14.2022 3.77847 13.9584 3.79383 13.8048 3.94743L12.5424 5.20983C12.3888 5.36343 12.3729 5.60775 12.5064 5.77959L13.2086 6.68727C12.8913 7.21191 12.6576 7.77591 12.5112 8.37063L11.3731 8.51559C11.1576 8.54295 10.9958 8.72679 10.9958 8.94423V9.26679H9.47565C9.47565 9.26679 9.47277 9.26679 9.47133 9.26679C9.44445 9.26679 9.41757 9.26967 9.39117 9.27495C9.37821 9.27735 9.36573 9.28263 9.35325 9.28599C9.33885 9.29031 9.32445 9.29367 9.31053 9.29943C9.29613 9.30519 9.28317 9.31335 9.26925 9.32103C9.25821 9.32727 9.24669 9.33207 9.23565 9.33927C9.21309 9.35415 9.19245 9.37143 9.17325 9.39015C9.17229 9.39111 9.17085 9.39207 9.16989 9.39303L5.38845 13.1745C5.38845 13.1745 5.38653 13.1769 5.38557 13.1778C5.36685 13.197 5.34957 13.2177 5.33469 13.2402C5.32749 13.2513 5.32221 13.2633 5.31597 13.2748C5.30877 13.2878 5.30109 13.3007 5.29533 13.3146C5.28909 13.329 5.28573 13.3444 5.28141 13.3593C5.27805 13.3713 5.27325 13.3828 5.27085 13.3953C5.26509 13.4231 5.26221 13.4514 5.26221 13.4802V42.4228C5.26221 42.6613 5.45565 42.8548 5.69421 42.8548H6.60237V43.7956C6.60237 44.0341 6.79581 44.2276 7.03437 44.2276H7.94253V45.1684C7.94253 45.4069 8.13597 45.6004 8.37453 45.6004H33.8515C34.09 45.6004 34.2835 45.4069 34.2835 45.1684V42.8548H41.4556C42.1636 42.8548 42.7401 42.2788 42.7401 41.5703C42.7401 40.9194 42.2529 40.3813 41.6241 40.2983L41.6227 40.2973ZM32.7777 40.2849C32.5886 39.6105 31.9694 39.1137 31.2355 39.1137C30.8539 39.1137 30.503 39.2481 30.2275 39.4717L26.8176 37.5033C26.6107 37.3837 26.3467 37.4548 26.2276 37.6612C26.1081 37.8676 26.1792 38.1321 26.3856 38.2511L29.7264 40.1802C29.7139 40.2148 29.7028 40.2494 29.6928 40.2849H24.8289C25.0521 36.9445 27.839 34.2945 31.2355 34.2945C34.632 34.2945 37.4188 36.9445 37.642 40.2849H32.7777ZM21.0163 41.9893C20.7844 41.9893 20.5958 41.8007 20.5958 41.5689C20.5958 41.337 20.7844 41.1484 21.0163 41.1484H29.6928C29.7878 41.4873 29.9913 41.7805 30.264 41.9889L21.0163 41.9893ZM26.1009 32.6884L27.226 34.6367C26.4043 35.1805 25.6987 35.8857 25.1553 36.7074L23.207 35.5823C23.9515 34.4217 24.9403 33.4329 26.1009 32.6884ZM35.6212 32.2554L34.4961 34.2038C33.6355 33.7713 32.6788 33.5034 31.6665 33.4439V31.1941C33.0868 31.258 34.428 31.6343 35.6212 32.2554ZM30.803 31.1946V33.4444C29.7907 33.5039 28.834 33.7713 27.9734 34.2042L26.8483 32.2559C28.0416 31.6348 29.3827 31.2585 30.803 31.1946ZM22.7736 36.3306L24.7219 37.4557C24.2894 38.3164 24.0216 39.273 23.962 40.2853H21.7123C21.7761 38.865 22.1524 37.5239 22.7736 36.3306ZM31.9742 40.7174C31.9742 41.1249 31.6425 41.4561 31.235 41.4561C30.8275 41.4561 30.4958 41.1244 30.4958 40.7169C30.4958 40.5825 30.5323 40.4562 30.5956 40.3477C30.6316 40.317 30.6633 40.2806 30.6883 40.2374C30.694 40.2273 30.6974 40.2162 30.7022 40.2057C30.8366 40.0655 31.0257 39.9777 31.235 39.9777C31.6425 39.9777 31.9742 40.3103 31.9742 40.7174ZM38.5075 40.2849C38.448 39.2725 38.1806 38.3159 37.7476 37.4553L39.696 36.3301C40.3171 37.5234 40.6929 38.8641 40.7568 40.2844L38.5075 40.2849ZM39.2635 35.5828L37.3152 36.7079C36.7713 35.8862 36.0662 35.1805 35.2444 34.6372L36.3696 32.6889C37.5302 33.4333 38.519 34.4221 39.2635 35.5828ZM33.4176 12.875V30.5519C33.2601 30.5183 33.1017 30.4881 32.9414 30.4617V12.8764H33.4176V12.875ZM32.0774 11.5021V30.3546C31.92 30.3421 31.7611 30.333 31.6012 30.3273V11.5036H32.0774V11.5021ZM11.8579 9.32343L12.9211 9.18807C13.1064 9.16455 13.2556 9.02439 13.2907 8.84103C13.4246 8.14455 13.6944 7.49319 14.0928 6.90423C14.1974 6.74967 14.1912 6.54519 14.0769 6.39783L13.4208 5.55015L14.1451 4.82535L14.9928 5.48151C15.1406 5.59575 15.3451 5.60247 15.4992 5.49735C16.0876 5.09895 16.739 4.82919 17.4355 4.69527C17.6188 4.66023 17.759 4.51095 17.7825 4.32567L17.9179 3.26247H18.9427L19.078 4.32567C19.1016 4.51095 19.2417 4.66023 19.4251 4.69527C20.1216 4.82919 20.7734 5.09895 21.3614 5.49735C21.516 5.60199 21.7204 5.59575 21.8678 5.48151L22.7155 4.82535L23.4398 5.55015L22.7836 6.39783C22.6694 6.54567 22.6627 6.74967 22.7678 6.90423C23.1662 7.49271 23.436 8.14407 23.5699 8.84055C23.6049 9.02391 23.7542 9.16407 23.9395 9.18759L25.0027 9.32295V10.3477L23.9395 10.4831C23.7542 10.5066 23.6049 10.6468 23.5699 10.8301C23.436 11.5266 23.1662 12.178 22.7678 12.7665C22.6632 12.921 22.6694 13.1255 22.7836 13.2729L23.4398 14.1205L22.7155 14.8449L21.8678 14.1887C21.72 14.0745 21.516 14.0677 21.3614 14.1729C20.7734 14.5713 20.1216 14.841 19.4251 14.9749C19.2417 15.01 19.1016 15.1593 19.078 15.3445L18.9427 16.4077H17.9179L17.7825 15.3445C17.759 15.1593 17.6188 15.01 17.4355 14.9749C16.739 14.841 16.0876 14.5713 15.4992 14.1729C15.3446 14.0682 15.1401 14.0745 14.9928 14.1887L14.1451 14.8449L13.4208 14.1205L14.0769 13.2729C14.1912 13.125 14.1979 12.921 14.0928 12.7665C13.6944 12.178 13.4246 11.5266 13.2907 10.8301C13.2556 10.6468 13.1064 10.5066 12.9211 10.4831L11.8579 10.3477V9.32343ZM9.04173 10.7404V13.0468H6.73533L9.04173 10.7404ZM6.12429 13.9108H9.47373C9.71229 13.9108 9.90573 13.7173 9.90573 13.4788V10.1293H10.9939V10.7284C10.9939 10.9458 11.1556 11.1292 11.3712 11.157L12.5092 11.302C12.6556 11.8967 12.8894 12.4607 13.2067 12.9853L12.5044 13.893C12.3715 14.0649 12.3868 14.3092 12.5404 14.4628L13.8028 15.7252C13.9564 15.8788 14.2008 15.8946 14.3726 15.7612L15.2803 15.0589C15.8049 15.3762 16.3689 15.61 16.9636 15.7564L17.1086 16.8949C17.136 17.1105 17.3198 17.2722 17.5372 17.2722H19.3228C19.5403 17.2722 19.7236 17.1105 19.7515 16.8949L19.8964 15.7564C20.4912 15.61 21.0552 15.3762 21.5798 15.0589L22.4875 15.7612C22.6593 15.8941 22.9036 15.8788 23.0572 15.7252L24.3196 14.4628C24.4732 14.3092 24.4891 14.0649 24.3556 13.893L23.6534 12.9853C23.9707 12.4607 24.2044 11.8967 24.3508 11.302L25.4894 11.157C25.7049 11.1297 25.8667 10.9458 25.8667 10.7284V10.1293H30.7363V30.3325C29.038 30.4127 27.4454 30.9023 26.0544 31.7044C26.0481 31.7078 26.0414 31.7097 26.0352 31.713C26.0275 31.7173 26.0212 31.7236 26.0136 31.7284C24.4555 32.637 23.1537 33.9388 22.2451 35.4969C22.2403 35.5041 22.234 35.5103 22.2297 35.5185C22.2259 35.5247 22.2244 35.5314 22.2211 35.5382C21.4065 36.9498 20.915 38.5703 20.8464 40.2973C20.2176 40.3804 19.7304 40.9185 19.7304 41.5693C19.7304 41.7167 19.7568 41.8578 19.8024 41.9898H6.12525V13.9127L6.12429 13.9108ZM7.46445 42.8533H20.9476C20.9553 42.8533 20.9625 42.8514 20.9702 42.8509C20.9856 42.8514 21.0004 42.8533 21.0153 42.8533H32.0774V43.3621H7.46541L7.46445 42.8533ZM33.4176 44.7349H8.80509V44.2261H32.5104C32.7489 44.2261 32.9424 44.0327 32.9424 43.7941V42.8533H33.4185L33.4176 44.7349ZM41.4537 41.9893H32.206C32.4787 41.781 32.6822 41.4877 32.7772 41.1489H41.4537C41.6856 41.1489 41.8742 41.3375 41.8742 41.5693C41.8742 41.8012 41.6856 41.9893 41.4537 41.9893ZM18.432 14.0893C20.7768 14.0893 22.6838 12.1818 22.6838 9.83751C22.6838 7.49319 20.7763 5.58567 18.432 5.58567C16.0876 5.58567 14.1801 7.49319 14.1801 9.83751C14.1801 12.1818 16.0876 14.0893 18.432 14.0893ZM18.432 6.44919C20.3001 6.44919 21.8198 7.96887 21.8198 9.83703C21.8198 11.7052 20.3001 13.2249 18.432 13.2249C16.5638 13.2249 15.0441 11.7052 15.0441 9.83703C15.0441 7.96887 16.5638 6.44919 18.432 6.44919Z" fill="url(#paint0_linear_6369_331)"/>
<path d="M10.0142 23.3548H13.4265C13.6651 23.3548 13.8585 23.1613 13.8585 22.9228V19.5105C13.8585 19.2719 13.6651 19.0785 13.4265 19.0785H10.0142C9.77565 19.0785 9.58221 19.2719 9.58221 19.5105V22.9228C9.58221 23.1613 9.77565 23.3548 10.0142 23.3548ZM10.4462 19.9425H12.9945V22.4908H10.4462V19.9425ZM15.3835 20.4105C15.3835 20.1719 15.5769 19.9785 15.8155 19.9785H21.6144C21.8529 19.9785 22.0464 20.1719 22.0464 20.4105C22.0464 20.649 21.8529 20.8425 21.6144 20.8425H15.8155C15.5769 20.8425 15.3835 20.649 15.3835 20.4105ZM15.3835 22.0223C15.3835 21.7838 15.5769 21.5903 15.8155 21.5903H24.514C24.7526 21.5903 24.946 21.7838 24.946 22.0223C24.946 22.2609 24.7526 22.4543 24.514 22.4543H15.8155C15.5769 22.4543 15.3835 22.2609 15.3835 22.0223ZM10.0142 29.9044H13.4265C13.6651 29.9044 13.8585 29.7109 13.8585 29.4724V26.0601C13.8585 25.8215 13.6651 25.6281 13.4265 25.6281H10.0142C9.77565 25.6281 9.58221 25.8215 9.58221 26.0601V29.4724C9.58221 29.7109 9.77565 29.9044 10.0142 29.9044ZM10.4462 26.4921H12.9945V29.0404H10.4462V26.4921ZM15.3835 26.9601C15.3835 26.7215 15.5769 26.5281 15.8155 26.5281H21.6144C21.8529 26.5281 22.0464 26.7215 22.0464 26.9601C22.0464 27.1986 21.8529 27.3921 21.6144 27.3921H15.8155C15.5769 27.3921 15.3835 27.1986 15.3835 26.9601ZM15.3835 28.5719C15.3835 28.3333 15.5769 28.1399 15.8155 28.1399H24.514C24.7526 28.1399 24.946 28.3333 24.946 28.5719C24.946 28.8105 24.7526 29.0039 24.514 29.0039H15.8155C15.5769 29.0039 15.3835 28.8105 15.3835 28.5719ZM10.0142 36.454H13.4265C13.6651 36.454 13.8585 36.2605 13.8585 36.022V32.6097C13.8585 32.3711 13.6651 32.1777 13.4265 32.1777H10.0142C9.77565 32.1777 9.58221 32.3711 9.58221 32.6097V36.022C9.58221 36.2605 9.77565 36.454 10.0142 36.454ZM10.4462 33.0417H12.9945V35.59H10.4462V33.0417ZM15.3835 33.5097C15.3835 33.2711 15.5769 33.0777 15.8155 33.0777H21.6144C21.8529 33.0777 22.0464 33.2711 22.0464 33.5097C22.0464 33.7482 21.8529 33.9417 21.6144 33.9417H15.8155C15.5769 33.9417 15.3835 33.7482 15.3835 33.5097ZM15.3835 35.1215C15.3835 34.8829 15.5769 34.6895 15.8155 34.6895H21.5428C21.7814 34.6895 21.9748 34.8829 21.9748 35.1215C21.9748 35.3601 21.7814 35.5535 21.5428 35.5535H15.8155C15.5769 35.5535 15.3835 35.3601 15.3835 35.1215ZM12.7329 20.457C12.9014 20.6255 12.9019 20.8991 12.7329 21.0681L11.8276 21.9733C11.7432 22.0578 11.6328 22.1001 11.5224 22.1001C11.412 22.1001 11.3011 22.0578 11.2171 21.9733L10.7083 21.4645C10.5398 21.2961 10.5393 21.0225 10.7083 20.8535C10.8768 20.6845 11.1504 20.685 11.3193 20.8535L11.5228 21.057L12.1224 20.457C12.2913 20.2881 12.564 20.2885 12.7329 20.457ZM12.7329 27.0637C12.9014 27.2322 12.9014 27.5058 12.7329 27.6748L11.8276 28.5801C11.7432 28.6645 11.6328 28.7068 11.5224 28.7068C11.412 28.7068 11.3011 28.6645 11.2171 28.5801L10.7083 28.0713C10.5398 27.9028 10.5393 27.6292 10.7083 27.4602C10.8768 27.2913 11.1504 27.2913 11.3193 27.4602L11.5228 27.6637L12.1228 27.0637C12.2918 26.8953 12.564 26.8953 12.7329 27.0637ZM12.7329 33.6138C12.9014 33.7823 12.9019 34.0559 12.7329 34.2249L11.8276 35.1301C11.7432 35.2146 11.6328 35.2569 11.5224 35.2569C11.412 35.2569 11.3011 35.2146 11.2171 35.1301L10.7083 34.6213C10.5398 34.4529 10.5393 34.1793 10.7083 34.0103C10.8768 33.8413 11.1504 33.8418 11.3193 34.0103L11.5228 34.2138L12.1224 33.6138C12.2913 33.4449 12.564 33.4453 12.7329 33.6138ZM41.6227 40.2973C41.5536 38.5703 41.062 36.9498 40.2475 35.5382C40.2441 35.5319 40.2422 35.5252 40.2388 35.5189C40.2345 35.5113 40.2283 35.505 40.2235 35.4978C39.3148 33.9393 38.0131 32.6375 36.455 31.7289C36.4478 31.7241 36.4416 31.7178 36.4334 31.7135C36.4272 31.7097 36.4204 31.7082 36.4142 31.7049C35.7465 31.3199 35.0323 31.0069 34.2825 30.7765V12.4444C34.2825 12.2058 34.0891 12.0124 33.8505 12.0124H32.9424V11.0716C32.9424 10.833 32.7489 10.6396 32.5104 10.6396H31.6022V9.69879C31.6022 9.46023 31.4088 9.26679 31.1702 9.26679H25.8686V8.94423C25.8686 8.72679 25.7068 8.54343 25.4913 8.51559L24.3528 8.37063C24.2064 7.77591 23.9726 7.21191 23.6553 6.68727L24.3576 5.77959C24.4905 5.60775 24.4752 5.36343 24.3216 5.20983L23.0592 3.94743C22.9056 3.79383 22.6612 3.77847 22.4894 3.91143L21.5817 4.61367C21.0571 4.29639 20.4931 4.06263 19.8984 3.91623L19.7534 2.77767C19.726 2.56215 19.5422 2.40039 19.3248 2.40039H17.5392C17.3217 2.40039 17.1384 2.56215 17.1105 2.77767L16.9656 3.91623C16.3708 4.06263 15.8068 4.29639 15.2822 4.61367L14.3745 3.91143C14.2022 3.77847 13.9584 3.79383 13.8048 3.94743L12.5424 5.20983C12.3888 5.36343 12.3729 5.60775 12.5064 5.77959L13.2086 6.68727C12.8913 7.21191 12.6576 7.77591 12.5112 8.37063L11.3731 8.51559C11.1576 8.54295 10.9958 8.72679 10.9958 8.94423V9.26679H9.47565C9.47565 9.26679 9.47277 9.26679 9.47133 9.26679C9.44445 9.26679 9.41757 9.26967 9.39117 9.27495C9.37821 9.27735 9.36573 9.28263 9.35325 9.28599C9.33885 9.29031 9.32445 9.29367 9.31053 9.29943C9.29613 9.30519 9.28317 9.31335 9.26925 9.32103C9.25821 9.32727 9.24669 9.33207 9.23565 9.33927C9.21309 9.35415 9.19245 9.37143 9.17325 9.39015C9.17229 9.39111 9.17085 9.39207 9.16989 9.39303L5.38845 13.1745C5.38845 13.1745 5.38653 13.1769 5.38557 13.1778C5.36685 13.197 5.34957 13.2177 5.33469 13.2402C5.32749 13.2513 5.32221 13.2633 5.31597 13.2748C5.30877 13.2878 5.30109 13.3007 5.29533 13.3146C5.28909 13.329 5.28573 13.3444 5.28141 13.3593C5.27805 13.3713 5.27325 13.3828 5.27085 13.3953C5.26509 13.4231 5.26221 13.4514 5.26221 13.4802V42.4228C5.26221 42.6613 5.45565 42.8548 5.69421 42.8548H6.60237V43.7956C6.60237 44.0341 6.79581 44.2276 7.03437 44.2276H7.94253V45.1684C7.94253 45.4069 8.13597 45.6004 8.37453 45.6004H33.8515C34.09 45.6004 34.2835 45.4069 34.2835 45.1684V42.8548H41.4556C42.1636 42.8548 42.7401 42.2788 42.7401 41.5703C42.7401 40.9194 42.2529 40.3813 41.6241 40.2983L41.6227 40.2973ZM32.7777 40.2849C32.5886 39.6105 31.9694 39.1137 31.2355 39.1137C30.8539 39.1137 30.503 39.2481 30.2275 39.4717L26.8176 37.5033C26.6107 37.3837 26.3467 37.4548 26.2276 37.6612C26.1081 37.8676 26.1792 38.1321 26.3856 38.2511L29.7264 40.1802C29.7139 40.2148 29.7028 40.2494 29.6928 40.2849H24.8289C25.0521 36.9445 27.839 34.2945 31.2355 34.2945C34.632 34.2945 37.4188 36.9445 37.642 40.2849H32.7777ZM21.0163 41.9893C20.7844 41.9893 20.5958 41.8007 20.5958 41.5689C20.5958 41.337 20.7844 41.1484 21.0163 41.1484H29.6928C29.7878 41.4873 29.9913 41.7805 30.264 41.9889L21.0163 41.9893ZM26.1009 32.6884L27.226 34.6367C26.4043 35.1805 25.6987 35.8857 25.1553 36.7074L23.207 35.5823C23.9515 34.4217 24.9403 33.4329 26.1009 32.6884ZM35.6212 32.2554L34.4961 34.2038C33.6355 33.7713 32.6788 33.5034 31.6665 33.4439V31.1941C33.0868 31.258 34.428 31.6343 35.6212 32.2554ZM30.803 31.1946V33.4444C29.7907 33.5039 28.834 33.7713 27.9734 34.2042L26.8483 32.2559C28.0416 31.6348 29.3827 31.2585 30.803 31.1946ZM22.7736 36.3306L24.7219 37.4557C24.2894 38.3164 24.0216 39.273 23.962 40.2853H21.7123C21.7761 38.865 22.1524 37.5239 22.7736 36.3306ZM31.9742 40.7174C31.9742 41.1249 31.6425 41.4561 31.235 41.4561C30.8275 41.4561 30.4958 41.1244 30.4958 40.7169C30.4958 40.5825 30.5323 40.4562 30.5956 40.3477C30.6316 40.317 30.6633 40.2806 30.6883 40.2374C30.694 40.2273 30.6974 40.2162 30.7022 40.2057C30.8366 40.0655 31.0257 39.9777 31.235 39.9777C31.6425 39.9777 31.9742 40.3103 31.9742 40.7174ZM38.5075 40.2849C38.448 39.2725 38.1806 38.3159 37.7476 37.4553L39.696 36.3301C40.3171 37.5234 40.6929 38.8641 40.7568 40.2844L38.5075 40.2849ZM39.2635 35.5828L37.3152 36.7079C36.7713 35.8862 36.0662 35.1805 35.2444 34.6372L36.3696 32.6889C37.5302 33.4333 38.519 34.4221 39.2635 35.5828ZM33.4176 12.875V30.5519C33.2601 30.5183 33.1017 30.4881 32.9414 30.4617V12.8764H33.4176V12.875ZM32.0774 11.5021V30.3546C31.92 30.3421 31.7611 30.333 31.6012 30.3273V11.5036H32.0774V11.5021ZM11.8579 9.32343L12.9211 9.18807C13.1064 9.16455 13.2556 9.02439 13.2907 8.84103C13.4246 8.14455 13.6944 7.49319 14.0928 6.90423C14.1974 6.74967 14.1912 6.54519 14.0769 6.39783L13.4208 5.55015L14.1451 4.82535L14.9928 5.48151C15.1406 5.59575 15.3451 5.60247 15.4992 5.49735C16.0876 5.09895 16.739 4.82919 17.4355 4.69527C17.6188 4.66023 17.759 4.51095 17.7825 4.32567L17.9179 3.26247H18.9427L19.078 4.32567C19.1016 4.51095 19.2417 4.66023 19.4251 4.69527C20.1216 4.82919 20.7734 5.09895 21.3614 5.49735C21.516 5.60199 21.7204 5.59575 21.8678 5.48151L22.7155 4.82535L23.4398 5.55015L22.7836 6.39783C22.6694 6.54567 22.6627 6.74967 22.7678 6.90423C23.1662 7.49271 23.436 8.14407 23.5699 8.84055C23.6049 9.02391 23.7542 9.16407 23.9395 9.18759L25.0027 9.32295V10.3477L23.9395 10.4831C23.7542 10.5066 23.6049 10.6468 23.5699 10.8301C23.436 11.5266 23.1662 12.178 22.7678 12.7665C22.6632 12.921 22.6694 13.1255 22.7836 13.2729L23.4398 14.1205L22.7155 14.8449L21.8678 14.1887C21.72 14.0745 21.516 14.0677 21.3614 14.1729C20.7734 14.5713 20.1216 14.841 19.4251 14.9749C19.2417 15.01 19.1016 15.1593 19.078 15.3445L18.9427 16.4077H17.9179L17.7825 15.3445C17.759 15.1593 17.6188 15.01 17.4355 14.9749C16.739 14.841 16.0876 14.5713 15.4992 14.1729C15.3446 14.0682 15.1401 14.0745 14.9928 14.1887L14.1451 14.8449L13.4208 14.1205L14.0769 13.2729C14.1912 13.125 14.1979 12.921 14.0928 12.7665C13.6944 12.178 13.4246 11.5266 13.2907 10.8301C13.2556 10.6468 13.1064 10.5066 12.9211 10.4831L11.8579 10.3477V9.32343ZM9.04173 10.7404V13.0468H6.73533L9.04173 10.7404ZM6.12429 13.9108H9.47373C9.71229 13.9108 9.90573 13.7173 9.90573 13.4788V10.1293H10.9939V10.7284C10.9939 10.9458 11.1556 11.1292 11.3712 11.157L12.5092 11.302C12.6556 11.8967 12.8894 12.4607 13.2067 12.9853L12.5044 13.893C12.3715 14.0649 12.3868 14.3092 12.5404 14.4628L13.8028 15.7252C13.9564 15.8788 14.2008 15.8946 14.3726 15.7612L15.2803 15.0589C15.8049 15.3762 16.3689 15.61 16.9636 15.7564L17.1086 16.8949C17.136 17.1105 17.3198 17.2722 17.5372 17.2722H19.3228C19.5403 17.2722 19.7236 17.1105 19.7515 16.8949L19.8964 15.7564C20.4912 15.61 21.0552 15.3762 21.5798 15.0589L22.4875 15.7612C22.6593 15.8941 22.9036 15.8788 23.0572 15.7252L24.3196 14.4628C24.4732 14.3092 24.4891 14.0649 24.3556 13.893L23.6534 12.9853C23.9707 12.4607 24.2044 11.8967 24.3508 11.302L25.4894 11.157C25.7049 11.1297 25.8667 10.9458 25.8667 10.7284V10.1293H30.7363V30.3325C29.038 30.4127 27.4454 30.9023 26.0544 31.7044C26.0481 31.7078 26.0414 31.7097 26.0352 31.713C26.0275 31.7173 26.0212 31.7236 26.0136 31.7284C24.4555 32.637 23.1537 33.9388 22.2451 35.4969C22.2403 35.5041 22.234 35.5103 22.2297 35.5185C22.2259 35.5247 22.2244 35.5314 22.2211 35.5382C21.4065 36.9498 20.915 38.5703 20.8464 40.2973C20.2176 40.3804 19.7304 40.9185 19.7304 41.5693C19.7304 41.7167 19.7568 41.8578 19.8024 41.9898H6.12525V13.9127L6.12429 13.9108ZM7.46445 42.8533H20.9476C20.9553 42.8533 20.9625 42.8514 20.9702 42.8509C20.9856 42.8514 21.0004 42.8533 21.0153 42.8533H32.0774V43.3621H7.46541L7.46445 42.8533ZM33.4176 44.7349H8.80509V44.2261H32.5104C32.7489 44.2261 32.9424 44.0327 32.9424 43.7941V42.8533H33.4185L33.4176 44.7349ZM41.4537 41.9893H32.206C32.4787 41.781 32.6822 41.4877 32.7772 41.1489H41.4537C41.6856 41.1489 41.8742 41.3375 41.8742 41.5693C41.8742 41.8012 41.6856 41.9893 41.4537 41.9893ZM18.432 14.0893C20.7768 14.0893 22.6838 12.1818 22.6838 9.83751C22.6838 7.49319 20.7763 5.58567 18.432 5.58567C16.0876 5.58567 14.1801 7.49319 14.1801 9.83751C14.1801 12.1818 16.0876 14.0893 18.432 14.0893ZM18.432 6.44919C20.3001 6.44919 21.8198 7.96887 21.8198 9.83703C21.8198 11.7052 20.3001 13.2249 18.432 13.2249C16.5638 13.2249 15.0441 11.7052 15.0441 9.83703C15.0441 7.96887 16.5638 6.44919 18.432 6.44919Z" stroke="url(#paint1_linear_6369_331)" stroke-width="0.4" mask="url(#path-1-outside-1_6369_331)"/>
<defs>
<linearGradient id="paint0_linear_6369_331" x1="24.0012" y1="2.40039" x2="24.0012" y2="45.6004" gradientUnits="userSpaceOnUse">
<stop stop-color="#B89405"/>
<stop offset="0.385" stop-color="#B7A24E"/>
<stop offset="0.965" stop-color="#524202"/>
</linearGradient>
<linearGradient id="paint1_linear_6369_331" x1="24.0012" y1="2.40039" x2="24.0012" y2="45.6004" gradientUnits="userSpaceOnUse">
<stop stop-color="#B89405"/>
<stop offset="0.385" stop-color="#B7A24E"/>
<stop offset="0.965" stop-color="#524202"/>
</linearGradient>
</defs>
</svg>
