<svg width="45" height="45" viewBox="0 0 45 45" fill="none" xmlns="http://www.w3.org/2000/svg">
<path d="M16.6078 22.2129H17.6713C18.4834 22.2129 19.1426 22.8739 19.1426 23.6842C19.1426 24.0727 19.4572 24.3873 19.8457 24.3873C20.2342 24.3873 20.5488 24.0727 20.5488 23.6842C20.5488 22.1549 19.3482 20.9139 17.8418 20.8242V19.5586C17.8418 19.1701 17.5271 18.8555 17.1387 18.8555C16.7502 18.8555 16.4355 19.1701 16.4355 19.5586V20.8242C14.9291 20.9156 13.7285 22.1566 13.7285 23.6842C13.7285 25.2715 15.0188 26.5617 16.606 26.5617H17.6695C18.4816 26.5617 19.1408 27.2227 19.1408 28.033C19.1408 28.8451 18.4798 29.5043 17.6695 29.5043H16.606C15.7939 29.5043 15.1348 28.8433 15.1348 28.033C15.1348 27.6445 14.8201 27.3299 14.4316 27.3299C14.0432 27.3299 13.7285 27.6445 13.7285 28.033C13.7285 29.5605 14.9291 30.8033 16.4355 30.893V32.1586C16.4355 32.5471 16.7502 32.8617 17.1387 32.8617C17.5271 32.8617 17.8418 32.5471 17.8418 32.1586V30.893C19.3483 30.8016 20.5488 29.5606 20.5488 28.033C20.5488 26.4457 19.2586 25.1555 17.6713 25.1555H16.6078C15.7957 25.1555 15.1365 24.4945 15.1365 23.6842C15.1365 22.8721 15.7975 22.2129 16.6078 22.2129Z" fill="url(#paint0_linear_6369_318)"/>
<path d="M33.2435 22.4188C32.6898 22.4188 32.1501 22.475 31.6193 22.5594C29.7085 17.4001 25.889 13.1584 21.614 11.4291L25.1296 6.20684C25.5128 5.58634 25.5655 4.84982 25.2737 4.1836C24.9714 3.49631 24.3351 2.99708 23.5704 2.85119C23.0307 2.74572 22.4682 2.76682 21.9005 2.90744C20.7931 3.17287 20.4432 2.9883 19.8227 2.6297C19.2426 2.29572 18.522 1.88086 17.1421 1.88086C15.7622 1.88086 15.038 2.29746 14.4579 2.63146C13.8603 2.97599 13.5017 3.18343 12.396 2.9092C11.8195 2.76506 11.2534 2.74747 10.7138 2.85119C9.95091 2.99884 9.31457 3.49631 9.01226 4.18359C8.72046 4.84806 8.7732 5.58458 9.17046 6.2297L12.672 11.4416C6.38415 13.9746 1.40625 21.6845 1.40625 29.1428C1.40625 34.4303 4.13438 40.7303 17.1315 40.7303C20.3905 40.7303 23.1786 40.3295 25.4389 39.5473C27.3374 41.7305 30.1288 43.1192 33.2437 43.1192C38.9515 43.1192 43.5938 38.4752 43.5938 32.7692C43.5938 27.0632 38.9497 22.4192 33.2437 22.4192L33.2435 22.4188ZM10.2971 4.74727C10.4149 4.48008 10.6627 4.292 10.9774 4.23048C11.3149 4.16545 11.6787 4.17951 12.0549 4.27267C13.7107 4.68224 14.4789 4.23752 15.1574 3.84728C15.6584 3.559 16.133 3.28478 17.1384 3.28478C18.1439 3.28478 18.615 3.55724 19.116 3.84728C19.791 4.23576 20.5662 4.67168 22.2308 4.27267C22.6052 4.17951 22.9638 4.16545 23.2996 4.23048C23.616 4.29201 23.8656 4.4801 23.9816 4.74727C24.0414 4.88613 24.1152 5.16211 23.9447 5.44337L20.1513 11.0787H14.1186L10.3481 5.46767C10.1618 5.16532 10.2356 4.88758 10.2954 4.7487L10.2971 4.74727ZM17.1317 39.3235C7.62904 39.3235 2.81269 35.8975 2.81269 29.1422C2.81269 22.0723 7.85764 14.4767 13.8552 12.485H15.033L14.0345 14.0372C13.8236 14.3641 13.9185 14.7983 14.2455 15.0092C14.3632 15.0848 14.4951 15.1217 14.6251 15.1217C14.8572 15.1217 15.0822 15.0075 15.2175 14.8001L16.7064 12.4868H17.5713L19.0601 14.8001C19.1937 15.0092 19.4205 15.1217 19.6525 15.1217C19.7826 15.1217 19.9144 15.0866 20.0322 15.0092C20.3591 14.7983 20.4523 14.3641 20.2431 14.0372L19.2447 12.485H20.4171C24.5515 13.8544 28.3344 17.8778 30.2343 22.8683C25.991 24.1603 22.8939 28.1086 22.8939 32.7683C22.8939 34.8302 23.5074 36.7498 24.5516 38.3654C22.516 39.0018 20.0268 39.3234 17.1338 39.3234L17.1317 39.3235ZM33.2439 41.7123C28.3115 41.7123 24.3002 37.701 24.3002 32.7686C24.3002 27.8361 28.3115 23.8248 33.2439 23.8248C38.1763 23.8248 42.1877 27.8362 42.1877 32.7686C42.1877 37.701 38.1763 41.7123 33.2439 41.7123Z" fill="url(#paint1_linear_6369_318)"/>
<path d="M36.749 14.8404C36.9283 14.8404 37.1093 14.7719 37.2465 14.6348L39.3154 12.5658C39.5897 12.2916 39.5897 11.8468 39.3154 11.5709C39.0412 11.2967 38.5965 11.2967 38.3205 11.5709L36.2516 13.6399C35.9773 13.9141 35.9773 14.3588 36.2516 14.6348C36.3887 14.7719 36.5679 14.8404 36.749 14.8404Z" fill="url(#paint2_linear_6369_318)"/>
<path d="M37.248 17.043C37.248 17.4314 37.5627 17.7461 37.9512 17.7461H40.8762C41.2646 17.7461 41.5793 17.4314 41.5793 17.043C41.5793 16.6545 41.2646 16.3398 40.8762 16.3398H37.9512C37.5627 16.3398 37.248 16.6545 37.248 17.043Z" fill="url(#paint3_linear_6369_318)"/>
<path d="M33.8433 13.6379C34.2317 13.6379 34.5464 13.3232 34.5464 12.9348V10.0098C34.5464 9.62129 34.2317 9.30664 33.8433 9.30664C33.4548 9.30664 33.1401 9.62129 33.1401 10.0098V12.9348C33.1401 13.3232 33.4548 13.6379 33.8433 13.6379Z" fill="url(#paint4_linear_6369_318)"/>
<path d="M33.4712 39.6006C30.998 39.6006 28.7132 38.2812 27.4781 36.1402C26.2404 33.9969 26.2404 31.358 27.4781 29.2171C27.6084 28.9914 27.8341 28.8401 28.09 28.8075C28.3459 28.775 28.6042 28.8611 28.788 29.0449L37.1057 37.3644C37.2895 37.5459 37.3756 37.8042 37.343 38.0602C37.3105 38.3186 37.1592 38.5443 36.9359 38.6746C35.8819 39.2819 34.688 39.6029 33.4712 39.6006ZM28.469 31.0809V31.0833C27.8757 32.9543 28.3736 35.0021 29.7626 36.3914C31.1516 37.7807 33.199 38.2787 35.0696 37.683L28.469 31.0809Z" fill="url(#paint5_linear_6369_318)"/>
<path d="M38.8506 36.4504C38.6296 36.4504 38.4178 36.362 38.262 36.2061L29.9443 27.8875C29.7605 27.706 29.6744 27.4477 29.707 27.1917C29.7419 26.9334 29.8931 26.7077 30.1164 26.5775C32.8293 25.0115 36.2566 25.4629 38.471 27.6781C40.6883 29.8933 41.1397 33.3207 39.5716 36.0336C39.4436 36.2593 39.2156 36.4106 38.9597 36.4431C38.9225 36.4478 38.8878 36.4504 38.8506 36.4504ZM31.9802 27.5689L38.5879 34.1701C39.1835 32.297 38.6833 30.2471 37.292 28.8579C35.903 27.4688 33.8532 26.9709 31.9802 27.5689Z" fill="url(#paint6_linear_6369_318)"/>
<defs>
<linearGradient id="paint0_linear_6369_318" x1="17.1387" y1="18.8555" x2="17.1387" y2="32.8617" gradientUnits="userSpaceOnUse">
<stop stop-color="#B89405"/>
<stop offset="0.385" stop-color="#B7A24E"/>
<stop offset="0.965" stop-color="#524202"/>
</linearGradient>
<linearGradient id="paint1_linear_6369_318" x1="22.5" y1="1.88086" x2="22.5" y2="43.1192" gradientUnits="userSpaceOnUse">
<stop stop-color="#B89405"/>
<stop offset="0.385" stop-color="#B7A24E"/>
<stop offset="0.965" stop-color="#524202"/>
</linearGradient>
<linearGradient id="paint2_linear_6369_318" x1="37.7835" y1="11.3652" x2="37.7835" y2="14.8404" gradientUnits="userSpaceOnUse">
<stop stop-color="#B89405"/>
<stop offset="0.385" stop-color="#B7A24E"/>
<stop offset="0.965" stop-color="#524202"/>
</linearGradient>
<linearGradient id="paint3_linear_6369_318" x1="39.4137" y1="16.3398" x2="39.4137" y2="17.7461" gradientUnits="userSpaceOnUse">
<stop stop-color="#B89405"/>
<stop offset="0.385" stop-color="#B7A24E"/>
<stop offset="0.965" stop-color="#524202"/>
</linearGradient>
<linearGradient id="paint4_linear_6369_318" x1="33.8433" y1="9.30664" x2="33.8433" y2="13.6379" gradientUnits="userSpaceOnUse">
<stop stop-color="#B89405"/>
<stop offset="0.385" stop-color="#B7A24E"/>
<stop offset="0.965" stop-color="#524202"/>
</linearGradient>
<linearGradient id="paint5_linear_6369_318" x1="31.9498" y1="28.8008" x2="31.9498" y2="39.6006" gradientUnits="userSpaceOnUse">
<stop stop-color="#B89405"/>
<stop offset="0.385" stop-color="#B7A24E"/>
<stop offset="0.965" stop-color="#524202"/>
</linearGradient>
<linearGradient id="paint6_linear_6369_318" x1="35.1002" y1="25.6504" x2="35.1002" y2="36.4504" gradientUnits="userSpaceOnUse">
<stop stop-color="#B89405"/>
<stop offset="0.385" stop-color="#B7A24E"/>
<stop offset="0.965" stop-color="#524202"/>
</linearGradient>
</defs>
</svg>
