<svg width="83" height="83" viewBox="0 0 83 83" fill="none" xmlns="http://www.w3.org/2000/svg">
<path d="M8.05493 15.1387C8.05493 34.4786 8.05493 53.8185 8.05493 73.1585H60.2094V15.1387H8.05493ZM9.79534 16.756H58.469V71.5411H9.79534V16.756Z" fill="#850849"/>
<path d="M40.4547 14.0641C40.4547 15.4083 40.4547 16.7526 40.4547 18.0968H57.2215V31.5383H61.1204V14.0641H40.4547Z" fill="#850849"/>
<path d="M54.7299 3.99487C46.4613 3.99487 39.7392 10.5366 39.7392 18.5843C39.7392 26.632 46.4613 33.1753 54.7299 33.1753C62.9984 33.1753 69.7205 26.632 69.7205 18.5843C69.7205 10.5366 62.9984 3.99487 54.7299 3.99487ZM54.7299 5.68866C62.0578 5.68865 67.9801 11.4519 67.9801 18.5843C67.9801 25.7166 62.0578 31.4815 54.7299 31.4815C47.4019 31.4815 41.4796 25.7166 41.4796 18.5843C41.4796 11.4519 47.4019 5.68865 54.7299 5.68866Z" fill="#850849"/>
<path fill-rule="evenodd" clip-rule="evenodd" d="M63.1548 29.035C62.9817 29.0361 62.8128 29.0873 62.6698 29.1822C62.5268 29.2771 62.4161 29.4113 62.3518 29.5678C62.2876 29.7242 62.2728 29.8958 62.3092 30.0604C62.3457 30.2251 62.4318 30.3755 62.5565 30.4923L72.5469 40.1078C72.6276 40.1884 72.724 40.2525 72.8305 40.2964C72.9369 40.3403 73.0513 40.3631 73.1669 40.3635C73.2826 40.3639 73.3971 40.3419 73.5039 40.2988C73.6107 40.2556 73.7076 40.1921 73.7889 40.1121C73.8702 40.0321 73.9343 39.9371 73.9774 39.8328C74.0206 39.7284 74.042 39.6166 74.0403 39.5041C74.0386 39.3916 74.0139 39.2806 73.9676 39.1774C73.9213 39.0743 73.8544 38.9812 73.7707 38.9036L63.7803 29.2881C63.6987 29.2074 63.6013 29.1434 63.4939 29.0999C63.3865 29.0564 63.2712 29.0344 63.1548 29.035Z" fill="#850849"/>
<path fill-rule="evenodd" clip-rule="evenodd" d="M17.3547 23.3695V24.568H50.1929V23.3695H17.3547Z" fill="#850849"/>
<path fill-rule="evenodd" clip-rule="evenodd" d="M17.3547 31.3594V32.5578H50.1929V31.3594H17.3547Z" fill="#850849"/>
<path fill-rule="evenodd" clip-rule="evenodd" d="M17.3547 39.3492V40.5477H50.1929V39.3492H17.3547Z" fill="#850849"/>
<path fill-rule="evenodd" clip-rule="evenodd" d="M17.3547 47.339V48.5375H50.1929V47.339H17.3547Z" fill="#850849"/>
<path fill-rule="evenodd" clip-rule="evenodd" d="M17.3547 55.3289V56.5273H50.1929V55.3289H17.3547Z" fill="#850849"/>
<path fill-rule="evenodd" clip-rule="evenodd" d="M17.3547 63.3187V64.5172H50.1929V63.3187H17.3547Z" fill="#850849"/>
<path fill-rule="evenodd" clip-rule="evenodd" d="M42.0145 22.7703V25.1672H50.9095V22.7703H42.0145Z" fill="#850849"/>
</svg>
