<svg width="44" height="39" viewBox="0 0 44 39" fill="none" xmlns="http://www.w3.org/2000/svg">
<path d="M39.8223 12.2776C39.4001 12.2776 39.0596 11.9368 39.0596 11.5182V10.72C39.0578 9.41418 37.9938 8.35474 36.6824 8.35289H19.7481C19.3277 8.35289 18.9873 8.01395 18.9873 7.59534C18.9873 7.1749 19.3277 6.83594 19.7481 6.83594H36.6824C38.8364 6.83779 40.5812 8.57513 40.5831 10.7199V11.52V11.5182C40.5831 11.9368 40.2427 12.2776 39.8223 12.2776Z" fill="url(#paint0_linear_6368_494)"/>
<path d="M36.6827 34.4899H8.09076C7.67038 34.4862 7.33181 34.1435 7.33557 33.7249C7.33929 33.3064 7.68342 32.9692 8.10381 32.973H36.7514C37.914 32.9489 38.8999 32.2969 39.0431 31.4524C39.071 31.2875 39.097 31.1245 39.1249 30.9597C39.1845 30.5948 39.2459 30.2188 39.3147 29.8428L42.3801 13.9421C42.3318 13.0346 41.2641 12.2771 40.0048 12.2771L11.5076 12.2789C10.2186 12.2789 9.13039 13.0698 9.13039 14.007V14.0051C9.13039 14.0533 9.12667 14.1014 9.11737 14.1477L5.83242 31.2096H5.83056C5.74871 31.6171 5.35065 31.882 4.94141 31.8023C4.53219 31.7245 4.26061 31.3337 4.33503 30.9244L7.60699 13.9308C7.63117 13.0603 8.05713 12.2564 8.81232 11.6545C9.53961 11.0785 10.4957 10.7617 11.5057 10.7617H40.0048C41.0148 10.7617 41.9709 11.0784 42.6982 11.6545C43.4757 12.2712 43.9055 13.1065 43.9055 14.0048C43.9055 14.053 43.8999 14.1011 43.8906 14.1474L40.8121 30.1259C40.7433 30.4778 40.6856 30.8445 40.628 31.1983C40.6001 31.365 40.574 31.5335 40.5461 31.7002C40.2801 33.2764 38.6972 34.4507 36.7812 34.4858L36.6827 34.4899Z" fill="url(#paint1_linear_6368_494)"/>
<path d="M8.18584 34.4883H8.08539C5.97044 34.4345 4.28516 32.7102 4.28516 30.6043V5.1798C4.28702 3.89627 5.33239 2.85537 6.62335 2.85352H17.4048H17.4029C18.4706 2.85167 19.4025 3.57214 19.6667 4.60195L20.4814 7.38205C20.5986 7.78397 20.3679 8.20627 19.9643 8.32295C19.5606 8.44149 19.1365 8.20997 19.0175 7.80807L18.2009 5.01503C18.1972 5.00577 18.1953 4.99651 18.1935 4.9854V4.98725C18.1042 4.62423 17.7768 4.37233 17.4029 4.37233H6.62338C6.17509 4.37418 5.81052 4.7335 5.81052 5.17985V30.6043C5.80866 31.8879 6.83357 32.9362 8.12081 32.9696H8.18591C8.60816 32.9696 8.94858 33.3103 8.94858 33.729C8.94858 34.1475 8.60811 34.4883 8.18584 34.4883Z" fill="url(#paint2_linear_6368_494)"/>
<path d="M24.1119 31.3703C19.2681 31.3703 15.3267 27.4456 15.3267 22.6226C15.3267 17.7996 19.2682 13.875 24.1119 13.875C28.9556 13.875 32.8971 17.7997 32.8971 22.6226C32.8971 27.4476 28.9574 31.3703 24.1119 31.3703ZM24.1119 15.3918C20.107 15.3918 16.85 18.6349 16.85 22.6226C16.85 26.6084 20.107 29.8534 24.1119 29.8534C28.1168 29.8534 31.3738 26.6103 31.3738 22.6226C31.3738 18.6349 28.1168 15.3937 24.1119 15.3937V15.3918Z" fill="url(#paint3_linear_6368_494)"/>
<path d="M25.3564 28.183H22.8675C22.4472 28.183 22.1067 27.844 22.1067 27.4254V24.6212H19.2905C18.8683 24.6212 18.5278 24.2804 18.5278 23.8618V21.3836C18.5278 20.965 18.8682 20.6261 19.2905 20.6261H22.1067V17.8219C22.1067 17.4033 22.4471 17.0625 22.8675 17.0625H25.3564C25.5592 17.0625 25.7526 17.144 25.8958 17.2848C26.0372 17.4274 26.1172 17.62 26.1172 17.8219V20.6261H28.9334C29.1362 20.6261 29.3296 20.7057 29.4729 20.8483C29.6161 20.9909 29.6961 21.1836 29.6961 21.3836V23.8618C29.6961 24.0637 29.6161 24.2563 29.4729 24.3989C29.3296 24.5415 29.1362 24.6212 28.9334 24.6212H26.1172V27.4253C26.1172 27.6254 26.0372 27.818 25.8958 27.9606C25.7526 28.1032 25.5592 28.183 25.3564 28.183ZM23.6302 26.6661H24.5937V23.8619C24.5937 23.4433 24.936 23.1043 25.3564 23.1043H28.1726V22.1431H25.3564C24.936 22.1431 24.5937 21.8041 24.5937 21.3837V18.5814H23.6302V21.3855V21.3837C23.6302 21.5856 23.5502 21.7782 23.407 21.9208C23.2638 22.0634 23.0703 22.1431 22.8676 22.1431H20.0513V23.1043H22.8676C23.0703 23.1043 23.2638 23.1839 23.407 23.3266C23.5502 23.4673 23.6302 23.6618 23.6302 23.8618V26.6661Z" fill="url(#paint4_linear_6368_494)"/>
<defs>
<linearGradient id="paint0_linear_6368_494" x1="29.7852" y1="6.83594" x2="29.7852" y2="12.2776" gradientUnits="userSpaceOnUse">
<stop stop-color="#B89405"/>
<stop offset="0.385" stop-color="#B7A24E"/>
<stop offset="0.965" stop-color="#524202"/>
</linearGradient>
<linearGradient id="paint1_linear_6368_494" x1="24.1141" y1="10.7617" x2="24.1141" y2="34.4899" gradientUnits="userSpaceOnUse">
<stop stop-color="#B89405"/>
<stop offset="0.385" stop-color="#B7A24E"/>
<stop offset="0.965" stop-color="#524202"/>
</linearGradient>
<linearGradient id="paint2_linear_6368_494" x1="12.3985" y1="2.85352" x2="12.3985" y2="34.4884" gradientUnits="userSpaceOnUse">
<stop stop-color="#B89405"/>
<stop offset="0.385" stop-color="#B7A24E"/>
<stop offset="0.965" stop-color="#524202"/>
</linearGradient>
<linearGradient id="paint3_linear_6368_494" x1="24.1119" y1="13.875" x2="24.1119" y2="31.3703" gradientUnits="userSpaceOnUse">
<stop stop-color="#B89405"/>
<stop offset="0.385" stop-color="#B7A24E"/>
<stop offset="0.965" stop-color="#524202"/>
</linearGradient>
<linearGradient id="paint4_linear_6368_494" x1="24.1119" y1="17.0625" x2="24.1119" y2="28.183" gradientUnits="userSpaceOnUse">
<stop stop-color="#B89405"/>
<stop offset="0.385" stop-color="#B7A24E"/>
<stop offset="0.965" stop-color="#524202"/>
</linearGradient>
</defs>
</svg>
