<svg width="71" height="70" viewBox="0 0 71 70" fill="none" xmlns="http://www.w3.org/2000/svg">
<g clip-path="url(#clip0_2055_160)">
<path d="M61.3266 13.1233L50.3164 2.45399C50.104 2.26629 49.8324 2.15351 49.5457 2.13391H12.1111C11.2351 2.13391 10.3949 2.47114 9.77549 3.0714C9.15604 3.67167 8.80804 4.4858 8.80804 5.3347V62.949C8.80804 63.7979 9.15604 64.612 9.77549 65.2123C10.3949 65.8125 11.2351 66.1498 12.1111 66.1498H58.3538C59.2298 66.1498 60.07 65.8125 60.6894 65.2123C61.3089 64.612 61.6569 63.7979 61.6569 62.949V13.8701C61.6366 13.5923 61.5203 13.3291 61.3266 13.1233ZM57.8914 12.8032H51.7477C51.4557 12.8032 51.1757 12.6908 50.9692 12.4907C50.7627 12.2906 50.6467 12.0193 50.6467 11.7363V5.78281L57.8914 12.8032ZM58.3538 64.0159H12.1111C11.8191 64.0159 11.539 63.9035 11.3326 63.7034C11.1261 63.5033 11.0101 63.2319 11.0101 62.949V5.3347C11.0101 5.05174 11.1261 4.78036 11.3326 4.58027C11.539 4.38018 11.8191 4.26777 12.1111 4.26777H48.4447V11.7363C48.4447 12.5852 48.7927 13.3993 49.4121 13.9996C50.0316 14.5999 50.8717 14.9371 51.7477 14.9371H59.4548V62.949C59.4548 63.2319 59.3388 63.5033 59.1324 63.7034C58.9259 63.9035 58.6458 64.0159 58.3538 64.0159Z" fill="#318C08"/>
<path d="M35.2325 36.2756C37.6278 36.2756 39.9694 35.5873 41.9611 34.2977C43.9528 33.0081 45.5051 31.1751 46.4217 29.0306C47.3384 26.8861 47.5783 24.5263 47.1109 22.2497C46.6436 19.9731 45.4902 17.8819 43.7964 16.2406C42.1026 14.5992 39.9446 13.4815 37.5952 13.0286C35.2459 12.5758 32.8107 12.8082 30.5977 13.6965C28.3847 14.5848 26.4932 16.089 25.1624 18.019C23.8316 19.9491 23.1213 22.2181 23.1213 24.5393C23.1213 27.652 24.3973 30.6371 26.6686 32.8381C28.9399 35.0391 32.0204 36.2756 35.2325 36.2756ZM29.265 32.1359C30.8912 30.6843 33.0214 29.8785 35.2325 29.8785C37.4435 29.8785 39.5737 30.6843 41.2 32.1359C39.4765 33.3827 37.3833 34.0564 35.2325 34.0564C33.0817 34.0564 30.9884 33.3827 29.265 32.1359ZM35.2325 14.937C37.118 14.9253 38.9674 15.4388 40.5605 16.4162C42.1536 17.3936 43.4235 18.7939 44.2191 20.4505C45.0148 22.1071 45.3026 23.9503 45.0484 25.7608C44.7943 27.5714 44.0088 29.2731 42.7854 30.6635C40.7423 28.7969 38.0405 27.7572 35.2325 27.7572C32.4245 27.7572 29.7226 28.7969 27.6795 30.6635C26.4561 29.2731 25.6707 27.5714 25.4165 25.7608C25.1623 23.9503 25.4502 22.1071 26.2458 20.4505C27.0414 18.7939 28.3113 17.3936 29.9044 16.4162C31.4976 15.4388 33.3469 14.9253 35.2325 14.937Z" fill="#318C08"/>
<path d="M35.2323 25.6064C36.1034 25.6064 36.9548 25.3561 37.6791 24.8871C38.4033 24.4182 38.9678 23.7517 39.3011 22.9718C39.6345 22.192 39.7217 21.3339 39.5518 20.5061C39.3818 19.6782 38.9624 18.9178 38.3465 18.3209C37.7305 17.7241 36.9458 17.3176 36.0915 17.1529C35.2372 16.9883 34.3517 17.0728 33.547 17.3958C32.7422 17.7188 32.0544 18.2658 31.5705 18.9676C31.0865 19.6695 30.8282 20.4946 30.8282 21.3386C30.8282 22.4705 31.2922 23.556 32.1182 24.3564C32.9441 25.1567 34.0643 25.6064 35.2323 25.6064ZM35.2323 19.2048C35.6678 19.2048 36.0936 19.3299 36.4557 19.5644C36.8178 19.7989 37.1001 20.1321 37.2667 20.5221C37.4334 20.912 37.477 21.341 37.392 21.7549C37.3071 22.1689 37.0974 22.5491 36.7894 22.8475C36.4814 23.1459 36.0891 23.3492 35.6619 23.4315C35.2348 23.5138 34.792 23.4716 34.3896 23.3101C33.9873 23.1486 33.6434 22.8751 33.4014 22.5242C33.1594 22.1732 33.0303 21.7607 33.0303 21.3386C33.0303 20.7727 33.2623 20.23 33.6752 19.8298C34.0882 19.4296 34.6483 19.2048 35.2323 19.2048Z" fill="#318C08"/>
<path d="M51.7477 42.6771H27.5253C27.2333 42.6771 26.9532 42.7895 26.7467 42.9896C26.5403 43.1897 26.4243 43.4611 26.4243 43.7441C26.4243 44.027 26.5403 44.2984 26.7467 44.4985C26.9532 44.6986 27.2333 44.811 27.5253 44.811H51.7477C52.0397 44.811 52.3197 44.6986 52.5262 44.4985C52.7327 44.2984 52.8487 44.027 52.8487 43.7441C52.8487 43.4611 52.7327 43.1897 52.5262 42.9896C52.3197 42.7895 52.0397 42.6771 51.7477 42.6771Z" fill="#318C08"/>
<path d="M51.7479 49.0787H18.7174C18.4253 49.0787 18.1453 49.1911 17.9388 49.3912C17.7323 49.5913 17.6163 49.8627 17.6163 50.1457C17.6163 50.4286 17.7323 50.7 17.9388 50.9001C18.1453 51.1002 18.4253 51.2126 18.7174 51.2126H51.7479C52.0399 51.2126 52.3199 51.1002 52.5264 50.9001C52.7329 50.7 52.8489 50.4286 52.8489 50.1457C52.8489 49.8627 52.7329 49.5913 52.5264 49.3912C52.3199 49.1911 52.0399 49.0787 51.7479 49.0787Z" fill="#318C08"/>
<path d="M51.7479 55.4805H18.7174C18.4253 55.4805 18.1453 55.5929 17.9388 55.793C17.7323 55.9931 17.6163 56.2644 17.6163 56.5474C17.6163 56.8304 17.7323 57.1017 17.9388 57.3018C18.1453 57.5019 18.4253 57.6143 18.7174 57.6143H51.7479C52.0399 57.6143 52.3199 57.5019 52.5264 57.3018C52.7329 57.1017 52.8489 56.8304 52.8489 56.5474C52.8489 56.2644 52.7329 55.9931 52.5264 55.793C52.3199 55.5929 52.0399 55.4805 51.7479 55.4805Z" fill="#318C08"/>
</g>
<defs>
<clipPath id="clip0_2055_160">
<rect width="70.4651" height="69.9602" fill="white"/>
</clipPath>
</defs>
</svg>
