<svg width="50" height="43" viewBox="0 0 50 43" fill="none" xmlns="http://www.w3.org/2000/svg">
<path d="M42.038 11.5256H29.7561L29.756 0.995288C29.756 0.815079 29.686 0.642187 29.5577 0.512354C29.4316 0.384775 29.2578 0.310547 29.0763 0.310547H20.9227C20.5432 0.310547 20.243 0.62173 20.243 0.995288V11.5256L7.95933 11.5256L7.95862 11.5256C5.93434 11.5314 4.30063 13.1907 4.29492 15.2313V15.232L4.29492 35.9953L4.29492 35.996C4.30062 38.0369 5.93459 39.6941 7.96039 39.6998H7.9611H42.0397H42.0405C44.0646 39.6941 45.6984 38.0368 45.7042 35.996V35.9953V15.232V15.2313C45.6985 13.1906 44.0646 11.5314 42.0387 11.5256H42.038ZM23.0142 7.30753L23.0146 7.30796C23.8171 8.11795 25.0245 8.36353 26.0731 7.92302C27.1224 7.48292 27.803 6.44992 27.803 5.30504C27.803 3.74165 26.5505 2.46989 24.9997 2.46989C23.8639 2.46989 22.8409 3.16089 22.4087 4.22039C21.9749 5.27918 22.2139 6.4958 23.0142 7.30753ZM24.4486 6.65723L24.448 6.65699C23.9102 6.43232 23.5558 5.89896 23.5558 5.305C23.5558 4.71146 23.9099 4.17934 24.4486 3.95277C24.9855 3.72692 25.6066 3.85139 26.0203 4.26797C26.5847 4.84066 26.5847 5.76924 26.0203 6.34196C25.6067 6.75859 24.9855 6.88309 24.4486 6.65723ZM21.6028 12.2215V1.68191H28.3968L28.3951 12.2124V12.2125C28.3951 13.3585 27.9673 14.1988 27.3398 14.7552C26.7076 15.3157 25.8575 15.601 24.999 15.6008C24.1405 15.6006 23.2902 15.3149 22.6579 14.7552C22.0303 14.1997 21.6028 13.3618 21.6028 12.2215ZM28.355 29.9132L28.355 29.9134H28.3628H35.3228V29.9135L35.3306 29.9132C35.6993 29.9018 35.9883 29.5961 35.9883 29.2286C35.9883 28.8608 35.6993 28.5566 35.3325 28.5423L35.3325 28.5421H35.3228H28.3628V28.5419L28.3531 28.5423C27.9863 28.5566 27.6973 28.8608 27.6973 29.2286C27.6973 29.5961 27.9863 29.9018 28.355 29.9132ZM28.355 26.297L28.355 26.2971H28.3628H40.7773V26.2972L40.7851 26.297C41.1563 26.2855 41.4428 25.9791 41.4428 25.6124C41.4428 25.2452 41.1563 24.9403 40.787 24.926L40.787 24.9258H40.7773H28.3628V24.9256L28.3531 24.926C27.9863 24.9403 27.6973 25.2445 27.6973 25.6124C27.6973 25.9798 27.9863 26.2855 28.355 26.297ZM28.355 22.6807L28.355 22.6808H28.3628H40.7773V22.6809L40.7851 22.6807C41.1563 22.6692 41.4428 22.3628 41.4428 21.9961C41.4428 21.6294 41.1563 21.3229 40.785 21.3114L40.7851 21.3113H40.7773H28.3628V21.3112L28.355 21.3114C27.9863 21.3229 27.6973 21.6286 27.6973 21.9961C27.6973 22.3635 27.9863 22.6692 28.355 22.6807ZM20.9032 30.9101C20.9021 29.3831 20.1256 27.9756 18.866 27.1699C20.4294 26.1711 21.2164 24.2671 20.7885 22.4156L20.7884 22.4154C20.324 20.416 18.5591 18.9973 16.5232 18.9973C14.4873 18.9973 12.7225 20.416 12.258 22.4154L12.258 22.4154C11.8283 24.2672 12.6169 26.1712 14.1805 27.1699C12.921 27.9756 12.1444 29.383 12.1432 30.9101C12.1388 31.0904 12.2049 31.2698 12.3343 31.4035C12.4611 31.5347 12.6353 31.6127 12.8229 31.6127C13.0086 31.6127 13.1857 31.5361 13.3126 31.4025C13.4389 31.2713 13.5092 31.0928 13.5026 30.9086C13.5038 29.8914 13.8842 29.1465 14.4403 28.6531C15.002 28.1548 15.7581 27.9003 16.5224 27.9003C17.2867 27.9003 18.0428 28.1548 18.6044 28.6531C19.1608 29.1467 19.5413 29.892 19.5422 30.9099C19.5377 31.0926 19.6071 31.2703 19.7313 31.4016L19.7332 31.4035C19.8608 31.5355 20.0371 31.6127 20.2236 31.6127C20.409 31.6127 20.585 31.5351 20.7122 31.4035L20.7141 31.4016C20.8384 31.2703 20.9077 31.0926 20.9032 30.9101ZM5.65638 15.2329C5.66144 13.9415 6.6925 12.9024 7.96189 12.8973H20.2894C21.011 18.3373 28.9885 18.3347 29.7102 12.8973H42.0378C43.3073 12.9024 44.3385 13.9417 44.3433 15.2334V35.9947C44.3385 37.2849 43.3069 38.3258 42.0376 38.329H7.96206C6.69287 38.3258 5.66145 37.2852 5.65638 35.9952V15.2329ZM15.3681 20.6008C16.4952 20.1284 17.7929 20.3882 18.6572 21.2627C19.8376 22.4571 19.8376 24.3949 18.6573 25.5892C17.7927 26.4639 16.495 26.7252 15.3681 26.253C14.2407 25.7805 13.5027 24.6649 13.5027 23.426C13.5027 22.1872 14.2406 21.0734 15.3681 20.6008ZM9.22233 17.5423C8.84603 17.5423 8.54264 17.8503 8.54264 18.227V32.9993C8.54264 33.376 8.84603 33.684 9.22233 33.684H23.8228C24.0048 33.684 24.1772 33.6125 24.306 33.4822C24.432 33.3547 24.5042 33.1802 24.5042 32.9993V18.227C24.5042 17.8496 24.2002 17.5423 23.8228 17.5423H9.22233ZM9.90369 32.3143V18.9118H23.1432V32.3143H9.90369Z" fill="url(#paint0_linear_6360_767)" stroke="url(#paint1_linear_6360_767)" stroke-width="0.5"/>
<path d="M40.454 42.9085C38.4777 42.9085 36.5815 42.1126 35.184 40.6988C33.7866 39.285 33 37.3664 33 35.365C33 33.3655 33.7848 31.4469 35.1822 30.0312C38.0905 27.0886 42.8208 27.0886 45.7272 30.0312C48.6338 32.9737 48.6355 37.7597 45.7272 40.7002V40.702C44.3298 42.1176 42.4317 42.9117 40.4535 42.9081L40.454 42.9085ZM40.454 29.1117C38.8133 29.1099 37.2402 29.7674 36.0807 30.9423C33.6695 33.3819 33.6695 37.3523 36.0807 39.7916C38.492 42.2311 42.4162 42.2311 44.8271 39.7916C47.2383 37.352 47.2383 33.3816 44.8271 30.9423C43.6676 29.7674 42.0946 29.1099 40.454 29.1117Z" fill="url(#paint2_linear_6360_767)"/>
<path d="M40.454 40.7102C38.5665 40.7102 36.8229 39.6916 35.8803 38.0389C34.9357 36.3843 34.9357 34.3472 35.8803 32.6944C35.9797 32.5202 36.152 32.4034 36.3473 32.3783C36.5426 32.3531 36.7397 32.4196 36.88 32.5615L43.2277 38.9839C43.3679 39.124 43.4336 39.3234 43.4088 39.5211C43.3839 39.7205 43.2685 39.8947 43.0981 39.9953C42.2937 40.4642 41.3826 40.712 40.454 40.7102ZM36.6365 34.1333V34.1351C36.1837 35.5794 36.5637 37.1603 37.6237 38.2328C38.6837 39.3053 40.2462 39.6897 41.6738 39.2298L36.6365 34.1333Z" fill="url(#paint3_linear_6360_767)"/>
<path d="M44.4774 38.3616C44.3087 38.3616 44.1471 38.2934 44.0281 38.173L37.6804 31.7506C37.5401 31.6105 37.4744 31.4111 37.4993 31.2134C37.5259 31.014 37.6413 30.8398 37.8118 30.7392C39.8821 29.5302 42.4977 29.8787 44.1877 31.5889C45.8798 33.2992 46.2243 35.9454 45.0276 38.0399C44.9299 38.2141 44.7559 38.3309 44.5606 38.356C44.5322 38.3596 44.5058 38.3616 44.4774 38.3616ZM39.2342 31.5046L44.2769 36.6012C44.7314 35.155 44.3497 33.5723 43.2879 32.4998C42.2279 31.4274 40.6635 31.0429 39.2342 31.5046Z" fill="url(#paint4_linear_6360_767)"/>
<defs>
<linearGradient id="paint0_linear_6360_767" x1="24.9995" y1="0.560547" x2="24.9995" y2="39.4498" gradientUnits="userSpaceOnUse">
<stop stop-color="#B89405"/>
<stop offset="0.385" stop-color="#B7A24E"/>
<stop offset="0.965" stop-color="#524202"/>
</linearGradient>
<linearGradient id="paint1_linear_6360_767" x1="24.9995" y1="0.560547" x2="24.9995" y2="39.4498" gradientUnits="userSpaceOnUse">
<stop stop-color="#B89405"/>
<stop offset="0.385" stop-color="#B7A24E"/>
<stop offset="0.965" stop-color="#524202"/>
</linearGradient>
<linearGradient id="paint2_linear_6360_767" x1="40.4539" y1="27.8242" x2="40.4539" y2="42.9085" gradientUnits="userSpaceOnUse">
<stop stop-color="#B89405"/>
<stop offset="0.385" stop-color="#B7A24E"/>
<stop offset="0.965" stop-color="#524202"/>
</linearGradient>
<linearGradient id="paint3_linear_6360_767" x1="39.2929" y1="32.373" x2="39.2929" y2="40.7103" gradientUnits="userSpaceOnUse">
<stop stop-color="#B89405"/>
<stop offset="0.385" stop-color="#B7A24E"/>
<stop offset="0.965" stop-color="#524202"/>
</linearGradient>
<linearGradient id="paint4_linear_6360_767" x1="41.6152" y1="30.0234" x2="41.6152" y2="38.3616" gradientUnits="userSpaceOnUse">
<stop stop-color="#B89405"/>
<stop offset="0.385" stop-color="#B7A24E"/>
<stop offset="0.965" stop-color="#524202"/>
</linearGradient>
</defs>
</svg>
