<svg width="49" height="46" viewBox="0 0 49 46" fill="none" xmlns="http://www.w3.org/2000/svg">
<path d="M36.4257 32.0061C37.802 30.1923 38.6296 27.941 38.6296 25.4929C38.6296 20.9082 35.7549 16.9925 31.7155 15.4269L31.7173 5.18399C31.7173 3.75482 30.5543 2.5918 29.1251 2.5918H6.65421C5.22504 2.5918 4.06201 3.75482 4.06201 5.18399V38.8881C4.06201 40.3172 5.22504 41.4803 6.65421 41.4803H29.1233C30.5524 41.4803 31.7155 40.3172 31.7155 38.8881V35.5594C33.0499 35.0417 34.2566 34.2706 35.2738 33.2972L45.7957 43.8191C45.9634 43.9868 46.1858 44.0725 46.4064 44.0725C46.627 44.0725 46.8494 43.9886 47.0171 43.8191C47.3543 43.4818 47.3543 42.935 47.0171 42.5977L36.4242 32.0049L36.4257 32.0061ZM29.9871 38.8895C29.9871 39.367 29.6007 39.7535 29.123 39.7535L6.65397 39.7517C6.17638 39.7517 5.78989 39.3653 5.78989 38.8876V5.18357C5.78989 4.70598 6.17634 4.31949 6.65397 4.31949H29.123C29.6006 4.31949 29.9871 4.70595 29.9871 5.18357V14.907C29.2889 14.7648 28.567 14.6901 27.827 14.6901C27.3329 14.6901 26.8517 14.7357 26.3759 14.7995C25.6285 10.789 22.1759 7.83029 17.9852 7.77755H17.7847C14.9501 7.81219 12.3089 9.23953 10.7208 11.5947C9.75829 13.0239 9.27337 14.6645 9.26245 16.3543C9.26063 16.3762 9.24969 16.3962 9.24969 16.4199C9.24969 16.4363 9.25698 16.4491 9.25881 16.4655C9.26428 17.5829 9.47573 18.7186 9.90775 19.8306C11.0416 22.7308 13.8544 24.7469 17.052 25.0278C17.0447 25.1846 17.0283 25.3377 17.0283 25.4963C17.0283 27.9299 17.8467 30.1704 19.2103 31.9788H12.7078C12.2302 31.9788 11.8437 32.3652 11.8437 32.8429C11.8437 33.3204 12.2301 33.7069 12.7078 33.7069H20.8287C22.7154 35.3202 25.1599 36.2991 27.8306 36.2991C28.5707 36.2991 29.2925 36.2244 29.9907 36.0822V38.8931L29.9871 38.8895ZM14.5927 17.2823H17.0245V22.4175C15.6555 21.0376 14.7914 19.2329 14.5927 17.2823ZM14.5927 15.5542C14.7914 13.6037 15.6555 11.799 17.0245 10.419V15.5542H14.5927ZM18.7526 10.419C20.1235 11.8026 20.9875 13.6055 21.1826 15.5542H18.7526V10.419ZM12.8647 15.5542H11.0399C11.1712 14.4897 11.5376 13.4706 12.1501 12.5591C12.8592 11.5073 13.8363 10.6979 14.9501 10.1729C13.7615 11.7188 13.0306 13.5765 12.8647 15.5542ZM12.8647 17.2823C13.0342 19.293 13.7889 21.1816 15.0121 22.74C13.4262 22.0509 12.141 20.7986 11.5157 19.1981C11.2678 18.5655 11.1165 17.922 11.04 17.2822L12.8647 17.2823ZM18.7526 19.6521V17.2823H20.8235C20.0232 17.9659 19.325 18.7644 18.7526 19.6521ZM23.598 15.5542H22.9108C22.7467 13.5691 22.0102 11.7006 20.8089 10.1493C22.805 11.0699 24.2798 12.9074 24.6881 15.1603C24.3162 15.2734 23.9535 15.4046 23.5998 15.5559L23.598 15.5542ZM27.8272 34.5671C22.8231 34.5671 18.7529 30.4965 18.7529 25.4928C18.7529 20.4891 22.8235 16.4185 27.8272 16.4185C32.8309 16.4185 36.9015 20.4891 36.9015 25.4928C36.9015 30.4965 32.8309 34.5671 27.8272 34.5671ZM28.2592 17.9314C26.8301 17.9314 25.667 19.0944 25.667 20.5236V23.9798C25.667 25.409 26.8301 26.572 28.2592 26.572C29.6884 26.572 30.8514 25.409 30.8514 23.9798V20.5236C30.8514 19.0944 29.6884 17.9314 28.2592 17.9314ZM29.1233 23.9817C29.1233 24.4593 28.7369 24.8458 28.2592 24.8458C27.7816 24.8458 27.3951 24.4594 27.3951 23.9817V20.5255C27.3951 20.0479 27.7816 19.6614 28.2592 19.6614C28.7368 19.6614 29.1233 20.0479 29.1233 20.5255V23.9817ZM28.2592 27.6549C26.8301 27.6549 25.667 28.818 25.667 30.2471C25.667 31.6763 26.8301 32.8393 28.2592 32.8393C29.6884 32.8393 30.8514 31.6763 30.8514 30.2471C30.8514 28.818 29.6884 27.6549 28.2592 27.6549ZM28.2592 31.1111C27.7816 31.1111 27.3951 30.7247 27.3951 30.2471C27.3951 29.7695 27.7816 29.383 28.2592 29.383C28.7368 29.383 29.1233 29.7694 29.1233 30.2471C29.1233 30.7247 28.7369 31.1111 28.2592 31.1111Z" fill="url(#paint0_linear_6368_537)"/>
<defs>
<linearGradient id="paint0_linear_6368_537" x1="25.666" y1="2.5918" x2="25.666" y2="44.0725" gradientUnits="userSpaceOnUse">
<stop stop-color="#B89405"/>
<stop offset="0.385" stop-color="#B7A24E"/>
<stop offset="0.965" stop-color="#524202"/>
</linearGradient>
</defs>
</svg>
