<svg width="46" height="43" viewBox="0 0 46 43" fill="none" xmlns="http://www.w3.org/2000/svg">
<path d="M32.4365 24.2414C31.4367 24.2414 30.5939 24.8808 30.2729 25.7697L27.9939 25.4896C27.8748 24.3268 26.9032 23.4155 25.7087 23.4155C24.4335 23.4155 23.3995 24.449 23.3995 25.7242C23.3995 26.3641 23.6607 26.9432 24.0808 27.3613L22.4284 30.0006C22.1902 29.9178 21.9388 29.8632 21.672 29.8632C20.3967 29.8632 19.3633 30.8966 19.3633 32.1718C19.3633 33.4471 20.3967 34.481 21.672 34.481C22.9472 34.481 23.9807 33.4476 23.9807 32.1718C23.9807 31.5319 23.72 30.9534 23.2993 30.5358L24.9518 27.8959C25.1899 27.9787 25.4419 28.0334 25.7082 28.0334C26.7079 28.0334 27.5508 27.394 27.8717 26.5052L30.1508 26.7847C30.2699 27.948 31.241 28.8593 32.436 28.8593C33.7112 28.8593 34.7447 27.8259 34.7447 26.5501C34.7447 25.9838 34.5331 25.4722 34.1942 25.07L35.8359 22.8967C36.1252 23.0276 36.4436 23.1042 36.7825 23.1042C38.0577 23.1042 39.0917 22.0708 39.0917 20.7955C39.0917 19.5203 38.0582 18.4863 36.7825 18.4863C35.5078 18.4863 34.4738 19.5198 34.4738 20.7955C34.4738 21.3613 34.6859 21.8735 35.0242 22.2757L33.3825 24.449C33.0938 24.3181 32.7748 24.2414 32.4365 24.2414Z" fill="url(#paint0_linear_6360_662)"/>
<path d="M42.531 12.8565L35.287 5.61305C35.1434 5.46943 34.9482 5.38867 34.7447 5.38867H24.4387C24.0155 5.38867 23.672 5.73163 23.672 6.15534C23.672 6.57854 24.0155 6.92201 24.4387 6.92201H34.2336V13.3988C34.2336 13.6814 34.4621 13.9099 34.7447 13.9099H41.2221V39.0781H17.2326V24.8007C17.2326 24.3775 16.8896 24.034 16.4659 24.034C16.0422 24.034 15.6992 24.3775 15.6992 24.8007V39.8447C15.6992 40.2679 16.0422 40.6114 16.4659 40.6114H41.9892C42.4124 40.6114 42.7559 40.2679 42.7559 39.8447V13.3988C42.7554 13.1954 42.6746 13.0006 42.531 12.8565ZM35.2559 12.8877V7.75052L40.3935 12.8877H35.2559Z" fill="url(#paint1_linear_6360_662)"/>
<path d="M25.1067 14.029C25.1067 9.26494 21.2304 5.38867 16.4658 5.38867C11.7012 5.38867 7.82497 9.26494 7.82497 14.029C7.82497 16.1358 8.585 18.0668 9.84233 19.5684L3.46877 25.9425C3.16926 26.242 3.16926 26.7271 3.46877 27.0266C3.61853 27.1763 3.8148 27.2509 4.01106 27.2509C4.20733 27.2509 4.4036 27.1763 4.55335 27.0266L10.9274 20.6525C12.4286 21.9098 14.3595 22.6699 16.4663 22.6699C21.2304 22.6699 25.1067 18.7941 25.1067 14.029ZM9.35831 14.029C9.35831 10.1103 12.5466 6.92201 16.4658 6.92201C20.385 6.92201 23.5733 10.1103 23.5733 14.029C23.5733 17.9482 20.385 21.1365 16.4658 21.1365C12.5466 21.1365 9.35831 17.9482 9.35831 14.029Z" fill="url(#paint2_linear_6360_662)"/>
<defs>
<linearGradient id="paint0_linear_6360_662" x1="29.2275" y1="18.4863" x2="29.2275" y2="34.481" gradientUnits="userSpaceOnUse">
<stop stop-color="#B89405"/>
<stop offset="0.385" stop-color="#B7A24E"/>
<stop offset="0.965" stop-color="#524202"/>
</linearGradient>
<linearGradient id="paint1_linear_6360_662" x1="29.2276" y1="5.38867" x2="29.2276" y2="40.6114" gradientUnits="userSpaceOnUse">
<stop stop-color="#B89405"/>
<stop offset="0.385" stop-color="#B7A24E"/>
<stop offset="0.965" stop-color="#524202"/>
</linearGradient>
<linearGradient id="paint2_linear_6360_662" x1="14.1754" y1="5.38867" x2="14.1754" y2="27.2509" gradientUnits="userSpaceOnUse">
<stop stop-color="#B89405"/>
<stop offset="0.385" stop-color="#B7A24E"/>
<stop offset="0.965" stop-color="#524202"/>
</linearGradient>
</defs>
</svg>
