<svg width="62" height="42" viewBox="0 0 62 42" fill="none" xmlns="http://www.w3.org/2000/svg">
<path d="M61.7235 18.5269L52.8302 1.45726C52.5278 0.878222 52.0064 0.441924 51.3804 0.244104C50.7544 0.0462834 50.0749 0.1031 49.491 0.402088L44.5213 2.95414C43.9565 3.24476 43.5261 3.73997 43.3192 4.33712C43.1123 4.93427 43.1447 5.58757 43.4098 6.16161L42.862 6.3413C42.3935 6.50077 41.8994 6.57296 41.4045 6.55423L35.5506 6.39592C33.9938 6.33374 32.4753 6.88388 31.3247 7.92683L28.9687 10.0047L19.8241 6.60094C20.1126 6.05642 20.1852 5.42437 20.0276 4.82935C19.87 4.23434 19.4936 3.71951 18.9726 3.38634L14.258 0.38705C13.7044 0.0362405 13.0333 -0.0824304 12.3917 0.0570372C11.7502 0.196505 11.1904 0.58274 10.8351 1.13113L0.39016 17.3126C0.0365922 17.8622 -0.0830605 18.5285 0.0574332 19.1655C0.197927 19.8025 0.587103 20.3582 1.13964 20.7108L5.85103 23.7077C6.24714 23.9609 6.70828 24.0956 7.17938 24.0956C7.36008 24.0956 7.54025 24.0762 7.71677 24.0378C8.24943 23.923 8.72867 23.636 9.0794 23.2217L11.1995 25.8577L10.1263 27.52C9.76649 28.0774 9.5643 28.7206 9.54093 29.3822C9.51755 30.0438 9.67384 30.6995 9.99341 31.2806C10.313 31.8616 10.7841 32.3466 11.3574 32.6848C11.9306 33.023 12.585 33.2019 13.2518 33.2027C13.3172 33.2027 13.3826 33.2027 13.4479 33.1972C13.3226 33.9153 13.4131 34.6541 13.7082 35.3214C14.0033 35.9887 14.4899 36.5549 15.1072 36.9493C15.8653 37.4355 16.7774 37.6272 17.669 37.4875C17.6673 37.764 17.6961 38.0398 17.7551 38.31C17.9346 39.1306 18.3912 39.8656 19.0491 40.3934C19.707 40.9212 20.5267 41.21 21.3725 41.2119C21.6439 41.2116 21.9145 41.1822 22.1794 41.1241C22.9608 40.9577 23.6665 40.5438 24.1903 39.9446C24.4821 40.5305 24.9254 41.029 25.4749 41.3891C26.0243 41.7493 26.6602 41.9581 27.3176 41.9943C27.975 42.0305 28.6303 41.8929 29.2165 41.5953C29.8027 41.2978 30.2988 40.8511 30.6542 40.3008L31.0305 39.7182L33.5405 41.3204C34.1369 41.7022 34.8314 41.9053 35.541 41.9053C35.8121 41.9054 36.0824 41.8762 36.3471 41.8183C37.2441 41.6259 38.0379 41.1114 38.5761 40.3734C39.1143 39.6355 39.3589 38.7261 39.2629 37.82C39.9373 37.8725 40.6135 37.743 41.2198 37.4452C41.8262 37.1474 42.3401 36.6924 42.7073 36.1284C43.1105 35.5043 43.3129 34.7733 43.2878 34.0323C43.8445 34.167 44.425 34.1724 44.9841 34.0482C45.5433 33.924 46.0661 33.6735 46.5119 33.3161C46.9577 32.9587 47.3145 32.5041 47.5546 31.9877C47.7947 31.4712 47.9116 30.9067 47.8963 30.338C48.6705 30.5234 49.4841 30.4579 50.2181 30.1511C50.952 29.8443 51.5678 29.3124 51.9753 28.6331C52.3829 27.9538 52.5607 27.1629 52.4828 26.3761C52.4049 25.5892 52.0754 24.8478 51.5425 24.2603L52.4546 23.5138C52.7849 24.0365 53.3009 24.4168 53.9003 24.5794C54.4998 24.742 55.1389 24.675 55.691 24.3917L60.6623 21.842C61.2449 21.5412 61.6838 21.0235 61.883 20.4022C62.0822 19.781 62.0254 19.1067 61.7251 18.5269H61.7235ZM29.7644 11.7494L29.7939 11.724L32.5478 9.28993C32.9439 8.92688 33.4086 8.64548 33.915 8.46204C34.4214 8.2786 34.9594 8.19677 35.4979 8.2213L41.3519 8.37962C42.0603 8.40492 42.7674 8.30164 43.4385 8.07486L44.2589 7.80572L51.5824 21.8618L50.022 23.137L41.1406 17.4875C40.6594 17.1769 40.1347 16.9385 39.5834 16.7799C38.8101 16.5118 38.134 16.0222 37.6406 15.373C37.1472 14.7239 36.8586 13.9441 36.8111 13.1323C36.7919 12.9876 36.738 12.8496 36.654 12.7298C36.5701 12.61 36.4584 12.5119 36.3285 12.4437C36.1985 12.3755 36.054 12.3392 35.907 12.3378C35.76 12.3364 35.6148 12.37 35.4836 12.4357C33.5844 13.6952 31.8136 15.1358 30.1965 16.7371C29.8338 17.0196 29.4056 17.2075 28.951 17.2836C28.4964 17.3596 28.0298 17.3215 27.5938 17.1727C27.1579 17.0239 26.7663 16.7691 26.455 16.4316C26.1436 16.094 25.9223 15.6845 25.8113 15.2402L29.7644 11.7494ZM7.32688 22.2512C7.24557 22.2696 7.16141 22.2716 7.07928 22.2574C6.99715 22.2431 6.9187 22.2128 6.84849 22.1681L2.13869 19.1712C1.99887 19.0794 1.90054 18.9372 1.86452 18.7747C1.82851 18.6121 1.85764 18.4421 1.94574 18.3005L12.3899 2.11982C12.4348 2.05025 12.4931 1.99023 12.5616 1.94321C12.63 1.8962 12.7072 1.86313 12.7886 1.84593C12.8344 1.83583 12.8812 1.83079 12.9281 1.83089C13.0482 1.8307 13.1658 1.86477 13.2669 1.92904L17.9775 4.92596C18.1188 5.01653 18.2184 5.15883 18.2545 5.32191C18.2906 5.48498 18.2605 5.65562 18.1705 5.7967L17.6666 6.57719L17.661 6.58511L8.37457 20.9736C8.25548 21.0811 8.1667 21.2175 8.11703 21.3694L7.72714 21.975C7.68212 22.045 7.62357 22.1055 7.55487 22.1529C7.48617 22.2003 7.40868 22.2337 7.32688 22.2512ZM12.2488 31.0805C11.8315 30.8123 11.5377 30.3914 11.4314 29.9094C11.3251 29.4273 11.4148 28.923 11.6811 28.5063L14.3673 24.345C14.5002 24.1389 14.6728 23.9608 14.8751 23.8209C15.0774 23.6811 15.3054 23.5821 15.5462 23.5298C15.7871 23.4774 16.0359 23.4726 16.2786 23.5157C16.5212 23.5588 16.753 23.6489 16.9606 23.781C17.1681 23.913 17.3475 24.0843 17.4884 24.2851C17.6293 24.486 17.7289 24.7124 17.7817 24.9515C17.8344 25.1905 17.8392 25.4376 17.7958 25.6785C17.7524 25.9194 17.6616 26.1495 17.5286 26.3556L15.4556 29.5686L14.8425 30.5185C14.5725 30.933 14.1485 31.2247 13.6628 31.3301C13.1771 31.4355 12.6691 31.3461 12.2496 31.0813L12.2488 31.0805ZM16.1006 35.4104C15.6813 35.1432 15.386 34.7216 15.2797 34.2383C15.1733 33.755 15.2647 33.2495 15.5337 32.8331L16.3933 31.5016L17.0056 30.5517L19.939 26.0065C20.0718 25.8005 20.2446 25.6227 20.4471 25.4835C20.6497 25.3442 20.878 25.2462 21.119 25.1951C21.2536 25.1655 21.391 25.1507 21.5288 25.1508C21.8648 25.1528 22.1941 25.2442 22.4824 25.4155C22.7707 25.5868 23.0075 25.8318 23.168 26.1249C23.3285 26.4179 23.4069 26.7484 23.395 27.0817C23.3831 27.4151 23.2813 27.7392 23.1003 28.0203L18.6935 34.8484C18.4233 35.2626 17.9992 35.554 17.5136 35.6593C17.028 35.7645 16.5202 35.6751 16.1006 35.4104ZM20.3719 39.0913C19.9532 38.8241 19.6584 38.403 19.552 37.9203C19.4455 37.4376 19.5363 36.9327 19.8042 36.5163L20.2435 35.8363L23.2734 31.1415L25.0897 28.3274C25.2206 28.1169 25.3925 27.9343 25.5952 27.7904C25.7979 27.6465 26.0275 27.5441 26.2705 27.4892C26.5135 27.4343 26.7651 27.4279 27.0106 27.4706C27.2561 27.5132 27.4906 27.6039 27.7004 27.7374C27.9103 27.8709 28.0912 28.0445 28.2328 28.2482C28.3743 28.4518 28.4736 28.6814 28.5249 28.9235C28.5761 29.1657 28.5783 29.4155 28.5313 29.6585C28.4843 29.9015 28.389 30.1327 28.2511 30.3388L26.8247 32.5481L25.6087 34.4321L22.9656 38.5269C22.6966 38.9427 22.2725 39.2356 21.7863 39.3414C21.3001 39.4472 20.7914 39.3572 20.3719 39.0913ZM27.9242 40.1267C27.562 40.2049 27.1846 40.1749 26.8395 40.0404C26.4945 39.906 26.1973 39.6731 25.9854 39.3712C25.7735 39.0693 25.6563 38.7119 25.6488 38.344C25.6412 37.9761 25.7435 37.6142 25.9428 37.3039L28.0629 34.0204L28.377 33.5328C28.5099 33.3268 28.6827 33.1491 28.8852 33.0098C29.0878 32.8705 29.3161 32.7725 29.5571 32.7215C29.6911 32.6916 29.828 32.6759 29.9653 32.6748C30.3009 32.6771 30.6297 32.7687 30.9176 32.9399C31.2055 33.1111 31.442 33.3557 31.6025 33.6483C31.763 33.9409 31.8416 34.2709 31.8302 34.6039C31.8188 34.9368 31.7178 35.2607 31.5376 35.5418L29.1026 39.3137C28.9701 39.5199 28.7977 39.6979 28.5954 39.8374C28.3932 39.977 28.165 40.0753 27.9242 40.1267ZM50.3617 27.7511C50.0912 28.1695 49.6645 28.4642 49.1754 28.5704C48.6862 28.6767 48.1746 28.5859 47.7528 28.3179L46.1853 27.3205L41.0481 24.0529C40.9463 23.9866 40.8323 23.9411 40.7126 23.9189C40.5929 23.8967 40.47 23.8983 40.351 23.9236C40.232 23.9488 40.1191 23.9972 40.0191 24.0661C39.919 24.1349 39.8337 24.2227 39.768 24.3245C39.7023 24.4262 39.6577 24.5399 39.6365 24.6589C39.6154 24.7779 39.6182 24.8999 39.6449 25.0178C39.6715 25.1358 39.7215 25.2473 39.7918 25.3459C39.8621 25.4445 39.9515 25.5283 40.0547 25.5925L45.1878 28.8578C45.6095 29.126 45.9066 29.5495 46.0137 30.0351C46.1208 30.5208 46.0293 31.0288 45.7591 31.4474C45.489 31.866 45.0624 32.161 44.5732 32.2673C44.084 32.3737 43.5723 32.2828 43.1507 32.0146L41.5831 31.0172L38.1092 28.758C37.9048 28.6252 37.6557 28.5785 37.4166 28.6281C37.1775 28.6777 36.968 28.8195 36.8343 29.0224C36.7005 29.2253 36.6534 29.4727 36.7034 29.71C36.7533 29.9474 36.8962 30.1554 37.1006 30.2881L40.5785 32.5497C40.9983 32.8203 41.2942 33.244 41.4024 33.7292C41.5105 34.2145 41.4222 34.7225 41.1566 35.1437C40.8852 35.5608 40.4588 35.8545 39.9702 35.9607C39.4816 36.0669 38.9705 35.9769 38.5485 35.7105L37.567 35.0859L35.675 33.8819C35.4693 33.751 35.2197 33.7066 34.9811 33.7584C34.7424 33.8102 34.5343 33.954 34.4024 34.1582C34.2706 34.3623 34.2258 34.6101 34.278 34.8471C34.3302 35.084 34.475 35.2906 34.6807 35.4215L36.5759 36.6271C36.9973 36.8955 37.2941 37.3189 37.4011 37.8044C37.5081 38.2899 37.4167 38.7978 37.1468 39.2164C36.8756 39.6334 36.4494 39.9271 35.961 40.0334C35.4726 40.1397 34.9616 40.05 34.5396 39.7839L32.0272 38.181L33.0916 36.5313C33.4471 35.9811 33.649 35.3469 33.6766 34.6938C33.7042 34.0406 33.5565 33.3919 33.2487 32.8141C32.9409 32.2362 32.484 31.7498 31.9248 31.4047C31.3655 31.0597 30.724 30.8683 30.0658 30.8502C30.3787 30.1622 30.4716 29.3954 30.3319 28.6534C30.1922 27.9113 29.8266 27.2296 29.2845 26.7003C28.7423 26.171 28.0497 25.8194 27.3001 25.6931C26.5504 25.5668 25.7798 25.6717 25.0921 25.9938C24.8327 25.0928 24.2366 24.324 23.4257 23.8444C22.6147 23.3648 21.6499 23.2106 20.7283 23.4133C20.253 23.5157 19.8026 23.7096 19.4024 23.984C19.1484 23.3546 18.7249 22.8067 18.1781 22.4004C17.6314 21.9941 16.9825 21.745 16.3027 21.6805C15.6228 21.616 14.9382 21.7386 14.3238 22.0347C13.7095 22.3308 13.1891 22.7892 12.8196 23.3594L12.2559 24.2302L10.151 21.6132L18.8179 8.1833L27.4139 11.3813L24.2134 14.2088C24.1067 14.3035 24.0236 14.4215 23.9708 14.5535C23.9179 14.6855 23.8967 14.8279 23.9088 14.9695C23.9795 15.7952 24.275 16.5864 24.7638 17.2581C25.2526 17.9299 25.9163 18.457 26.6837 18.7829C27.4512 19.1089 28.2935 19.2215 29.1204 19.1086C29.9474 18.9957 30.7278 18.6617 31.3782 18.1422C31.3984 18.1263 31.4175 18.1097 31.4356 18.0923C32.6651 16.9196 33.9576 15.8137 35.3074 14.7795C35.5685 15.6665 36.049 16.4746 36.705 17.1302C37.3611 17.7858 38.1719 18.2681 39.0636 18.5332C39.4487 18.6432 39.8152 18.8094 40.1511 19.0264L49.794 25.1619C50.2139 25.4314 50.5096 25.8547 50.6167 26.3397C50.7238 26.8246 50.6335 27.3319 50.3657 27.7511H50.3617ZM60.1265 19.8512C60.1016 19.9302 60.0613 20.0035 60.0078 20.0669C59.9543 20.1304 59.8887 20.1827 59.8147 20.2208L54.8418 22.7697C54.6919 22.8462 54.5176 22.8606 54.357 22.8099C54.1964 22.7592 54.0626 22.6474 53.9847 22.499L45.6479 6.49091C45.6413 6.45928 45.6328 6.42808 45.6224 6.3975C45.582 6.27558 45.516 6.16359 45.4286 6.069L45.0945 5.42861C45.0565 5.35502 45.0335 5.27469 45.0268 5.19223C45.0201 5.10978 45.0298 5.02683 45.0555 4.94812C45.0801 4.86893 45.1204 4.79542 45.1741 4.73193C45.2278 4.66845 45.2937 4.61627 45.368 4.57846L50.3377 2.02641C50.426 1.98239 50.5236 1.96012 50.6224 1.9615C50.7398 1.9611 50.8551 1.99251 50.9558 2.05235C51.0565 2.11219 51.1389 2.19819 51.1941 2.30109L60.0874 19.3675C60.1261 19.4415 60.1494 19.5224 60.1561 19.6054C60.1628 19.6885 60.1528 19.772 60.1265 19.8512Z" fill="url(#paint0_linear_7258_644)"/>
<defs>
<linearGradient id="paint0_linear_7258_644" x1="31" y1="0" x2="31" y2="42" gradientUnits="userSpaceOnUse">
<stop stop-color="#B89405"/>
<stop offset="0.475" stop-color="#B7A24E"/>
<stop offset="1" stop-color="#524202"/>
</linearGradient>
</defs>
</svg>
