<svg width="50" height="49" viewBox="0 0 50 49" fill="none" xmlns="http://www.w3.org/2000/svg">
<path d="M37.8363 31.4565C37.4596 31.4565 37.1553 31.1527 37.1553 30.7769V11.9939C37.1553 11.6181 37.4597 11.3125 37.8363 11.3125C38.213 11.3125 38.5192 11.6181 38.5192 11.9939V30.7769C38.5192 30.9572 38.447 31.13 38.3195 31.2572C38.1901 31.3862 38.017 31.4565 37.8363 31.4565Z" fill="url(#paint0_linear_6360_630)"/>
<path d="M37.8363 46.036H8.42903C8.05236 46.036 7.74609 45.7323 7.74609 45.3564V4.05065C7.74609 3.67479 8.05238 3.37109 8.42903 3.37109H29.8766C30.2533 3.37109 30.5576 3.67481 30.5576 4.05065C30.5576 4.42648 30.2533 4.7302 29.8766 4.7302H9.10988V44.6768H37.8359C38.2125 44.6768 38.5188 44.9805 38.5188 45.3563C38.5188 45.5367 38.4465 45.7094 38.319 45.8366C38.1897 45.9657 38.0171 46.036 37.8363 46.036Z" fill="url(#paint1_linear_6360_630)"/>
<path d="M37.8365 12.6737H29.8768C29.5001 12.6737 29.1938 12.3699 29.1938 11.9941V4.04978C29.1938 3.77454 29.3594 3.52588 29.6143 3.42145C29.8692 3.31515 30.1641 3.37399 30.3581 3.56951L38.3198 11.5119C38.5138 11.7074 38.5728 11.9997 38.4663 12.2541C38.3616 12.5084 38.1124 12.6737 37.8365 12.6737ZM30.5581 11.3126H36.1909L30.5581 5.6921V11.3126Z" fill="url(#paint2_linear_6360_630)"/>
<path d="M34.7946 27.8317H11.471C11.0943 27.8317 10.7881 27.528 10.7881 27.1522C10.7881 26.7763 11.0944 26.4707 11.471 26.4707H34.7946C35.1712 26.4707 35.4775 26.7763 35.4775 27.1522C35.4775 27.528 35.1712 27.8317 34.7946 27.8317Z" fill="url(#paint3_linear_6360_630)"/>
<path d="M27.4894 32.3825H11.471C11.0943 32.3825 10.7881 32.0769 10.7881 31.701C10.7881 31.3252 11.0944 31.0215 11.471 31.0215H27.4894C27.866 31.0215 28.1723 31.3252 28.1723 31.701C28.1723 32.0769 27.866 32.3825 27.4894 32.3825Z" fill="url(#paint4_linear_6360_630)"/>
<path d="M27.4894 36.9352H11.471C11.0943 36.9352 10.7881 36.6315 10.7881 36.2557C10.7881 35.8798 11.0944 35.5742 11.471 35.5742H27.4894C27.866 35.5742 28.1723 35.8798 28.1723 36.2557C28.1723 36.6315 27.866 36.9352 27.4894 36.9352Z" fill="url(#paint5_linear_6360_630)"/>
<path d="M27.4894 41.4841H11.471C11.0943 41.4841 10.7881 41.1784 10.7881 40.8026C10.7881 40.4267 11.0944 40.123 11.471 40.123H27.4894C27.866 40.123 28.1723 40.4268 28.1723 40.8026C28.1723 41.1785 27.866 41.4841 27.4894 41.4841Z" fill="url(#paint6_linear_6360_630)"/>
<path d="M24.544 23.2804H16.1961C15.8194 23.2804 15.5132 22.9748 15.5132 22.599V20.0971C15.5151 17.9976 17.2196 16.2968 19.3218 16.2949H21.4163C23.5204 16.2968 25.2249 17.9976 25.2268 20.0971V22.6009V22.599C25.2268 22.7793 25.1545 22.9539 25.027 23.0811C24.8996 23.2083 24.7247 23.2804 24.544 23.2804ZM16.8775 21.9194H23.8632V20.097C23.8613 18.7493 22.7674 17.6578 21.4167 17.6559H19.3222H19.3241C17.9734 17.6578 16.8795 18.7493 16.8776 20.0952L16.8775 21.9194Z" fill="url(#paint7_linear_6360_630)"/>
<path d="M20.3709 15.1938C19.3474 15.1938 18.4266 14.5788 18.0347 13.6372C17.6447 12.6957 17.8597 11.6099 18.5826 10.8886C19.3055 10.1673 20.3937 9.95277 21.3372 10.3419C22.2808 10.733 22.8972 11.6517 22.8972 12.673C22.8953 14.0644 21.7653 15.1919 20.3709 15.1938ZM20.3709 11.5112C19.8991 11.5112 19.4749 11.794 19.296 12.2288C19.1153 12.6635 19.2142 13.1627 19.5471 13.493C19.8801 13.8252 20.3804 13.9258 20.8161 13.7455C21.2498 13.5651 21.5333 13.1418 21.5333 12.673C21.5333 12.0314 21.012 11.5131 20.3709 11.5112Z" fill="url(#paint8_linear_6360_630)"/>
<path d="M26.6313 23.2794H14.1078C13.7311 23.2794 13.4268 22.9738 13.4268 22.5979V8.0194C13.4268 7.64354 13.7311 7.33984 14.1078 7.33984H26.6313C27.008 7.33984 27.3143 7.64356 27.3143 8.0194V22.5979C27.3143 22.7783 27.242 22.9529 27.1145 23.0801C26.9852 23.2073 26.8121 23.2794 26.6313 23.2794ZM14.7911 21.9183H25.9505V8.70094H14.7911V21.9183Z" fill="url(#paint9_linear_6360_630)"/>
<path d="M37.8365 46.0346C35.7191 46.0346 33.6874 45.1937 32.19 43.6998C30.6929 42.2059 29.8501 40.1785 29.8501 38.0637C29.8501 35.951 30.691 33.9237 32.1881 32.4277C35.3043 29.3184 40.3724 29.3184 43.4864 32.4277C46.6006 35.537 46.6025 40.5941 43.4864 43.7012V43.7031C41.9892 45.1989 39.9555 46.038 37.836 46.0342L37.8365 46.0346ZM37.8365 31.4561C36.0787 31.4542 34.3931 32.149 33.1509 33.3904C30.5674 35.9683 30.5674 40.1636 33.1509 42.7411C35.7343 45.3189 39.9389 45.3189 42.522 42.7411C45.1054 40.1633 45.1054 35.9679 42.522 33.3904C41.2797 32.149 39.5943 31.4542 37.8365 31.4561Z" fill="url(#paint10_linear_6360_630)"/>
<path d="M37.8361 43.7119C35.8139 43.7119 33.9457 42.6356 32.9358 40.8892C31.9237 39.1409 31.9237 36.9883 32.9358 35.242C33.0423 35.0578 33.2269 34.9344 33.4361 34.9079C33.6454 34.8813 33.8565 34.9515 34.0068 35.1015L40.808 41.8878C40.9583 42.0358 41.0287 42.2465 41.002 42.4554C40.9754 42.6661 40.8517 42.8502 40.6691 42.9565C39.8073 43.4519 38.8311 43.7138 37.8361 43.7119ZM33.746 36.7623V36.7642C33.2609 38.2904 33.668 39.9608 34.8037 41.0941C35.9395 42.2273 37.6136 42.6336 39.1431 42.1477L33.746 36.7623Z" fill="url(#paint11_linear_6360_630)"/>
<path d="M42.1471 41.2325C41.9663 41.2325 41.7932 41.1604 41.6657 41.0332L34.8646 34.2469C34.7143 34.0988 34.6439 33.8881 34.6706 33.6793C34.6991 33.4686 34.8228 33.2845 35.0054 33.1782C37.2236 31.9007 40.026 32.2689 41.8367 34.0761C43.6497 35.8832 44.0188 38.6793 42.7366 40.8925C42.6319 41.0766 42.4455 41.2 42.2363 41.2266C42.2058 41.2304 42.1775 41.2325 42.1471 41.2325ZM36.5294 33.987L41.9323 39.3723C42.4193 37.8442 42.0103 36.1719 40.8726 35.0386C39.7369 33.9053 38.0608 33.4991 36.5294 33.987Z" fill="url(#paint12_linear_6360_630)"/>
<defs>
<linearGradient id="paint0_linear_6360_630" x1="37.8373" y1="11.3125" x2="37.8373" y2="31.4565" gradientUnits="userSpaceOnUse">
<stop stop-color="#B89405"/>
<stop offset="0.385" stop-color="#B7A24E"/>
<stop offset="0.965" stop-color="#524202"/>
</linearGradient>
<linearGradient id="paint1_linear_6360_630" x1="23.1324" y1="3.37109" x2="23.1324" y2="46.036" gradientUnits="userSpaceOnUse">
<stop stop-color="#B89405"/>
<stop offset="0.385" stop-color="#B7A24E"/>
<stop offset="0.965" stop-color="#524202"/>
</linearGradient>
<linearGradient id="paint2_linear_6360_630" x1="33.8563" y1="3.36914" x2="33.8563" y2="12.6737" gradientUnits="userSpaceOnUse">
<stop stop-color="#B89405"/>
<stop offset="0.385" stop-color="#B7A24E"/>
<stop offset="0.965" stop-color="#524202"/>
</linearGradient>
<linearGradient id="paint3_linear_6360_630" x1="23.1328" y1="26.4707" x2="23.1328" y2="27.8317" gradientUnits="userSpaceOnUse">
<stop stop-color="#B89405"/>
<stop offset="0.385" stop-color="#B7A24E"/>
<stop offset="0.965" stop-color="#524202"/>
</linearGradient>
<linearGradient id="paint4_linear_6360_630" x1="19.4802" y1="31.0215" x2="19.4802" y2="32.3825" gradientUnits="userSpaceOnUse">
<stop stop-color="#B89405"/>
<stop offset="0.385" stop-color="#B7A24E"/>
<stop offset="0.965" stop-color="#524202"/>
</linearGradient>
<linearGradient id="paint5_linear_6360_630" x1="19.4802" y1="35.5742" x2="19.4802" y2="36.9352" gradientUnits="userSpaceOnUse">
<stop stop-color="#B89405"/>
<stop offset="0.385" stop-color="#B7A24E"/>
<stop offset="0.965" stop-color="#524202"/>
</linearGradient>
<linearGradient id="paint6_linear_6360_630" x1="19.4802" y1="40.123" x2="19.4802" y2="41.4841" gradientUnits="userSpaceOnUse">
<stop stop-color="#B89405"/>
<stop offset="0.385" stop-color="#B7A24E"/>
<stop offset="0.965" stop-color="#524202"/>
</linearGradient>
<linearGradient id="paint7_linear_6360_630" x1="20.37" y1="16.2949" x2="20.37" y2="23.2804" gradientUnits="userSpaceOnUse">
<stop stop-color="#B89405"/>
<stop offset="0.385" stop-color="#B7A24E"/>
<stop offset="0.965" stop-color="#524202"/>
</linearGradient>
<linearGradient id="paint8_linear_6360_630" x1="20.37" y1="10.1504" x2="20.37" y2="15.1938" gradientUnits="userSpaceOnUse">
<stop stop-color="#B89405"/>
<stop offset="0.385" stop-color="#B7A24E"/>
<stop offset="0.965" stop-color="#524202"/>
</linearGradient>
<linearGradient id="paint9_linear_6360_630" x1="20.3705" y1="7.33984" x2="20.3705" y2="23.2794" gradientUnits="userSpaceOnUse">
<stop stop-color="#B89405"/>
<stop offset="0.385" stop-color="#B7A24E"/>
<stop offset="0.965" stop-color="#524202"/>
</linearGradient>
<linearGradient id="paint10_linear_6360_630" x1="37.8364" y1="30.0957" x2="37.8364" y2="46.0346" gradientUnits="userSpaceOnUse">
<stop stop-color="#B89405"/>
<stop offset="0.385" stop-color="#B7A24E"/>
<stop offset="0.965" stop-color="#524202"/>
</linearGradient>
<linearGradient id="paint11_linear_6360_630" x1="36.5922" y1="34.9023" x2="36.5922" y2="43.712" gradientUnits="userSpaceOnUse">
<stop stop-color="#B89405"/>
<stop offset="0.385" stop-color="#B7A24E"/>
<stop offset="0.965" stop-color="#524202"/>
</linearGradient>
<linearGradient id="paint12_linear_6360_630" x1="39.0805" y1="32.4219" x2="39.0805" y2="41.2325" gradientUnits="userSpaceOnUse">
<stop stop-color="#B89405"/>
<stop offset="0.385" stop-color="#B7A24E"/>
<stop offset="0.965" stop-color="#524202"/>
</linearGradient>
</defs>
</svg>
