<svg width="39" height="44" viewBox="0 0 39 44" fill="none" xmlns="http://www.w3.org/2000/svg">
<path d="M30.8363 28.4565C30.4596 28.4565 30.1553 28.1527 30.1553 27.7769V8.99395C30.1553 8.6181 30.4597 8.3125 30.8363 8.3125C31.213 8.3125 31.5192 8.61812 31.5192 8.99395V27.7769C31.5192 27.9572 31.447 28.13 31.3195 28.2572C31.1901 28.3862 31.017 28.4565 30.8363 28.4565Z" fill="url(#paint0_linear_6360_631)"/>
<path d="M30.8363 43.036H1.42903C1.05236 43.036 0.746094 42.7323 0.746094 42.3564V1.05065C0.746094 0.674793 1.05238 0.371094 1.42903 0.371094H22.8766C23.2533 0.371094 23.5576 0.674813 23.5576 1.05065C23.5576 1.42648 23.2533 1.7302 22.8766 1.7302H2.10988V41.6768H30.8359C31.2125 41.6768 31.5188 41.9805 31.5188 42.3563C31.5188 42.5367 31.4465 42.7094 31.319 42.8366C31.1897 42.9657 31.0171 43.036 30.8363 43.036Z" fill="url(#paint1_linear_6360_631)"/>
<path d="M30.8365 9.67365H22.8768C22.5001 9.67365 22.1938 9.36994 22.1938 8.9941V1.04978C22.1938 0.774536 22.3594 0.52588 22.6143 0.42145C22.8692 0.315148 23.1641 0.373994 23.3581 0.569514L31.3198 8.51189C31.5138 8.7074 31.5728 8.99973 31.4663 9.25408C31.3616 9.50845 31.1124 9.67365 30.8365 9.67365ZM23.5581 8.3126H29.1909L23.5581 2.6921V8.3126Z" fill="url(#paint2_linear_6360_631)"/>
<path d="M27.7946 24.8317H4.47103C4.09435 24.8317 3.78809 24.528 3.78809 24.1522C3.78809 23.7763 4.09437 23.4707 4.47103 23.4707H27.7946C28.1712 23.4707 28.4775 23.7763 28.4775 24.1522C28.4775 24.528 28.1712 24.8317 27.7946 24.8317Z" fill="url(#paint3_linear_6360_631)"/>
<path d="M20.4894 29.3825H4.47103C4.09435 29.3825 3.78809 29.0769 3.78809 28.701C3.78809 28.3252 4.09437 28.0215 4.47103 28.0215H20.4894C20.866 28.0215 21.1723 28.3252 21.1723 28.701C21.1723 29.0769 20.866 29.3825 20.4894 29.3825Z" fill="url(#paint4_linear_6360_631)"/>
<path d="M20.4894 33.9352H4.47103C4.09435 33.9352 3.78809 33.6315 3.78809 33.2557C3.78809 32.8798 4.09437 32.5742 4.47103 32.5742H20.4894C20.866 32.5742 21.1723 32.8798 21.1723 33.2557C21.1723 33.6315 20.866 33.9352 20.4894 33.9352Z" fill="url(#paint5_linear_6360_631)"/>
<path d="M20.4894 38.4841H4.47103C4.09435 38.4841 3.78809 38.1784 3.78809 37.8026C3.78809 37.4267 4.09437 37.123 4.47103 37.123H20.4894C20.866 37.123 21.1723 37.4268 21.1723 37.8026C21.1723 38.1785 20.866 38.4841 20.4894 38.4841Z" fill="url(#paint6_linear_6360_631)"/>
<path d="M17.544 20.2804H9.19612C8.81945 20.2804 8.51318 19.9748 8.51318 19.599V17.0971C8.51509 14.9976 10.2196 13.2968 12.3218 13.2949H14.4163C16.5204 13.2968 18.2249 14.9976 18.2268 17.0971V19.6009V19.599C18.2268 19.7793 18.1545 19.9539 18.027 20.0811C17.8996 20.2083 17.7247 20.2804 17.544 20.2804ZM9.87745 18.9194H16.8632V17.097C16.8613 15.7493 15.7674 14.6578 14.4167 14.6559H12.3222H12.3241C10.9734 14.6578 9.8795 15.7493 9.8776 17.0952L9.87745 18.9194Z" fill="url(#paint7_linear_6360_631)"/>
<path d="M13.3709 12.1938C12.3474 12.1938 11.4266 11.5788 11.0347 10.6372C10.6447 9.69572 10.8597 8.60991 11.5826 7.88861C12.3055 7.16727 13.3937 6.95277 14.3372 7.34192C15.2808 7.73296 15.8972 8.6517 15.8972 9.67297C15.8953 11.0644 14.7653 12.1919 13.3709 12.1938ZM13.3709 8.51121C12.8991 8.51121 12.4749 8.79405 12.296 9.22877C12.1153 9.66346 12.2142 10.1627 12.5471 10.493C12.8801 10.8252 13.3804 10.9258 13.8161 10.7455C14.2498 10.5651 14.5333 10.1418 14.5333 9.67299C14.5333 9.03139 14.012 8.51311 13.3709 8.51121Z" fill="url(#paint8_linear_6360_631)"/>
<path d="M19.6313 20.2794H7.1078C6.73112 20.2794 6.42676 19.9738 6.42676 19.5979V5.0194C6.42676 4.64354 6.73114 4.33984 7.1078 4.33984H19.6313C20.008 4.33984 20.3143 4.64356 20.3143 5.0194V19.5979C20.3143 19.7783 20.242 19.9529 20.1145 20.0801C19.9852 20.2073 19.8121 20.2794 19.6313 20.2794ZM7.79108 18.9183H18.9505V5.70094H7.79108V18.9183Z" fill="url(#paint9_linear_6360_631)"/>
<path d="M30.8365 43.0346C28.7191 43.0346 26.6874 42.1937 25.19 40.6998C23.6929 39.2059 22.8501 37.1785 22.8501 35.0637C22.8501 32.951 23.691 30.9237 25.1881 29.4277C28.3043 26.3184 33.3724 26.3184 36.4864 29.4277C39.6006 32.537 39.6025 37.5941 36.4864 40.7012V40.7031C34.9892 42.1989 32.9555 43.038 30.836 43.0342L30.8365 43.0346ZM30.8365 28.4561C29.0787 28.4542 27.3931 29.149 26.1509 30.3904C23.5674 32.9683 23.5674 37.1636 26.1509 39.7411C28.7343 42.3189 32.9389 42.3189 35.522 39.7411C38.1054 37.1633 38.1054 32.9679 35.522 30.3904C34.2797 29.149 32.5943 28.4542 30.8365 28.4561Z" fill="url(#paint10_linear_6360_631)"/>
<path d="M30.8361 40.7119C28.8139 40.7119 26.9457 39.6356 25.9358 37.8892C24.9237 36.1409 24.9237 33.9883 25.9358 32.242C26.0423 32.0578 26.2269 31.9344 26.4361 31.9079C26.6454 31.8813 26.8565 31.9515 27.0068 32.1015L33.808 38.8878C33.9583 39.0358 34.0287 39.2465 34.002 39.4554C33.9754 39.6661 33.8517 39.8502 33.6691 39.9565C32.8073 40.4519 31.8311 40.7138 30.8361 40.7119ZM26.746 33.7623V33.7642C26.2609 35.2904 26.668 36.9608 27.8037 38.0941C28.9395 39.2273 30.6136 39.6336 32.1431 39.1477L26.746 33.7623Z" fill="url(#paint11_linear_6360_631)"/>
<path d="M35.1471 38.2325C34.9663 38.2325 34.7932 38.1604 34.6657 38.0332L27.8646 31.2469C27.7143 31.0988 27.6439 30.8881 27.6706 30.6793C27.6991 30.4686 27.8228 30.2845 28.0054 30.1782C30.2236 28.9007 33.026 29.2689 34.8367 31.0761C36.6497 32.8832 37.0188 35.6793 35.7366 37.8925C35.6319 38.0766 35.4455 38.2 35.2363 38.2266C35.2058 38.2304 35.1775 38.2325 35.1471 38.2325ZM29.5294 30.987L34.9323 36.3723C35.4193 34.8442 35.0103 33.1719 33.8726 32.0386C32.7369 30.9053 31.0608 30.4991 29.5294 30.987Z" fill="url(#paint12_linear_6360_631)"/>
<defs>
<linearGradient id="paint0_linear_6360_631" x1="30.8373" y1="8.3125" x2="30.8373" y2="28.4565" gradientUnits="userSpaceOnUse">
<stop stop-color="#B89405"/>
<stop offset="0.385" stop-color="#B7A24E"/>
<stop offset="0.965" stop-color="#524202"/>
</linearGradient>
<linearGradient id="paint1_linear_6360_631" x1="16.1324" y1="0.371094" x2="16.1324" y2="43.036" gradientUnits="userSpaceOnUse">
<stop stop-color="#B89405"/>
<stop offset="0.385" stop-color="#B7A24E"/>
<stop offset="0.965" stop-color="#524202"/>
</linearGradient>
<linearGradient id="paint2_linear_6360_631" x1="26.8563" y1="0.369141" x2="26.8563" y2="9.67365" gradientUnits="userSpaceOnUse">
<stop stop-color="#B89405"/>
<stop offset="0.385" stop-color="#B7A24E"/>
<stop offset="0.965" stop-color="#524202"/>
</linearGradient>
<linearGradient id="paint3_linear_6360_631" x1="16.1328" y1="23.4707" x2="16.1328" y2="24.8317" gradientUnits="userSpaceOnUse">
<stop stop-color="#B89405"/>
<stop offset="0.385" stop-color="#B7A24E"/>
<stop offset="0.965" stop-color="#524202"/>
</linearGradient>
<linearGradient id="paint4_linear_6360_631" x1="12.4802" y1="28.0215" x2="12.4802" y2="29.3825" gradientUnits="userSpaceOnUse">
<stop stop-color="#B89405"/>
<stop offset="0.385" stop-color="#B7A24E"/>
<stop offset="0.965" stop-color="#524202"/>
</linearGradient>
<linearGradient id="paint5_linear_6360_631" x1="12.4802" y1="32.5742" x2="12.4802" y2="33.9352" gradientUnits="userSpaceOnUse">
<stop stop-color="#B89405"/>
<stop offset="0.385" stop-color="#B7A24E"/>
<stop offset="0.965" stop-color="#524202"/>
</linearGradient>
<linearGradient id="paint6_linear_6360_631" x1="12.4802" y1="37.123" x2="12.4802" y2="38.4841" gradientUnits="userSpaceOnUse">
<stop stop-color="#B89405"/>
<stop offset="0.385" stop-color="#B7A24E"/>
<stop offset="0.965" stop-color="#524202"/>
</linearGradient>
<linearGradient id="paint7_linear_6360_631" x1="13.37" y1="13.2949" x2="13.37" y2="20.2804" gradientUnits="userSpaceOnUse">
<stop stop-color="#B89405"/>
<stop offset="0.385" stop-color="#B7A24E"/>
<stop offset="0.965" stop-color="#524202"/>
</linearGradient>
<linearGradient id="paint8_linear_6360_631" x1="13.37" y1="7.15039" x2="13.37" y2="12.1938" gradientUnits="userSpaceOnUse">
<stop stop-color="#B89405"/>
<stop offset="0.385" stop-color="#B7A24E"/>
<stop offset="0.965" stop-color="#524202"/>
</linearGradient>
<linearGradient id="paint9_linear_6360_631" x1="13.3705" y1="4.33984" x2="13.3705" y2="20.2794" gradientUnits="userSpaceOnUse">
<stop stop-color="#B89405"/>
<stop offset="0.385" stop-color="#B7A24E"/>
<stop offset="0.965" stop-color="#524202"/>
</linearGradient>
<linearGradient id="paint10_linear_6360_631" x1="30.8364" y1="27.0957" x2="30.8364" y2="43.0346" gradientUnits="userSpaceOnUse">
<stop stop-color="#B89405"/>
<stop offset="0.385" stop-color="#B7A24E"/>
<stop offset="0.965" stop-color="#524202"/>
</linearGradient>
<linearGradient id="paint11_linear_6360_631" x1="29.5922" y1="31.9023" x2="29.5922" y2="40.712" gradientUnits="userSpaceOnUse">
<stop stop-color="#B89405"/>
<stop offset="0.385" stop-color="#B7A24E"/>
<stop offset="0.965" stop-color="#524202"/>
</linearGradient>
<linearGradient id="paint12_linear_6360_631" x1="32.0805" y1="29.4219" x2="32.0805" y2="38.2325" gradientUnits="userSpaceOnUse">
<stop stop-color="#B89405"/>
<stop offset="0.385" stop-color="#B7A24E"/>
<stop offset="0.965" stop-color="#524202"/>
</linearGradient>
</defs>
</svg>
