<svg width="57" height="56" viewBox="0 0 57 56" fill="none" xmlns="http://www.w3.org/2000/svg">
<path d="M13.9312 0.0246582C6.68757 0.0246582 0.794983 5.8717 0.794983 13.058C0.794983 20.2443 6.68819 26.0913 13.9312 26.0913C21.1742 26.0913 27.0674 20.2443 27.0674 13.058C27.0674 5.8717 21.1742 0.0246582 13.9312 0.0246582ZM13.9312 24.3612C7.64963 24.3612 2.53932 19.291 2.53932 13.0586C2.53932 6.82622 7.64963 1.75533 13.9312 1.75533C20.2128 1.75533 25.3237 6.82561 25.3237 13.058C25.3237 19.2904 20.2128 24.3612 13.9312 24.3612ZM16.7315 12.2356C17.4549 11.5215 17.9034 10.5335 17.9034 9.44323C17.9034 7.27 16.1216 5.50158 13.9306 5.50158C11.7402 5.50158 9.95844 7.26939 9.95844 9.44323C9.95844 10.5335 10.407 11.5215 11.1303 12.2356C8.65832 13.31 6.92686 15.759 6.92686 18.6037C6.92686 19.0816 7.31708 19.4687 7.79872 19.4687H20.0631C20.5447 19.4687 20.935 19.0816 20.935 18.6037C20.935 15.759 19.2035 13.31 16.7315 12.2356ZM11.7028 9.44323C11.7028 8.22391 12.7023 7.23225 13.9312 7.23225C15.1602 7.23225 16.1596 8.22391 16.1596 9.44323C16.1596 10.6626 15.1602 11.6542 13.9312 11.6542C12.7023 11.6542 11.7028 10.6626 11.7028 9.44323ZM8.74299 17.7381C9.15959 15.2708 11.3273 13.3843 13.9306 13.3843C16.5339 13.3843 18.7016 15.2708 19.1182 17.7381H8.74299ZM13.9312 29.3366C6.68757 29.3366 0.794983 35.1836 0.794983 42.3699C0.794983 49.5562 6.68819 55.4032 13.9312 55.4032C21.1742 55.4032 27.0674 49.5562 27.0674 42.3699C27.0674 35.1836 21.1742 29.3366 13.9312 29.3366ZM13.9312 53.6731C7.64963 53.6731 2.53932 48.6029 2.53932 42.3705C2.53932 36.1381 7.64963 31.0678 13.9312 31.0678C20.2128 31.0678 25.3237 36.1381 25.3237 42.3705C25.3237 48.6029 20.2128 53.6731 13.9312 53.6731ZM16.7315 41.5475C17.4549 40.8334 17.9034 39.8454 17.9034 38.7551C17.9034 36.5819 16.1216 34.8135 13.9306 34.8135C11.7402 34.8135 9.95844 36.5813 9.95844 38.7551C9.95844 39.8454 10.407 40.8334 11.1303 41.5475C8.65832 42.6219 6.92686 45.0709 6.92686 47.9156C6.92686 48.3935 7.31708 48.7806 7.79872 48.7806H20.0631C20.5447 48.7806 20.935 48.3935 20.935 47.9156C20.935 45.0709 19.2035 42.6219 16.7315 41.5475ZM11.7028 38.7551C11.7028 37.5358 12.7023 36.5442 13.9312 36.5442C15.1602 36.5442 16.1596 37.5358 16.1596 38.7551C16.1596 39.9745 15.1602 40.9661 13.9312 40.9661C12.7023 40.9661 11.7028 39.9739 11.7028 38.7551ZM8.74299 47.05C9.15959 44.5827 11.3273 42.6962 13.9306 42.6962C16.5339 42.6962 18.7016 44.5821 19.1182 47.05H8.74299ZM32.4766 13.0586C32.4766 12.5807 32.8668 12.1936 33.3484 12.1936H55.7377C56.2193 12.1936 56.6096 12.5807 56.6096 13.0586C56.6096 13.5365 56.2193 13.9236 55.7377 13.9236H33.349C32.8674 13.9236 32.4766 13.5365 32.4766 13.0586ZM56.6108 18.818C56.6108 19.2958 56.2206 19.683 55.7389 19.683H33.349C32.8674 19.683 32.4772 19.2958 32.4772 18.818C32.4772 18.3401 32.8674 17.9529 33.349 17.9529H55.7383C56.2199 17.9529 56.6108 18.3401 56.6108 18.818ZM32.4766 7.29861C32.4766 6.82074 32.8668 6.43357 33.3484 6.43357H48.521C49.0027 6.43357 49.3929 6.82074 49.3929 7.29861C49.3929 7.77648 49.0027 8.16364 48.521 8.16364H33.349C32.8674 8.16425 32.4766 7.77648 32.4766 7.29861ZM56.6108 42.3699C56.6108 42.8478 56.2206 43.2349 55.7389 43.2349H33.349C32.8674 43.2349 32.4772 42.8478 32.4772 42.3699C32.4772 41.892 32.8674 41.5049 33.349 41.5049H55.7383C56.2199 41.5049 56.6108 41.892 56.6108 42.3699ZM56.6108 48.1299C56.6108 48.6077 56.2206 48.9949 55.7389 48.9949H33.349C32.8674 48.9949 32.4772 48.6077 32.4772 48.1299C32.4772 47.652 32.8674 47.2648 33.349 47.2648H55.7383C56.2199 47.2642 56.6108 47.652 56.6108 48.1299ZM32.4766 36.6105C32.4766 36.1326 32.8668 35.7455 33.3484 35.7455H48.521C49.0027 35.7455 49.3929 36.1326 49.3929 36.6105C49.3929 37.0884 49.0027 37.4755 48.521 37.4755H33.349C32.8674 37.4755 32.4766 37.0884 32.4766 36.6105Z" fill="#400C88"/>
</svg>
