<svg width="32" height="43" viewBox="0 0 32 43" fill="none" xmlns="http://www.w3.org/2000/svg">
<mask id="path-1-outside-1_6360_697" maskUnits="userSpaceOnUse" x="-0.640137" y="-0.699219" width="33" height="43" fill="black">
<rect fill="white" x="-0.640137" y="-0.699219" width="33" height="43"/>
<path d="M27.9742 0.300917H20.3787C20.3608 0.300917 20.3446 0.308105 20.3284 0.311698C20.3015 0.315292 20.2745 0.317089 20.2493 0.32787C20.2224 0.338651 20.2008 0.35662 20.1775 0.370995C20.1631 0.37998 20.1487 0.38537 20.1343 0.396151L15.9189 4.30256C15.9153 4.30616 15.9099 4.30975 15.9063 4.31334L15.1965 4.97101C15.1875 4.97819 15.1857 4.98897 15.1785 4.99616C15.1749 4.99976 15.1695 5.00335 15.1642 5.00694C15.157 5.01413 15.157 5.02491 15.1498 5.0321C15.13 5.06085 15.1138 5.0914 15.1031 5.12194C15.0995 5.13272 15.0995 5.13991 15.0959 5.15069C15.0869 5.18663 15.0851 5.22437 15.0869 5.2621C15.0869 5.26929 15.0887 5.27647 15.0905 5.28187C15.0959 5.3214 15.1067 5.35733 15.1264 5.39327C15.13 5.40046 15.1336 5.40585 15.1372 5.41124C15.1498 5.4328 15.1588 5.45616 15.1767 5.47593C15.1875 5.48671 15.2019 5.4921 15.2145 5.50288C15.2181 5.50468 15.2181 5.50827 15.2217 5.51007L21.784 10.7136L16.1472 17.8436L17.4445 12.1368C17.4481 12.1225 17.4445 12.1081 17.4463 12.0919C17.4481 12.065 17.4517 12.0416 17.4481 12.0146C17.4463 11.9931 17.4391 11.9715 17.4337 11.9517C17.4265 11.9284 17.4194 11.9068 17.4086 11.8853C17.396 11.8637 17.3816 11.8457 17.3655 11.8278C17.3547 11.8152 17.3493 11.8008 17.3367 11.7882L10.0126 5.19367L13.4733 0.884761C13.4841 0.872183 13.4877 0.856011 13.4949 0.843433C13.5093 0.82187 13.5201 0.800308 13.529 0.776949C13.538 0.75359 13.5398 0.730232 13.5434 0.705074C13.5452 0.688903 13.5524 0.674528 13.5524 0.658357C13.5524 0.651169 13.5488 0.645779 13.5488 0.640388C13.5488 0.615232 13.5416 0.59367 13.5344 0.568513C13.5291 0.54695 13.5237 0.525388 13.5147 0.503828C13.5057 0.484062 13.4913 0.46789 13.4787 0.451719C13.4644 0.430156 13.45 0.410391 13.4302 0.394219C13.4248 0.390625 13.423 0.383438 13.4176 0.379844C13.4051 0.369063 13.3907 0.367266 13.3763 0.358281C13.3548 0.343906 13.3332 0.333125 13.3098 0.324141C13.2865 0.315156 13.2631 0.31336 13.238 0.309766C13.2236 0.307969 13.2092 0.300781 13.193 0.300781H3.65172C1.83688 0.300781 0.359863 1.77421 0.359863 3.58725V38.7018C0.359863 40.5131 1.83688 41.9883 3.65172 41.9883H27.9724C29.7872 41.9883 31.2642 40.5149 31.2642 38.7018L31.266 3.58725C31.266 1.77421 29.7891 0.300917 27.9742 0.300917ZM15.9963 5.21188L16.309 4.92258H27.1567V10.8469H22.589C22.6052 10.8218 22.6214 10.7948 22.6303 10.7679C22.6321 10.7643 22.6339 10.7607 22.6357 10.7571C22.6411 10.7373 22.6393 10.7157 22.6411 10.696C22.6447 10.6708 22.6501 10.6457 22.6483 10.6205C22.6465 10.6115 22.6411 10.6043 22.6393 10.5954C22.6321 10.5594 22.625 10.5235 22.6052 10.4893C22.5836 10.448 22.5513 10.4103 22.5135 10.3797H22.5118L15.9963 5.21188ZM15.2093 10.845H4.47105V4.92254H9.31025L9.25634 4.99082C9.25634 4.99082 9.25275 4.99262 9.25275 4.99441C9.25095 4.99621 9.25095 4.9998 9.24916 5.0016L9.23837 5.01418C9.22939 5.02137 9.2258 5.03394 9.2204 5.04473C9.20244 5.07348 9.18447 5.10043 9.17548 5.13098C9.17009 5.15074 9.17009 5.17051 9.1665 5.19027C9.1629 5.21543 9.15931 5.23879 9.16111 5.26574C9.16291 5.2909 9.17189 5.31606 9.17908 5.34121C9.18447 5.35918 9.18806 5.37894 9.19705 5.39512C9.21142 5.42387 9.23298 5.44723 9.25455 5.47238C9.26353 5.48137 9.26712 5.49395 9.27611 5.50293L9.28869 5.51371C9.29048 5.51551 9.29048 5.51731 9.29228 5.5191H9.29408L15.2093 10.845ZM30.5475 38.7022C30.5475 40.1181 29.3939 41.2699 27.9744 41.2699H3.65188C2.23237 41.2699 1.07873 40.1181 1.07873 38.7022V3.58762C1.07873 2.17169 2.23232 1.0199 3.65188 1.0199H12.442L9.88327 4.20397H4.10797C3.91031 4.20397 3.7486 4.36569 3.7486 4.56335V11.2062C3.7486 11.4039 3.91031 11.5656 4.10797 11.5656H16.0031L16.6931 12.1891L16.1379 14.6329L4.11119 14.6311C3.91353 14.6311 3.75182 14.7928 3.75182 14.9904C3.75182 15.1881 3.91353 15.3498 4.11119 15.3498H15.9778L15.0937 19.2364C15.0901 19.2526 15.0937 19.2688 15.0919 19.2868C15.0901 19.3155 15.0866 19.3425 15.0901 19.3694C15.0937 19.391 15.1045 19.4125 15.1099 19.4323C15.1171 19.4557 15.1243 19.4772 15.1351 19.4988C15.1494 19.5204 15.1674 19.5383 15.1854 19.5563C15.198 19.5707 15.2051 19.5868 15.2213 19.5976C15.2231 19.5994 15.2249 19.5976 15.2267 19.5994C15.2662 19.63 15.313 19.6533 15.3633 19.6659C15.3902 19.6713 15.4172 19.6749 15.4423 19.6749C15.4909 19.6749 15.5376 19.6623 15.5807 19.6443C15.5951 19.6389 15.6058 19.63 15.6184 19.6228C15.6508 19.6048 15.6777 19.5832 15.7029 19.5545C15.7101 19.5473 15.7173 19.5455 15.7244 19.5365L19.0361 15.3462H27.5139C27.7115 15.3462 27.8732 15.1845 27.8732 14.9868C27.8732 14.7892 27.7115 14.6275 27.5139 14.6275L19.606 14.6292L22.03 11.5638H27.5141C27.7118 11.5638 27.8735 11.402 27.8735 11.2044V4.56291C27.8735 4.36525 27.7118 4.20353 27.5141 4.20353H17.0831L20.5188 1.01946H27.9722C29.3935 1.01946 30.5471 2.17125 30.5471 3.58718L30.5475 38.7022Z"/>
</mask>
<path d="M27.9742 0.300917H20.3787C20.3608 0.300917 20.3446 0.308105 20.3284 0.311698C20.3015 0.315292 20.2745 0.317089 20.2493 0.32787C20.2224 0.338651 20.2008 0.35662 20.1775 0.370995C20.1631 0.37998 20.1487 0.38537 20.1343 0.396151L15.9189 4.30256C15.9153 4.30616 15.9099 4.30975 15.9063 4.31334L15.1965 4.97101C15.1875 4.97819 15.1857 4.98897 15.1785 4.99616C15.1749 4.99976 15.1695 5.00335 15.1642 5.00694C15.157 5.01413 15.157 5.02491 15.1498 5.0321C15.13 5.06085 15.1138 5.0914 15.1031 5.12194C15.0995 5.13272 15.0995 5.13991 15.0959 5.15069C15.0869 5.18663 15.0851 5.22437 15.0869 5.2621C15.0869 5.26929 15.0887 5.27647 15.0905 5.28187C15.0959 5.3214 15.1067 5.35733 15.1264 5.39327C15.13 5.40046 15.1336 5.40585 15.1372 5.41124C15.1498 5.4328 15.1588 5.45616 15.1767 5.47593C15.1875 5.48671 15.2019 5.4921 15.2145 5.50288C15.2181 5.50468 15.2181 5.50827 15.2217 5.51007L21.784 10.7136L16.1472 17.8436L17.4445 12.1368C17.4481 12.1225 17.4445 12.1081 17.4463 12.0919C17.4481 12.065 17.4517 12.0416 17.4481 12.0146C17.4463 11.9931 17.4391 11.9715 17.4337 11.9517C17.4265 11.9284 17.4194 11.9068 17.4086 11.8853C17.396 11.8637 17.3816 11.8457 17.3655 11.8278C17.3547 11.8152 17.3493 11.8008 17.3367 11.7882L10.0126 5.19367L13.4733 0.884761C13.4841 0.872183 13.4877 0.856011 13.4949 0.843433C13.5093 0.82187 13.5201 0.800308 13.529 0.776949C13.538 0.75359 13.5398 0.730232 13.5434 0.705074C13.5452 0.688903 13.5524 0.674528 13.5524 0.658357C13.5524 0.651169 13.5488 0.645779 13.5488 0.640388C13.5488 0.615232 13.5416 0.59367 13.5344 0.568513C13.5291 0.54695 13.5237 0.525388 13.5147 0.503828C13.5057 0.484062 13.4913 0.46789 13.4787 0.451719C13.4644 0.430156 13.45 0.410391 13.4302 0.394219C13.4248 0.390625 13.423 0.383438 13.4176 0.379844C13.4051 0.369063 13.3907 0.367266 13.3763 0.358281C13.3548 0.343906 13.3332 0.333125 13.3098 0.324141C13.2865 0.315156 13.2631 0.31336 13.238 0.309766C13.2236 0.307969 13.2092 0.300781 13.193 0.300781H3.65172C1.83688 0.300781 0.359863 1.77421 0.359863 3.58725V38.7018C0.359863 40.5131 1.83688 41.9883 3.65172 41.9883H27.9724C29.7872 41.9883 31.2642 40.5149 31.2642 38.7018L31.266 3.58725C31.266 1.77421 29.7891 0.300917 27.9742 0.300917ZM15.9963 5.21188L16.309 4.92258H27.1567V10.8469H22.589C22.6052 10.8218 22.6214 10.7948 22.6303 10.7679C22.6321 10.7643 22.6339 10.7607 22.6357 10.7571C22.6411 10.7373 22.6393 10.7157 22.6411 10.696C22.6447 10.6708 22.6501 10.6457 22.6483 10.6205C22.6465 10.6115 22.6411 10.6043 22.6393 10.5954C22.6321 10.5594 22.625 10.5235 22.6052 10.4893C22.5836 10.448 22.5513 10.4103 22.5135 10.3797H22.5118L15.9963 5.21188ZM15.2093 10.845H4.47105V4.92254H9.31025L9.25634 4.99082C9.25634 4.99082 9.25275 4.99262 9.25275 4.99441C9.25095 4.99621 9.25095 4.9998 9.24916 5.0016L9.23837 5.01418C9.22939 5.02137 9.2258 5.03394 9.2204 5.04473C9.20244 5.07348 9.18447 5.10043 9.17548 5.13098C9.17009 5.15074 9.17009 5.17051 9.1665 5.19027C9.1629 5.21543 9.15931 5.23879 9.16111 5.26574C9.16291 5.2909 9.17189 5.31606 9.17908 5.34121C9.18447 5.35918 9.18806 5.37894 9.19705 5.39512C9.21142 5.42387 9.23298 5.44723 9.25455 5.47238C9.26353 5.48137 9.26712 5.49395 9.27611 5.50293L9.28869 5.51371C9.29048 5.51551 9.29048 5.51731 9.29228 5.5191H9.29408L15.2093 10.845ZM30.5475 38.7022C30.5475 40.1181 29.3939 41.2699 27.9744 41.2699H3.65188C2.23237 41.2699 1.07873 40.1181 1.07873 38.7022V3.58762C1.07873 2.17169 2.23232 1.0199 3.65188 1.0199H12.442L9.88327 4.20397H4.10797C3.91031 4.20397 3.7486 4.36569 3.7486 4.56335V11.2062C3.7486 11.4039 3.91031 11.5656 4.10797 11.5656H16.0031L16.6931 12.1891L16.1379 14.6329L4.11119 14.6311C3.91353 14.6311 3.75182 14.7928 3.75182 14.9904C3.75182 15.1881 3.91353 15.3498 4.11119 15.3498H15.9778L15.0937 19.2364C15.0901 19.2526 15.0937 19.2688 15.0919 19.2868C15.0901 19.3155 15.0866 19.3425 15.0901 19.3694C15.0937 19.391 15.1045 19.4125 15.1099 19.4323C15.1171 19.4557 15.1243 19.4772 15.1351 19.4988C15.1494 19.5204 15.1674 19.5383 15.1854 19.5563C15.198 19.5707 15.2051 19.5868 15.2213 19.5976C15.2231 19.5994 15.2249 19.5976 15.2267 19.5994C15.2662 19.63 15.313 19.6533 15.3633 19.6659C15.3902 19.6713 15.4172 19.6749 15.4423 19.6749C15.4909 19.6749 15.5376 19.6623 15.5807 19.6443C15.5951 19.6389 15.6058 19.63 15.6184 19.6228C15.6508 19.6048 15.6777 19.5832 15.7029 19.5545C15.7101 19.5473 15.7173 19.5455 15.7244 19.5365L19.0361 15.3462H27.5139C27.7115 15.3462 27.8732 15.1845 27.8732 14.9868C27.8732 14.7892 27.7115 14.6275 27.5139 14.6275L19.606 14.6292L22.03 11.5638H27.5141C27.7118 11.5638 27.8735 11.402 27.8735 11.2044V4.56291C27.8735 4.36525 27.7118 4.20353 27.5141 4.20353H17.0831L20.5188 1.01946H27.9722C29.3935 1.01946 30.5471 2.17125 30.5471 3.58718L30.5475 38.7022Z" fill="url(#paint0_linear_6360_697)"/>
<path d="M27.9742 0.300917H20.3787C20.3608 0.300917 20.3446 0.308105 20.3284 0.311698C20.3015 0.315292 20.2745 0.317089 20.2493 0.32787C20.2224 0.338651 20.2008 0.35662 20.1775 0.370995C20.1631 0.37998 20.1487 0.38537 20.1343 0.396151L15.9189 4.30256C15.9153 4.30616 15.9099 4.30975 15.9063 4.31334L15.1965 4.97101C15.1875 4.97819 15.1857 4.98897 15.1785 4.99616C15.1749 4.99976 15.1695 5.00335 15.1642 5.00694C15.157 5.01413 15.157 5.02491 15.1498 5.0321C15.13 5.06085 15.1138 5.0914 15.1031 5.12194C15.0995 5.13272 15.0995 5.13991 15.0959 5.15069C15.0869 5.18663 15.0851 5.22437 15.0869 5.2621C15.0869 5.26929 15.0887 5.27647 15.0905 5.28187C15.0959 5.3214 15.1067 5.35733 15.1264 5.39327C15.13 5.40046 15.1336 5.40585 15.1372 5.41124C15.1498 5.4328 15.1588 5.45616 15.1767 5.47593C15.1875 5.48671 15.2019 5.4921 15.2145 5.50288C15.2181 5.50468 15.2181 5.50827 15.2217 5.51007L21.784 10.7136L16.1472 17.8436L17.4445 12.1368C17.4481 12.1225 17.4445 12.1081 17.4463 12.0919C17.4481 12.065 17.4517 12.0416 17.4481 12.0146C17.4463 11.9931 17.4391 11.9715 17.4337 11.9517C17.4265 11.9284 17.4194 11.9068 17.4086 11.8853C17.396 11.8637 17.3816 11.8457 17.3655 11.8278C17.3547 11.8152 17.3493 11.8008 17.3367 11.7882L10.0126 5.19367L13.4733 0.884761C13.4841 0.872183 13.4877 0.856011 13.4949 0.843433C13.5093 0.82187 13.5201 0.800308 13.529 0.776949C13.538 0.75359 13.5398 0.730232 13.5434 0.705074C13.5452 0.688903 13.5524 0.674528 13.5524 0.658357C13.5524 0.651169 13.5488 0.645779 13.5488 0.640388C13.5488 0.615232 13.5416 0.59367 13.5344 0.568513C13.5291 0.54695 13.5237 0.525388 13.5147 0.503828C13.5057 0.484062 13.4913 0.46789 13.4787 0.451719C13.4644 0.430156 13.45 0.410391 13.4302 0.394219C13.4248 0.390625 13.423 0.383438 13.4176 0.379844C13.4051 0.369063 13.3907 0.367266 13.3763 0.358281C13.3548 0.343906 13.3332 0.333125 13.3098 0.324141C13.2865 0.315156 13.2631 0.31336 13.238 0.309766C13.2236 0.307969 13.2092 0.300781 13.193 0.300781H3.65172C1.83688 0.300781 0.359863 1.77421 0.359863 3.58725V38.7018C0.359863 40.5131 1.83688 41.9883 3.65172 41.9883H27.9724C29.7872 41.9883 31.2642 40.5149 31.2642 38.7018L31.266 3.58725C31.266 1.77421 29.7891 0.300917 27.9742 0.300917ZM15.9963 5.21188L16.309 4.92258H27.1567V10.8469H22.589C22.6052 10.8218 22.6214 10.7948 22.6303 10.7679C22.6321 10.7643 22.6339 10.7607 22.6357 10.7571C22.6411 10.7373 22.6393 10.7157 22.6411 10.696C22.6447 10.6708 22.6501 10.6457 22.6483 10.6205C22.6465 10.6115 22.6411 10.6043 22.6393 10.5954C22.6321 10.5594 22.625 10.5235 22.6052 10.4893C22.5836 10.448 22.5513 10.4103 22.5135 10.3797H22.5118L15.9963 5.21188ZM15.2093 10.845H4.47105V4.92254H9.31025L9.25634 4.99082C9.25634 4.99082 9.25275 4.99262 9.25275 4.99441C9.25095 4.99621 9.25095 4.9998 9.24916 5.0016L9.23837 5.01418C9.22939 5.02137 9.2258 5.03394 9.2204 5.04473C9.20244 5.07348 9.18447 5.10043 9.17548 5.13098C9.17009 5.15074 9.17009 5.17051 9.1665 5.19027C9.1629 5.21543 9.15931 5.23879 9.16111 5.26574C9.16291 5.2909 9.17189 5.31606 9.17908 5.34121C9.18447 5.35918 9.18806 5.37894 9.19705 5.39512C9.21142 5.42387 9.23298 5.44723 9.25455 5.47238C9.26353 5.48137 9.26712 5.49395 9.27611 5.50293L9.28869 5.51371C9.29048 5.51551 9.29048 5.51731 9.29228 5.5191H9.29408L15.2093 10.845ZM30.5475 38.7022C30.5475 40.1181 29.3939 41.2699 27.9744 41.2699H3.65188C2.23237 41.2699 1.07873 40.1181 1.07873 38.7022V3.58762C1.07873 2.17169 2.23232 1.0199 3.65188 1.0199H12.442L9.88327 4.20397H4.10797C3.91031 4.20397 3.7486 4.36569 3.7486 4.56335V11.2062C3.7486 11.4039 3.91031 11.5656 4.10797 11.5656H16.0031L16.6931 12.1891L16.1379 14.6329L4.11119 14.6311C3.91353 14.6311 3.75182 14.7928 3.75182 14.9904C3.75182 15.1881 3.91353 15.3498 4.11119 15.3498H15.9778L15.0937 19.2364C15.0901 19.2526 15.0937 19.2688 15.0919 19.2868C15.0901 19.3155 15.0866 19.3425 15.0901 19.3694C15.0937 19.391 15.1045 19.4125 15.1099 19.4323C15.1171 19.4557 15.1243 19.4772 15.1351 19.4988C15.1494 19.5204 15.1674 19.5383 15.1854 19.5563C15.198 19.5707 15.2051 19.5868 15.2213 19.5976C15.2231 19.5994 15.2249 19.5976 15.2267 19.5994C15.2662 19.63 15.313 19.6533 15.3633 19.6659C15.3902 19.6713 15.4172 19.6749 15.4423 19.6749C15.4909 19.6749 15.5376 19.6623 15.5807 19.6443C15.5951 19.6389 15.6058 19.63 15.6184 19.6228C15.6508 19.6048 15.6777 19.5832 15.7029 19.5545C15.7101 19.5473 15.7173 19.5455 15.7244 19.5365L19.0361 15.3462H27.5139C27.7115 15.3462 27.8732 15.1845 27.8732 14.9868C27.8732 14.7892 27.7115 14.6275 27.5139 14.6275L19.606 14.6292L22.03 11.5638H27.5141C27.7118 11.5638 27.8735 11.402 27.8735 11.2044V4.56291C27.8735 4.36525 27.7118 4.20353 27.5141 4.20353H17.0831L20.5188 1.01946H27.9722C29.3935 1.01946 30.5471 2.17125 30.5471 3.58718L30.5475 38.7022Z" stroke="url(#paint1_linear_6360_697)" stroke-width="0.6" mask="url(#path-1-outside-1_6360_697)"/>
<path d="M19.2949 19.398H27.5156C27.7961 19.398 28.025 19.1692 28.025 18.8887C28.025 18.6082 27.7961 18.3793 27.5156 18.3793H19.2949C19.0144 18.3793 18.7855 18.6082 18.7855 18.8887C18.7855 19.1687 19.0121 19.398 19.2949 19.398Z" fill="url(#paint2_linear_6360_697)" stroke="url(#paint3_linear_6360_697)" stroke-width="0.3"/>
<path d="M4.11133 19.398H13.1839C13.4644 19.398 13.6933 19.1692 13.6933 18.8887C13.6933 18.6082 13.4644 18.3793 13.1839 18.3793H4.11133C3.83083 18.3793 3.60195 18.6082 3.60195 18.8887C3.60195 19.1687 3.82855 19.398 4.11133 19.398Z" fill="url(#paint4_linear_6360_697)" stroke="url(#paint5_linear_6360_697)" stroke-width="0.3"/>
<path d="M28.0235 22.793C28.0235 22.5125 27.7946 22.2836 27.5141 22.2836H23.6616C23.3811 22.2836 23.1522 22.5125 23.1522 22.793C23.1522 23.0735 23.3811 23.3023 23.6616 23.3023H27.5141C27.7964 23.3023 28.0235 23.0753 28.0235 22.793Z" fill="url(#paint6_linear_6360_697)" stroke="url(#paint7_linear_6360_697)" stroke-width="0.3"/>
<path d="M4.11133 23.3023H17.076C17.3565 23.3023 17.5853 23.0735 17.5853 22.793C17.5853 22.5125 17.3565 22.2836 17.076 22.2836H4.11133C3.83083 22.2836 3.60195 22.5125 3.60195 22.793C3.60195 23.0753 3.82903 23.3023 4.11133 23.3023Z" fill="url(#paint8_linear_6360_697)" stroke="url(#paint9_linear_6360_697)" stroke-width="0.3"/>
<path d="M27.6127 26.1859H27.5156C27.2351 26.1859 27.0062 26.4148 27.0062 26.6953C27.0062 26.9758 27.2351 27.2047 27.5156 27.2047H27.6127C27.8932 27.2047 28.122 26.9758 28.122 26.6953C28.122 26.4125 27.8927 26.1859 27.6127 26.1859Z" fill="url(#paint10_linear_6360_697)" stroke="url(#paint11_linear_6360_697)" stroke-width="0.3"/>
<path d="M4.11133 27.2047H13.1246C13.4051 27.2047 13.6339 26.9758 13.6339 26.6953C13.6339 26.4148 13.4051 26.1859 13.1246 26.1859H4.11133C3.83083 26.1859 3.60195 26.4148 3.60195 26.6953C3.60195 26.9753 3.82855 27.2047 4.11133 27.2047Z" fill="url(#paint12_linear_6360_697)" stroke="url(#paint13_linear_6360_697)" stroke-width="0.3"/>
<path d="M4.11133 31.1051H10.4271C10.7076 31.1051 10.9365 30.8762 10.9365 30.5957C10.9365 30.3152 10.7076 30.0863 10.4271 30.0863H4.11133C3.83083 30.0863 3.60195 30.3152 3.60195 30.5957C3.60195 30.8757 3.82855 31.1051 4.11133 31.1051Z" fill="url(#paint14_linear_6360_697)" stroke="url(#paint15_linear_6360_697)" stroke-width="0.3"/>
<path d="M11.6209 33.9887H4.11182C3.83132 33.9887 3.60244 34.2175 3.60244 34.498C3.60244 34.7785 3.83132 35.0074 4.11182 35.0074H11.6209C11.9014 35.0074 12.1302 34.7785 12.1302 34.498C12.1302 34.2153 11.9009 33.9887 11.6209 33.9887Z" fill="url(#paint16_linear_6360_697)" stroke="url(#paint17_linear_6360_697)" stroke-width="0.3"/>
<defs>
<linearGradient id="paint0_linear_6360_697" x1="15.8129" y1="0.300781" x2="15.8129" y2="41.9883" gradientUnits="userSpaceOnUse">
<stop stop-color="#B89405"/>
<stop offset="0.385" stop-color="#B7A24E"/>
<stop offset="0.965" stop-color="#524202"/>
</linearGradient>
<linearGradient id="paint1_linear_6360_697" x1="15.8129" y1="0.300781" x2="15.8129" y2="41.9883" gradientUnits="userSpaceOnUse">
<stop stop-color="#B89405"/>
<stop offset="0.385" stop-color="#B7A24E"/>
<stop offset="0.965" stop-color="#524202"/>
</linearGradient>
<linearGradient id="paint2_linear_6360_697" x1="23.4053" y1="18.5293" x2="23.4053" y2="19.248" gradientUnits="userSpaceOnUse">
<stop stop-color="#B89405"/>
<stop offset="0.385" stop-color="#B7A24E"/>
<stop offset="0.965" stop-color="#524202"/>
</linearGradient>
<linearGradient id="paint3_linear_6360_697" x1="23.4053" y1="18.5293" x2="23.4053" y2="19.248" gradientUnits="userSpaceOnUse">
<stop stop-color="#B89405"/>
<stop offset="0.385" stop-color="#B7A24E"/>
<stop offset="0.965" stop-color="#524202"/>
</linearGradient>
<linearGradient id="paint4_linear_6360_697" x1="8.64762" y1="18.5293" x2="8.64762" y2="19.248" gradientUnits="userSpaceOnUse">
<stop stop-color="#B89405"/>
<stop offset="0.385" stop-color="#B7A24E"/>
<stop offset="0.965" stop-color="#524202"/>
</linearGradient>
<linearGradient id="paint5_linear_6360_697" x1="8.64762" y1="18.5293" x2="8.64762" y2="19.248" gradientUnits="userSpaceOnUse">
<stop stop-color="#B89405"/>
<stop offset="0.385" stop-color="#B7A24E"/>
<stop offset="0.965" stop-color="#524202"/>
</linearGradient>
<linearGradient id="paint6_linear_6360_697" x1="25.5879" y1="22.4336" x2="25.5879" y2="23.1523" gradientUnits="userSpaceOnUse">
<stop stop-color="#B89405"/>
<stop offset="0.385" stop-color="#B7A24E"/>
<stop offset="0.965" stop-color="#524202"/>
</linearGradient>
<linearGradient id="paint7_linear_6360_697" x1="25.5879" y1="22.4336" x2="25.5879" y2="23.1523" gradientUnits="userSpaceOnUse">
<stop stop-color="#B89405"/>
<stop offset="0.385" stop-color="#B7A24E"/>
<stop offset="0.965" stop-color="#524202"/>
</linearGradient>
<linearGradient id="paint8_linear_6360_697" x1="10.5936" y1="22.4336" x2="10.5936" y2="23.1523" gradientUnits="userSpaceOnUse">
<stop stop-color="#B89405"/>
<stop offset="0.385" stop-color="#B7A24E"/>
<stop offset="0.965" stop-color="#524202"/>
</linearGradient>
<linearGradient id="paint9_linear_6360_697" x1="10.5936" y1="22.4336" x2="10.5936" y2="23.1523" gradientUnits="userSpaceOnUse">
<stop stop-color="#B89405"/>
<stop offset="0.385" stop-color="#B7A24E"/>
<stop offset="0.965" stop-color="#524202"/>
</linearGradient>
<linearGradient id="paint10_linear_6360_697" x1="27.5641" y1="26.3359" x2="27.5641" y2="27.0547" gradientUnits="userSpaceOnUse">
<stop stop-color="#B89405"/>
<stop offset="0.385" stop-color="#B7A24E"/>
<stop offset="0.965" stop-color="#524202"/>
</linearGradient>
<linearGradient id="paint11_linear_6360_697" x1="27.5641" y1="26.3359" x2="27.5641" y2="27.0547" gradientUnits="userSpaceOnUse">
<stop stop-color="#B89405"/>
<stop offset="0.385" stop-color="#B7A24E"/>
<stop offset="0.965" stop-color="#524202"/>
</linearGradient>
<linearGradient id="paint12_linear_6360_697" x1="8.61795" y1="26.3359" x2="8.61795" y2="27.0547" gradientUnits="userSpaceOnUse">
<stop stop-color="#B89405"/>
<stop offset="0.385" stop-color="#B7A24E"/>
<stop offset="0.965" stop-color="#524202"/>
</linearGradient>
<linearGradient id="paint13_linear_6360_697" x1="8.61795" y1="26.3359" x2="8.61795" y2="27.0547" gradientUnits="userSpaceOnUse">
<stop stop-color="#B89405"/>
<stop offset="0.385" stop-color="#B7A24E"/>
<stop offset="0.965" stop-color="#524202"/>
</linearGradient>
<linearGradient id="paint14_linear_6360_697" x1="7.26923" y1="30.2363" x2="7.26923" y2="30.9551" gradientUnits="userSpaceOnUse">
<stop stop-color="#B89405"/>
<stop offset="0.385" stop-color="#B7A24E"/>
<stop offset="0.965" stop-color="#524202"/>
</linearGradient>
<linearGradient id="paint15_linear_6360_697" x1="7.26923" y1="30.2363" x2="7.26923" y2="30.9551" gradientUnits="userSpaceOnUse">
<stop stop-color="#B89405"/>
<stop offset="0.385" stop-color="#B7A24E"/>
<stop offset="0.965" stop-color="#524202"/>
</linearGradient>
<linearGradient id="paint16_linear_6360_697" x1="7.86634" y1="34.1387" x2="7.86634" y2="34.8574" gradientUnits="userSpaceOnUse">
<stop stop-color="#B89405"/>
<stop offset="0.385" stop-color="#B7A24E"/>
<stop offset="0.965" stop-color="#524202"/>
</linearGradient>
<linearGradient id="paint17_linear_6360_697" x1="7.86634" y1="34.1387" x2="7.86634" y2="34.8574" gradientUnits="userSpaceOnUse">
<stop stop-color="#B89405"/>
<stop offset="0.385" stop-color="#B7A24E"/>
<stop offset="0.965" stop-color="#524202"/>
</linearGradient>
</defs>
</svg>
