<svg width="56" height="59" viewBox="0 0 56 59" fill="none" xmlns="http://www.w3.org/2000/svg">
<g clip-path="url(#clip0_6349_762)">
<path d="M31.3631 15.3185C31.8442 15.3185 32.2343 14.9285 32.2343 14.4473V7.0169C32.2343 4.29825 30.9317 2.97656 28.2518 2.97656H19.3116C18.8305 2.97656 18.4404 3.36664 18.4404 3.84776C18.4404 4.32887 18.8305 4.71895 19.3116 4.71895H28.2518C29.9686 4.71895 30.4919 5.25578 30.4919 7.0169V14.4473C30.4919 14.9285 30.8819 15.3185 31.3631 15.3185Z" fill="url(#paint0_linear_6349_762)"/>
<path d="M13.5664 29.4024C13.5664 29.6411 13.6623 29.8572 13.8178 30.0146C13.8623 30.2013 13.9184 30.5897 13.9184 31.1448C13.9184 31.7 13.8623 32.0883 13.8178 32.2751C13.6623 32.4325 13.5664 32.6486 13.5664 32.8872C13.5664 33.3683 13.9565 33.7584 14.4376 33.7584C15.534 33.7584 15.6608 32.267 15.6608 31.1448C15.6608 30.0226 15.534 28.5312 14.4376 28.5312C13.9565 28.5312 13.5664 28.9213 13.5664 29.4024Z" fill="url(#paint1_linear_6349_762)"/>
<path d="M33.977 43.7195C33.977 45.4321 32.6149 46.8257 30.9406 46.8257H19.1667V14.5126C19.1667 11.8739 17.3344 8.50359 15.0739 6.9841L6.94898 1.52364H30.9406C32.6149 1.52364 33.977 2.91698 33.977 4.62983V17.8883C34.5143 17.606 35.1005 17.3057 35.7194 17.0418V4.62983C35.7194 1.95157 33.5805 -0.21875 30.9406 -0.21875H4.35666L4.35645 48.8293L15.0194 54.8383C15.7543 55.3126 16.4445 55.5376 17.043 55.5376C18.31 55.5376 19.1667 54.5282 19.1667 52.736V48.5681H30.9406C33.5805 48.5681 35.7194 46.3973 35.7194 43.7195V38.985H33.977V43.7195ZM17.4243 52.736C17.4243 52.8445 17.4137 53.7952 17.043 53.7952C16.9147 53.7952 16.5532 53.7544 15.9642 53.3741L6.09883 47.8113V3.05162L14.1019 8.43024C15.8717 9.61981 17.4243 12.4623 17.4243 14.5126V52.736Z" fill="url(#paint2_linear_6349_762)"/>
<path d="M49.4079 23.3284H39.9873C40.1349 23.2127 40.2753 23.0974 40.4084 22.9832C41.0401 22.4394 41.4026 21.652 41.4026 20.8229C41.4026 20.1402 41.1558 19.4789 40.7083 18.9612C40.2085 18.3822 39.5091 18.0762 38.6852 18.0762C37.3622 18.0762 35.9308 18.8289 34.6678 19.4931C34.1569 19.7618 33.6745 20.0155 33.3299 20.1402C32.549 20.4233 31.7416 20.7157 31.0193 21.0277C29.0404 21.7124 27.8037 22.4842 26.8003 23.1108C25.5364 23.9006 24.7735 24.3774 23.0656 24.3774C22.3569 24.3774 21.7803 24.9525 21.7803 25.6593V33.6909C21.7803 34.3983 22.3569 34.9738 23.0656 34.9738C23.5359 34.9738 24.337 35.3716 25.12 35.7604C26.4527 36.418 28.1115 37.2369 30.0545 37.2369H33.0479C33.0905 37.2403 33.133 37.2424 33.1751 37.2424H36.9245C38.464 37.2424 39.7163 35.9633 39.7163 34.3915C39.7163 34.2315 39.7027 34.072 39.6759 33.9146C40.3957 33.3859 40.8355 32.5364 40.8355 31.6082C40.8355 31.4997 40.8295 31.3921 40.8176 31.2853C41.6254 30.8008 42.1635 29.9168 42.1984 28.9257H49.4079C51.0142 28.9257 52.272 27.6867 52.272 26.1051C52.272 24.548 51.0142 23.3284 49.4079 23.3284ZM49.4079 27.1833H39.8903L40.3701 28.379C40.4276 28.5216 40.4577 28.6755 40.4577 28.824C40.4577 29.3553 40.1 29.8135 39.607 29.9134L38.5325 30.1312L38.9876 31.1287C39.0574 31.2823 39.0931 31.4435 39.0931 31.6082C39.0931 32.0612 38.8298 32.4649 38.4219 32.6363L37.3924 32.9669L37.8561 33.8912C37.9331 34.0448 37.9739 34.2179 37.9739 34.3915C37.9739 35.0028 37.503 35.5 36.9245 35.5L30.0545 35.4945C28.518 35.4945 27.1827 34.8351 25.8867 34.1958C25.059 33.7849 24.2692 33.3927 23.5227 33.2706V26.1092C25.4365 26.0179 26.5034 25.3512 27.7319 24.5833C28.6571 24.0059 29.8082 23.2872 31.6182 22.6642L31.682 22.6395C32.3626 22.3441 33.156 22.0565 33.9293 21.7762C34.3798 21.613 34.9137 21.3325 35.479 21.0352C36.5098 20.4932 37.7923 19.8186 38.6852 19.8186C39.094 19.8186 39.276 19.9687 39.3896 20.1002C39.564 20.302 39.6602 20.5587 39.6602 20.8229C39.6602 21.1441 39.5185 21.4503 39.2726 21.662C38.5992 22.2403 37.6897 22.8548 36.6424 23.4388L33.7158 25.0708H49.4079C50.0473 25.0708 50.5297 25.5156 50.5297 26.1051C50.5297 26.7198 50.0473 27.1833 49.4079 27.1833Z" fill="url(#paint3_linear_6349_762)"/>
</g>
<defs>
<linearGradient id="paint0_linear_6349_762" x1="25.3373" y1="2.97656" x2="25.3373" y2="15.3185" gradientUnits="userSpaceOnUse">
<stop stop-color="#0AA818"/>
<stop offset="0.26" stop-color="#0DBD1C"/>
<stop offset="0.79" stop-color="#283C2A"/>
</linearGradient>
<linearGradient id="paint1_linear_6349_762" x1="14.6136" y1="28.5312" x2="14.6136" y2="33.7584" gradientUnits="userSpaceOnUse">
<stop stop-color="#0AA818"/>
<stop offset="0.26" stop-color="#0DBD1C"/>
<stop offset="0.79" stop-color="#283C2A"/>
</linearGradient>
<linearGradient id="paint2_linear_6349_762" x1="20.0379" y1="-0.21875" x2="20.0379" y2="55.5376" gradientUnits="userSpaceOnUse">
<stop stop-color="#0AA818"/>
<stop offset="0.26" stop-color="#0DBD1C"/>
<stop offset="0.79" stop-color="#283C2A"/>
</linearGradient>
<linearGradient id="paint3_linear_6349_762" x1="37.0262" y1="18.0762" x2="37.0262" y2="37.2424" gradientUnits="userSpaceOnUse">
<stop stop-color="#0AA818"/>
<stop offset="0.26" stop-color="#0DBD1C"/>
<stop offset="0.79" stop-color="#283C2A"/>
</linearGradient>
<clipPath id="clip0_6349_762">
<rect width="55.7564" height="58.8056" fill="white"/>
</clipPath>
</defs>
</svg>
