<svg width="38" height="42" viewBox="0 0 38 42" fill="none" xmlns="http://www.w3.org/2000/svg">
<g clip-path="url(#clip0_6359_648)">
<mask id="path-1-outside-1_6359_648" maskUnits="userSpaceOnUse" x="-1" y="0.212891" width="40" height="39" fill="black">
<rect fill="white" x="-1" y="0.212891" width="40" height="39"/>
<path d="M6.2016 15.5048C8.5044 15.5048 10.3778 13.6314 10.3778 11.3286C10.3778 9.02575 8.5044 7.15235 6.2016 7.15235C3.8988 7.15235 2.0254 9.02575 2.0254 11.3286C2.0254 13.6314 3.8988 15.5048 6.2016 15.5048ZM6.2016 8.14795C7.9534 8.14795 9.3822 9.57295 9.3822 11.3286C9.3822 13.0804 7.9572 14.5092 6.2016 14.5092C4.446 14.5092 3.021 13.0842 3.021 11.3286C3.021 9.57675 4.4498 8.14795 6.2016 8.14795ZM1.368 28.611V36.8265C1.368 37.9552 2.2838 38.871 3.4124 38.871C4.503 38.871 5.3808 38.0046 5.4568 36.857C5.5404 35.5726 5.8938 33.4066 6.2016 31.6852C6.5094 33.4028 6.8628 35.5726 6.9464 36.857C7.0186 38.0046 7.9002 38.871 8.9908 38.871C10.1194 38.871 11.0352 37.9552 11.0352 36.8265V19.5746L12.3158 18.7576V18.9058C12.3158 19.1794 12.54 19.4036 12.8136 19.4036H35.9708C36.2444 19.4036 36.4686 19.1794 36.4686 18.9058V4.55695H36.9208C37.5136 4.55695 38 4.07435 38 3.47775V2.29215C38 1.69935 37.5174 1.21295 36.9208 1.21295H11.8598C11.267 1.21295 10.7806 1.69555 10.7806 2.29215V3.47775C10.7806 4.07055 11.2632 4.55695 11.8598 4.55695H12.312V14.4104L9.5038 16.1546C7.2276 16.3945 4.4612 16.1546 4.4612 16.1546C2.0026 16.1584 0 18.161 0 20.6196V26.8592C0 27.7028 0.5814 28.4134 1.368 28.611ZM11.78 3.48155V2.29215C11.78 2.24655 11.818 2.20855 11.8636 2.20855H36.9246C36.9702 2.20855 37.0082 2.24655 37.0082 2.29215V3.47775C37.0082 3.52335 36.9702 3.56135 36.9246 3.56135H35.9784C35.9746 3.56135 35.9746 3.56135 35.9708 3.56135H12.8136C12.8098 3.56135 12.8098 3.56135 12.806 3.56135H11.8598C11.8142 3.56135 11.78 3.52715 11.78 3.48155ZM13.3114 4.55695H35.473V18.4042H13.3114V18.1192L17.271 15.5884C18.1184 15.064 18.3768 13.9468 17.8524 13.0993C17.328 12.252 16.2108 11.9936 15.3634 12.518L13.3114 13.791V4.55695ZM4.465 17.1502H9.652C9.7432 17.1502 9.8344 17.1236 9.9142 17.0742L15.8878 13.3616C16.2678 13.126 16.7694 13.2438 17.005 13.6238C17.2406 14.0038 17.1228 14.5054 16.739 14.7448L12.6996 17.325C12.5856 17.3516 12.4868 17.4162 12.4184 17.5036L8.5576 19.9736C8.3258 20.1218 8.2574 20.4296 8.4056 20.6614C8.5538 20.8932 8.8616 20.9616 9.0934 20.8134L10.0396 20.2092V36.8265C10.0396 37.4042 9.5684 37.8754 8.9908 37.8754C8.4322 37.8754 7.98 37.4118 7.942 36.7924C7.7862 34.3718 6.7374 29.1316 6.6918 28.9036C6.688 28.8884 6.6842 28.8694 6.6804 28.8542C6.6804 28.8504 6.6766 28.8465 6.6766 28.8465C6.6728 28.8352 6.669 28.8238 6.6614 28.8086C6.6576 28.7972 6.65 28.7896 6.6462 28.7782C6.6424 28.7744 6.6424 28.7706 6.6386 28.7668C6.631 28.7554 6.6272 28.7478 6.6196 28.7364C6.6158 28.7326 6.6158 28.7288 6.612 28.725C6.6044 28.7174 6.6006 28.706 6.593 28.6984C6.5892 28.6946 6.5854 28.6908 6.5816 28.687C6.5778 28.6794 6.5702 28.6756 6.5626 28.6679C6.5588 28.6642 6.5512 28.6566 6.5474 28.6528C6.5436 28.649 6.5398 28.6452 6.5322 28.6414C6.5246 28.6338 6.517 28.6262 6.5094 28.6224C6.5056 28.6186 6.5018 28.6186 6.498 28.6147C6.4866 28.6072 6.479 28.5996 6.4676 28.592C6.4638 28.592 6.4638 28.5882 6.46 28.5882C6.4486 28.5806 6.4372 28.573 6.4258 28.5654C6.4258 28.5654 6.422 28.5654 6.422 28.5616C6.4106 28.554 6.3992 28.5501 6.384 28.5425C6.3764 28.5387 6.3726 28.5388 6.365 28.535C6.3574 28.5312 6.3498 28.5274 6.3384 28.5274C6.3232 28.5236 6.308 28.5198 6.289 28.516C6.2738 28.5122 6.2586 28.5122 6.2396 28.5084C6.232 28.5084 6.2244 28.5084 6.2168 28.5084C6.2092 28.5084 6.1978 28.5084 6.1902 28.5084C6.1788 28.5084 6.1674 28.5084 6.156 28.5084C6.1522 28.5084 6.1484 28.5084 6.1408 28.5084C6.1256 28.5084 6.1104 28.5122 6.0952 28.516C6.0952 28.516 6.0952 28.516 6.0914 28.516C6.0762 28.5198 6.061 28.5236 6.042 28.5274C5.9812 28.5464 5.9242 28.5767 5.8748 28.6147C5.8634 28.6224 5.8558 28.6338 5.8444 28.6414C5.8406 28.6452 5.8406 28.6452 5.8368 28.649C5.8292 28.6566 5.8216 28.6642 5.814 28.6718C5.8102 28.6756 5.8064 28.6794 5.8026 28.687C5.7988 28.6946 5.7912 28.6984 5.7874 28.706C5.7836 28.7136 5.776 28.7174 5.7722 28.725C5.7684 28.7288 5.7646 28.7364 5.7608 28.7402C5.757 28.7478 5.7494 28.7554 5.7456 28.7668C5.7418 28.7706 5.7418 28.7782 5.738 28.7858C5.7342 28.7934 5.7304 28.8048 5.7266 28.8124C5.7228 28.8238 5.7152 28.839 5.7114 28.8504C5.7114 28.8542 5.7114 28.8542 5.7076 28.858C5.7038 28.8731 5.7 28.8922 5.6962 28.9074C5.6506 29.1354 4.6018 34.3755 4.446 36.7962C4.408 37.4118 3.9558 37.8792 3.3972 37.8792C2.8196 37.8792 2.3484 37.408 2.3484 36.8304V28.5768C3.0742 28.3412 3.5986 27.661 3.5986 26.8592V22.8692C3.5986 22.5956 3.3744 22.3714 3.1008 22.3714C2.8272 22.3714 2.603 22.5956 2.603 22.8692V26.8592C2.603 27.3076 2.2382 27.6686 1.7936 27.6686C1.349 27.6686 0.9842 27.3038 0.9842 26.8592V20.6196C0.9956 18.7082 2.5498 17.1502 4.465 17.1502ZM13.7218 31.8144V35.7246C13.7218 36.3934 14.155 36.9634 14.7554 37.1724V37.8906C14.7554 38.472 15.2266 38.9432 15.808 38.9432H21.641C22.2224 38.9432 22.6936 38.472 22.6936 37.8906V37.1724C23.294 36.9634 23.7272 36.3972 23.7272 35.7246V31.8144C23.7272 29.8118 22.097 28.1816 20.0944 28.1816H17.347C15.352 28.1816 13.7218 29.8118 13.7218 31.8144ZM17.3508 29.1772H20.0982C21.5536 29.1772 22.7354 30.3589 22.7354 31.8144V35.7246C22.7354 36.021 22.496 36.2604 22.1996 36.2604C21.9032 36.2604 21.6638 36.021 21.6638 35.7246V32.5706C21.6638 32.297 21.4396 32.0728 21.166 32.0728C20.8924 32.0728 20.6682 32.297 20.6682 32.5706V35.7246C20.6682 36.3934 21.1014 36.9634 21.7018 37.1724V37.8906C21.7018 37.9248 21.6752 37.9514 21.641 37.9514H15.808C15.7738 37.9514 15.7472 37.9248 15.7472 37.8906V37.1724C16.3476 36.9634 16.7808 36.3972 16.7808 35.7246V32.5706C16.7808 32.297 16.5566 32.0728 16.283 32.0728C16.0094 32.0728 15.7852 32.297 15.7852 32.5706V35.7246C15.7852 36.021 15.5458 36.2604 15.2494 36.2604C14.953 36.2604 14.7136 36.021 14.7136 35.7246V31.8144C14.7174 30.3589 15.8992 29.1772 17.3508 29.1772ZM22.1274 23.975C22.1274 22.0978 20.5998 20.5702 18.7226 20.5702C16.8454 20.5702 15.3178 22.0978 15.3178 23.975C15.3178 25.8522 16.8454 27.3798 18.7226 27.3798C20.6036 27.3798 22.1274 25.8522 22.1274 23.975ZM16.3172 23.975C16.3172 22.6488 17.3964 21.5658 18.7264 21.5658C20.0526 21.5658 21.1356 22.645 21.1356 23.975C21.1356 25.305 20.0564 26.3842 18.7264 26.3842C17.3964 26.3842 16.3172 25.305 16.3172 23.975ZM25.251 31.8144V35.7246C25.251 36.3934 25.6842 36.9634 26.2846 37.1724V37.8906C26.2846 38.472 26.7558 38.9432 27.3372 38.9432H33.1702C33.7516 38.9432 34.2228 38.472 34.2228 37.8906V37.1724C34.8232 36.9634 35.2564 36.3972 35.2564 35.7246V31.8144C35.2564 29.8118 33.6262 28.1816 31.6236 28.1816H28.88C26.8774 28.1816 25.251 29.8118 25.251 31.8144ZM28.88 29.1772H31.6274C33.0828 29.1772 34.2646 30.3589 34.2646 31.8144V35.7246C34.2646 36.021 34.0252 36.2604 33.7288 36.2604C33.4324 36.2604 33.193 36.021 33.193 35.7246V32.5706C33.193 32.297 32.9688 32.0728 32.6952 32.0728C32.4216 32.0728 32.1974 32.297 32.1974 32.5706V35.7246C32.1974 36.3934 32.6306 36.9634 33.231 37.1724V37.8906C33.231 37.9248 33.2044 37.9514 33.1702 37.9514H27.3372C27.303 37.9514 27.2764 37.9248 27.2764 37.8906V37.1724C27.8768 36.9634 28.31 36.3972 28.31 35.7246V32.5706C28.31 32.297 28.0858 32.0728 27.8122 32.0728C27.5386 32.0728 27.3144 32.297 27.3144 32.5706V35.7246C27.3144 36.021 27.075 36.2604 26.7786 36.2604C26.4822 36.2604 26.2428 36.021 26.2428 35.7246V31.8144C26.2466 30.3589 27.4284 29.1772 28.88 29.1772ZM33.6566 23.975C33.6566 22.0978 32.129 20.5702 30.2518 20.5702C28.3746 20.5702 26.847 22.0978 26.847 23.975C26.847 25.8522 28.3746 27.3798 30.2518 27.3798C32.129 27.3798 33.6566 25.8522 33.6566 23.975ZM27.8464 23.975C27.8464 22.6488 28.9256 21.5658 30.2556 21.5658C31.5818 21.5658 32.6648 22.645 32.6648 23.975C32.6648 25.305 31.5856 26.3842 30.2556 26.3842C28.9256 26.3842 27.8464 25.305 27.8464 23.975ZM23.503 6.87495C23.503 6.60135 23.7272 6.37715 24.0008 6.37715H33.3488C33.6224 6.37715 33.8466 6.60135 33.8466 6.87495C33.8466 7.14855 33.6224 7.37275 33.3488 7.37275H24.0008C23.7272 7.36895 23.503 7.14855 23.503 6.87495ZM18.2286 6.87495C18.2286 6.60135 18.4528 6.37715 18.7264 6.37715H22.2186C22.4922 6.37715 22.7164 6.60135 22.7164 6.87495C22.7164 7.14855 22.4922 7.37275 22.2186 7.37275H18.7264C18.449 7.36895 18.2286 7.14855 18.2286 6.87495ZM33.8466 9.41335C33.8466 9.68695 33.6224 9.91115 33.3488 9.91115H29.1916C28.918 9.91115 28.6938 9.68695 28.6938 9.41335C28.6938 9.13975 28.918 8.91555 29.1916 8.91555H33.3488C33.6224 8.91555 33.8466 9.13595 33.8466 9.41335ZM18.2286 9.41335C18.2286 9.13975 18.4528 8.91555 18.7264 8.91555H27.3144C27.588 8.91555 27.8122 9.13975 27.8122 9.41335C27.8122 9.68695 27.588 9.91115 27.3144 9.91115H18.7264C18.449 9.91115 18.2286 9.68695 18.2286 9.41335ZM33.8466 11.9518C33.8466 12.2254 33.6224 12.4496 33.3488 12.4496H25.5398C25.2662 12.4496 25.042 12.2254 25.042 11.9518C25.042 11.6782 25.2662 11.4539 25.5398 11.4539H33.3488C33.6224 11.4539 33.8466 11.6744 33.8466 11.9518ZM18.2286 11.9518C18.2286 11.6782 18.4528 11.4539 18.7264 11.4539H23.7424C24.016 11.4539 24.2402 11.6782 24.2402 11.9518C24.2402 12.2254 24.016 12.4496 23.7424 12.4496H18.7264C18.449 12.4496 18.2286 12.2254 18.2286 11.9518ZM32.3266 14.1634H21.0786C20.2388 14.1634 19.5586 14.8436 19.5586 15.6834C19.5586 16.5232 20.2388 17.2034 21.0786 17.2034H32.3266C33.1664 17.2034 33.8466 16.5232 33.8466 15.6834C33.8466 14.8436 33.1626 14.1634 32.3266 14.1634ZM32.3266 16.2078H21.0786C20.7898 16.2078 20.5542 15.9722 20.5542 15.6834C20.5542 15.3946 20.7898 15.159 21.0786 15.159H32.3266C32.6154 15.159 32.851 15.3946 32.851 15.6834C32.851 15.9722 32.6154 16.2078 32.3266 16.2078ZM14.8086 6.87495C14.8086 6.60135 15.0328 6.37715 15.3064 6.37715H16.5186C16.7922 6.37715 17.0164 6.60135 17.0164 6.87495C17.0164 7.14855 16.7922 7.37275 16.5186 7.37275H15.3064C15.029 7.36895 14.8086 7.14855 14.8086 6.87495ZM16.5186 9.91115H15.3064C15.0328 9.91115 14.8086 9.68695 14.8086 9.41335C14.8086 9.13975 15.0328 8.91555 15.3064 8.91555H16.5186C16.7922 8.91555 17.0164 9.13975 17.0164 9.41335C17.0164 9.68695 16.7922 9.91115 16.5186 9.91115Z"/>
</mask>
<path d="M6.2016 15.5048C8.5044 15.5048 10.3778 13.6314 10.3778 11.3286C10.3778 9.02575 8.5044 7.15235 6.2016 7.15235C3.8988 7.15235 2.0254 9.02575 2.0254 11.3286C2.0254 13.6314 3.8988 15.5048 6.2016 15.5048ZM6.2016 8.14795C7.9534 8.14795 9.3822 9.57295 9.3822 11.3286C9.3822 13.0804 7.9572 14.5092 6.2016 14.5092C4.446 14.5092 3.021 13.0842 3.021 11.3286C3.021 9.57675 4.4498 8.14795 6.2016 8.14795ZM1.368 28.611V36.8265C1.368 37.9552 2.2838 38.871 3.4124 38.871C4.503 38.871 5.3808 38.0046 5.4568 36.857C5.5404 35.5726 5.8938 33.4066 6.2016 31.6852C6.5094 33.4028 6.8628 35.5726 6.9464 36.857C7.0186 38.0046 7.9002 38.871 8.9908 38.871C10.1194 38.871 11.0352 37.9552 11.0352 36.8265V19.5746L12.3158 18.7576V18.9058C12.3158 19.1794 12.54 19.4036 12.8136 19.4036H35.9708C36.2444 19.4036 36.4686 19.1794 36.4686 18.9058V4.55695H36.9208C37.5136 4.55695 38 4.07435 38 3.47775V2.29215C38 1.69935 37.5174 1.21295 36.9208 1.21295H11.8598C11.267 1.21295 10.7806 1.69555 10.7806 2.29215V3.47775C10.7806 4.07055 11.2632 4.55695 11.8598 4.55695H12.312V14.4104L9.5038 16.1546C7.2276 16.3945 4.4612 16.1546 4.4612 16.1546C2.0026 16.1584 0 18.161 0 20.6196V26.8592C0 27.7028 0.5814 28.4134 1.368 28.611ZM11.78 3.48155V2.29215C11.78 2.24655 11.818 2.20855 11.8636 2.20855H36.9246C36.9702 2.20855 37.0082 2.24655 37.0082 2.29215V3.47775C37.0082 3.52335 36.9702 3.56135 36.9246 3.56135H35.9784C35.9746 3.56135 35.9746 3.56135 35.9708 3.56135H12.8136C12.8098 3.56135 12.8098 3.56135 12.806 3.56135H11.8598C11.8142 3.56135 11.78 3.52715 11.78 3.48155ZM13.3114 4.55695H35.473V18.4042H13.3114V18.1192L17.271 15.5884C18.1184 15.064 18.3768 13.9468 17.8524 13.0993C17.328 12.252 16.2108 11.9936 15.3634 12.518L13.3114 13.791V4.55695ZM4.465 17.1502H9.652C9.7432 17.1502 9.8344 17.1236 9.9142 17.0742L15.8878 13.3616C16.2678 13.126 16.7694 13.2438 17.005 13.6238C17.2406 14.0038 17.1228 14.5054 16.739 14.7448L12.6996 17.325C12.5856 17.3516 12.4868 17.4162 12.4184 17.5036L8.5576 19.9736C8.3258 20.1218 8.2574 20.4296 8.4056 20.6614C8.5538 20.8932 8.8616 20.9616 9.0934 20.8134L10.0396 20.2092V36.8265C10.0396 37.4042 9.5684 37.8754 8.9908 37.8754C8.4322 37.8754 7.98 37.4118 7.942 36.7924C7.7862 34.3718 6.7374 29.1316 6.6918 28.9036C6.688 28.8884 6.6842 28.8694 6.6804 28.8542C6.6804 28.8504 6.6766 28.8465 6.6766 28.8465C6.6728 28.8352 6.669 28.8238 6.6614 28.8086C6.6576 28.7972 6.65 28.7896 6.6462 28.7782C6.6424 28.7744 6.6424 28.7706 6.6386 28.7668C6.631 28.7554 6.6272 28.7478 6.6196 28.7364C6.6158 28.7326 6.6158 28.7288 6.612 28.725C6.6044 28.7174 6.6006 28.706 6.593 28.6984C6.5892 28.6946 6.5854 28.6908 6.5816 28.687C6.5778 28.6794 6.5702 28.6756 6.5626 28.6679C6.5588 28.6642 6.5512 28.6566 6.5474 28.6528C6.5436 28.649 6.5398 28.6452 6.5322 28.6414C6.5246 28.6338 6.517 28.6262 6.5094 28.6224C6.5056 28.6186 6.5018 28.6186 6.498 28.6147C6.4866 28.6072 6.479 28.5996 6.4676 28.592C6.4638 28.592 6.4638 28.5882 6.46 28.5882C6.4486 28.5806 6.4372 28.573 6.4258 28.5654C6.4258 28.5654 6.422 28.5654 6.422 28.5616C6.4106 28.554 6.3992 28.5501 6.384 28.5425C6.3764 28.5387 6.3726 28.5388 6.365 28.535C6.3574 28.5312 6.3498 28.5274 6.3384 28.5274C6.3232 28.5236 6.308 28.5198 6.289 28.516C6.2738 28.5122 6.2586 28.5122 6.2396 28.5084C6.232 28.5084 6.2244 28.5084 6.2168 28.5084C6.2092 28.5084 6.1978 28.5084 6.1902 28.5084C6.1788 28.5084 6.1674 28.5084 6.156 28.5084C6.1522 28.5084 6.1484 28.5084 6.1408 28.5084C6.1256 28.5084 6.1104 28.5122 6.0952 28.516C6.0952 28.516 6.0952 28.516 6.0914 28.516C6.0762 28.5198 6.061 28.5236 6.042 28.5274C5.9812 28.5464 5.9242 28.5767 5.8748 28.6147C5.8634 28.6224 5.8558 28.6338 5.8444 28.6414C5.8406 28.6452 5.8406 28.6452 5.8368 28.649C5.8292 28.6566 5.8216 28.6642 5.814 28.6718C5.8102 28.6756 5.8064 28.6794 5.8026 28.687C5.7988 28.6946 5.7912 28.6984 5.7874 28.706C5.7836 28.7136 5.776 28.7174 5.7722 28.725C5.7684 28.7288 5.7646 28.7364 5.7608 28.7402C5.757 28.7478 5.7494 28.7554 5.7456 28.7668C5.7418 28.7706 5.7418 28.7782 5.738 28.7858C5.7342 28.7934 5.7304 28.8048 5.7266 28.8124C5.7228 28.8238 5.7152 28.839 5.7114 28.8504C5.7114 28.8542 5.7114 28.8542 5.7076 28.858C5.7038 28.8731 5.7 28.8922 5.6962 28.9074C5.6506 29.1354 4.6018 34.3755 4.446 36.7962C4.408 37.4118 3.9558 37.8792 3.3972 37.8792C2.8196 37.8792 2.3484 37.408 2.3484 36.8304V28.5768C3.0742 28.3412 3.5986 27.661 3.5986 26.8592V22.8692C3.5986 22.5956 3.3744 22.3714 3.1008 22.3714C2.8272 22.3714 2.603 22.5956 2.603 22.8692V26.8592C2.603 27.3076 2.2382 27.6686 1.7936 27.6686C1.349 27.6686 0.9842 27.3038 0.9842 26.8592V20.6196C0.9956 18.7082 2.5498 17.1502 4.465 17.1502ZM13.7218 31.8144V35.7246C13.7218 36.3934 14.155 36.9634 14.7554 37.1724V37.8906C14.7554 38.472 15.2266 38.9432 15.808 38.9432H21.641C22.2224 38.9432 22.6936 38.472 22.6936 37.8906V37.1724C23.294 36.9634 23.7272 36.3972 23.7272 35.7246V31.8144C23.7272 29.8118 22.097 28.1816 20.0944 28.1816H17.347C15.352 28.1816 13.7218 29.8118 13.7218 31.8144ZM17.3508 29.1772H20.0982C21.5536 29.1772 22.7354 30.3589 22.7354 31.8144V35.7246C22.7354 36.021 22.496 36.2604 22.1996 36.2604C21.9032 36.2604 21.6638 36.021 21.6638 35.7246V32.5706C21.6638 32.297 21.4396 32.0728 21.166 32.0728C20.8924 32.0728 20.6682 32.297 20.6682 32.5706V35.7246C20.6682 36.3934 21.1014 36.9634 21.7018 37.1724V37.8906C21.7018 37.9248 21.6752 37.9514 21.641 37.9514H15.808C15.7738 37.9514 15.7472 37.9248 15.7472 37.8906V37.1724C16.3476 36.9634 16.7808 36.3972 16.7808 35.7246V32.5706C16.7808 32.297 16.5566 32.0728 16.283 32.0728C16.0094 32.0728 15.7852 32.297 15.7852 32.5706V35.7246C15.7852 36.021 15.5458 36.2604 15.2494 36.2604C14.953 36.2604 14.7136 36.021 14.7136 35.7246V31.8144C14.7174 30.3589 15.8992 29.1772 17.3508 29.1772ZM22.1274 23.975C22.1274 22.0978 20.5998 20.5702 18.7226 20.5702C16.8454 20.5702 15.3178 22.0978 15.3178 23.975C15.3178 25.8522 16.8454 27.3798 18.7226 27.3798C20.6036 27.3798 22.1274 25.8522 22.1274 23.975ZM16.3172 23.975C16.3172 22.6488 17.3964 21.5658 18.7264 21.5658C20.0526 21.5658 21.1356 22.645 21.1356 23.975C21.1356 25.305 20.0564 26.3842 18.7264 26.3842C17.3964 26.3842 16.3172 25.305 16.3172 23.975ZM25.251 31.8144V35.7246C25.251 36.3934 25.6842 36.9634 26.2846 37.1724V37.8906C26.2846 38.472 26.7558 38.9432 27.3372 38.9432H33.1702C33.7516 38.9432 34.2228 38.472 34.2228 37.8906V37.1724C34.8232 36.9634 35.2564 36.3972 35.2564 35.7246V31.8144C35.2564 29.8118 33.6262 28.1816 31.6236 28.1816H28.88C26.8774 28.1816 25.251 29.8118 25.251 31.8144ZM28.88 29.1772H31.6274C33.0828 29.1772 34.2646 30.3589 34.2646 31.8144V35.7246C34.2646 36.021 34.0252 36.2604 33.7288 36.2604C33.4324 36.2604 33.193 36.021 33.193 35.7246V32.5706C33.193 32.297 32.9688 32.0728 32.6952 32.0728C32.4216 32.0728 32.1974 32.297 32.1974 32.5706V35.7246C32.1974 36.3934 32.6306 36.9634 33.231 37.1724V37.8906C33.231 37.9248 33.2044 37.9514 33.1702 37.9514H27.3372C27.303 37.9514 27.2764 37.9248 27.2764 37.8906V37.1724C27.8768 36.9634 28.31 36.3972 28.31 35.7246V32.5706C28.31 32.297 28.0858 32.0728 27.8122 32.0728C27.5386 32.0728 27.3144 32.297 27.3144 32.5706V35.7246C27.3144 36.021 27.075 36.2604 26.7786 36.2604C26.4822 36.2604 26.2428 36.021 26.2428 35.7246V31.8144C26.2466 30.3589 27.4284 29.1772 28.88 29.1772ZM33.6566 23.975C33.6566 22.0978 32.129 20.5702 30.2518 20.5702C28.3746 20.5702 26.847 22.0978 26.847 23.975C26.847 25.8522 28.3746 27.3798 30.2518 27.3798C32.129 27.3798 33.6566 25.8522 33.6566 23.975ZM27.8464 23.975C27.8464 22.6488 28.9256 21.5658 30.2556 21.5658C31.5818 21.5658 32.6648 22.645 32.6648 23.975C32.6648 25.305 31.5856 26.3842 30.2556 26.3842C28.9256 26.3842 27.8464 25.305 27.8464 23.975ZM23.503 6.87495C23.503 6.60135 23.7272 6.37715 24.0008 6.37715H33.3488C33.6224 6.37715 33.8466 6.60135 33.8466 6.87495C33.8466 7.14855 33.6224 7.37275 33.3488 7.37275H24.0008C23.7272 7.36895 23.503 7.14855 23.503 6.87495ZM18.2286 6.87495C18.2286 6.60135 18.4528 6.37715 18.7264 6.37715H22.2186C22.4922 6.37715 22.7164 6.60135 22.7164 6.87495C22.7164 7.14855 22.4922 7.37275 22.2186 7.37275H18.7264C18.449 7.36895 18.2286 7.14855 18.2286 6.87495ZM33.8466 9.41335C33.8466 9.68695 33.6224 9.91115 33.3488 9.91115H29.1916C28.918 9.91115 28.6938 9.68695 28.6938 9.41335C28.6938 9.13975 28.918 8.91555 29.1916 8.91555H33.3488C33.6224 8.91555 33.8466 9.13595 33.8466 9.41335ZM18.2286 9.41335C18.2286 9.13975 18.4528 8.91555 18.7264 8.91555H27.3144C27.588 8.91555 27.8122 9.13975 27.8122 9.41335C27.8122 9.68695 27.588 9.91115 27.3144 9.91115H18.7264C18.449 9.91115 18.2286 9.68695 18.2286 9.41335ZM33.8466 11.9518C33.8466 12.2254 33.6224 12.4496 33.3488 12.4496H25.5398C25.2662 12.4496 25.042 12.2254 25.042 11.9518C25.042 11.6782 25.2662 11.4539 25.5398 11.4539H33.3488C33.6224 11.4539 33.8466 11.6744 33.8466 11.9518ZM18.2286 11.9518C18.2286 11.6782 18.4528 11.4539 18.7264 11.4539H23.7424C24.016 11.4539 24.2402 11.6782 24.2402 11.9518C24.2402 12.2254 24.016 12.4496 23.7424 12.4496H18.7264C18.449 12.4496 18.2286 12.2254 18.2286 11.9518ZM32.3266 14.1634H21.0786C20.2388 14.1634 19.5586 14.8436 19.5586 15.6834C19.5586 16.5232 20.2388 17.2034 21.0786 17.2034H32.3266C33.1664 17.2034 33.8466 16.5232 33.8466 15.6834C33.8466 14.8436 33.1626 14.1634 32.3266 14.1634ZM32.3266 16.2078H21.0786C20.7898 16.2078 20.5542 15.9722 20.5542 15.6834C20.5542 15.3946 20.7898 15.159 21.0786 15.159H32.3266C32.6154 15.159 32.851 15.3946 32.851 15.6834C32.851 15.9722 32.6154 16.2078 32.3266 16.2078ZM14.8086 6.87495C14.8086 6.60135 15.0328 6.37715 15.3064 6.37715H16.5186C16.7922 6.37715 17.0164 6.60135 17.0164 6.87495C17.0164 7.14855 16.7922 7.37275 16.5186 7.37275H15.3064C15.029 7.36895 14.8086 7.14855 14.8086 6.87495ZM16.5186 9.91115H15.3064C15.0328 9.91115 14.8086 9.68695 14.8086 9.41335C14.8086 9.13975 15.0328 8.91555 15.3064 8.91555H16.5186C16.7922 8.91555 17.0164 9.13975 17.0164 9.41335C17.0164 9.68695 16.7922 9.91115 16.5186 9.91115Z" fill="url(#paint0_linear_6359_648)"/>
<path d="M6.2016 15.5048C8.5044 15.5048 10.3778 13.6314 10.3778 11.3286C10.3778 9.02575 8.5044 7.15235 6.2016 7.15235C3.8988 7.15235 2.0254 9.02575 2.0254 11.3286C2.0254 13.6314 3.8988 15.5048 6.2016 15.5048ZM6.2016 8.14795C7.9534 8.14795 9.3822 9.57295 9.3822 11.3286C9.3822 13.0804 7.9572 14.5092 6.2016 14.5092C4.446 14.5092 3.021 13.0842 3.021 11.3286C3.021 9.57675 4.4498 8.14795 6.2016 8.14795ZM1.368 28.611V36.8265C1.368 37.9552 2.2838 38.871 3.4124 38.871C4.503 38.871 5.3808 38.0046 5.4568 36.857C5.5404 35.5726 5.8938 33.4066 6.2016 31.6852C6.5094 33.4028 6.8628 35.5726 6.9464 36.857C7.0186 38.0046 7.9002 38.871 8.9908 38.871C10.1194 38.871 11.0352 37.9552 11.0352 36.8265V19.5746L12.3158 18.7576V18.9058C12.3158 19.1794 12.54 19.4036 12.8136 19.4036H35.9708C36.2444 19.4036 36.4686 19.1794 36.4686 18.9058V4.55695H36.9208C37.5136 4.55695 38 4.07435 38 3.47775V2.29215C38 1.69935 37.5174 1.21295 36.9208 1.21295H11.8598C11.267 1.21295 10.7806 1.69555 10.7806 2.29215V3.47775C10.7806 4.07055 11.2632 4.55695 11.8598 4.55695H12.312V14.4104L9.5038 16.1546C7.2276 16.3945 4.4612 16.1546 4.4612 16.1546C2.0026 16.1584 0 18.161 0 20.6196V26.8592C0 27.7028 0.5814 28.4134 1.368 28.611ZM11.78 3.48155V2.29215C11.78 2.24655 11.818 2.20855 11.8636 2.20855H36.9246C36.9702 2.20855 37.0082 2.24655 37.0082 2.29215V3.47775C37.0082 3.52335 36.9702 3.56135 36.9246 3.56135H35.9784C35.9746 3.56135 35.9746 3.56135 35.9708 3.56135H12.8136C12.8098 3.56135 12.8098 3.56135 12.806 3.56135H11.8598C11.8142 3.56135 11.78 3.52715 11.78 3.48155ZM13.3114 4.55695H35.473V18.4042H13.3114V18.1192L17.271 15.5884C18.1184 15.064 18.3768 13.9468 17.8524 13.0993C17.328 12.252 16.2108 11.9936 15.3634 12.518L13.3114 13.791V4.55695ZM4.465 17.1502H9.652C9.7432 17.1502 9.8344 17.1236 9.9142 17.0742L15.8878 13.3616C16.2678 13.126 16.7694 13.2438 17.005 13.6238C17.2406 14.0038 17.1228 14.5054 16.739 14.7448L12.6996 17.325C12.5856 17.3516 12.4868 17.4162 12.4184 17.5036L8.5576 19.9736C8.3258 20.1218 8.2574 20.4296 8.4056 20.6614C8.5538 20.8932 8.8616 20.9616 9.0934 20.8134L10.0396 20.2092V36.8265C10.0396 37.4042 9.5684 37.8754 8.9908 37.8754C8.4322 37.8754 7.98 37.4118 7.942 36.7924C7.7862 34.3718 6.7374 29.1316 6.6918 28.9036C6.688 28.8884 6.6842 28.8694 6.6804 28.8542C6.6804 28.8504 6.6766 28.8465 6.6766 28.8465C6.6728 28.8352 6.669 28.8238 6.6614 28.8086C6.6576 28.7972 6.65 28.7896 6.6462 28.7782C6.6424 28.7744 6.6424 28.7706 6.6386 28.7668C6.631 28.7554 6.6272 28.7478 6.6196 28.7364C6.6158 28.7326 6.6158 28.7288 6.612 28.725C6.6044 28.7174 6.6006 28.706 6.593 28.6984C6.5892 28.6946 6.5854 28.6908 6.5816 28.687C6.5778 28.6794 6.5702 28.6756 6.5626 28.6679C6.5588 28.6642 6.5512 28.6566 6.5474 28.6528C6.5436 28.649 6.5398 28.6452 6.5322 28.6414C6.5246 28.6338 6.517 28.6262 6.5094 28.6224C6.5056 28.6186 6.5018 28.6186 6.498 28.6147C6.4866 28.6072 6.479 28.5996 6.4676 28.592C6.4638 28.592 6.4638 28.5882 6.46 28.5882C6.4486 28.5806 6.4372 28.573 6.4258 28.5654C6.4258 28.5654 6.422 28.5654 6.422 28.5616C6.4106 28.554 6.3992 28.5501 6.384 28.5425C6.3764 28.5387 6.3726 28.5388 6.365 28.535C6.3574 28.5312 6.3498 28.5274 6.3384 28.5274C6.3232 28.5236 6.308 28.5198 6.289 28.516C6.2738 28.5122 6.2586 28.5122 6.2396 28.5084C6.232 28.5084 6.2244 28.5084 6.2168 28.5084C6.2092 28.5084 6.1978 28.5084 6.1902 28.5084C6.1788 28.5084 6.1674 28.5084 6.156 28.5084C6.1522 28.5084 6.1484 28.5084 6.1408 28.5084C6.1256 28.5084 6.1104 28.5122 6.0952 28.516C6.0952 28.516 6.0952 28.516 6.0914 28.516C6.0762 28.5198 6.061 28.5236 6.042 28.5274C5.9812 28.5464 5.9242 28.5767 5.8748 28.6147C5.8634 28.6224 5.8558 28.6338 5.8444 28.6414C5.8406 28.6452 5.8406 28.6452 5.8368 28.649C5.8292 28.6566 5.8216 28.6642 5.814 28.6718C5.8102 28.6756 5.8064 28.6794 5.8026 28.687C5.7988 28.6946 5.7912 28.6984 5.7874 28.706C5.7836 28.7136 5.776 28.7174 5.7722 28.725C5.7684 28.7288 5.7646 28.7364 5.7608 28.7402C5.757 28.7478 5.7494 28.7554 5.7456 28.7668C5.7418 28.7706 5.7418 28.7782 5.738 28.7858C5.7342 28.7934 5.7304 28.8048 5.7266 28.8124C5.7228 28.8238 5.7152 28.839 5.7114 28.8504C5.7114 28.8542 5.7114 28.8542 5.7076 28.858C5.7038 28.8731 5.7 28.8922 5.6962 28.9074C5.6506 29.1354 4.6018 34.3755 4.446 36.7962C4.408 37.4118 3.9558 37.8792 3.3972 37.8792C2.8196 37.8792 2.3484 37.408 2.3484 36.8304V28.5768C3.0742 28.3412 3.5986 27.661 3.5986 26.8592V22.8692C3.5986 22.5956 3.3744 22.3714 3.1008 22.3714C2.8272 22.3714 2.603 22.5956 2.603 22.8692V26.8592C2.603 27.3076 2.2382 27.6686 1.7936 27.6686C1.349 27.6686 0.9842 27.3038 0.9842 26.8592V20.6196C0.9956 18.7082 2.5498 17.1502 4.465 17.1502ZM13.7218 31.8144V35.7246C13.7218 36.3934 14.155 36.9634 14.7554 37.1724V37.8906C14.7554 38.472 15.2266 38.9432 15.808 38.9432H21.641C22.2224 38.9432 22.6936 38.472 22.6936 37.8906V37.1724C23.294 36.9634 23.7272 36.3972 23.7272 35.7246V31.8144C23.7272 29.8118 22.097 28.1816 20.0944 28.1816H17.347C15.352 28.1816 13.7218 29.8118 13.7218 31.8144ZM17.3508 29.1772H20.0982C21.5536 29.1772 22.7354 30.3589 22.7354 31.8144V35.7246C22.7354 36.021 22.496 36.2604 22.1996 36.2604C21.9032 36.2604 21.6638 36.021 21.6638 35.7246V32.5706C21.6638 32.297 21.4396 32.0728 21.166 32.0728C20.8924 32.0728 20.6682 32.297 20.6682 32.5706V35.7246C20.6682 36.3934 21.1014 36.9634 21.7018 37.1724V37.8906C21.7018 37.9248 21.6752 37.9514 21.641 37.9514H15.808C15.7738 37.9514 15.7472 37.9248 15.7472 37.8906V37.1724C16.3476 36.9634 16.7808 36.3972 16.7808 35.7246V32.5706C16.7808 32.297 16.5566 32.0728 16.283 32.0728C16.0094 32.0728 15.7852 32.297 15.7852 32.5706V35.7246C15.7852 36.021 15.5458 36.2604 15.2494 36.2604C14.953 36.2604 14.7136 36.021 14.7136 35.7246V31.8144C14.7174 30.3589 15.8992 29.1772 17.3508 29.1772ZM22.1274 23.975C22.1274 22.0978 20.5998 20.5702 18.7226 20.5702C16.8454 20.5702 15.3178 22.0978 15.3178 23.975C15.3178 25.8522 16.8454 27.3798 18.7226 27.3798C20.6036 27.3798 22.1274 25.8522 22.1274 23.975ZM16.3172 23.975C16.3172 22.6488 17.3964 21.5658 18.7264 21.5658C20.0526 21.5658 21.1356 22.645 21.1356 23.975C21.1356 25.305 20.0564 26.3842 18.7264 26.3842C17.3964 26.3842 16.3172 25.305 16.3172 23.975ZM25.251 31.8144V35.7246C25.251 36.3934 25.6842 36.9634 26.2846 37.1724V37.8906C26.2846 38.472 26.7558 38.9432 27.3372 38.9432H33.1702C33.7516 38.9432 34.2228 38.472 34.2228 37.8906V37.1724C34.8232 36.9634 35.2564 36.3972 35.2564 35.7246V31.8144C35.2564 29.8118 33.6262 28.1816 31.6236 28.1816H28.88C26.8774 28.1816 25.251 29.8118 25.251 31.8144ZM28.88 29.1772H31.6274C33.0828 29.1772 34.2646 30.3589 34.2646 31.8144V35.7246C34.2646 36.021 34.0252 36.2604 33.7288 36.2604C33.4324 36.2604 33.193 36.021 33.193 35.7246V32.5706C33.193 32.297 32.9688 32.0728 32.6952 32.0728C32.4216 32.0728 32.1974 32.297 32.1974 32.5706V35.7246C32.1974 36.3934 32.6306 36.9634 33.231 37.1724V37.8906C33.231 37.9248 33.2044 37.9514 33.1702 37.9514H27.3372C27.303 37.9514 27.2764 37.9248 27.2764 37.8906V37.1724C27.8768 36.9634 28.31 36.3972 28.31 35.7246V32.5706C28.31 32.297 28.0858 32.0728 27.8122 32.0728C27.5386 32.0728 27.3144 32.297 27.3144 32.5706V35.7246C27.3144 36.021 27.075 36.2604 26.7786 36.2604C26.4822 36.2604 26.2428 36.021 26.2428 35.7246V31.8144C26.2466 30.3589 27.4284 29.1772 28.88 29.1772ZM33.6566 23.975C33.6566 22.0978 32.129 20.5702 30.2518 20.5702C28.3746 20.5702 26.847 22.0978 26.847 23.975C26.847 25.8522 28.3746 27.3798 30.2518 27.3798C32.129 27.3798 33.6566 25.8522 33.6566 23.975ZM27.8464 23.975C27.8464 22.6488 28.9256 21.5658 30.2556 21.5658C31.5818 21.5658 32.6648 22.645 32.6648 23.975C32.6648 25.305 31.5856 26.3842 30.2556 26.3842C28.9256 26.3842 27.8464 25.305 27.8464 23.975ZM23.503 6.87495C23.503 6.60135 23.7272 6.37715 24.0008 6.37715H33.3488C33.6224 6.37715 33.8466 6.60135 33.8466 6.87495C33.8466 7.14855 33.6224 7.37275 33.3488 7.37275H24.0008C23.7272 7.36895 23.503 7.14855 23.503 6.87495ZM18.2286 6.87495C18.2286 6.60135 18.4528 6.37715 18.7264 6.37715H22.2186C22.4922 6.37715 22.7164 6.60135 22.7164 6.87495C22.7164 7.14855 22.4922 7.37275 22.2186 7.37275H18.7264C18.449 7.36895 18.2286 7.14855 18.2286 6.87495ZM33.8466 9.41335C33.8466 9.68695 33.6224 9.91115 33.3488 9.91115H29.1916C28.918 9.91115 28.6938 9.68695 28.6938 9.41335C28.6938 9.13975 28.918 8.91555 29.1916 8.91555H33.3488C33.6224 8.91555 33.8466 9.13595 33.8466 9.41335ZM18.2286 9.41335C18.2286 9.13975 18.4528 8.91555 18.7264 8.91555H27.3144C27.588 8.91555 27.8122 9.13975 27.8122 9.41335C27.8122 9.68695 27.588 9.91115 27.3144 9.91115H18.7264C18.449 9.91115 18.2286 9.68695 18.2286 9.41335ZM33.8466 11.9518C33.8466 12.2254 33.6224 12.4496 33.3488 12.4496H25.5398C25.2662 12.4496 25.042 12.2254 25.042 11.9518C25.042 11.6782 25.2662 11.4539 25.5398 11.4539H33.3488C33.6224 11.4539 33.8466 11.6744 33.8466 11.9518ZM18.2286 11.9518C18.2286 11.6782 18.4528 11.4539 18.7264 11.4539H23.7424C24.016 11.4539 24.2402 11.6782 24.2402 11.9518C24.2402 12.2254 24.016 12.4496 23.7424 12.4496H18.7264C18.449 12.4496 18.2286 12.2254 18.2286 11.9518ZM32.3266 14.1634H21.0786C20.2388 14.1634 19.5586 14.8436 19.5586 15.6834C19.5586 16.5232 20.2388 17.2034 21.0786 17.2034H32.3266C33.1664 17.2034 33.8466 16.5232 33.8466 15.6834C33.8466 14.8436 33.1626 14.1634 32.3266 14.1634ZM32.3266 16.2078H21.0786C20.7898 16.2078 20.5542 15.9722 20.5542 15.6834C20.5542 15.3946 20.7898 15.159 21.0786 15.159H32.3266C32.6154 15.159 32.851 15.3946 32.851 15.6834C32.851 15.9722 32.6154 16.2078 32.3266 16.2078ZM14.8086 6.87495C14.8086 6.60135 15.0328 6.37715 15.3064 6.37715H16.5186C16.7922 6.37715 17.0164 6.60135 17.0164 6.87495C17.0164 7.14855 16.7922 7.37275 16.5186 7.37275H15.3064C15.029 7.36895 14.8086 7.14855 14.8086 6.87495ZM16.5186 9.91115H15.3064C15.0328 9.91115 14.8086 9.68695 14.8086 9.41335C14.8086 9.13975 15.0328 8.91555 15.3064 8.91555H16.5186C16.7922 8.91555 17.0164 9.13975 17.0164 9.41335C17.0164 9.68695 16.7922 9.91115 16.5186 9.91115Z" stroke="url(#paint1_linear_6359_648)" stroke-width="0.4" mask="url(#path-1-outside-1_6359_648)"/>
</g>
<defs>
<linearGradient id="paint0_linear_6359_648" x1="19" y1="1.21289" x2="19" y2="38.9431" gradientUnits="userSpaceOnUse">
<stop stop-color="#B89405"/>
<stop offset="0.385" stop-color="#B7A24E"/>
<stop offset="0.965" stop-color="#524202"/>
</linearGradient>
<linearGradient id="paint1_linear_6359_648" x1="19" y1="1.21289" x2="19" y2="38.9431" gradientUnits="userSpaceOnUse">
<stop stop-color="#B89405"/>
<stop offset="0.385" stop-color="#B7A24E"/>
<stop offset="0.965" stop-color="#524202"/>
</linearGradient>
<clipPath id="clip0_6359_648">
<rect width="38" height="41.8" fill="white"/>
</clipPath>
</defs>
</svg>
