<svg width="52" height="58" viewBox="0 0 52 58" fill="none" xmlns="http://www.w3.org/2000/svg">
<path d="M20.9804 4.72656C19.7967 4.72656 18.8254 5.70341 18.8254 6.88522V15.7692L16.3011 17.228C15.8247 16.4949 15.1747 15.8874 14.4084 15.4626C15.6603 14.615 16.4876 13.1802 16.4876 11.5589C16.4876 8.97 14.3807 6.85384 11.7936 6.85384C9.20648 6.85384 7.094 8.97005 7.094 11.5589C7.094 13.1821 7.92312 14.6188 9.18067 15.4663C7.53718 16.3822 6.42372 18.1346 6.42372 20.1419V31.6258L6.42188 31.624C6.42188 31.8216 6.49943 32.0099 6.63977 32.1484C6.77827 32.2888 6.96662 32.3663 7.16422 32.3663H16.4231C16.8312 32.3645 17.1598 32.0321 17.158 31.624V21.9019L18.8255 20.938V21.6784C18.8255 22.8603 19.7968 23.8371 20.9786 23.8371H43.4223C44.6041 23.8371 45.5754 22.8603 45.5754 21.6784L45.5772 6.88538C45.5772 5.70356 44.6059 4.72672 43.4223 4.72672L20.9804 4.72656ZM20.9804 6.20568H43.424C43.8118 6.20568 44.0999 6.49559 44.0999 6.88707V21.6782C44.0999 22.0697 43.8118 22.3596 43.424 22.3596H20.9804C20.5926 22.3596 20.3045 22.0697 20.3045 21.6782V20.0828L22.9322 18.5649C23.7705 18.0811 24.1768 17.1172 24.0106 16.2105L29.7315 12.9051V12.9069C29.9014 12.8072 30.0251 12.6447 30.0769 12.4545C30.1267 12.2643 30.099 12.0612 29.9993 11.8913C29.9014 11.7214 29.7408 11.5977 29.5524 11.5478C29.3622 11.4961 29.1591 11.5238 28.9892 11.6235L23.2721 14.9308C22.5722 14.3325 21.5362 14.2051 20.6979 14.6889L20.3064 14.916L20.3046 6.88533C20.3046 6.49386 20.5908 6.20394 20.9804 6.20394L20.9804 6.20568ZM11.7107 8.33111H11.7938C13.5794 8.33111 15.0105 9.76593 15.0105 11.5589C15.0105 13.3519 13.5794 14.7868 11.7938 14.7868C10.0081 14.7868 8.57145 13.3501 8.57145 11.5589C8.57145 9.79358 9.96379 8.3754 11.7107 8.33111ZM24.6847 8.69119H24.6828C24.4871 8.68935 24.2969 8.76875 24.1584 8.90724C24.018 9.04574 23.9405 9.23594 23.9423 9.43169C23.9423 9.62742 24.0217 9.81578 24.1602 9.95429C24.2987 10.0909 24.4871 10.1685 24.6828 10.1685H39.725C40.1312 10.1666 40.4599 9.83795 40.4618 9.4317C40.4636 9.23596 40.3861 9.04761 40.2476 8.9091C40.1091 8.76875 39.9207 8.6912 39.725 8.6912L24.6847 8.69119ZM30.6216 13.5442C30.4259 13.5424 30.2375 13.6199 30.0972 13.7584C29.9587 13.8969 29.8811 14.0834 29.8793 14.2792C29.8793 14.4768 29.9569 14.6651 30.0953 14.8055C30.2357 14.944 30.424 15.0215 30.6216 15.0215H39.7254C39.9211 15.0215 40.1095 14.9421 40.248 14.8036C40.3865 14.6651 40.4641 14.4749 40.4622 14.2792C40.4604 13.8729 40.1317 13.5442 39.7254 13.5442L30.6216 13.5442ZM21.7987 15.8617C22.0683 15.8506 22.3268 15.9872 22.4745 16.2476C22.6924 16.6243 22.5724 17.0712 22.1957 17.2891L19.1987 19.0175H19.2005C19.1968 19.0193 19.1931 19.0211 19.1895 19.023L14.0391 21.9942C13.6624 22.2121 13.2155 22.092 12.9976 21.7153C12.8979 21.5436 12.8757 21.3626 12.9108 21.1872V21.1891C12.9515 20.9952 12.9127 20.7957 12.8037 20.6314C12.6948 20.467 12.5249 20.3544 12.3329 20.3156C12.1408 20.2787 11.9414 20.3175 11.7789 20.4264C11.6164 20.5372 11.5037 20.7052 11.4668 20.8991C11.3634 21.4143 11.4428 21.972 11.7235 22.4595C12.3365 23.5232 13.7197 23.8906 14.7814 23.2776L15.6807 22.755V30.8873H7.89915V20.1403C7.89915 17.9817 9.622 16.2643 11.7936 16.2643C13.3891 16.2643 14.7353 17.2024 15.3428 18.5486C15.352 18.5707 15.3631 18.5929 15.376 18.615C15.4185 18.687 15.472 18.7517 15.5348 18.8052C15.5403 18.8089 15.5459 18.8126 15.5496 18.8163C15.5514 18.8181 15.5533 18.82 15.5551 18.8218H15.557C15.5588 18.8218 15.5607 18.8237 15.5625 18.8255L15.5717 18.8348C15.5994 18.8532 15.6271 18.8717 15.6548 18.8883C15.6696 18.8957 15.6825 18.9031 15.6955 18.9086C15.7342 18.9271 15.773 18.9419 15.8136 18.953C15.8266 18.9566 15.8395 18.9603 15.8524 18.964C15.8894 18.9714 15.93 18.977 15.9688 18.9788C15.9909 18.9806 16.0131 18.9825 16.0371 18.9807C16.0611 18.9807 16.0869 18.977 16.1109 18.9733C16.146 18.9696 16.1793 18.9622 16.2125 18.953C16.2199 18.9511 16.2273 18.9493 16.2347 18.9474C16.2439 18.9437 16.255 18.94 16.2661 18.9363C16.2845 18.9308 16.3011 18.9253 16.3196 18.9197C16.3658 18.8994 16.4101 18.8735 16.4507 18.844L19.8983 16.8552V16.8571C19.926 16.8423 19.9537 16.8257 19.9796 16.8091L21.4328 15.9707C21.551 15.9024 21.6749 15.8672 21.7987 15.8617ZM24.683 18.3897V18.3915C24.4873 18.3897 24.2971 18.4691 24.1586 18.6076C24.0183 18.7461 23.9407 18.9363 23.9426 19.132C23.9426 19.3277 24.022 19.5161 24.1605 19.6546C24.2989 19.7913 24.4873 19.8688 24.6831 19.8688H39.7252C40.1315 19.867 40.4602 19.5383 40.462 19.132C40.4639 18.9363 40.3863 18.7479 40.2478 18.6094C40.1093 18.4691 39.921 18.3915 39.7252 18.3915L24.683 18.3897ZM13.668 33.29C11.0809 33.29 8.96846 35.4062 8.96846 37.9951C8.96846 39.5518 9.73295 40.9368 10.9037 41.7936C8.44222 42.8591 6.71747 45.3058 6.71747 48.1532V51.2573C6.71563 51.6654 7.04432 51.9978 7.45242 51.9996H44.7312C44.927 51.9996 45.1172 51.9221 45.2557 51.7836C45.396 51.6432 45.4736 51.4549 45.4717 51.2573V48.155C45.4717 45.3076 43.747 42.8609 41.2836 41.7954C42.4525 40.9386 43.2133 39.5537 43.2133 37.997C43.2133 35.408 41.1064 33.2919 38.5193 33.2919C35.9322 33.2919 33.8197 35.4081 33.8197 37.997C33.8197 39.5537 34.5842 40.9368 35.755 41.7954C34.2592 42.4417 33.0386 43.5977 32.3092 45.0436C31.5798 43.5977 30.3555 42.4417 28.8598 41.7954C30.0287 40.9386 30.7894 39.5537 30.7894 37.997C30.7894 35.408 28.6825 33.2919 26.0954 33.2919C23.5083 33.2919 21.3958 35.4081 21.3958 37.997C21.3958 39.5537 22.1585 40.9368 23.3292 41.7954C21.8334 42.4417 20.6128 43.5977 19.8834 45.0436C19.154 43.5977 17.9297 42.4417 16.434 41.7954C17.6029 40.9386 18.3636 39.5537 18.3636 37.997C18.3636 35.408 16.2567 33.2919 13.6696 33.2919L13.668 33.29ZM13.5849 34.7691H13.668C15.4537 34.7691 16.8848 36.204 16.8848 37.997C16.8848 39.79 15.4537 41.2248 13.668 41.2248C11.8824 41.2248 10.4457 39.79 10.4457 37.997C10.4457 36.2316 11.8381 34.8134 13.5849 34.7691ZM26.0106 34.7691H26.0937C27.8793 34.7691 29.3086 36.204 29.3086 37.997C29.3086 39.79 27.8793 41.2248 26.0937 41.2248C24.308 41.2248 22.8714 39.79 22.8714 37.997C22.8714 36.2316 24.2637 34.8134 26.0106 34.7691ZM38.4362 34.7691H38.5193C40.3049 34.7691 41.7416 36.204 41.7416 37.997C41.7416 39.79 40.3049 41.2248 38.5193 41.2248C36.7337 41.2248 35.297 39.79 35.297 37.997C35.297 36.2316 36.6893 34.8134 38.4362 34.7691ZM13.6677 42.702C16.7145 42.702 19.1428 45.121 19.1428 48.153V50.5203H8.19253V48.153C8.19253 45.1209 10.6208 42.702 13.6677 42.702ZM26.0933 42.702C29.1402 42.702 31.5665 45.121 31.5665 48.153L31.5684 50.5222H20.62V48.1548C20.62 45.1227 23.0483 42.7038 26.0951 42.7038L26.0933 42.702ZM38.5189 42.702C41.5658 42.702 43.9941 45.121 43.9941 48.153V50.5203H33.0438V48.153C33.0438 45.1209 35.4721 42.702 38.5189 42.702Z" fill="url(#paint0_linear_6349_770)"/>
<defs>
<linearGradient id="paint0_linear_6349_770" x1="25.9996" y1="4.72656" x2="25.9996" y2="51.9996" gradientUnits="userSpaceOnUse">
<stop stop-color="#0AA818"/>
<stop offset="0.26" stop-color="#0DBD1C"/>
<stop offset="0.79" stop-color="#283C2A"/>
</linearGradient>
</defs>
</svg>
