<svg width="74" height="71" viewBox="0 0 74 71" fill="none" xmlns="http://www.w3.org/2000/svg">
<path d="M58.6839 25.2973H52.9528V20.6244C52.951 19.0758 52.3466 17.5911 51.2722 16.4961C50.1978 15.4011 48.7411 14.7851 47.2217 14.7832H26.5898C25.0704 14.7851 23.6137 15.4011 22.5393 16.4961C21.4649 17.5911 20.8605 19.0758 20.8587 20.6244V25.2973H15.1276C13.6082 25.2992 12.1515 25.9152 11.0772 27.0102C10.0028 28.1052 9.39837 29.5899 9.39655 31.1385V36.9797C9.39546 38.5757 9.79855 40.145 10.5668 41.5358C10.5566 41.5742 10.5486 41.6132 10.5428 41.6526V55.6715C10.5191 57.1936 11.0886 58.6633 12.1264 59.7582C13.1642 60.8532 14.5856 61.4841 16.079 61.5126H57.7325C59.226 61.4841 60.6473 60.8532 61.6851 59.7582C62.7229 58.6633 63.2924 57.1936 63.2688 55.6715V41.6526C63.263 41.6132 63.2549 41.5742 63.2447 41.5358C64.013 40.145 64.4161 38.5757 64.415 36.9797V31.1385C64.4132 29.5899 63.8088 28.1052 62.7344 27.0102C61.66 25.9152 60.2033 25.2992 58.6839 25.2973ZM23.1512 20.6244C23.1512 19.6949 23.5134 18.8034 24.1583 18.1462C24.8032 17.4889 25.6778 17.1197 26.5898 17.1197H47.2217C48.1337 17.1197 49.0083 17.4889 49.6532 18.1462C50.2981 18.8034 50.6604 19.6949 50.6604 20.6244V25.2973H48.3679V22.9609C48.3679 22.0313 48.0056 21.1399 47.3608 20.4827C46.7159 19.8254 45.8413 19.4561 44.9293 19.4561H28.8822C27.9703 19.4561 27.0956 19.8254 26.4507 20.4827C25.8059 21.1399 25.4436 22.0313 25.4436 22.9609V25.2973H23.1512V20.6244ZM46.0755 25.2973H27.736V22.9609C27.736 22.651 27.8568 22.3539 28.0717 22.1348C28.2867 21.9157 28.5782 21.7926 28.8822 21.7926H44.9293C45.2333 21.7926 45.5248 21.9157 45.7398 22.1348C45.9547 22.3539 46.0755 22.651 46.0755 22.9609V25.2973ZM11.689 31.1385C11.689 30.209 12.0513 29.3176 12.6961 28.6603C13.341 28.003 14.2156 27.6338 15.1276 27.6338H58.6839C59.5959 27.6338 60.4705 28.003 61.1154 28.6603C61.7603 29.3176 62.1225 30.209 62.1225 31.1385V36.9797C62.1207 38.8381 61.3956 40.6199 60.1062 41.934C58.8169 43.2482 57.0687 43.9872 55.2452 43.9891H51.8066V41.6526C51.8066 41.3428 51.6858 41.0456 51.4709 40.8266C51.2559 40.6075 50.9644 40.4844 50.6604 40.4844H46.0755C45.7715 40.4844 45.48 40.6075 45.265 40.8266C45.05 41.0456 44.9293 41.3428 44.9293 41.6526V43.9891H28.8822V41.6526C28.8822 41.3428 28.7615 41.0456 28.5465 40.8266C28.3316 40.6075 28.04 40.4844 27.736 40.4844H23.1512C22.8472 40.4844 22.5556 40.6075 22.3407 40.8266C22.1257 41.0456 22.0049 41.3428 22.0049 41.6526V43.9891H18.5663C16.7429 43.9872 14.9947 43.2482 13.7053 41.934C12.416 40.6199 11.6908 38.8381 11.689 36.9797V31.1385ZM47.2217 42.8209H49.5142V47.4938H47.2217V42.8209ZM24.2974 42.8209H26.5898V47.4938H24.2974V42.8209ZM57.7325 59.1762H16.079C15.1934 59.1481 14.3549 58.7635 13.7469 58.1066C13.1389 57.4498 12.8111 56.5741 12.8352 55.6715V44.2636C14.458 45.5986 16.4808 46.3264 18.5663 46.3256H22.0049V48.662C22.0049 48.9719 22.1257 49.269 22.3407 49.4881C22.5556 49.7072 22.8472 49.8303 23.1512 49.8303H27.736C28.04 49.8303 28.3316 49.7072 28.5465 49.4881C28.7615 49.269 28.8822 48.9719 28.8822 48.662V46.3256H44.9293V48.662C44.9293 48.9719 45.05 49.269 45.265 49.4881C45.48 49.7072 45.7715 49.8303 46.0755 49.8303H50.6604C50.9644 49.8303 51.2559 49.7072 51.4709 49.4881C51.6858 49.269 51.8066 48.9719 51.8066 48.662V46.3256H55.2452C57.3307 46.3264 59.3535 45.5986 60.9763 44.2636V55.6715C61.0004 56.5741 60.6726 57.4498 60.0646 58.1066C59.4566 58.7635 58.6181 59.1481 57.7325 59.1762Z" fill="#8F3A0D"/>
</svg>
