<svg width="41" height="41" viewBox="0 0 41 41" fill="none" xmlns="http://www.w3.org/2000/svg">
<mask id="path-1-inside-1_4296_509" fill="white">
<path d="M36.4111 5.74072L33.2382 2.5674C33.1816 2.50989 33.1139 2.4644 33.0392 2.43365L33.0308 2.43126C32.9616 2.40335 32.8877 2.38889 32.8131 2.38867H21.9553C21.7969 2.38867 21.645 2.45158 21.5331 2.56355C21.4211 2.67553 21.3582 2.8274 21.3582 2.98576V7.10606H16.525C16.3666 7.10606 16.2147 7.16897 16.1027 7.28094C15.9908 7.39292 15.9279 7.54479 15.9279 7.70315V11.8227H11.0982C10.9399 11.8227 10.788 11.8856 10.676 11.9975C10.564 12.1095 10.5011 12.2614 10.5011 12.4197V16.5396H5.66911C5.51075 16.5396 5.35888 16.6025 5.2469 16.7145C5.13493 16.8265 5.07202 16.9784 5.07202 17.1367V34.6911C5.07202 34.8495 5.13493 35.0013 5.2469 35.1133C5.35888 35.2253 5.51075 35.2882 5.66911 35.2882C5.82747 35.2882 5.97934 35.2253 6.09131 35.1133C6.20329 35.0013 6.2662 34.8495 6.2662 34.6911V17.7338H15.9279V20.318C15.9279 20.4764 15.9908 20.6282 16.1027 20.7402C16.2147 20.8522 16.3666 20.9151 16.525 20.9151H19.1123V32.0838C19.1123 32.0902 19.1103 32.0962 19.1103 32.1029C19.1103 32.1097 19.1103 32.1157 19.1123 32.122V36.2236H5.66911C5.51075 36.2236 5.35888 36.2865 5.2469 36.3985C5.13493 36.5105 5.07202 36.6624 5.07202 36.8207C5.07202 36.9791 5.13493 37.1309 5.2469 37.2429C5.35888 37.3549 5.51075 37.4178 5.66911 37.4178H19.7078C19.8662 37.4178 20.0181 37.3549 20.13 37.2429C20.242 37.1309 20.3049 36.9791 20.3049 36.8207V32.7004H25.1361C25.2945 32.7004 25.4464 32.6375 25.5584 32.5255C25.6703 32.4136 25.7332 32.2617 25.7332 32.1033V27.9838H30.5633C30.7216 27.9838 30.8735 27.9209 30.9855 27.8089C31.0975 27.697 31.1604 27.5451 31.1604 27.3867V23.266H35.994C36.1523 23.266 36.3042 23.2031 36.4162 23.0911C36.5282 22.9792 36.5911 22.8273 36.5911 22.6689V6.16704C36.5911 6.08756 36.5752 6.00889 36.5443 5.93566C36.5134 5.86244 36.4681 5.79615 36.4111 5.74072ZM33.4102 4.42713L34.5518 5.56916H33.4102V4.42713ZM17.1236 18.5781L18.2665 19.7209H17.1236V18.5781ZM24.5391 31.5062H20.3049V20.318C20.3045 20.2434 20.2901 20.1695 20.2623 20.1003L20.2595 20.0911C20.2296 20.0179 20.1854 19.9515 20.1294 19.8957L16.9489 16.7152C16.893 16.6591 16.8264 16.6148 16.753 16.585L16.7443 16.5822C16.675 16.5545 16.6012 16.54 16.5265 16.5396H11.6953V13.0168H21.3582V15.6006C21.3582 15.759 21.4211 15.9109 21.5331 16.0228C21.645 16.1348 21.7969 16.1977 21.9553 16.1977H24.5391V31.5062ZM23.6948 15.0039H22.5524V13.8615L23.6948 15.0039ZM29.9662 26.7896H25.7332V15.601C25.7331 15.5252 25.7183 15.45 25.6898 15.3797V15.3753C25.6595 15.3006 25.6143 15.2329 25.5569 15.1763L22.38 11.999C22.3238 11.9426 22.257 11.8979 22.1834 11.8676C22.18 11.8668 22.1767 11.8657 22.1734 11.8644C22.1047 11.8373 22.0315 11.8231 21.9577 11.8227H17.122V8.29984H26.7853V10.8836C26.7853 11.042 26.8482 11.1939 26.9602 11.3058C27.0722 11.4178 27.224 11.4807 27.3824 11.4807H29.9662V26.7896ZM29.1231 10.2869H27.9795V9.14292L29.1231 10.2869ZM35.3969 22.0719H31.1604V10.89C31.1604 10.8836 31.1604 10.8781 31.1604 10.8717C31.1585 10.8047 31.145 10.7386 31.1206 10.6762C31.1187 10.6687 31.1165 10.6613 31.1138 10.654C31.0848 10.585 31.0431 10.522 30.9908 10.4685C30.9908 10.4685 30.9884 10.4637 30.9864 10.4617L27.8059 7.28081C27.8059 7.28081 27.8011 7.27802 27.7992 7.27603C27.7451 7.22336 27.6816 7.18124 27.6121 7.15184C27.6069 7.14985 27.6017 7.14905 27.5965 7.14706C27.5296 7.12119 27.4585 7.10771 27.3868 7.10725H22.5524V3.58285H32.216V6.16704C32.216 6.3254 32.2789 6.47727 32.3909 6.58925C32.5029 6.70122 32.6547 6.76413 32.8131 6.76413H35.3969V22.0719Z"/>
</mask>
<path d="M36.4111 5.74072L33.2382 2.5674C33.1816 2.50989 33.1139 2.4644 33.0392 2.43365L33.0308 2.43126C32.9616 2.40335 32.8877 2.38889 32.8131 2.38867H21.9553C21.7969 2.38867 21.645 2.45158 21.5331 2.56355C21.4211 2.67553 21.3582 2.8274 21.3582 2.98576V7.10606H16.525C16.3666 7.10606 16.2147 7.16897 16.1027 7.28094C15.9908 7.39292 15.9279 7.54479 15.9279 7.70315V11.8227H11.0982C10.9399 11.8227 10.788 11.8856 10.676 11.9975C10.564 12.1095 10.5011 12.2614 10.5011 12.4197V16.5396H5.66911C5.51075 16.5396 5.35888 16.6025 5.2469 16.7145C5.13493 16.8265 5.07202 16.9784 5.07202 17.1367V34.6911C5.07202 34.8495 5.13493 35.0013 5.2469 35.1133C5.35888 35.2253 5.51075 35.2882 5.66911 35.2882C5.82747 35.2882 5.97934 35.2253 6.09131 35.1133C6.20329 35.0013 6.2662 34.8495 6.2662 34.6911V17.7338H15.9279V20.318C15.9279 20.4764 15.9908 20.6282 16.1027 20.7402C16.2147 20.8522 16.3666 20.9151 16.525 20.9151H19.1123V32.0838C19.1123 32.0902 19.1103 32.0962 19.1103 32.1029C19.1103 32.1097 19.1103 32.1157 19.1123 32.122V36.2236H5.66911C5.51075 36.2236 5.35888 36.2865 5.2469 36.3985C5.13493 36.5105 5.07202 36.6624 5.07202 36.8207C5.07202 36.9791 5.13493 37.1309 5.2469 37.2429C5.35888 37.3549 5.51075 37.4178 5.66911 37.4178H19.7078C19.8662 37.4178 20.0181 37.3549 20.13 37.2429C20.242 37.1309 20.3049 36.9791 20.3049 36.8207V32.7004H25.1361C25.2945 32.7004 25.4464 32.6375 25.5584 32.5255C25.6703 32.4136 25.7332 32.2617 25.7332 32.1033V27.9838H30.5633C30.7216 27.9838 30.8735 27.9209 30.9855 27.8089C31.0975 27.697 31.1604 27.5451 31.1604 27.3867V23.266H35.994C36.1523 23.266 36.3042 23.2031 36.4162 23.0911C36.5282 22.9792 36.5911 22.8273 36.5911 22.6689V6.16704C36.5911 6.08756 36.5752 6.00889 36.5443 5.93566C36.5134 5.86244 36.4681 5.79615 36.4111 5.74072ZM33.4102 4.42713L34.5518 5.56916H33.4102V4.42713ZM17.1236 18.5781L18.2665 19.7209H17.1236V18.5781ZM24.5391 31.5062H20.3049V20.318C20.3045 20.2434 20.2901 20.1695 20.2623 20.1003L20.2595 20.0911C20.2296 20.0179 20.1854 19.9515 20.1294 19.8957L16.9489 16.7152C16.893 16.6591 16.8264 16.6148 16.753 16.585L16.7443 16.5822C16.675 16.5545 16.6012 16.54 16.5265 16.5396H11.6953V13.0168H21.3582V15.6006C21.3582 15.759 21.4211 15.9109 21.5331 16.0228C21.645 16.1348 21.7969 16.1977 21.9553 16.1977H24.5391V31.5062ZM23.6948 15.0039H22.5524V13.8615L23.6948 15.0039ZM29.9662 26.7896H25.7332V15.601C25.7331 15.5252 25.7183 15.45 25.6898 15.3797V15.3753C25.6595 15.3006 25.6143 15.2329 25.5569 15.1763L22.38 11.999C22.3238 11.9426 22.257 11.8979 22.1834 11.8676C22.18 11.8668 22.1767 11.8657 22.1734 11.8644C22.1047 11.8373 22.0315 11.8231 21.9577 11.8227H17.122V8.29984H26.7853V10.8836C26.7853 11.042 26.8482 11.1939 26.9602 11.3058C27.0722 11.4178 27.224 11.4807 27.3824 11.4807H29.9662V26.7896ZM29.1231 10.2869H27.9795V9.14292L29.1231 10.2869ZM35.3969 22.0719H31.1604V10.89C31.1604 10.8836 31.1604 10.8781 31.1604 10.8717C31.1585 10.8047 31.145 10.7386 31.1206 10.6762C31.1187 10.6687 31.1165 10.6613 31.1138 10.654C31.0848 10.585 31.0431 10.522 30.9908 10.4685C30.9908 10.4685 30.9884 10.4637 30.9864 10.4617L27.8059 7.28081C27.8059 7.28081 27.8011 7.27802 27.7992 7.27603C27.7451 7.22336 27.6816 7.18124 27.6121 7.15184C27.6069 7.14985 27.6017 7.14905 27.5965 7.14706C27.5296 7.12119 27.4585 7.10771 27.3868 7.10725H22.5524V3.58285H32.216V6.16704C32.216 6.3254 32.2789 6.47727 32.3909 6.58925C32.5029 6.70122 32.6547 6.76413 32.8131 6.76413H35.3969V22.0719Z" fill="url(#paint0_linear_4296_509)" stroke="url(#paint1_linear_4296_509)" stroke-width="1.8" mask="url(#path-1-inside-1_4296_509)"/>
<path d="M14.9971 25.2676C14.8852 25.1557 14.7333 25.0928 14.575 25.0928C14.4167 25.0928 14.2648 25.1557 14.1528 25.2676L11.9946 27.4247L11.2223 26.6528C11.1097 26.5441 10.9589 26.4839 10.8023 26.4852C10.6458 26.4866 10.496 26.5494 10.3853 26.6601C10.2746 26.7708 10.2118 26.9206 10.2105 27.0771C10.2091 27.2337 10.2693 27.3845 10.3781 27.4971L11.5722 28.6913C11.6842 28.8032 11.836 28.8661 11.9944 28.8661C12.1527 28.8661 12.3045 28.8032 12.4165 28.6913L14.9959 26.1119C15.108 26.0001 15.1711 25.8483 15.1713 25.69C15.1716 25.5317 15.1089 25.3797 14.9971 25.2676Z" fill="url(#paint2_linear_4296_509)"/>
<path d="M17.1221 26.9783C17.1222 26.1013 16.8622 25.244 16.375 24.5148C15.8878 23.7856 15.1953 23.2172 14.3851 22.8815C13.5749 22.5459 12.6833 22.4581 11.8232 22.6291C10.9631 22.8002 10.173 23.2225 9.55283 23.8426C8.93271 24.4628 8.5104 25.2528 8.33933 26.113C8.16826 26.9731 8.2561 27.8647 8.59174 28.6749C8.92739 29.4851 9.49577 30.1776 10.225 30.6648C10.9542 31.152 11.8115 31.412 12.6885 31.4119C13.864 31.4105 14.9909 30.943 15.822 30.1118C16.6532 29.2807 17.1207 28.1538 17.1221 26.9783ZM9.44873 26.9783C9.44865 26.3375 9.63859 25.7111 9.99454 25.1783C10.3505 24.6454 10.8564 24.2301 11.4484 23.9849C12.0404 23.7396 12.6918 23.6754 13.3203 23.8003C13.9488 23.9253 14.5261 24.2338 14.9793 24.6869C15.4324 25.14 15.741 25.7172 15.866 26.3457C15.9911 26.9742 15.9269 27.6256 15.6817 28.2176C15.4365 28.8097 15.0213 29.3157 14.4885 29.6717C13.9557 30.0277 13.3293 30.2177 12.6885 30.2177C11.8294 30.2172 11.0055 29.8758 10.3978 29.2685C9.79009 28.6611 9.44819 27.8375 9.44713 26.9783H9.44873Z" fill="url(#paint3_linear_4296_509)"/>
<defs>
<linearGradient id="paint0_linear_4296_509" x1="20.8315" y1="2.38867" x2="20.8315" y2="37.4178" gradientUnits="userSpaceOnUse">
<stop stop-color="#107B8E"/>
<stop offset="1" stop-color="#59C1D3"/>
</linearGradient>
<linearGradient id="paint1_linear_4296_509" x1="20.8315" y1="2.38867" x2="20.8315" y2="37.4178" gradientUnits="userSpaceOnUse">
<stop stop-color="#107B8E"/>
<stop offset="1" stop-color="#59C1D3"/>
</linearGradient>
<linearGradient id="paint2_linear_4296_509" x1="12.6909" y1="25.0928" x2="12.6909" y2="28.8661" gradientUnits="userSpaceOnUse">
<stop stop-color="#107B8E"/>
<stop offset="1" stop-color="#59C1D3"/>
</linearGradient>
<linearGradient id="paint3_linear_4296_509" x1="12.6881" y1="22.5439" x2="12.6881" y2="31.4119" gradientUnits="userSpaceOnUse">
<stop stop-color="#107B8E"/>
<stop offset="1" stop-color="#59C1D3"/>
</linearGradient>
</defs>
</svg>
