<svg width="58" height="58" viewBox="0 0 58 58" fill="none" xmlns="http://www.w3.org/2000/svg">
<path d="M16.0231 22.0491C16.0231 21.6848 16.3185 21.3887 16.6834 21.3887H38.2933C38.6576 21.3887 38.9536 21.6842 38.9536 22.0491C38.9536 22.4134 38.6582 22.7094 38.2933 22.7094H16.6828C16.3185 22.7094 16.0231 22.414 16.0231 22.0491ZM16.6828 28.0152H38.2926C38.657 28.0152 38.953 27.7198 38.953 27.3549C38.953 26.9906 38.6576 26.6945 38.2926 26.6945H16.6828C16.3185 26.6945 16.0225 26.99 16.0225 27.3549C16.0231 27.7198 16.3185 28.0152 16.6828 28.0152ZM19.9314 17.1348C18.6343 15.796 17.8331 13.9732 17.8331 11.9655C17.8331 7.86567 21.1688 4.53006 25.2686 4.53006C29.3685 4.53006 32.7035 7.86567 32.7035 11.9655C32.7035 13.9726 31.9024 15.7954 30.6052 17.1342C30.5581 17.2043 30.4971 17.2647 30.4264 17.3124C29.0882 18.6035 27.2702 19.4004 25.2686 19.4004C23.2664 19.4004 21.4485 18.6035 20.1102 17.3124C20.039 17.2653 19.9785 17.2049 19.9314 17.1348ZM25.268 18.0803C26.8292 18.0803 28.255 17.4913 29.3371 16.5246C28.8827 14.6601 27.2243 13.34 25.2692 13.3394C25.2686 13.3394 25.2686 13.3394 25.268 13.3394C25.2674 13.3394 25.2674 13.3394 25.2668 13.3394C23.3117 13.34 21.6533 14.6595 21.199 16.5246C22.2804 17.4913 23.7069 18.0803 25.268 18.0803ZM25.2674 12.0199H25.268C26.2003 12.0193 26.9591 11.1934 26.9591 10.1784C26.9591 9.16281 26.2003 8.33692 25.268 8.33692C24.3358 8.33692 23.577 9.16281 23.577 10.1784C23.577 11.1934 24.3352 12.0193 25.2674 12.0199ZM19.1532 11.9655C19.1532 13.2264 19.5369 14.3985 20.1936 15.373C20.7591 14.0288 21.8303 12.9781 23.1601 12.4332C22.603 11.8592 22.2569 11.0605 22.2569 10.1784C22.2569 8.4354 23.6078 7.01681 25.268 7.01681C26.9283 7.01681 28.2792 8.4354 28.2792 10.1784C28.2792 11.0605 27.933 11.8592 27.376 12.4332C28.7057 12.9787 29.7769 14.0288 30.3424 15.373C30.9985 14.3985 31.3822 13.2258 31.3822 11.9655C31.3822 8.59369 28.6393 5.85077 25.2674 5.85077C21.8956 5.85077 19.1532 8.59369 19.1532 11.9655ZM52.4205 53.3933C52.3879 54.0415 52.1093 54.659 51.6363 55.132L51.4901 55.2783C50.9669 55.8015 50.2878 56.0661 49.6268 56.0661C49.0263 56.0661 48.4402 55.848 47.9992 55.4069L41.7841 49.1919C41.6603 49.068 41.5908 48.9001 41.5908 48.7249C41.5908 48.5497 41.6603 48.3817 41.7841 48.2578L41.827 48.2149L40.7444 47.1323C39.8544 47.731 38.8654 48.1896 37.8045 48.4874V50.8956C37.8045 52.0013 36.9049 52.9003 35.7999 52.9003H7.58104C6.47542 52.9003 5.57642 52.0006 5.57642 50.8956V9.92708C5.57642 8.82146 6.47602 7.92246 7.58104 7.92246H11.5655V3.93859C11.5655 2.83296 12.4651 1.93396 13.5701 1.93396H34.1094C34.6525 1.93396 35.1425 2.13696 35.5268 2.52121L43.2057 10.2002C43.59 10.5844 43.793 11.0744 43.793 11.6175V33.4811C44.263 34.2684 44.6334 35.1329 44.8823 36.0615C45.5855 38.6866 45.2249 41.4283 43.8661 43.7822C43.7477 43.9876 43.6202 44.1858 43.4897 44.3809L44.576 45.4672L44.6255 45.4177C44.8805 45.1627 45.2937 45.1597 45.5523 45.411C46.8942 46.7154 48.239 48.0778 49.5392 49.3955C50.269 50.135 51.0236 50.8999 51.765 51.6412C52.2211 52.0979 52.4543 52.7202 52.4205 53.3933ZM43.6069 36.4029C42.3436 31.6868 37.4782 28.8786 32.7627 30.1419C30.4784 30.7539 28.5692 32.219 27.3862 34.2671C26.7198 35.4211 26.3295 36.682 26.225 37.9719C26.225 37.9943 26.2238 38.0166 26.2214 38.039C26.1495 39.0171 26.2407 40.011 26.5017 40.9861C27.1138 43.2704 28.5789 45.1802 30.627 46.3626C32.6751 47.5449 35.061 47.8591 37.3459 47.2471C39.6303 46.635 41.54 45.1699 42.7224 43.1218C43.9054 41.0737 44.2195 38.6872 43.6069 36.4029ZM35.3268 4.1875V9.71563C35.3268 10.0932 35.6337 10.4001 36.0113 10.4001H41.5394L35.3268 4.1875ZM12.8856 44.9071C12.8856 45.2847 13.1925 45.5916 13.5701 45.5916H27.5693C26.4655 44.3966 25.6595 42.9442 25.2263 41.328C24.9871 40.4345 24.8741 39.5276 24.8783 38.6274H16.6828C16.3185 38.6274 16.0225 38.332 16.0225 37.9671C16.0225 37.6028 16.3179 37.3067 16.6828 37.3067H24.9702C25.1472 36.0198 25.5731 34.7662 26.2425 33.6068C26.2987 33.5095 26.3579 33.4159 26.4171 33.321H16.6828C16.3185 33.321 16.0225 33.0256 16.0225 32.6607C16.0225 32.2958 16.3179 32.0003 16.6828 32.0003H27.388C28.7045 30.4863 30.4397 29.3964 32.4207 28.8659C36.1624 27.863 39.9861 29.0919 42.4723 31.7333V11.7203H36.0113C34.9057 11.7203 34.0067 10.8206 34.0067 9.71563V3.25406H13.5701C13.1925 3.25406 12.8856 3.56098 12.8856 3.93859V44.9071ZM36.4838 50.8962V48.7684C36.0023 48.8378 35.5189 48.8735 35.038 48.8735C33.275 48.8735 31.535 48.4113 29.9672 47.5063C29.6506 47.3232 29.3474 47.1244 29.0555 46.9124H13.5707C12.4651 46.9124 11.5661 46.0128 11.5661 44.9077V9.24377H7.58165C7.20404 9.24377 6.89712 9.55069 6.89712 9.92829V50.8968C6.89712 51.2744 7.20404 51.5814 7.58165 51.5814H35.7999C36.1763 51.5808 36.4838 51.2738 36.4838 50.8962ZM42.7599 47.2821L43.6419 46.4L42.6783 45.4364C42.4022 45.7499 42.1068 46.043 41.7956 46.3185L42.7599 47.2821ZM43.184 48.7255L46.2386 51.7801L48.1502 49.8685C47.1467 48.8523 46.122 47.818 45.0974 46.8127L43.184 48.7255ZM50.8309 52.5746C50.2479 51.9916 49.6576 51.3953 49.0782 50.808L47.1727 52.7136L48.9326 54.4735C49.338 54.8789 50.0817 54.8203 50.5566 54.3454L50.7028 54.1992C50.9445 53.9575 51.0859 53.6482 51.1022 53.3274C51.1167 53.0314 51.0206 52.7637 50.8309 52.5746ZM42.2554 36.7648C42.7707 38.6884 42.5061 40.6973 41.5104 42.4216C40.5148 44.1459 38.9071 45.3796 36.9834 45.8949C36.34 46.0677 35.6923 46.1499 35.0555 46.1499C31.764 46.1499 28.7444 43.9507 27.8526 40.6236C26.7887 36.653 29.1534 32.5568 33.1246 31.4928C35.0477 30.9775 37.0571 31.2421 38.7814 32.2378C40.5063 33.234 41.74 34.8417 42.2554 36.7648ZM40.98 37.1067C40.5559 35.5238 39.5409 34.2007 38.1217 33.3814C36.7025 32.5622 35.0495 32.3447 33.4666 32.7688C30.1992 33.6443 28.2532 37.0149 29.1286 40.2822C30.0041 43.5496 33.3747 45.4956 36.6421 44.6201C38.225 44.196 39.5481 43.181 40.3674 41.7618C41.1866 40.3427 41.4041 38.6896 40.98 37.1067Z" fill="#8201A3"/>
</svg>
